<?xml version="1.0" standalone="no"?>
<!DOCTYPE svg PUBLIC "-//W3C//DTD SVG 1.1//EN" "http://www.w3.org/Graphics/SVG/1.1/DTD/svg11.dtd" >
<svg xmlns="http://www.w3.org/2000/svg" xmlns:xlink="http://www.w3.org/1999/xlink" version="1.1">
<metadata>
Created by FontForge 20170731 at Wed Mar 21 03:15:01 2018
 By Aleksey,,,
Copyright (c) 2018, Sam,,,
</metadata>
<defs>
<font id="5x7" horiz-adv-x="714" >
  <font-face 
    font-family="5x7"
    font-weight="400"
    font-stretch="normal"
    units-per-em="1000"
    panose-1="2 0 5 9 0 0 0 0 0 0"
    ascent="800"
    descent="-200"
    x-height="515"
    cap-height="800"
    bbox="0 -200 714 800"
    underline-thickness="50"
    underline-position="-200"
    unicode-range="U+0020-FFFD"
  />
<missing-glyph 
d="M33 0v666h265v-666h-265zM66 33h199v600h-199v-600z" />
    <glyph glyph-name=".notdef" 
d="M33 0v666h265v-666h-265zM66 33h199v600h-199v-600z" />
    <glyph glyph-name="uni0000" 
d="M0 658h142v-143h-142v143zM285 658h143v-143h-143v143zM571 658h143v-143h-143v143zM0 372h142v-143h-142v143zM571 372h143v-143h-143v143zM0 86h142v-143h-142v143zM285 86h143v-143h-143v143zM571 86h143v-143h-143v143z" />
    <glyph glyph-name="uni0000" 
d="M0 658h142v-143h-142v143zM285 658h143v-143h-143v143zM571 658h143v-143h-143v143zM0 372h142v-143h-142v143zM571 372h143v-143h-143v143zM0 86h142v-143h-142v143zM285 86h143v-143h-143v143zM571 86h143v-143h-143v143z" />
    <glyph glyph-name="nonmarkingreturn" 
 />
    <glyph glyph-name="space" unicode=" " 
 />
    <glyph glyph-name="exclam" unicode="!" 
d="M285 800h143v-571h-143v571zM285 86h143v-143h-143v143z" />
    <glyph glyph-name="quotedbl" unicode="&#x22;" 
d="M142 800h143v-428h-143v428zM428 800h143v-428h-143v428z" />
    <glyph glyph-name="numbersign" unicode="#" 
d="M142 658h143v-143h143v143h143v-143h143v-143h-143v-143h143v-143h-143v-143h-143v143h-143v-143h-143v143h-142v143h142v143h-142v143h142v143zM285 372v-143h143v143h-143z" />
    <glyph glyph-name="dollar" unicode="$" 
d="M142 658h429v-143h-143v-143h143v-143h143v-143h-143v-143h-429v143h143v143h-143v143h-142v143h142v143zM142 515v-143h143v143h-143zM428 229v-143h143v143h-143z" />
    <glyph glyph-name="percent" unicode="%" 
d="M0 800h142v-285h-142v285zM428 658h143v-143h-143v-143h-143v-143h-143v-143h-142v143h142v143h143v143h143v143zM428 229h143v-286h-143v286z" />
    <glyph glyph-name="ampersand" unicode="&#x26;" 
d="M142 658h143v-143h143v-143h-143v-143h143v-143h143v-143h-143v143h-143v-143h-143v143h-142v143h142v143h-142v143h142v143zM142 515v-143h143v143h-143zM142 229v-143h143v143h-143z" />
    <glyph glyph-name="quotesingle" unicode="'" 
d="M285 800h143v-428h-143v428z" />
    <glyph glyph-name="parenleft" unicode="(" 
d="M285 800h143v-142h-143v-572h143v-143h-143v143h-143v572h143v142z" />
    <glyph glyph-name="parenright" unicode=")" 
d="M142 800h143v-142h143v-572h-143v-143h-143v143h143v572h-143v142z" />
    <glyph glyph-name="asterisk" unicode="*" 
d="M142 658h143v-143h143v143h143v-143h-143v-143h143v-143h-143v-143h143v-143h-143v143h-143v-143h-143v143h143v143h-143v143h143v143h-143v143z" />
    <glyph glyph-name="plus" unicode="+" 
d="M285 658h143v-286h286v-143h-286v-286h-143v286h-285v143h285v286z" />
    <glyph glyph-name="comma" unicode="," 
d="M285 229h286v-143h-143v-143h-143v-143h-143v143h143v286z" />
    <glyph glyph-name="hyphen" unicode="-" 
d="M0 372h571v-143h-571v143z" />
    <glyph glyph-name="period" unicode="." 
d="M142 229h286v-286h-286v286z" />
    <glyph glyph-name="slash" unicode="/" 
d="M428 658h143v-143h-143v-143h-143v-143h-143v-143h-142v143h142v143h143v143h143v143z" />
    <glyph glyph-name="zero" unicode="0" 
d="M285 800h143v-142h143v-572h-143v-143h-143v143h-143v572h143v142zM285 658v-572h143v572h-143z" />
    <glyph glyph-name="one" unicode="1" 
d="M285 800h143v-714h143v-143h-429v143h143v429h-143v143h143v142z" />
    <glyph glyph-name="two" unicode="2" 
d="M142 800h286v-142h143v-286h-143v-143h-143v-143h286v-143h-571v143h142v143h143v143h143v286h-286v-143h-142v143h142v142z" />
    <glyph glyph-name="three" unicode="3" 
d="M0 800h571v-285h-143v-143h143v-286h-143v-143h-286v143h-142v143h142v-143h286v286h-286v143h286v143h-428v142z" />
    <glyph glyph-name="four" unicode="4" 
d="M285 800h143v-428h143v-143h-143v-286h-143v286h-285v286h142v143h143v142zM142 515v-143h143v143h-143z" />
    <glyph glyph-name="five" unicode="5" 
d="M0 800h571v-142h-429v-143h286v-143h143v-286h-143v-143h-286v143h-142v143h142v-143h286v286h-428v428z" />
    <glyph glyph-name="six" unicode="6" 
d="M142 800h286v-142h-286v-143h286v-143h143v-286h-143v-143h-286v143h-142v572h142v142zM142 372v-286h286v286h-286z" />
    <glyph glyph-name="seven" unicode="7" 
d="M0 800h571v-285h-143v-286h-143v-286h-143v286h143v286h143v143h-428v142z" />
    <glyph glyph-name="eight" unicode="8" 
d="M142 800h286v-142h143v-143h-143v-143h143v-286h-143v-143h-286v143h-142v286h142v143h-142v143h142v142zM142 658v-143h286v143h-286zM142 372v-286h286v286h-286z" />
    <glyph glyph-name="nine" unicode="9" 
d="M142 800h286v-142h143v-572h-143v-143h-286v143h286v143h-286v143h-142v286h142v142zM142 658v-286h286v286h-286z" />
    <glyph glyph-name="colon" unicode=":" 
d="M142 658h286v-286h-286v286zM142 229h286v-286h-286v286z" />
    <glyph glyph-name="semicolon" unicode=";" 
d="M142 658h286v-286h-286v286zM142 229h286v-143h-143v-143h-143v-143h-142v143h142v286z" />
    <glyph glyph-name="less" unicode="&#x3c;" 
d="M428 658h143v-143h-143v-143h-143v-143h143v-143h143v-143h-143v143h-143v143h-143v143h143v143h143v143z" />
    <glyph glyph-name="equal" unicode="=" 
d="M0 515h571v-143h-571v143zM0 229h571v-143h-571v143z" />
    <glyph glyph-name="greater" unicode="&#x3e;" 
d="M142 658h143v-143h143v-143h143v-143h-143v-143h-143v-143h-143v143h143v143h143v143h-143v143h-143v143z" />
    <glyph glyph-name="question" unicode="?" 
d="M285 800h143v-142h143v-286h-143v-143h-143v143h143v286h-143v-143h-143v143h143v142zM285 86h143v-143h-143v143z" />
    <glyph glyph-name="at" unicode="@" 
d="M142 800h286v-142h143v-429h-286v286h143v143h-286v-572h286v-143h-286v143h-142v572h142v142z" />
    <glyph glyph-name="A" unicode="A" 
d="M142 800h286v-142h143v-715h-143v286h-286v-286h-142v715h142v142zM142 658v-286h286v286h-286z" />
    <glyph glyph-name="B" unicode="B" 
d="M0 800h428v-142h143v-143h-143v-143h143v-286h-143v-143h-428v857zM142 658v-143h286v143h-286zM142 372v-286h286v286h-286z" />
    <glyph glyph-name="C" unicode="C" 
d="M142 800h286v-142h143v-143h-143v143h-286v-572h286v143h143v-143h-143v-143h-286v143h-142v572h142v142z" />
    <glyph glyph-name="D" unicode="D" 
d="M0 800h428v-142h143v-572h-143v-143h-428v857zM142 658v-572h286v572h-286z" />
    <glyph glyph-name="E" unicode="E" 
d="M0 800h571v-142h-429v-143h286v-143h-286v-286h429v-143h-571v857z" />
    <glyph glyph-name="F" unicode="F" 
d="M0 800h571v-142h-429v-143h286v-143h-286v-429h-142v857z" />
    <glyph glyph-name="G" unicode="G" 
d="M142 800h286v-142h143v-143h-143v143h-286v-572h286v143h-143v143h286v-429h-429v143h-142v572h142v142z" />
    <glyph glyph-name="H" unicode="H" 
d="M0 800h142v-285h286v285h143v-857h-143v429h-286v-429h-142v857z" />
    <glyph glyph-name="I" unicode="I" 
d="M142 800h429v-142h-143v-572h143v-143h-429v143h143v572h-143v142z" />
    <glyph glyph-name="J" unicode="J" 
d="M428 800h143v-714h-143v-143h-286v143h-142v143h142v-143h286v714z" />
    <glyph glyph-name="K" unicode="K" 
d="M0 800h142v-285h143v143h143v142h143v-142h-143v-143h-143v-286h143v-143h143v-143h-143v143h-143v143h-143v-286h-142v857z" />
    <glyph glyph-name="L" unicode="L" 
d="M0 800h142v-714h429v-143h-571v857z" />
    <glyph glyph-name="M" unicode="M" 
d="M0 800h142v-142h286v142h143v-857h-143v429h-286v-429h-142v857z" />
    <glyph glyph-name="N" unicode="N" 
d="M0 800h142v-142h143v-286h143v428h143v-857h-143v143h-143v286h-143v-429h-142v857z" />
    <glyph glyph-name="O" unicode="O" 
d="M142 800h286v-142h143v-572h-143v-143h-286v143h-142v572h142v142zM142 658v-572h286v572h-286z" />
    <glyph glyph-name="P" unicode="P" 
d="M0 800h428v-142h143v-286h-143v-143h-286v-286h-142v857zM142 658v-286h286v286h-286z" />
    <glyph glyph-name="Q" unicode="Q" 
d="M142 800h286v-142h143v-572h-143v-143h143v-143h-143v143h-286v143h-142v572h142v142zM142 658v-429h143v-143h143v572h-286z" />
    <glyph glyph-name="R" unicode="R" 
d="M0 800h428v-142h143v-286h-143v-286h143v-143h-143v143h-143v143h-143v-286h-142v857zM142 658v-286h286v286h-286z" />
    <glyph glyph-name="S" unicode="S" 
d="M142 800h286v-142h143v-143h-143v143h-286v-143h143v-143h143v-143h143v-143h-143v-143h-286v143h-142v143h142v-143h286v143h-143v143h-143v143h-142v143h142v142z" />
    <glyph glyph-name="T" unicode="T" 
d="M142 800h429v-142h-143v-715h-143v715h-143v142z" />
    <glyph glyph-name="U" unicode="U" 
d="M0 800h142v-714h286v714h143v-714h-143v-143h-286v143h-142v714z" />
    <glyph glyph-name="V" unicode="V" 
d="M0 800h142v-571h286v571h143v-571h-143v-286h-286v286h-142v571z" />
    <glyph glyph-name="W" unicode="W" 
d="M0 800h142v-428h286v428h143v-857h-143v143h-286v-143h-142v857z" />
    <glyph glyph-name="X" unicode="X" 
d="M0 800h142v-285h286v285h143v-285h-143v-286h143v-286h-143v286h-286v-286h-142v286h142v286h-142v285z" />
    <glyph glyph-name="Y" unicode="Y" 
d="M142 800h143v-428h143v428h143v-428h-143v-429h-143v429h-143v428z" />
    <glyph glyph-name="Z" unicode="Z" 
d="M0 800h571v-285h-143v-143h-143v-143h-143v-143h429v-143h-571v286h142v143h143v143h143v143h-428v142z" />
    <glyph glyph-name="bracketleft" unicode="[" 
d="M142 800h429v-142h-286v-572h286v-143h-429v857z" />
    <glyph glyph-name="backslash" unicode="\" 
d="M0 658h142v-143h143v-143h143v-143h143v-143h-143v143h-143v143h-143v143h-142v143z" />
    <glyph glyph-name="bracketright" unicode="]" 
d="M142 800h429v-857h-429v143h286v572h-286v142z" />
    <glyph glyph-name="asciicircum" unicode="^" 
d="M285 800h143v-142h143v-143h-143v143h-143v-143h-143v143h143v142z" />
    <glyph glyph-name="underscore" unicode="_" 
d="M0 86h571v-143h-571v143z" />
    <glyph glyph-name="grave" unicode="`" 
d="M142 800h143v-142h143v-143h-143v143h-143v142z" />
    <glyph glyph-name="a" unicode="a" 
d="M142 515h429v-572h-143v143h-143v-143h-143v143h-142v286h142v143zM142 372v-286h143v143h143v143h-286z" />
    <glyph glyph-name="b" unicode="b" 
d="M0 800h142v-285h286v-143h143v-286h-143v-143h-428v857zM142 372v-286h286v286h-286z" />
    <glyph glyph-name="c" unicode="c" 
d="M142 515h286v-143h-286v-286h286v-143h-286v143h-142v286h142v143z" />
    <glyph glyph-name="d" unicode="d" 
d="M428 800h143v-857h-429v143h-142v286h142v143h286v285zM142 372v-286h286v286h-286z" />
    <glyph glyph-name="e" unicode="e" 
d="M142 515h286v-143h143v-143h-286v-143h143v-143h-286v143h-142v286h142v143zM142 372v-143h143v143h-143z" />
    <glyph glyph-name="f" unicode="f" 
d="M285 800h143v-142h143v-143h-143v143h-143v-286h143v-143h-143v-286h-143v286h-142v143h142v286h143v142z" />
    <glyph glyph-name="g" unicode="g" 
d="M142 515h429v-286h-143v-143h-286v-143h429v-143h-429v143h-142v143h142v143h-142v143h142v143zM142 372v-143h286v143h-286z" />
    <glyph glyph-name="h" unicode="h" 
d="M0 800h142v-285h286v-143h143v-429h-143v429h-286v-429h-142v857z" />
    <glyph glyph-name="i" unicode="i" 
d="M285 800h143v-142h-143v142zM142 515h286v-429h143v-143h-429v143h143v286h-143v143z" />
    <glyph glyph-name="j" unicode="j" 
d="M428 800h143v-142h-143v142zM428 515h143v-572h-143v-143h-143v143h-143v143h143v-143h143v572z" />
    <glyph glyph-name="k" unicode="k" 
d="M0 800h142v-428h143v143h143v-143h-143v-143h143v-143h143v-143h-143v143h-143v143h-143v-286h-142v857z" />
    <glyph glyph-name="l" unicode="l" 
d="M142 800h286v-714h143v-143h-429v143h143v572h-143v142z" />
    <glyph glyph-name="m" unicode="m" 
d="M0 515h142v-143h143v143h143v-143h143v-429h-143v286h-286v-286h-142v572z" />
    <glyph glyph-name="n" unicode="n" 
d="M0 515h428v-143h143v-429h-143v429h-286v-429h-142v572z" />
    <glyph glyph-name="o" unicode="o" 
d="M142 515h286v-143h143v-286h-143v-143h-286v143h-142v286h142v143zM142 372v-286h286v286h-286z" />
    <glyph glyph-name="p" unicode="p" 
d="M0 515h428v-143h143v-286h-143v-143h-286v-143h-142v715zM142 372v-286h286v286h-286z" />
    <glyph glyph-name="q" unicode="q" 
d="M142 515h429v-715h-143v143h-286v143h-142v286h142v143zM142 372v-286h286v286h-286z" />
    <glyph glyph-name="r" unicode="r" 
d="M0 515h428v-143h143v-143h-143v143h-286v-429h-142v572z" />
    <glyph glyph-name="s" unicode="s" 
d="M142 515h429v-143h-286v-143h286v-143h-143v-143h-428v143h285v143h-285v143h142v143z" />
    <glyph glyph-name="t" unicode="t" 
d="M142 800h143v-285h143v-143h-143v-286h286v-143h-286v143h-143v286h-142v143h142v285z" />
    <glyph glyph-name="u" unicode="u" 
d="M0 515h142v-429h286v429h143v-572h-429v143h-142v429z" />
    <glyph glyph-name="v" unicode="v" 
d="M142 515h143v-429h143v429h143v-429h-143v-143h-143v143h-143v429z" />
    <glyph glyph-name="w" unicode="w" 
d="M0 515h142v-286h286v286h143v-572h-571v572z" />
    <glyph glyph-name="x" unicode="x" 
d="M0 515h142v-143h286v143h143v-143h-143v-286h143v-143h-143v143h-286v-143h-142v143h142v286h-142v143z" />
    <glyph glyph-name="y" unicode="y" 
d="M0 515h142v-286h143v-143h143v429h143v-429h-143v-143h-143v-143h-143v143h143v143h-143v143h-142v286z" />
    <glyph glyph-name="z" unicode="z" 
d="M0 515h571v-143h-143v-143h-143v-143h286v-143h-571v143h142v143h143v143h-285v143z" />
    <glyph glyph-name="braceleft" unicode="{" 
d="M428 800h143v-142h-143v-572h143v-143h-143v143h-143v286h-143v143h143v143h143v142z" />
    <glyph glyph-name="bar" unicode="|" 
d="M285 800h143v-857h-143v857z" />
    <glyph glyph-name="braceright" unicode="}" 
d="M142 800h143v-142h143v-143h143v-143h-143v-286h-143v-143h-143v143h143v572h-143v142z" />
    <glyph glyph-name="asciitilde" unicode="~" 
d="M142 800h143v-142h143v142h143v-142h-143v-143h-143v143h-143v-143h-142v143h142v142z" />
    <glyph glyph-name="uni00A0" unicode="&#xa0;" 
 />
    <glyph glyph-name="exclamdown" unicode="&#xa1;" 
d="M285 800h143v-142h-143v142zM285 515h143v-572h-143v572z" />
    <glyph glyph-name="cent" unicode="&#xa2;" 
d="M285 658h143v-143h143v-143h-143v-286h143v-143h-143v-143h-143v143h-143v143h-142v286h142v143h143v143zM142 372v-286h143v286h-143z" />
    <glyph glyph-name="sterling" unicode="&#xa3;" 
d="M285 658h286v-143h-286v-143h143v-143h-143v-143h286v-143h-286v143h-143v-143h-142v143h142v143h-142v143h142v143h143v143z" />
    <glyph glyph-name="currency" unicode="&#xa4;" 
d="M0 658h142v-143h429v143h143v-143h-143v-429h143v-143h-143v143h-429v-143h-142v143h142v429h-142v143zM285 372v-143h143v143h-143z" />
    <glyph glyph-name="yen" unicode="&#xa5;" 
d="M142 800h143v-285h143v285h143v-285h-143v-143h143v-143h-143v-286h-143v286h-143v143h143v143h-143v285z" />
    <glyph glyph-name="brokenbar" unicode="&#xa6;" 
d="M285 658h143v-286h-143v286zM285 229h143v-286h-143v286z" />
    <glyph glyph-name="section" unicode="&#xa7;" 
d="M285 800h286v-142h-286v-143h143v-143h143v-429h-143v-143h-286v143h286v143h-143v143h-143v429h143v142zM285 372v-143h143v143h-143z" />
    <glyph glyph-name="dieresis" unicode="&#xa8;" 
d="M142 800h143v-142h-143v142zM428 800h143v-142h-143v142z" />
    <glyph glyph-name="copyright" unicode="&#xa9;" 
d="M142 800h429v-142h143v-715h-143v-143h-429v143h-142v715h142v142zM142 658v-286h143v-143h-143v-286h429v715h-429zM285 515h143v-143h-143v143zM285 229h143v-143h-143v143z" />
    <glyph glyph-name="ordfeminine" unicode="&#xaa;" 
d="M142 800h286v-428h-286v143h-142v143h142v142zM142 658v-143h143v143h-143z" />
    <glyph glyph-name="guillemotleft" unicode="&#xab;" 
d="M142 515h143v-143h-143v-143h143v-143h-143v143h-142v143h142v143zM571 515h143v-143h-143v-143h143v-143h-143v143h-143v143h143v143z" />
    <glyph glyph-name="logicalnot" unicode="&#xac;" 
d="M0 372h571v-286h-143v143h-428v143z" />
    <glyph glyph-name="uni00AD" unicode="&#xad;" 
d="M142 372h429v-143h-429v143z" />
    <glyph glyph-name="registered" unicode="&#xae;" 
d="M142 800h429v-142h143v-715h-143v-143h-429v143h-142v715h142v142zM142 658v-143h286v-143h-143v-286h-143v-143h429v715h-429z" />
    <glyph glyph-name="macron" unicode="&#xaf;" 
d="M0 800h571v-142h-571v142z" />
    <glyph glyph-name="degree" unicode="&#xb0;" 
d="M285 800h143v-142h143v-143h-143v-143h-143v143h-143v143h143v142zM285 658v-143h143v143h-143z" />
    <glyph glyph-name="plusminus" unicode="&#xb1;" 
d="M285 800h143v-285h286v-143h-286v-286h286v-143h-714v143h285v286h-285v143h285v285z" />
    <glyph glyph-name="uni00B2" unicode="&#xb2;" 
d="M142 800h286v-285h-143v-143h143v-143h-286v286h143v143h-143v142z" />
    <glyph glyph-name="uni00B3" unicode="&#xb3;" 
d="M142 800h286v-571h-286v143h143v143h-143v285z" />
    <glyph glyph-name="acute" unicode="&#xb4;" 
d="M285 800h143v-142h-143v-143h-143v143h143v142z" />
    <glyph glyph-name="mu" unicode="&#xb5;" 
d="M0 515h142v-429h286v429h143v-429h-143v-143h-286v-143h-142v715z" />
    <glyph glyph-name="paragraph" unicode="&#xb6;" 
d="M142 800h429v-857h-143v715h-143v-715h-143v429h-142v286h142v142z" />
    <glyph glyph-name="periodcentered" unicode="&#xb7;" 
d="M142 515h286v-286h-286v286z" />
    <glyph glyph-name="cedilla" unicode="&#xb8;" 
d="M285 86h143v-143h-143v-143h-143v143h143v143z" />
    <glyph glyph-name="uni00B9" unicode="&#xb9;" 
d="M285 800h143v-428h143v-143h-429v143h143v143h-143v143h143v142z" />
    <glyph glyph-name="ordmasculine" unicode="&#xba;" 
d="M142 800h143v-142h143v-143h-143v-143h-143v143h-142v143h142v142zM142 658v-143h143v143h-143z" />
    <glyph glyph-name="guillemotright" unicode="&#xbb;" 
d="M0 515h142v-143h143v-143h-143v-143h-142v143h142v143h-142v143zM428 515h143v-143h143v-143h-143v-143h-143v143h143v143h-143v143z" />
    <glyph glyph-name="onequarter" unicode="&#xbc;" 
d="M0 800h142v-571h-142v571zM428 372h143v-572h-143v143h-286v143h143v143h143v143z" />
    <glyph glyph-name="onehalf" unicode="&#xbd;" 
d="M0 800h142v-571h-142v571zM285 372h286v-286h-143v-143h143v-143h-286v286h143v143h-143v143z" />
    <glyph glyph-name="threequarters" unicode="&#xbe;" 
d="M0 800h285v-571h143v143h143v-572h-143v143h-286v143h143v143h-285v143h142v143h-142v285z" />
    <glyph glyph-name="questiondown" unicode="&#xbf;" 
d="M285 800h143v-142h-143v142zM285 515h143v-143h-143v-286h143v143h143v-143h-143v-143h-143v143h-143v286h143v143z" />
    <glyph glyph-name="Agrave" unicode="&#xc0;" 
d="M142 800h286v-142h143v-715h-143v286h-286v-286h-142v715h142v142zM142 658v-286h286v286h-286z" />
    <glyph glyph-name="Aacute" unicode="&#xc1;" 
d="M142 800h286v-142h143v-715h-143v286h-286v-286h-142v715h142v142zM142 658v-286h286v286h-286z" />
    <glyph glyph-name="Acircumflex" unicode="&#xc2;" 
d="M142 800h286v-142h143v-715h-143v286h-286v-286h-142v715h142v142zM142 658v-286h286v286h-286z" />
    <glyph glyph-name="Atilde" unicode="&#xc3;" 
d="M142 800h286v-142h143v-715h-143v286h-286v-286h-142v715h142v142zM142 658v-286h286v286h-286z" />
    <glyph glyph-name="Adieresis" unicode="&#xc4;" 
d="M0 800h142v-142h286v142h143v-142h-143v-143h143v-572h-143v286h-286v-286h-142v572h142v143h-142v142zM142 515v-143h286v143h-286z" />
    <glyph glyph-name="Aring" unicode="&#xc5;" 
d="M142 800h286v-285h143v-572h-143v286h-286v-286h-142v572h142v285zM142 515v-143h286v143h-286z" />
    <glyph glyph-name="AE" unicode="&#xc6;" 
d="M142 800h429v-142h-143v-143h143v-143h-143v-286h143v-143h-286v286h-143v-286h-142v715h142v142zM142 658v-286h143v286h-143z" />
    <glyph glyph-name="Ccedilla" unicode="&#xc7;" 
d="M142 800h286v-142h143v-143h-143v143h-286v-572h286v143h143v-143h-143v-143h-143v-143h-143v286h-142v572h142v142z" />
    <glyph glyph-name="Egrave" unicode="&#xc8;" 
d="M0 800h571v-142h-429v-143h286v-143h-286v-286h429v-143h-571v857z" />
    <glyph glyph-name="Eacute" unicode="&#xc9;" 
d="M0 800h571v-142h-429v-143h286v-143h-286v-286h429v-143h-571v857z" />
    <glyph glyph-name="Ecircumflex" unicode="&#xca;" 
d="M0 800h571v-142h-429v-143h286v-143h-286v-286h429v-143h-571v857z" />
    <glyph glyph-name="Edieresis" unicode="&#xcb;" 
d="M0 800h571v-142h-429v-143h286v-143h-286v-286h429v-143h-571v857z" />
    <glyph glyph-name="Igrave" unicode="&#xcc;" 
d="M142 800h429v-142h-143v-572h143v-143h-429v143h143v572h-143v142z" />
    <glyph glyph-name="Iacute" unicode="&#xcd;" 
d="M142 800h429v-142h-143v-572h143v-143h-429v143h143v572h-143v142z" />
    <glyph glyph-name="Icircumflex" unicode="&#xce;" 
d="M142 800h429v-142h-143v-572h143v-143h-429v143h143v572h-143v142z" />
    <glyph glyph-name="Idieresis" unicode="&#xcf;" 
d="M142 800h429v-142h-143v-572h143v-143h-429v143h143v572h-143v142z" />
    <glyph glyph-name="Eth" unicode="&#xd0;" 
d="M0 800h428v-142h143v-572h-143v-143h-428v143h142v286h-142v143h142v143h-142v142zM285 658v-572h143v572h-143z" />
    <glyph glyph-name="Ntilde" unicode="&#xd1;" 
d="M0 800h142v-285h143v-143h143v286h-143v142h286v-857h-143v143h-143v286h-143v-429h-142v857z" />
    <glyph glyph-name="Ograve" unicode="&#xd2;" 
d="M142 800h286v-142h143v-572h-143v-143h-286v143h-142v572h142v142zM142 658v-572h286v572h-286z" />
    <glyph glyph-name="Oacute" unicode="&#xd3;" 
d="M142 800h286v-142h143v-572h-143v-143h-286v143h-142v572h142v142zM142 658v-572h286v572h-286z" />
    <glyph glyph-name="Ocircumflex" unicode="&#xd4;" 
d="M142 800h286v-142h143v-572h-143v-143h-286v143h-142v572h142v142zM142 658v-572h286v572h-286z" />
    <glyph glyph-name="Otilde" unicode="&#xd5;" 
d="M142 800h286v-142h143v-572h-143v-143h-286v143h-142v572h142v142zM142 658v-572h286v572h-286z" />
    <glyph glyph-name="Odieresis" unicode="&#xd6;" 
d="M0 800h142v-142h286v142h143v-142h-143v-143h143v-429h-143v-143h-286v143h-142v429h142v143h-142v142zM142 515v-429h286v429h-286z" />
    <glyph glyph-name="multiply" unicode="&#xd7;" 
d="M0 515h142v-143h286v143h143v-143h-143v-286h143v-143h-143v143h-286v-143h-142v143h142v286h-142v143z" />
    <glyph glyph-name="Oslash" unicode="&#xd8;" 
d="M142 800h429v-714h-143v-143h-428v715h142v142zM142 658v-286h143v-286h143v286h-143v286h-143z" />
    <glyph glyph-name="Ugrave" unicode="&#xd9;" 
d="M0 800h142v-714h286v714h143v-714h-143v-143h-286v143h-142v714z" />
    <glyph glyph-name="Uacute" unicode="&#xda;" 
d="M0 800h142v-714h286v714h143v-714h-143v-143h-286v143h-142v714z" />
    <glyph glyph-name="Ucircumflex" unicode="&#xdb;" 
d="M0 800h142v-714h286v714h143v-714h-143v-143h-286v143h-142v714z" />
    <glyph glyph-name="Udieresis" unicode="&#xdc;" 
d="M0 800h142v-142h-142v142zM428 800h143v-142h-143v142zM0 515h142v-429h286v429h143v-429h-143v-143h-286v143h-142v429z" />
    <glyph glyph-name="Yacute" unicode="&#xdd;" 
d="M142 800h143v-428h143v428h143v-428h-143v-429h-143v429h-143v428z" />
    <glyph glyph-name="Thorn" unicode="&#xde;" 
d="M0 800h142v-142h286v-143h143v-143h-143v-143h-286v-286h-142v857zM142 515v-143h286v143h-286z" />
    <glyph glyph-name="germandbls" unicode="&#xdf;" 
d="M142 800h286v-142h143v-143h-143v-143h143v-286h-143v-143h-143v143h143v286h-143v143h143v143h-286v-715h-142v715h142v142z" />
    <glyph glyph-name="agrave" unicode="&#xe0;" 
d="M142 800h143v-142h143v-143h143v-572h-143v143h-143v-143h-143v143h-142v286h142v143h143v143h-143v142zM142 372v-286h143v143h143v143h-286z" />
    <glyph glyph-name="aacute" unicode="&#xe1;" 
d="M285 800h143v-142h-143v-143h286v-572h-143v143h-143v-143h-143v143h-142v286h142v286h143v142zM142 372v-286h143v143h143v143h-286z" />
    <glyph glyph-name="acircumflex" unicode="&#xe2;" 
d="M285 800h143v-142h143v-715h-143v143h-143v-143h-143v143h-142v286h142v286h143v142zM285 658v-143h143v143h-143zM142 372v-286h143v143h143v143h-286z" />
    <glyph glyph-name="atilde" unicode="&#xe3;" 
d="M142 800h143v-142h143v142h143v-142h-143v-143h143v-572h-143v143h-143v-143h-143v143h-142v286h142v143h-142v143h142v142zM142 658v-143h143v143h-143zM142 372v-286h143v143h143v143h-286z" />
    <glyph glyph-name="adieresis" unicode="&#xe4;" 
d="M142 800h143v-142h-143v142zM428 800h143v-142h-143v142zM142 515h429v-572h-143v143h-143v-143h-143v143h-142v286h142v143zM142 372v-286h143v143h143v143h-286z" />
    <glyph glyph-name="aring" unicode="&#xe5;" 
d="M142 800h286v-285h143v-572h-143v143h-143v-143h-143v143h-142v286h142v428zM142 372v-286h143v143h143v143h-286z" />
    <glyph glyph-name="ae" unicode="&#xe6;" 
d="M142 515h429v-286h-143v-143h143v-143h-429v143h-142v286h142v143zM142 372v-286h143v286h-143z" />
    <glyph glyph-name="ccedilla" unicode="&#xe7;" 
d="M285 515h286v-143h-286v-286h286v-143h-143v-143h-143v286h-143v286h143v143z" />
    <glyph glyph-name="egrave" unicode="&#xe8;" 
d="M142 800h143v-142h143v-286h143v-143h-286v-143h143v-143h-286v143h-142v286h142v143h143v143h-143v142zM142 372v-143h143v143h-143z" />
    <glyph glyph-name="eacute" unicode="&#xe9;" 
d="M285 800h143v-142h-143v-143h143v-143h143v-143h-286v-143h143v-143h-286v143h-142v286h142v286h143v142zM142 372v-143h143v143h-143z" />
    <glyph glyph-name="ecircumflex" unicode="&#xea;" 
d="M142 800h143v-142h143v-286h143v-143h-286v-143h143v-143h-286v143h-142v286h142v143h-142v143h142v142zM142 658v-143h143v143h-143zM142 372v-143h143v143h-143z" />
    <glyph glyph-name="edieresis" unicode="&#xeb;" 
d="M0 800h142v-142h-142v142zM285 800h143v-142h-143v142zM142 515h286v-143h143v-143h-286v-143h143v-143h-286v143h-142v286h142v143zM142 372v-143h143v143h-143z" />
    <glyph glyph-name="igrave" unicode="&#xec;" 
d="M142 800h143v-142h143v-572h143v-143h-429v143h143v286h-143v143h143v143h-143v142z" />
    <glyph glyph-name="iacute" unicode="&#xed;" 
d="M285 800h143v-142h-143v-143h143v-429h143v-143h-429v143h143v286h-143v286h143v142z" />
    <glyph glyph-name="icircumflex" unicode="&#xee;" 
d="M285 800h143v-142h143v-143h-143v-429h143v-143h-429v143h143v286h-143v286h143v142zM285 658v-143h143v143h-143z" />
    <glyph glyph-name="idieresis" unicode="&#xef;" 
d="M142 800h143v-142h-143v142zM428 800h143v-142h-143v142zM142 515h286v-429h143v-143h-429v143h143v286h-143v143z" />
    <glyph glyph-name="eth" unicode="&#xf0;" 
d="M142 800h143v-142h286v-143h-143v-143h143v-286h-143v-143h-286v143h-142v286h142v143h143v143h-143v142zM142 372v-286h286v286h-286z" />
    <glyph glyph-name="ntilde" unicode="&#xf1;" 
d="M142 800h143v-142h143v142h143v-142h-143v-286h143v-429h-143v429h-286v-429h-142v715h142v142zM142 658v-143h143v143h-143z" />
    <glyph glyph-name="ograve" unicode="&#xf2;" 
d="M142 800h143v-142h143v-286h143v-286h-143v-143h-286v143h-142v286h142v143h143v143h-143v142zM142 372v-286h286v286h-286z" />
    <glyph glyph-name="oacute" unicode="&#xf3;" 
d="M285 800h143v-142h-143v-143h143v-143h143v-286h-143v-143h-286v143h-142v286h142v286h143v142zM142 372v-286h286v286h-286z" />
    <glyph glyph-name="ocircumflex" unicode="&#xf4;" 
d="M142 800h286v-142h-286v142zM142 515h286v-143h143v-286h-143v-143h-286v143h-142v286h142v143zM142 372v-286h286v286h-286z" />
    <glyph glyph-name="otilde" unicode="&#xf5;" 
d="M142 800h143v-142h143v142h143v-142h-143v-286h143v-286h-143v-143h-286v143h-142v286h142v143h-142v143h142v142zM142 658v-143h143v143h-143zM142 372v-286h286v286h-286z" />
    <glyph glyph-name="odieresis" unicode="&#xf6;" 
d="M142 800h143v-142h-143v142zM428 800h143v-142h-143v142zM142 515h286v-143h143v-286h-143v-143h-286v143h-142v286h142v143zM142 372v-286h286v286h-286z" />
    <glyph glyph-name="divide" unicode="&#xf7;" 
d="M142 658h286v-143h-286v143zM0 372h571v-143h-571v143zM142 86h286v-143h-286v143z" />
    <glyph glyph-name="oslash" unicode="&#xf8;" 
d="M142 515h429v-429h-143v-143h-428v429h142v143zM142 372v-143h143v-143h143v143h-143v143h-143z" />
    <glyph glyph-name="ugrave" unicode="&#xf9;" 
d="M142 800h143v-142h143v-143h143v-572h-429v143h-142v429h142v-429h286v429h-143v143h-143v142z" />
    <glyph glyph-name="uacute" unicode="&#xfa;" 
d="M285 800h143v-142h-143v-143h-143v-429h286v429h143v-572h-429v143h-142v429h142v143h143v142z" />
    <glyph glyph-name="ucircumflex" unicode="&#xfb;" 
d="M142 800h286v-142h-286v142zM0 515h142v-429h286v429h143v-572h-429v143h-142v429z" />
    <glyph glyph-name="udieresis" unicode="&#xfc;" 
d="M142 800h143v-142h-143v142zM428 800h143v-142h-143v142zM0 515h142v-429h286v429h143v-572h-429v143h-142v429z" />
    <glyph glyph-name="yacute" unicode="&#xfd;" 
d="M285 800h143v-142h-143v-143h-143v-286h143v-143h143v429h143v-429h-143v-143h-143v-143h-143v143h143v143h-143v143h-142v286h142v143h143v142z" />
    <glyph glyph-name="thorn" unicode="&#xfe;" 
d="M0 658h142v-143h286v-143h143v-286h-143v-143h-286v-143h-142v858zM142 372v-286h286v286h-286z" />
    <glyph glyph-name="ydieresis" unicode="&#xff;" 
d="M142 800h143v-142h-143v142zM428 800h143v-142h-143v142zM0 515h142v-286h143v-143h143v429h143v-429h-143v-143h-143v-143h-143v143h143v143h-143v143h-142v286z" />
    <glyph glyph-name="Amacron" unicode="&#x100;" 
d="M142 800h286v-142h143v-715h-143v286h-286v-286h-142v715h142v142zM142 658v-286h286v286h-286z" />
    <glyph glyph-name="amacron" unicode="&#x101;" 
d="M142 800h429v-142h-429v142zM142 515h429v-572h-143v143h-143v-143h-143v143h-142v286h142v143zM142 372v-286h143v143h143v143h-286z" />
    <glyph glyph-name="Abreve" unicode="&#x102;" 
d="M142 800h286v-142h143v-715h-143v286h-286v-286h-142v715h142v142zM142 658v-286h286v286h-286z" />
    <glyph glyph-name="abreve" unicode="&#x103;" 
d="M0 800h142v-142h286v142h143v-142h-143v-143h143v-572h-143v143h-143v-143h-143v143h-142v286h142v286h-142v142zM142 372v-286h143v143h143v143h-286z" />
    <glyph glyph-name="Aogonek" unicode="&#x104;" 
d="M142 800h286v-142h143v-858h-143v429h-286v-286h-142v715h142v142zM142 658v-286h286v286h-286z" />
    <glyph glyph-name="aogonek" unicode="&#x105;" 
d="M142 515h429v-572h143v-143h-143v143h-143v143h-143v-143h-143v143h-142v286h142v143zM142 372v-286h143v143h143v143h-286z" />
    <glyph glyph-name="Cacute" unicode="&#x106;" 
d="M142 800h286v-142h143v-143h-143v143h-286v-572h286v143h143v-143h-143v-143h-286v143h-142v572h142v142z" />
    <glyph glyph-name="cacute" unicode="&#x107;" 
d="M428 800h143v-142h-143v-143h143v-143h-286v-286h286v-143h-286v143h-143v286h143v286h143v142z" />
    <glyph glyph-name="Ccircumflex" unicode="&#x108;" 
d="M142 800h286v-142h143v-143h-143v143h-286v-572h286v143h143v-143h-143v-143h-286v143h-142v572h142v142z" />
    <glyph glyph-name="ccircumflex" unicode="&#x109;" 
d="M142 800h286v-142h-286v142zM142 515h286v-143h-286v-286h286v-143h-286v143h-142v286h142v143z" />
    <glyph glyph-name="Cdotaccent" unicode="&#x10a;" 
d="M142 800h286v-142h143v-143h-143v143h-286v-572h286v143h143v-143h-143v-143h-286v143h-142v572h142v142z" />
    <glyph glyph-name="cdotaccent" unicode="&#x10b;" 
d="M142 800h143v-142h-143v142zM142 515h286v-143h-286v-286h286v-143h-286v143h-142v286h142v143z" />
    <glyph glyph-name="Ccaron" unicode="&#x10c;" 
d="M142 800h286v-142h143v-143h-143v143h-286v-572h286v143h143v-143h-143v-143h-286v143h-142v572h142v142z" />
    <glyph glyph-name="ccaron" unicode="&#x10d;" 
d="M0 800h142v-142h143v142h143v-142h-143v-143h143v-143h-286v-286h286v-143h-286v143h-142v286h142v286h-142v142z" />
    <glyph glyph-name="Dcaron" unicode="&#x10e;" 
d="M0 800h428v-142h143v-572h-143v-143h-428v857zM142 658v-572h286v572h-286z" />
    <glyph glyph-name="dcaron" unicode="&#x10f;" 
d="M0 800h142v-142h143v142h143v-142h143v-715h-429v143h-142v143h142v143h286v286h-143v-143h-143v143h-142v142zM142 229v-143h286v143h-286z" />
    <glyph glyph-name="Dcroat" unicode="&#x110;" 
d="M0 800h428v-142h143v-572h-143v-143h-428v857zM142 658v-143h143v-143h-143v-286h286v572h-286z" />
    <glyph glyph-name="dcroat" unicode="&#x111;" 
d="M428 800h143v-142h143v-143h-143v-572h-429v143h-142v143h142v143h286v143h-143v143h143v142zM142 229v-143h286v143h-286z" />
    <glyph glyph-name="Emacron" unicode="&#x112;" 
d="M0 800h571v-142h-429v-143h286v-143h-286v-286h429v-143h-571v857z" />
    <glyph glyph-name="emacron" unicode="&#x113;" 
d="M0 800h428v-142h-428v142zM142 515h286v-143h143v-143h-286v-143h143v-143h-286v143h-142v286h142v143zM142 372v-143h143v143h-143z" />
    <glyph glyph-name="Ebreve" unicode="&#x114;" 
d="M0 800h571v-142h-429v-143h286v-143h-286v-286h429v-143h-571v857z" />
    <glyph glyph-name="ebreve" unicode="&#x115;" 
d="M0 800h142v-142h286v142h143v-142h-143v-286h143v-143h-286v-143h143v-143h-286v143h-142v286h142v286h-142v142zM142 372v-143h143v143h-143z" />
    <glyph glyph-name="Edotaccent" unicode="&#x116;" 
d="M0 800h571v-142h-429v-143h286v-143h-286v-286h429v-143h-571v857z" />
    <glyph glyph-name="edotaccent" unicode="&#x117;" 
d="M142 800h143v-142h-143v142zM142 515h286v-143h143v-143h-286v-143h143v-143h-286v143h-142v286h142v143zM142 372v-143h143v143h-143z" />
    <glyph glyph-name="Eogonek" unicode="&#x118;" 
d="M0 800h571v-142h-429v-143h286v-143h-286v-286h429v-143h-286v-143h-143v143h-142v857z" />
    <glyph glyph-name="eogonek" unicode="&#x119;" 
d="M142 515h286v-143h143v-143h-286v-143h143v-143h-143v-143h-143v286h-142v286h142v143zM142 372v-143h143v143h-143z" />
    <glyph glyph-name="Ecaron" unicode="&#x11a;" 
d="M0 800h571v-142h-429v-143h286v-143h-286v-286h429v-143h-571v857z" />
    <glyph glyph-name="ecaron" unicode="&#x11b;" 
d="M0 800h142v-142h143v142h143v-142h-143v-143h143v-143h143v-143h-286v-143h143v-143h-286v143h-142v286h142v286h-142v142zM142 372v-143h143v143h-143z" />
    <glyph glyph-name="Gcircumflex" unicode="&#x11c;" 
d="M142 800h286v-142h143v-143h-143v143h-286v-572h286v143h-143v143h286v-429h-429v143h-142v572h142v142z" />
    <glyph glyph-name="gcircumflex" unicode="&#x11d;" 
d="M142 800h286v-142h-286v142zM142 515h429v-286h-143v-143h-286v-143h429v-143h-429v143h-142v143h142v143h-142v143h142v143zM142 372v-143h286v143h-286z" />
    <glyph glyph-name="Gbreve" unicode="&#x11e;" 
d="M142 800h286v-142h143v-143h-143v143h-286v-572h286v143h-143v143h286v-429h-429v143h-142v572h142v142z" />
    <glyph glyph-name="gbreve" unicode="&#x11f;" 
d="M142 800h143v-142h143v142h143v-142h-143v-143h143v-286h-143v-143h-286v-143h429v-143h-429v143h-142v143h142v143h-142v143h142v143h143v143h-143v142zM142 372v-143h286v143h-286z" />
    <glyph glyph-name="Gdotaccent" unicode="&#x120;" 
d="M142 800h286v-142h143v-143h-143v143h-286v-572h286v143h-143v143h286v-429h-429v143h-142v572h142v142z" />
    <glyph glyph-name="gdotaccent" unicode="&#x121;" 
d="M285 800h143v-142h-143v142zM142 515h429v-286h-143v-143h-286v-143h429v-143h-429v143h-142v143h142v143h-142v143h142v143zM142 372v-143h286v143h-286z" />
    <glyph glyph-name="uni0122" unicode="&#x122;" 
d="M142 800h286v-142h143v-143h-143v143h-286v-572h286v143h-143v143h286v-429h-286v-143h-143v286h-142v572h142v142z" />
    <glyph glyph-name="uni0123" unicode="&#x123;" 
d="M142 800h286v-285h143v-286h-143v-143h-286v-143h429v-143h-429v143h-142v143h142v143h-142v143h142v143h143v143h-143v142zM142 372v-143h286v143h-286z" />
    <glyph glyph-name="Hcircumflex" unicode="&#x124;" 
d="M0 800h142v-285h286v285h143v-857h-143v429h-286v-429h-142v857z" />
    <glyph glyph-name="hcircumflex" unicode="&#x125;" 
d="M142 800h143v-142h143v-143h-143v143h-143v-286h286v-143h143v-286h-143v286h-286v-286h-142v715h142v142z" />
    <glyph glyph-name="Hbar" unicode="&#x126;" 
d="M0 800h142v-142h286v142h143v-142h143v-143h-143v-572h-143v286h-286v-286h-142v857zM142 515v-143h286v143h-286z" />
    <glyph glyph-name="hbar" unicode="&#x127;" 
d="M0 800h142v-142h143v-143h-143v-143h286v-143h143v-286h-143v286h-286v-286h-142v857z" />
    <glyph glyph-name="Itilde" unicode="&#x128;" 
d="M142 800h429v-142h-143v-572h143v-143h-429v143h143v572h-143v142z" />
    <glyph glyph-name="itilde" unicode="&#x129;" 
d="M142 800h143v-142h143v142h143v-142h-143v-572h143v-143h-429v143h143v286h-143v143h-142v143h142v142zM142 658v-143h143v143h-143z" />
    <glyph glyph-name="Imacron" unicode="&#x12a;" 
d="M142 800h429v-142h-143v-572h143v-143h-429v143h143v572h-143v142z" />
    <glyph glyph-name="imacron" unicode="&#x12b;" 
d="M142 800h429v-142h-429v142zM142 515h286v-429h143v-143h-429v143h143v286h-143v143z" />
    <glyph glyph-name="Ibreve" unicode="&#x12c;" 
d="M142 800h429v-142h-143v-572h143v-143h-429v143h143v572h-143v142z" />
    <glyph glyph-name="ibreve" unicode="&#x12d;" 
d="M0 800h142v-142h286v142h143v-142h-143v-572h143v-143h-429v143h143v286h-143v286h-142v142z" />
    <glyph glyph-name="Iogonek" unicode="&#x12e;" 
d="M142 800h429v-142h-143v-572h143v-143h-286v-143h-143v286h143v572h-143v142z" />
    <glyph glyph-name="iogonek" unicode="&#x12f;" 
d="M285 800h143v-142h-143v142zM142 515h286v-429h143v-143h-286v-143h-143v286h143v286h-143v143z" />
    <glyph glyph-name="Idotaccent" unicode="&#x130;" 
d="M142 800h429v-142h-143v-572h143v-143h-429v143h143v572h-143v142z" />
    <glyph glyph-name="dotlessi" unicode="&#x131;" 
d="M142 515h286v-429h143v-143h-429v143h143v286h-143v143z" />
    <glyph glyph-name="IJ" unicode="&#x132;" 
d="M0 800h142v-571h143v-143h143v714h143v-714h-143v-143h-143v143h-143v-143h-142v857z" />
    <glyph glyph-name="ij" unicode="&#x133;" 
d="M0 800h142v-142h-142v142zM428 800h143v-142h-143v142zM0 515h142v-429h143v-143h143v572h143v-572h-143v-143h-143v143h-285v572z" />
    <glyph glyph-name="Jcircumflex" unicode="&#x134;" 
d="M428 800h143v-714h-143v-143h-286v143h-142v143h142v-143h286v714z" />
    <glyph glyph-name="jcircumflex" unicode="&#x135;" 
d="M285 800h143v-142h143v-143h-143v143h-143v-143h-143v143h143v142zM285 372h143v-429h-143v-143h-143v143h-142v143h142v-143h143v429z" />
    <glyph glyph-name="uni0136" unicode="&#x136;" 
d="M0 800h142v-285h143v143h143v142h143v-142h-143v-143h-143v-286h143v-143h143v-143h-143v143h-143v143h-143v-429h-142v1000z" />
    <glyph glyph-name="uni0137" unicode="&#x137;" 
d="M0 800h142v-428h143v143h143v-143h-143v-143h143v-143h143v-143h-143v143h-143v143h-143v-429h-142v1000z" />
    <glyph glyph-name="kgreenlandic" unicode="&#x138;" 
d="M0 515h142v-143h286v143h143v-143h-143v-143h143v-286h-143v286h-286v-286h-142v572z" />
    <glyph glyph-name="Lacute" unicode="&#x139;" 
d="M0 800h142v-714h429v-143h-571v857zM428 800h143v-142h-143v-143h-143v143h143v142z" />
    <glyph glyph-name="lacute" unicode="&#x13a;" 
d="M0 800h285v-714h143v-143h-428v143h142v572h-142v142zM571 800h143v-142h-143v-143h-143v143h143v142z" />
    <glyph glyph-name="uni013B" unicode="&#x13b;" 
d="M0 800h142v-714h429v-143h-429v-143h-142v1000z" />
    <glyph glyph-name="uni013C" unicode="&#x13c;" 
d="M142 800h286v-714h143v-143h-286v-143h-143v286h143v572h-143v142z" />
    <glyph glyph-name="Lcaron" unicode="&#x13d;" 
d="M0 800h142v-714h429v-143h-571v857zM285 800h143v-142h143v142h143v-142h-143v-143h-143v143h-143v142z" />
    <glyph glyph-name="lcaron" unicode="&#x13e;" 
d="M0 800h142v-714h143v-143h-143v143h-142v714zM285 800h143v-142h143v142h143v-142h-143v-143h-143v143h-143v142z" />
    <glyph glyph-name="Ldot" unicode="&#x13f;" 
d="M0 800h142v-714h429v-143h-571v857zM285 515h143v-143h-143v143z" />
    <glyph glyph-name="ldot" unicode="&#x140;" 
d="M0 800h285v-714h143v-143h-428v143h142v572h-142v142zM428 515h143v-143h-143v143z" />
    <glyph glyph-name="Lslash" unicode="&#x141;" 
d="M0 800h142v-285h143v-143h-143v-286h429v-143h-571v857z" />
    <glyph glyph-name="lslash" unicode="&#x142;" 
d="M142 800h286v-285h143v-143h-143v-286h143v-143h-429v143h143v143h-143v143h143v286h-143v142z" />
    <glyph glyph-name="Nacute" unicode="&#x143;" 
d="M0 800h142v-142h143v-286h143v428h143v-857h-143v143h-143v286h-143v-429h-142v857z" />
    <glyph glyph-name="nacute" unicode="&#x144;" 
d="M285 800h143v-142h-143v-143h143v-143h143v-429h-143v429h-286v-429h-142v572h142v143h143v142z" />
    <glyph glyph-name="uni0145" unicode="&#x145;" 
d="M0 800h142v-142h143v-286h143v428h143v-857h-143v143h-143v286h-143v-572h-142v1000z" />
    <glyph glyph-name="uni0146" unicode="&#x146;" 
d="M0 515h428v-143h143v-429h-143v429h-286v-572h-142v715z" />
    <glyph glyph-name="Ncaron" unicode="&#x147;" 
d="M0 800h142v-142h143v-286h143v428h143v-857h-143v143h-143v286h-143v-429h-142v857z" />
    <glyph glyph-name="ncaron" unicode="&#x148;" 
d="M0 800h142v-142h143v142h143v-142h-143v-143h143v-143h143v-429h-143v429h-286v-429h-142v572h142v143h-142v142z" />
    <glyph glyph-name="napostrophe" unicode="&#x149;" 
d="M0 800h142v-142h-142v142zM0 515h428v-143h143v-429h-143v429h-286v-429h-142v572z" />
    <glyph glyph-name="Eng" unicode="&#x14a;" 
d="M0 800h142v-142h143v-286h143v428h143v-857h-143v-143h-143v143h143v143h-143v286h-143v-429h-142v857z" />
    <glyph glyph-name="eng" unicode="&#x14b;" 
d="M0 515h428v-143h143v-429h-143v-143h-143v143h143v429h-286v-429h-142v572z" />
    <glyph glyph-name="Omacron" unicode="&#x14c;" 
d="M142 800h286v-142h143v-572h-143v-143h-286v143h-142v572h142v142zM142 658v-572h286v572h-286z" />
    <glyph glyph-name="omacron" unicode="&#x14d;" 
d="M0 800h571v-142h-571v142zM142 515h286v-143h143v-286h-143v-143h-286v143h-142v286h142v143zM142 372v-286h286v286h-286z" />
    <glyph glyph-name="Obreve" unicode="&#x14e;" 
d="M142 800h286v-142h143v-572h-143v-143h-286v143h-142v572h142v142zM142 658v-572h286v572h-286z" />
    <glyph glyph-name="obreve" unicode="&#x14f;" 
d="M0 800h142v-142h286v142h143v-142h-143v-286h143v-286h-143v-143h-286v143h-142v286h142v286h-142v142zM142 372v-286h286v286h-286z" />
    <glyph glyph-name="Ohungarumlaut" unicode="&#x150;" 
d="M142 800h286v-142h143v-572h-143v-143h-286v143h-142v572h142v142zM142 658v-572h286v572h-286z" />
    <glyph glyph-name="ohungarumlaut" unicode="&#x151;" 
d="M142 800h143v-142h-143v-143h286v143h143v142h143v-142h-143v-143h-143v-143h143v-286h-143v-143h-286v143h-142v286h142v143h-142v143h142v142zM142 372v-286h286v286h-286z" />
    <glyph glyph-name="OE" unicode="&#x152;" 
d="M142 800h429v-142h-143v-143h143v-143h-143v-286h143v-143h-429v143h-142v572h142v142zM142 658v-572h143v572h-143z" />
    <glyph glyph-name="oe" unicode="&#x153;" 
d="M142 515h429v-286h-143v-143h143v-143h-429v143h-142v286h142v143zM142 372v-286h143v286h-143z" />
    <glyph glyph-name="Racute" unicode="&#x154;" 
d="M0 800h428v-142h143v-286h-143v-286h143v-143h-143v143h-143v143h-143v-286h-142v857zM142 658v-286h286v286h-286z" />
    <glyph glyph-name="racute" unicode="&#x155;" 
d="M285 800h143v-142h-143v-143h143v-143h143v-143h-143v143h-286v-429h-142v572h142v143h143v142z" />
    <glyph glyph-name="uni0156" unicode="&#x156;" 
d="M0 800h428v-142h143v-286h-143v-286h143v-143h-143v143h-143v143h-143v-429h-142v1000zM142 658v-286h286v286h-286z" />
    <glyph glyph-name="uni0157" unicode="&#x157;" 
d="M0 515h428v-143h143v-143h-143v143h-286v-429h143v-143h-143v143h-142v572z" />
    <glyph glyph-name="Rcaron" unicode="&#x158;" 
d="M0 800h428v-142h143v-286h-143v-286h143v-143h-143v143h-143v143h-143v-286h-142v857zM142 658v-286h286v286h-286z" />
    <glyph glyph-name="rcaron" unicode="&#x159;" 
d="M0 800h142v-142h143v142h143v-142h-143v-143h143v-143h143v-143h-143v143h-286v-429h-142v572h142v143h-142v142z" />
    <glyph glyph-name="Sacute" unicode="&#x15a;" 
d="M142 800h286v-142h143v-143h-143v143h-286v-143h143v-143h143v-143h143v-143h-143v-143h-286v143h-142v143h142v-143h286v143h-143v143h-143v143h-142v143h142v142z" />
    <glyph glyph-name="sacute" unicode="&#x15b;" 
d="M285 800h143v-142h-143v-143h286v-143h-286v-143h286v-143h-143v-143h-428v143h285v143h-285v143h142v286h143v142z" />
    <glyph glyph-name="Scircumflex" unicode="&#x15c;" 
d="M142 800h286v-142h143v-143h-143v143h-286v-143h143v-143h143v-143h143v-143h-143v-143h-286v143h-142v143h142v-143h286v143h-143v143h-143v143h-142v143h142v142z" />
    <glyph glyph-name="scircumflex" unicode="&#x15d;" 
d="M142 800h286v-142h-286v142zM142 515h429v-143h-286v-143h286v-143h-143v-143h-428v143h285v143h-285v143h142v143z" />
    <glyph glyph-name="Scedilla" unicode="&#x15e;" 
d="M142 800h286v-142h143v-143h-143v143h-286v-143h143v-143h143v-143h143v-143h-143v-143h-143v-143h-143v286h-142v143h142v-143h286v143h-143v143h-143v143h-142v143h142v142z" />
    <glyph glyph-name="scedilla" unicode="&#x15f;" 
d="M142 515h429v-143h-286v-143h286v-143h-143v-143h-143v-143h-143v143h-142v143h285v143h-285v143h142v143z" />
    <glyph glyph-name="Scaron" unicode="&#x160;" 
d="M142 800h286v-142h143v-143h-143v143h-286v-143h143v-143h143v-143h143v-143h-143v-143h-286v143h-142v143h142v-143h286v143h-143v143h-143v143h-142v143h142v142z" />
    <glyph glyph-name="scaron" unicode="&#x161;" 
d="M142 800h143v-142h143v142h143v-142h-143v-143h143v-143h-286v-143h286v-143h-143v-143h-428v143h285v143h-285v143h142v143h143v143h-143v142z" />
    <glyph glyph-name="uni0162" unicode="&#x162;" 
d="M142 800h429v-142h-143v-715h-143v-143h-143v143h143v715h-143v142z" />
    <glyph glyph-name="uni0163" unicode="&#x163;" 
d="M142 800h143v-285h143v-143h-143v-286h286v-143h-286v-143h-143v143h143v143h-143v286h-142v143h142v285z" />
    <glyph glyph-name="Tcaron" unicode="&#x164;" 
d="M0 800h428v-142h-143v-715h-143v715h-142v142z" />
    <glyph glyph-name="tcaron" unicode="&#x165;" 
d="M142 800h143v-142h143v142h143v-142h-143v-143h-143v-143h143v-143h-143v-143h286v-143h-286v143h-143v143h-142v143h142v143h143v143h-143v142z" />
    <glyph glyph-name="Tbar" unicode="&#x166;" 
d="M0 800h428v-142h-143v-143h143v-143h-143v-429h-143v429h-142v143h142v143h-142v142z" />
    <glyph glyph-name="tbar" unicode="&#x167;" 
d="M142 800h143v-142h143v-143h-143v-143h143v-143h-143v-143h286v-143h-286v143h-143v143h-142v143h142v143h-142v143h142v142z" />
    <glyph glyph-name="Utilde" unicode="&#x168;" 
d="M0 800h142v-714h286v714h143v-714h-143v-143h-286v143h-142v714z" />
    <glyph glyph-name="utilde" unicode="&#x169;" 
d="M142 800h143v-142h143v142h143v-142h-143v-143h143v-572h-429v143h-142v572h142v142zM142 658v-572h286v429h-143v143h-143z" />
    <glyph glyph-name="Umacron" unicode="&#x16a;" 
d="M0 800h142v-714h286v714h143v-714h-143v-143h-286v143h-142v714z" />
    <glyph glyph-name="umacron" unicode="&#x16b;" 
d="M0 800h571v-142h-571v142zM0 515h142v-429h286v429h143v-572h-429v143h-142v429z" />
    <glyph glyph-name="Ubreve" unicode="&#x16c;" 
d="M0 800h142v-714h286v714h143v-714h-143v-143h-286v143h-142v714z" />
    <glyph glyph-name="ubreve" unicode="&#x16d;" 
d="M0 800h142v-142h286v142h143v-142h-143v-143h-286v143h-142v142zM0 372h142v-286h286v286h143v-429h-429v143h-142v286z" />
    <glyph glyph-name="Uring" unicode="&#x16e;" 
d="M0 800h142v-714h286v714h143v-714h-143v-143h-286v143h-142v714z" />
    <glyph glyph-name="uring" unicode="&#x16f;" 
d="M142 800h286v-285h-286v285zM0 372h142v-286h286v286h143v-429h-429v143h-142v286z" />
    <glyph glyph-name="Uhungarumlaut" unicode="&#x170;" 
d="M0 800h142v-714h286v714h143v-714h-143v-143h-286v143h-142v714z" />
    <glyph glyph-name="uhungarumlaut" unicode="&#x171;" 
d="M142 800h143v-142h-143v-143h-142v143h142v142zM571 800h143v-142h-143v-143h-143v143h143v142zM0 372h142v-286h286v286h143v-429h-429v143h-142v286z" />
    <glyph glyph-name="Uogonek" unicode="&#x172;" 
d="M0 800h142v-714h286v714h143v-714h-143v-143h-143v-143h-143v286h-142v714z" />
    <glyph glyph-name="uogonek" unicode="&#x173;" 
d="M0 515h142v-429h286v429h143v-572h-143v-143h-143v143h-143v143h-142v429z" />
    <glyph glyph-name="Wcircumflex" unicode="&#x174;" 
d="M0 800h142v-428h286v428h143v-857h-143v143h-286v-143h-142v857z" />
    <glyph glyph-name="wcircumflex" unicode="&#x175;" 
d="M285 800h143v-142h143v-143h-143v143h-143v-143h-143v143h143v142zM0 372h142v-143h286v143h143v-429h-571v429z" />
    <glyph glyph-name="Ycircumflex" unicode="&#x176;" 
d="M0 800h142v-428h143v428h143v-428h-143v-429h-143v429h-142v428z" />
    <glyph glyph-name="ycircumflex" unicode="&#x177;" 
d="M285 800h143v-142h143v-143h-143v143h-143v-143h-143v143h143v142zM0 372h142v-143h143v-143h143v286h143v-286h-143v-143h-143v-143h-143v143h143v143h-143v143h-142v143z" />
    <glyph glyph-name="Ydieresis" unicode="&#x178;" 
d="M0 800h142v-428h143v428h143v-428h-143v-429h-143v429h-142v428z" />
    <glyph glyph-name="Zacute" unicode="&#x179;" 
d="M0 800h571v-285h-143v-143h-143v-143h-143v-143h429v-143h-571v286h142v143h143v143h143v143h-428v142z" />
    <glyph glyph-name="zacute" unicode="&#x17a;" 
d="M285 800h143v-142h-143v-143h286v-143h-143v-143h-143v-143h286v-143h-571v143h142v143h143v143h-285v143h142v143h143v142z" />
    <glyph glyph-name="Zdotaccent" unicode="&#x17b;" 
d="M0 800h571v-285h-143v-143h-143v-143h-143v-143h429v-143h-571v286h142v143h143v143h143v143h-428v142z" />
    <glyph glyph-name="zdotaccent" unicode="&#x17c;" 
d="M285 800h143v-142h-143v142zM0 515h571v-143h-143v-143h-143v-143h286v-143h-571v143h142v143h143v143h-285v143z" />
    <glyph glyph-name="Zcaron" unicode="&#x17d;" 
d="M0 800h571v-285h-143v-143h-143v-143h-143v-143h429v-143h-571v286h142v143h143v143h143v143h-428v142z" />
    <glyph glyph-name="zcaron" unicode="&#x17e;" 
d="M142 800h143v-142h143v142h143v-142h-143v-143h143v-143h-143v-143h-143v-143h286v-143h-571v143h142v143h143v143h-285v143h285v143h-143v142z" />
    <glyph glyph-name="longs" unicode="&#x17f;" 
d="M428 800h143v-142h-143v-715h-143v429h-143v143h143v143h143v142z" />
    <glyph glyph-name="uni0180" unicode="&#x180;" 
d="M142 800h143v-142h143v-143h-143v-143h143v-143h143v-143h-143v-143h-286v572h-142v143h142v142zM285 229v-143h143v143h-143z" />
    <glyph glyph-name="uni0181" unicode="&#x181;" 
d="M0 800h428v-142h143v-143h-143v-143h143v-286h-143v-143h-286v715h-142v142zM285 658v-143h143v143h-143zM285 372v-286h143v286h-143z" />
    <glyph glyph-name="uni0182" unicode="&#x182;" 
d="M0 800h428v-142h-286v-143h286v-143h143v-286h-143v-143h-428v857zM142 372v-286h286v286h-286z" />
    <glyph glyph-name="uni0183" unicode="&#x183;" 
d="M142 800h286v-142h-143v-143h143v-143h143v-286h-143v-143h-286v857zM285 372v-286h143v286h-143z" />
    <glyph glyph-name="uni0184" unicode="&#x184;" 
d="M142 800h143v-285h286v-143h143v-286h-143v-143h-429v429h-142v286h142v142zM285 372v-286h286v286h-286z" />
    <glyph glyph-name="uni0185" unicode="&#x185;" 
d="M142 800h143v-285h143v-143h143v-286h-143v-143h-286v572h-142v143h142v142zM285 372v-286h143v286h-143z" />
    <glyph glyph-name="uni0186" unicode="&#x186;" 
d="M142 800h286v-142h143v-572h-143v-143h-286v143h-142v143h142v-143h286v572h-286v-143h-142v143h142v142z" />
    <glyph glyph-name="uni0187" unicode="&#x187;" 
d="M142 800h286v-142h143v142h143v-142h-143v-143h-143v143h-286v-572h286v143h143v-143h-143v-143h-286v143h-142v572h142v142z" />
    <glyph glyph-name="uni0188" unicode="&#x188;" 
d="M428 658h143v-143h-143v-143h-286v-286h286v-143h-286v143h-142v286h142v143h286v143z" />
    <glyph glyph-name="uni0189" unicode="&#x189;" 
d="M0 800h428v-142h143v-572h-143v-143h-428v143h142v286h-142v143h142v143h-142v142zM285 658v-572h143v572h-143z" />
    <glyph glyph-name="uni018A" unicode="&#x18a;" 
d="M0 800h428v-142h143v-572h-143v-143h-286v715h-142v142zM285 658v-572h143v572h-143z" />
    <glyph glyph-name="uni018B" unicode="&#x18b;" 
d="M142 800h429v-857h-429v143h-142v286h142v143h286v143h-286v142zM142 372v-286h286v286h-286z" />
    <glyph glyph-name="uni018C" unicode="&#x18c;" 
d="M285 800h286v-857h-286v143h-143v286h143v143h143v143h-143v142zM285 372v-286h143v286h-143z" />
    <glyph glyph-name="uni018D" unicode="&#x18d;" 
d="M142 515h286v-143h143v-143h-143v-143h143v-143h-143v-143h-286v143h286v143h-286v143h-142v143h142v143zM142 372v-143h286v143h-286z" />
    <glyph glyph-name="uni018E" unicode="&#x18e;" 
d="M0 800h571v-857h-571v143h428v286h-286v143h286v143h-428v142z" />
    <glyph glyph-name="uni018F" unicode="&#x18f;" 
d="M142 800h286v-142h143v-572h-143v-143h-286v143h-142v286h428v286h-286v-143h-142v143h142v142zM142 229v-143h286v143h-286z" />
    <glyph glyph-name="uni0190" unicode="&#x190;" 
d="M142 800h286v-142h143v-143h-143v143h-286v-143h143v-143h-143v-286h286v143h143v-143h-143v-143h-286v143h-142v286h142v143h-142v143h142v142z" />
    <glyph glyph-name="uni0191" unicode="&#x191;" 
d="M142 800h429v-142h-286v-143h143v-143h-143v-429h-143v-143h-142v143h142v857z" />
    <glyph glyph-name="florin" unicode="&#x192;" 
d="M285 800h143v-142h143v-143h-143v143h-143v-286h143v-143h-143v-286h-143v-143h-142v143h142v286h-142v143h142v286h143v142z" />
    <glyph glyph-name="uni0193" unicode="&#x193;" 
d="M142 800h429v-285h-143v143h-286v-572h286v143h-143v143h286v-429h-429v143h-142v572h142v142z" />
    <glyph glyph-name="uni0194" unicode="&#x194;" 
d="M0 658h142v-286h286v286h143v-286h-143v-143h143v-143h-143v-143h-286v143h-142v143h142v143h-142v286zM142 229v-143h286v143h-286z" />
    <glyph glyph-name="uni0195" unicode="&#x195;" 
d="M0 800h142v-285h143v-143h143v-286h143v429h143v-429h-143v-143h-143v143h-143v286h-143v-429h-142v857z" />
    <glyph glyph-name="uni0196" unicode="&#x196;" 
d="M142 800h286v-714h143v-143h-143v143h-143v572h-143v142z" />
    <glyph glyph-name="uni0197" unicode="&#x197;" 
d="M142 800h429v-142h-143v-143h143v-143h-143v-286h143v-143h-429v143h143v286h-143v143h143v143h-143v142z" />
    <glyph glyph-name="uni0198" unicode="&#x198;" 
d="M0 800h142v-142h143v142h143v-142h143v-143h-143v143h-143v-143h-143v-143h143v-143h143v-143h143v-143h-143v143h-143v143h-143v-286h-142v857z" />
    <glyph glyph-name="uni0199" unicode="&#x199;" 
d="M142 800h286v-142h-286v-286h143v143h143v-143h-143v-143h143v-143h143v-143h-143v143h-143v143h-143v-286h-142v715h142v142z" />
    <glyph glyph-name="uni019A" unicode="&#x19a;" 
d="M142 800h286v-285h143v-143h-143v-286h143v-143h-429v143h143v286h-143v143h143v143h-143v142z" />
    <glyph glyph-name="uni019B" unicode="&#x19b;" 
d="M142 800h143v-142h286v-143h-143v-286h143v-286h-143v286h-143v-286h-143v286h143v143h-143v143h143v143h-143v142z" />
    <glyph glyph-name="uni019C" unicode="&#x19c;" 
d="M0 800h142v-571h286v571h143v-857h-143v143h-143v-143h-143v143h-142v714z" />
    <glyph glyph-name="uni019D" unicode="&#x19d;" 
d="M142 800h143v-142h143v-286h143v428h143v-857h-143v143h-143v286h-143v-429h-143v-143h-142v143h142v857z" />
    <glyph glyph-name="uni019E" unicode="&#x19e;" 
d="M0 515h428v-143h143v-572h-143v572h-286v-429h-142v572z" />
    <glyph glyph-name="uni019F" unicode="&#x19f;" 
d="M142 800h286v-142h143v-572h-143v-143h-286v143h-142v572h142v142zM142 658v-143h286v143h-286zM142 372v-286h286v286h-286z" />
    <glyph glyph-name="Ohorn" unicode="&#x1a0;" 
d="M142 800h286v-142h143v142h143v-142h-143v-572h-143v-143h-286v143h-142v572h142v142zM142 658v-572h286v572h-286z" />
    <glyph glyph-name="ohorn" unicode="&#x1a1;" 
d="M571 658h143v-143h-143v-429h-143v-143h-286v143h-142v286h142v143h429v143zM142 372v-286h286v286h-286z" />
    <glyph glyph-name="uni01A2" unicode="&#x1a2;" 
d="M142 800h429v-142h143v-572h-143v572h-143v-572h-143v-143h-143v143h-142v572h142v142zM142 658v-572h143v572h-143z" />
    <glyph glyph-name="uni01A3" unicode="&#x1a3;" 
d="M142 515h429v-143h143v-429h-143v429h-143v-286h-143v-143h-143v143h-142v286h142v143zM142 372v-286h143v286h-143z" />
    <glyph glyph-name="uni01A4" unicode="&#x1a4;" 
d="M0 800h428v-142h143v-286h-143v-143h-143v-286h-143v715h-142v142zM285 658v-286h143v286h-143z" />
    <glyph glyph-name="uni01A5" unicode="&#x1a5;" 
d="M142 800h286v-142h-286v-143h286v-143h143v-286h-143v-143h-286v-143h-142v858h142v142zM142 372v-286h286v286h-286z" />
    <glyph glyph-name="uni01A6" unicode="&#x1a6;" 
d="M0 800h142v-142h286v-143h143v-143h-143v-143h-143v-143h143v-143h143v-143h-143v143h-143v143h-143v-143h-142v857zM142 515v-143h286v143h-286z" />
    <glyph glyph-name="uni01A7" unicode="&#x1a7;" 
d="M142 800h286v-142h143v-143h-143v-143h-143v-143h-143v-143h286v143h143v-143h-143v-143h-286v143h-142v143h142v143h143v143h143v143h-286v-143h-142v143h142v142z" />
    <glyph glyph-name="uni01A8" unicode="&#x1a8;" 
d="M0 515h428v-143h143v-143h-286v-143h286v-143h-429v143h-142v143h285v143h-285v143z" />
    <glyph glyph-name="uni01A9" unicode="&#x1a9;" 
d="M0 800h571v-142h-429v-143h143v-286h-143v-143h429v-143h-571v286h142v286h-142v285z" />
    <glyph glyph-name="uni01AA" unicode="&#x1aa;" 
d="M142 800h143v-142h143v-143h143v-143h-143v-429h143v-143h-143v143h-143v429h-143v143h-142v143h142v142zM142 658v-143h143v143h-143z" />
    <glyph glyph-name="uni01AB" unicode="&#x1ab;" 
d="M142 800h143v-285h143v-143h-143v-143h286v-286h-143v-143h-143v143h143v143h-286v286h-142v143h142v285z" />
    <glyph glyph-name="uni01AC" unicode="&#x1ac;" 
d="M142 800h429v-142h-143v-715h-143v715h-143v-286h-142v286h142v142z" />
    <glyph glyph-name="uni01AD" unicode="&#x1ad;" 
d="M285 800h286v-142h-286v-143h143v-143h-143v-286h286v-143h-286v143h-143v286h-142v143h142v143h143v142z" />
    <glyph glyph-name="uni01AE" unicode="&#x1ae;" 
d="M0 800h428v-142h-143v-715h286v-143h-286v143h-143v715h-142v142z" />
    <glyph glyph-name="Uhorn" unicode="&#x1af;" 
d="M0 800h142v-714h286v714h286v-142h-143v-572h-143v-143h-286v143h-142v714z" />
    <glyph glyph-name="uhorn" unicode="&#x1b0;" 
d="M571 658h143v-143h-143v-572h-429v143h-142v429h142v-429h286v429h143v143z" />
    <glyph glyph-name="uni01B1" unicode="&#x1b1;" 
d="M142 800h143v-142h-143v-572h429v572h-143v142h143v-142h143v-572h-143v-143h-429v143h-142v572h142v142z" />
    <glyph glyph-name="uni01B2" unicode="&#x1b2;" 
d="M0 800h142v-714h286v572h-143v142h143v-142h143v-572h-143v-143h-286v143h-142v714z" />
    <glyph glyph-name="uni01B3" unicode="&#x1b3;" 
d="M0 800h142v-142h143v-286h143v428h143v-428h-143v-429h-143v429h-143v286h-142v142z" />
    <glyph glyph-name="uni01B4" unicode="&#x1b4;" 
d="M0 515h142v-429h143v286h143v143h143v-143h-143v-286h-143v-143h-143v-143h-142v143h142v143h-142v429z" />
    <glyph glyph-name="uni01B5" unicode="&#x1b5;" 
d="M0 800h571v-428h-286v-143h-143v-143h429v-143h-571v286h142v143h-142v143h428v143h-428v142z" />
    <glyph glyph-name="uni01B6" unicode="&#x1b6;" 
d="M0 515h571v-286h-286v-143h286v-143h-571v143h142v286h-142v143z" />
    <glyph glyph-name="uni01B7" unicode="&#x1b7;" 
d="M0 800h571v-142h-143v-286h143v-286h-143v-143h-428v143h428v286h-286v143h143v143h-285v142z" />
    <glyph glyph-name="uni01B8" unicode="&#x1b8;" 
d="M0 800h571v-142h-286v-143h143v-143h-286v-286h429v-143h-429v143h-142v286h142v286h-142v142z" />
    <glyph glyph-name="uni01B9" unicode="&#x1b9;" 
d="M0 515h571v-143h-286v-143h143v-143h-286v-143h429v-143h-429v143h-142v143h142v286h-142v143z" />
    <glyph glyph-name="uni01BA" unicode="&#x1ba;" 
d="M0 515h571v-143h-143v-286h143v-143h143v-143h-714v143h285v143h-143v143h143v143h-285v143z" />
    <glyph glyph-name="uni01BB" unicode="&#x1bb;" 
d="M142 800h286v-142h143v-429h-286v-143h286v-143h-571v143h142v143h-142v143h428v286h-286v-143h-142v143h142v142z" />
    <glyph glyph-name="uni01BC" unicode="&#x1bc;" 
d="M0 800h571v-142h-429v-143h286v-143h143v-286h-143v-143h-428v143h428v286h-286v-143h-142v571z" />
    <glyph glyph-name="uni01BD" unicode="&#x1bd;" 
d="M142 515h429v-143h-143v-143h143v-143h-143v-143h-286v143h286v143h-286v286z" />
    <glyph glyph-name="uni01BE" unicode="&#x1be;" 
d="M285 658h143v-143h143v-143h-143v-143h143v-143h-143v-143h-286v143h286v143h-143v143h-143v143h143v143z" />
    <glyph glyph-name="uni01BF" unicode="&#x1bf;" 
d="M0 515h428v-143h143v-143h-143v-143h-143v-143h-143v-143h-142v715zM142 372v-286h143v143h143v143h-286z" />
    <glyph glyph-name="uni01C0" unicode="&#x1c0;" 
d="M285 658h143v-715h-143v715z" />
    <glyph glyph-name="uni01C1" unicode="&#x1c1;" 
d="M142 658h143v-715h-143v715zM428 658h143v-715h-143v715z" />
    <glyph glyph-name="uni01C2" unicode="&#x1c2;" 
d="M285 658h143v-143h143v-143h-143v-143h143v-143h-143v-143h-143v143h-143v143h143v143h-143v143h143v143z" />
    <glyph glyph-name="uni01C3" unicode="&#x1c3;" 
d="M285 658h143v-429h-143v429zM285 86h143v-143h-143v143z" />
    <glyph glyph-name="uni01C4" unicode="&#x1c4;" 
d="M428 800h286v-571h-143v-143h143v-143h-286v143h-143v-143h-285v715h285v-143h143v285zM142 515v-429h143v429h-143zM428 515v-286h143v286h-143z" />
    <glyph glyph-name="uni01C5" unicode="&#x1c5;" 
d="M0 800h285v-142h143v142h286v-142h-286v-143h286v-286h-143v-143h143v-143h-286v143h-143v-143h-285v857zM142 658v-572h143v572h-143zM428 372v-143h143v143h-143z" />
    <glyph glyph-name="uni01C6" unicode="&#x1c6;" 
d="M285 800h429v-142h-286v-143h286v-286h-143v-143h143v-143h-572v143h-142v286h142v143h143v285zM142 372v-286h143v286h-143zM428 372v-143h143v143h-143z" />
    <glyph glyph-name="uni01C7" unicode="&#x1c7;" 
d="M0 800h142v-714h143v143h143v-143h143v714h143v-714h-143v-143h-143v143h-143v-143h-285v857z" />
    <glyph glyph-name="uni01C8" unicode="&#x1c8;" 
d="M0 800h142v-714h286v-143h143v572h143v-572h-143v-143h-143v143h-428v857zM571 800h143v-142h-143v142z" />
    <glyph glyph-name="uni01C9" unicode="&#x1c9;" 
d="M0 800h285v-714h143v-143h143v572h143v-572h-143v-143h-143v143h-428v143h142v572h-142v142zM571 800h143v-142h-143v142z" />
    <glyph glyph-name="uni01CA" unicode="&#x1ca;" 
d="M0 800h285v-142h143v-572h143v714h143v-714h-143v-143h-286v715h-143v-715h-142v857z" />
    <glyph glyph-name="uni01CB" unicode="&#x1cb;" 
d="M0 800h285v-142h143v-715h143v572h143v-572h-143v-143h-143v143h-143v715h-143v-715h-142v857zM571 800h143v-142h-143v142z" />
    <glyph glyph-name="uni01CC" unicode="&#x1cc;" 
d="M571 800h143v-142h-143v142zM0 515h285v-143h143v-429h143v572h143v-572h-143v-143h-143v143h-143v429h-143v-429h-142v572z" />
    <glyph glyph-name="uni01CD" unicode="&#x1cd;" 
d="M142 800h286v-142h143v-715h-143v286h-286v-286h-142v715h142v142zM142 658v-286h286v286h-286z" />
    <glyph glyph-name="uni01CE" unicode="&#x1ce;" 
d="M142 800h143v-142h143v142h143v-142h-143v-143h143v-572h-143v143h-143v-143h-143v143h-142v286h142v143h143v143h-143v142zM142 372v-286h143v143h143v143h-286z" />
    <glyph glyph-name="uni01CF" unicode="&#x1cf;" 
d="M142 800h429v-142h-143v-572h143v-143h-429v143h143v572h-143v142z" />
    <glyph glyph-name="uni01D0" unicode="&#x1d0;" 
d="M142 800h143v-142h143v142h143v-142h-143v-572h143v-143h-429v143h143v286h-143v143h143v143h-143v142z" />
    <glyph glyph-name="uni01D1" unicode="&#x1d1;" 
d="M142 800h286v-142h143v-572h-143v-143h-286v143h-142v572h142v142zM142 658v-572h286v572h-286z" />
    <glyph glyph-name="uni01D2" unicode="&#x1d2;" 
d="M0 800h142v-142h143v142h143v-142h-143v-143h143v-143h143v-286h-143v-143h-286v143h-142v286h142v286h-142v142zM142 372v-286h286v286h-286z" />
    <glyph glyph-name="uni01D3" unicode="&#x1d3;" 
d="M0 800h142v-714h286v714h143v-714h-143v-143h-286v143h-142v714z" />
    <glyph glyph-name="uni01D4" unicode="&#x1d4;" 
d="M142 800h143v-142h143v142h143v-142h-143v-143h143v-572h-429v143h-142v429h142v-429h286v429h-143v143h-143v142z" />
    <glyph glyph-name="uni01D5" unicode="&#x1d5;" 
d="M0 800h142v-714h286v714h143v-714h-143v-143h-286v143h-142v714z" />
    <glyph glyph-name="uni01D6" unicode="&#x1d6;" 
d="M142 800h429v-285h-143v143h-143v-143h-143v285zM0 372h142v-286h286v286h143v-429h-429v143h-142v286z" />
    <glyph glyph-name="uni01D7" unicode="&#x1d7;" 
d="M0 800h142v-714h286v714h143v-714h-143v-143h-286v143h-142v714z" />
    <glyph glyph-name="uni01D8" unicode="&#x1d8;" 
d="M428 800h143v-285h-429v143h286v142zM0 372h142v-286h286v286h143v-429h-429v143h-142v286z" />
    <glyph glyph-name="uni01D9" unicode="&#x1d9;" 
d="M0 800h142v-714h286v714h143v-714h-143v-143h-286v143h-142v714z" />
    <glyph glyph-name="uni01DA" unicode="&#x1da;" 
d="M142 800h143v-142h143v142h143v-285h-429v285zM0 372h142v-286h286v286h143v-429h-429v143h-142v286z" />
    <glyph glyph-name="uni01DB" unicode="&#x1db;" 
d="M0 800h142v-714h286v714h143v-714h-143v-143h-286v143h-142v714z" />
    <glyph glyph-name="uni01DC" unicode="&#x1dc;" 
d="M142 800h143v-142h286v-143h-429v285zM0 372h142v-286h286v286h143v-429h-429v143h-142v286z" />
    <glyph glyph-name="uni01DD" unicode="&#x1dd;" 
d="M142 515h286v-143h143v-286h-143v-143h-286v143h-142v143h285v143h-143v143zM285 229v-143h143v143h-143z" />
    <glyph glyph-name="uni01DE" unicode="&#x1de;" 
d="M142 800h286v-142h143v-715h-143v286h-286v-286h-142v715h142v142zM142 658v-286h286v286h-286z" />
    <glyph glyph-name="uni01DF" unicode="&#x1df;" 
d="M142 800h429v-857h-143v143h-143v-143h-143v143h-142v286h142v428zM285 658v-143h143v143h-143zM142 372v-286h143v143h143v143h-286z" />
    <glyph glyph-name="uni01E0" unicode="&#x1e0;" 
d="M142 800h286v-142h143v-715h-143v286h-286v-286h-142v715h142v142zM142 658v-286h286v286h-286z" />
    <glyph glyph-name="uni01E1" unicode="&#x1e1;" 
d="M142 800h429v-142h-143v-143h143v-572h-143v143h-143v-143h-143v143h-142v286h142v143h143v143h-143v142zM142 372v-286h143v143h143v143h-286z" />
    <glyph glyph-name="uni01E2" unicode="&#x1e2;" 
d="M0 800h571v-285h-143v-143h143v-143h-143v-143h143v-143h-286v286h-143v-286h-142v572h142v143h-142v142zM142 515v-143h143v143h-143z" />
    <glyph glyph-name="uni01E3" unicode="&#x1e3;" 
d="M0 800h571v-142h-571v142zM142 515h429v-286h-143v-143h143v-143h-429v143h-142v286h142v143zM142 372v-286h143v286h-143z" />
    <glyph glyph-name="uni01E4" unicode="&#x1e4;" 
d="M142 800h286v-142h143v-143h-143v143h-286v-572h143v286h286v-143h143v-143h-143v-143h-429v143h-142v572h142v142z" />
    <glyph glyph-name="uni01E5" unicode="&#x1e5;" 
d="M142 515h429v-286h-143v-143h286v-143h-143v-143h-429v143h-142v143h142v143h-142v143h142v143zM142 372v-143h286v143h-286zM142 86v-143h143v143h-143z" />
    <glyph glyph-name="Gcaron" unicode="&#x1e6;" 
d="M142 800h286v-142h143v-143h-143v143h-286v-572h286v143h-143v143h286v-429h-429v143h-142v572h142v142z" />
    <glyph glyph-name="gcaron" unicode="&#x1e7;" 
d="M142 800h143v-142h143v142h143v-142h-143v-143h143v-286h-143v-143h-286v-143h429v-143h-429v143h-142v143h142v143h-142v143h142v143h143v143h-143v142zM142 372v-143h286v143h-286z" />
    <glyph glyph-name="uni01E8" unicode="&#x1e8;" 
d="M0 800h142v-285h143v143h143v142h143v-142h-143v-143h-143v-286h143v-143h143v-143h-143v143h-143v143h-143v-286h-142v857z" />
    <glyph glyph-name="uni01E9" unicode="&#x1e9;" 
d="M0 800h285v-142h143v142h143v-142h-143v-143h-143v143h-143v-429h143v143h143v-143h-143v-143h143v-143h-143v143h-143v-143h-142v857z" />
    <glyph glyph-name="uni01EA" unicode="&#x1ea;" 
d="M142 800h286v-142h143v-572h-143v-143h-143v-143h-143v286h-142v572h142v142zM142 658v-572h286v572h-286z" />
    <glyph glyph-name="uni01EB" unicode="&#x1eb;" 
d="M142 515h286v-143h143v-286h-143v-143h-143v-143h-143v286h-142v286h142v143zM142 372v-286h286v286h-286z" />
    <glyph glyph-name="uni01EC" unicode="&#x1ec;" 
d="M142 800h286v-142h143v-572h-143v-143h-143v-143h-143v286h-142v572h142v142zM142 658v-572h286v572h-286z" />
    <glyph glyph-name="uni01ED" unicode="&#x1ed;" 
d="M0 800h571v-142h-571v142zM142 515h286v-143h143v-286h-143v-143h-143v-143h-143v286h-142v286h142v143zM142 372v-286h286v286h-286z" />
    <glyph glyph-name="uni01EE" unicode="&#x1ee;" 
d="M0 800h571v-142h-143v-286h143v-286h-143v-143h-428v143h428v286h-286v143h143v143h-285v142z" />
    <glyph glyph-name="uni01EF" unicode="&#x1ef;" 
d="M142 800h143v-142h143v142h143v-142h-143v-143h143v-143h-143v-286h143v-143h-143v-143h-428v143h428v143h-286v143h143v143h-285v143h285v143h-143v142z" />
    <glyph glyph-name="uni01F0" unicode="&#x1f0;" 
d="M142 800h143v-142h143v142h143v-142h-143v-143h-143v143h-143v142zM285 372h143v-429h-143v-143h-143v143h-142v143h142v-143h143v429z" />
    <glyph glyph-name="uni01F1" unicode="&#x1f1;" 
d="M0 800h285v-142h143v142h286v-428h-143v-286h143v-143h-286v143h-143v-143h-285v857zM142 658v-572h143v572h-143zM428 658v-286h143v286h-143z" />
    <glyph glyph-name="uni01F2" unicode="&#x1f2;" 
d="M0 800h285v-142h143v-143h286v-286h-143v-143h143v-143h-286v143h-143v-143h-285v857zM142 658v-572h143v572h-143zM428 372v-143h143v143h-143z" />
    <glyph glyph-name="uni01F3" unicode="&#x1f3;" 
d="M285 800h143v-285h286v-286h-143v-143h143v-143h-572v143h-142v286h142v143h143v285zM142 372v-286h143v286h-143zM428 372v-143h143v143h-143z" />
    <glyph glyph-name="uni01F4" unicode="&#x1f4;" 
d="M142 800h286v-142h143v-143h-143v143h-286v-572h286v143h-143v143h286v-429h-429v143h-142v572h142v142z" />
    <glyph glyph-name="uni01F5" unicode="&#x1f5;" 
d="M428 800h143v-142h-143v-143h143v-286h-143v-143h-286v-143h429v-143h-429v143h-142v143h142v143h-142v143h142v143h143v143h143v142zM142 372v-143h286v143h-286z" />
    <glyph glyph-name="uni01F6" unicode="&#x1f6;" 
d="M0 800h142v-285h143v285h143v-714h143v429h143v-429h-143v-143h-143v143h-143v286h-143v-429h-142v857z" />
    <glyph glyph-name="uni01F7" unicode="&#x1f7;" 
d="M0 800h428v-142h143v-143h-143v-143h-143v-143h-143v-286h-142v857zM142 658v-286h143v143h143v143h-286z" />
    <glyph glyph-name="uni01F8" unicode="&#x1f8;" 
d="M0 800h142v-142h143v-286h143v428h143v-857h-143v143h-143v286h-143v-429h-142v857z" />
    <glyph glyph-name="uni01F9" unicode="&#x1f9;" 
d="M142 800h143v-142h143v-286h143v-429h-143v429h-286v-429h-142v572h285v143h-143v142z" />
    <glyph glyph-name="Aringacute" unicode="&#x1fa;" 
d="M142 800h286v-142h143v-715h-143v286h-286v-286h-142v715h142v142zM142 658v-286h286v286h-286z" />
    <glyph glyph-name="aringacute" unicode="&#x1fb;" 
d="M285 800h143v-142h-143v-143h143v-286h143v-286h-429v143h-142v143h142v429h143v142zM142 229v-143h286v143h-286z" />
    <glyph glyph-name="AEacute" unicode="&#x1fc;" 
d="M142 800h429v-142h-143v-143h143v-143h-143v-286h143v-143h-286v286h-143v-286h-142v715h142v142zM142 658v-286h143v286h-143z" />
    <glyph glyph-name="aeacute" unicode="&#x1fd;" 
d="M428 800h143v-142h-143v-143h143v-286h-143v-143h143v-143h-429v143h-142v286h142v143h143v143h143v142zM142 372v-286h143v286h-143z" />
    <glyph glyph-name="Oslashacute" unicode="&#x1fe;" 
d="M142 800h429v-714h-143v-143h-428v715h142v142zM142 658v-286h143v-286h143v286h-143v286h-143z" />
    <glyph glyph-name="oslashacute" unicode="&#x1ff;" 
d="M428 800h143v-142h-143v-143h143v-429h-143v-143h-428v429h142v143h143v143h143v142zM142 372v-143h143v-143h143v143h-143v143h-143z" />
    <glyph glyph-name="uni0200" unicode="&#x200;" 
d="M142 800h286v-142h143v-715h-143v286h-286v-286h-142v715h142v142zM142 658v-286h286v286h-286z" />
    <glyph glyph-name="uni0201" unicode="&#x201;" 
d="M0 800h142v-142h143v142h143v-142h143v-715h-143v143h-143v-143h-143v143h-142v286h142v286h-142v142zM285 658v-143h143v143h-143zM142 372v-286h143v143h143v143h-286z" />
    <glyph glyph-name="uni0202" unicode="&#x202;" 
d="M142 800h286v-142h143v-715h-143v286h-286v-286h-142v715h142v142zM142 658v-286h286v286h-286z" />
    <glyph glyph-name="uni0203" unicode="&#x203;" 
d="M142 800h286v-142h143v-715h-143v143h-143v-143h-143v143h-142v286h142v143h-142v143h142v142zM142 658v-143h286v143h-286zM142 372v-286h143v143h143v143h-286z" />
    <glyph glyph-name="uni0204" unicode="&#x204;" 
d="M0 800h571v-142h-429v-143h286v-143h-286v-286h429v-143h-571v857z" />
    <glyph glyph-name="uni0205" unicode="&#x205;" 
d="M0 800h142v-142h143v142h143v-142h143v-143h-143v-143h143v-143h-286v-143h143v-143h-286v143h-142v286h142v286h-142v142zM285 658v-143h143v143h-143zM142 372v-143h143v143h-143z" />
    <glyph glyph-name="uni0206" unicode="&#x206;" 
d="M0 800h571v-142h-429v-143h286v-143h-286v-286h429v-143h-571v857z" />
    <glyph glyph-name="uni0207" unicode="&#x207;" 
d="M142 800h286v-142h143v-143h-143v-143h143v-143h-286v-143h143v-143h-286v143h-142v286h142v143h-142v143h142v142zM142 658v-143h286v143h-286zM142 372v-143h143v143h-143z" />
    <glyph glyph-name="uni0208" unicode="&#x208;" 
d="M142 800h429v-142h-143v-572h143v-143h-429v143h143v572h-143v142z" />
    <glyph glyph-name="uni0209" unicode="&#x209;" 
d="M0 800h142v-142h143v142h143v-142h143v-143h-143v-429h143v-143h-429v143h143v286h-143v286h-142v142zM285 658v-143h143v143h-143z" />
    <glyph glyph-name="uni020A" unicode="&#x20a;" 
d="M142 800h429v-142h-143v-572h143v-143h-429v143h143v572h-143v142z" />
    <glyph glyph-name="uni020B" unicode="&#x20b;" 
d="M142 800h286v-142h143v-143h-143v-429h143v-143h-429v143h143v286h-143v143h-142v143h142v142zM142 658v-143h286v143h-286z" />
    <glyph glyph-name="uni020C" unicode="&#x20c;" 
d="M142 800h286v-142h143v-572h-143v-143h-286v143h-142v572h142v142zM142 658v-572h286v572h-286z" />
    <glyph glyph-name="uni020D" unicode="&#x20d;" 
d="M0 800h142v-142h143v142h143v-142h143v-143h-143v-143h143v-286h-143v-143h-286v143h-142v286h142v286h-142v142zM285 658v-143h143v143h-143zM142 372v-286h286v286h-286z" />
    <glyph glyph-name="uni020E" unicode="&#x20e;" 
d="M142 800h286v-142h143v-572h-143v-143h-286v143h-142v572h142v142zM142 658v-572h286v572h-286z" />
    <glyph glyph-name="uni020F" unicode="&#x20f;" 
d="M142 800h286v-142h143v-143h-143v-143h143v-286h-143v-143h-286v143h-142v286h142v143h-142v143h142v142zM142 658v-143h286v143h-286zM142 372v-286h286v286h-286z" />
    <glyph glyph-name="uni0210" unicode="&#x210;" 
d="M0 800h428v-142h143v-286h-143v-286h143v-143h-143v143h-143v143h-143v-286h-142v857zM142 658v-286h286v286h-286z" />
    <glyph glyph-name="uni0211" unicode="&#x211;" 
d="M0 800h142v-142h143v142h143v-142h143v-143h-143v-143h143v-143h-143v143h-286v-429h-142v572h142v143h-142v142zM285 658v-143h143v143h-143z" />
    <glyph glyph-name="uni0212" unicode="&#x212;" 
d="M0 800h428v-142h143v-286h-143v-286h143v-143h-143v143h-143v143h-143v-286h-142v857zM142 658v-286h286v286h-286z" />
    <glyph glyph-name="uni0213" unicode="&#x213;" 
d="M142 800h286v-142h143v-143h-143v-143h143v-143h-143v143h-286v-429h-142v715h142v142zM142 658v-143h286v143h-286z" />
    <glyph glyph-name="uni0214" unicode="&#x214;" 
d="M0 800h142v-714h286v714h143v-714h-143v-143h-286v143h-142v714z" />
    <glyph glyph-name="uni0215" unicode="&#x215;" 
d="M0 800h142v-142h143v142h143v-142h143v-715h-429v143h-142v429h142v143h-142v142zM285 658v-143h-143v-429h286v572h-143z" />
    <glyph glyph-name="uni0216" unicode="&#x216;" 
d="M0 800h142v-714h286v714h143v-714h-143v-143h-286v143h-142v714z" />
    <glyph glyph-name="uni0217" unicode="&#x217;" 
d="M142 800h286v-142h143v-715h-429v143h-142v572h142v142zM142 658v-572h286v572h-286z" />
    <glyph glyph-name="uni0218" unicode="&#x218;" 
d="M142 800h286v-142h143v-143h-143v143h-286v-143h143v-143h143v-143h143v-143h-143v-143h-143v-143h-285v143h142v143h-142v143h142v-143h286v143h-143v143h-143v143h-142v143h142v142z" />
    <glyph glyph-name="uni0219" unicode="&#x219;" 
d="M142 515h429v-143h-286v-143h286v-143h-143v-143h-143v-143h-285v286h285v143h-285v143h142v143z" />
    <glyph glyph-name="uni021A" unicode="&#x21a;" 
d="M142 800h429v-142h-143v-715h-143v-143h-143v143h143v715h-143v142z" />
    <glyph glyph-name="uni021B" unicode="&#x21b;" 
d="M142 800h143v-285h143v-143h-143v-286h286v-143h-286v-143h-143v143h143v143h-143v286h-142v143h142v285z" />
    <glyph glyph-name="uni021C" unicode="&#x21c;" 
d="M142 800h286v-142h143v-286h-143v-143h143v-143h-143v-143h-428v143h428v143h-143v143h143v286h-286v-143h-142v143h142v142z" />
    <glyph glyph-name="uni021D" unicode="&#x21d;" 
d="M142 515h286v-143h143v-286h-143v-143h-143v-143h-285v143h285v143h-143v143h-142v143h142v143zM142 372v-143h143v-143h143v143h-143v143h-143z" />
    <glyph glyph-name="uni021E" unicode="&#x21e;" 
d="M0 800h142v-285h286v285h143v-857h-143v429h-286v-429h-142v857z" />
    <glyph glyph-name="uni021F" unicode="&#x21f;" 
d="M142 800h143v-142h143v142h143v-142h-143v-143h-143v143h-143v-286h286v-143h143v-286h-143v286h-286v-286h-142v715h142v142z" />
    <glyph glyph-name="uni0250" unicode="&#x250;" 
d="M0 515h142v-143h143v143h143v-143h143v-286h-143v-143h-428v572zM285 372v-143h-143v-143h286v286h-143z" />
    <glyph glyph-name="uni0251" unicode="&#x251;" 
d="M142 515h429v-572h-429v143h-142v286h142v143zM142 372v-286h286v286h-286z" />
    <glyph glyph-name="uni0252" unicode="&#x252;" 
d="M0 515h428v-143h143v-286h-143v-143h-428v572zM142 372v-286h286v286h-286z" />
    <glyph glyph-name="uni0253" unicode="&#x253;" 
d="M142 800h286v-142h-286v-143h286v-143h143v-286h-143v-143h-428v715h142v142zM142 372v-286h286v286h-286z" />
    <glyph glyph-name="uni0254" unicode="&#x254;" 
d="M142 515h286v-143h143v-286h-143v-143h-286v143h286v286h-286v143z" />
    <glyph glyph-name="uni0255" unicode="&#x255;" 
d="M142 515h286v-143h-286v-286h143v143h286v-143h-143v-143h-286v-143h-142v143h142v143h-142v286h142v143z" />
    <glyph glyph-name="uni0256" unicode="&#x256;" 
d="M428 800h143v-857h143v-143h-286v143h-286v143h-142v286h142v143h286v285zM142 372v-286h286v286h-286z" />
    <glyph glyph-name="uni0257" unicode="&#x257;" 
d="M428 800h286v-142h-143v-715h-429v143h-142v286h142v143h286v285zM142 372v-286h286v286h-286z" />
    <glyph glyph-name="uni0258" unicode="&#x258;" 
d="M142 515h286v-143h143v-286h-143v-143h-286v143h143v143h-285v143h142v143zM285 372v-143h143v143h-143z" />
    <glyph glyph-name="uni0259" unicode="&#x259;" 
d="M142 515h286v-143h143v-286h-143v-143h-286v143h-142v143h285v143h-143v143zM285 229v-143h143v143h-143z" />
    <glyph glyph-name="uni025A" unicode="&#x25a;" 
d="M142 515h286v-143h286v-143h-143v-143h-143v-143h-286v143h-142v143h285v143h-143v143zM285 229v-143h143v143h-143z" />
    <glyph glyph-name="uni025B" unicode="&#x25b;" 
d="M285 515h286v-143h-143v-143h-143v-143h286v-143h-286v143h-143v143h143v286z" />
    <glyph glyph-name="uni025C" unicode="&#x25c;" 
d="M142 515h286v-286h143v-143h-143v-143h-286v143h286v143h-143v143h-143v143z" />
    <glyph glyph-name="uni025D" unicode="&#x25d;" 
d="M0 515h571v-143h-286v-143h143v-143h-143v-143h-285v143h285v143h-143v143h-142v143z" />
    <glyph glyph-name="uni025E" unicode="&#x25e;" 
d="M142 515h286v-286h143v-143h-143v-143h-286v143h-142v286h142v143zM142 372v-286h286v143h-143v143h-143z" />
    <glyph glyph-name="uni025F" unicode="&#x25f;" 
d="M285 658h143v-286h143v-143h-143v-286h-143v-143h-143v143h-142v143h142v-143h143v286h-143v143h143v286z" />
    <glyph glyph-name="uni0260" unicode="&#x260;" 
d="M571 658h143v-143h-143v-572h-143v-143h-286v143h286v143h-286v143h-142v143h142v143h429v143zM142 372v-143h286v143h-286z" />
    <glyph glyph-name="uni0261" unicode="&#x261;" 
d="M142 515h429v-572h-143v-143h-286v143h286v143h-286v143h-142v143h142v143zM142 372v-143h286v143h-286z" />
    <glyph glyph-name="uni0262" unicode="&#x262;" 
d="M142 515h429v-143h-429v-286h286v143h143v-286h-429v143h-142v286h142v143z" />
    <glyph glyph-name="uni0263" unicode="&#x263;" 
d="M142 515h143v-286h143v286h143v-286h-143v-143h143v-143h-143v-143h-143v143h-143v143h143v143h-143v286zM285 86v-143h143v143h-143z" />
    <glyph glyph-name="uni0264" unicode="&#x264;" 
d="M142 515h143v-143h143v143h143v-143h-143v-143h143v-143h-143v-143h-143v143h-143v143h143v143h-143v143zM285 229v-143h143v143h-143z" />
    <glyph glyph-name="uni0265" unicode="&#x265;" 
d="M0 515h142v-429h286v429h143v-715h-143v143h-286v143h-142v429z" />
    <glyph glyph-name="uni0266" unicode="&#x266;" 
d="M142 800h286v-142h-286v-143h286v-143h143v-429h-143v429h-286v-429h-142v715h142v142z" />
    <glyph glyph-name="uni0267" unicode="&#x267;" 
d="M142 800h286v-142h-286v-143h286v-143h143v-429h-143v-143h-143v143h143v429h-286v-429h-142v715h142v142z" />
    <glyph glyph-name="uni0268" unicode="&#x268;" 
d="M285 800h143v-142h-143v142zM285 515h143v-143h143v-143h-143v-143h143v-143h-429v143h143v143h-143v143h143v143z" />
    <glyph glyph-name="uni0269" unicode="&#x269;" 
d="M142 515h143v-429h143v-143h-143v143h-143v429z" />
    <glyph glyph-name="uni026A" unicode="&#x26a;" 
d="M0 515h428v-143h-143v-286h143v-143h-428v143h142v286h-142v143z" />
    <glyph glyph-name="uni026B" unicode="&#x26b;" 
d="M142 800h286v-428h143v143h143v-143h-143v-143h-143v-143h143v-143h-429v143h143v286h-143v-143h-142v143h142v143h143v143h-143v142z" />
    <glyph glyph-name="uni026C" unicode="&#x26c;" 
d="M142 800h286v-428h143v-143h-143v-143h143v-143h-429v143h143v143h-143v286h143v143h-143v142z" />
    <glyph glyph-name="uni026D" unicode="&#x26d;" 
d="M142 800h286v-857h143v-143h-143v143h-143v715h-143v142z" />
    <glyph glyph-name="uni026E" unicode="&#x26e;" 
d="M0 800h142v-285h286v-143h143v-286h-143v-286h-286v143h-142v857zM142 372v-429h143v143h143v286h-286z" />
    <glyph glyph-name="uni026F" unicode="&#x26f;" 
d="M0 515h142v-286h286v286h143v-572h-143v143h-143v-143h-143v143h-142v429z" />
    <glyph glyph-name="uni0270" unicode="&#x270;" 
d="M0 515h142v-286h286v286h143v-715h-143v286h-143v-143h-143v143h-142v429z" />
    <glyph glyph-name="uni0271" unicode="&#x271;" 
d="M0 515h142v-143h143v143h143v-143h143v-429h-143v-143h-143v143h143v286h-286v-286h-142v572z" />
    <glyph glyph-name="uni0272" unicode="&#x272;" 
d="M142 515h286v-143h143v-429h-143v429h-143v-429h-143v-143h-142v143h142v572z" />
    <glyph glyph-name="uni0273" unicode="&#x273;" 
d="M0 515h285v-143h143v-429h143v-143h-143v143h-143v429h-143v-429h-142v572z" />
    <glyph glyph-name="uni0274" unicode="&#x274;" 
d="M0 515h142v-143h143v-143h143v286h143v-572h-143v143h-143v143h-143v-286h-142v572z" />
    <glyph glyph-name="uni0275" unicode="&#x275;" 
d="M142 658h286v-143h143v-429h-143v-143h-286v143h-142v429h142v143zM142 515v-143h286v143h-286zM142 229v-143h286v143h-286z" />
    <glyph glyph-name="uni0276" unicode="&#x276;" 
d="M142 515h429v-286h-143v-143h143v-143h-429v143h-142v286h142v143zM142 372v-286h143v286h-143z" />
    <glyph glyph-name="uni0277" unicode="&#x277;" 
d="M142 515h286v-143h143v-429h-571v429h142v143zM142 372v-143h286v143h-286z" />
    <glyph glyph-name="uni0278" unicode="&#x278;" 
d="M285 658h143v-143h143v-143h143v-143h-143v-143h-143v-143h-143v143h-143v143h-142v143h142v143h143v143zM142 372v-143h143v143h-143zM428 372v-143h143v143h-143z" />
    <glyph glyph-name="uni0279" unicode="&#x279;" 
d="M428 515h143v-572h-429v143h-142v143h142v-143h286v429z" />
    <glyph glyph-name="uni027A" unicode="&#x27a;" 
d="M428 658h143v-715h-429v143h-142v143h142v-143h286v572z" />
    <glyph glyph-name="uni027B" unicode="&#x27b;" 
d="M285 515h143v-429h143v-143h-286v143h-143v143h-142v143h142v-143h143v286z" />
    <glyph glyph-name="uni027C" unicode="&#x27c;" 
d="M0 658h428v-143h143v-143h-143v143h-286v-715h-142v858z" />
    <glyph glyph-name="uni027D" unicode="&#x27d;" 
d="M0 658h428v-143h143v-143h-143v143h-286v-572h143v-143h-143v143h-142v715z" />
    <glyph glyph-name="uni027E" unicode="&#x27e;" 
d="M142 515h286v-143h143v-143h-143v143h-286v-429h-142v429h142v143z" />
    <glyph glyph-name="uni027F" unicode="&#x27f;" 
d="M142 515h286v-143h143v-429h-143v429h-286v-143h-142v143h142v143z" />
    <glyph glyph-name="uni0280" unicode="&#x280;" 
d="M0 515h428v-143h143v-143h-143v-143h143v-143h-143v143h-286v-143h-142v572zM142 372v-143h286v143h-286z" />
    <glyph glyph-name="uni0281" unicode="&#x281;" 
d="M0 515h142v-143h286v143h143v-143h-143v-143h143v-143h-143v-143h-428v572zM142 229v-143h286v143h-286z" />
    <glyph glyph-name="uni0282" unicode="&#x282;" 
d="M142 515h429v-143h-286v-143h286v-143h-143v-143h-286v-143h-142v286h285v143h-285v143h142v143z" />
    <glyph glyph-name="uni0283" unicode="&#x283;" 
d="M428 800h143v-142h-143v-715h-143v-143h-143v143h143v715h143v142z" />
    <glyph glyph-name="uni0284" unicode="&#x284;" 
d="M428 800h143v-142h-143v-429h143v-143h-143v-143h-143v-143h-143v143h143v143h-143v143h143v429h143v142z" />
    <glyph glyph-name="uni0285" unicode="&#x285;" 
d="M142 515h143v-143h143v-286h143v-143h-143v143h-143v286h-143v143z" />
    <glyph glyph-name="uni0286" unicode="&#x286;" 
d="M428 800h143v-142h-143v-429h143v-143h-143v-143h-143v-143h-143v143h-142v143h142v143h143v429h143v142zM142 86v-143h143v143h-143z" />
    <glyph glyph-name="uni0287" unicode="&#x287;" 
d="M0 658h285v-143h143v-286h143v-143h-143v-286h-143v286h-143v143h143v286h-285v143z" />
    <glyph glyph-name="uni0288" unicode="&#x288;" 
d="M142 800h143v-285h143v-143h-143v-429h286v-143h-286v143h-143v429h-142v143h142v285z" />
    <glyph glyph-name="uni0289" unicode="&#x289;" 
d="M0 515h142v-143h286v143h143v-572h-429v143h-142v429zM142 229v-143h286v143h-286z" />
    <glyph glyph-name="uni028A" unicode="&#x28a;" 
d="M0 515h142v-429h286v429h143v-429h-143v-143h-286v143h-142v429z" />
    <glyph glyph-name="uni028B" unicode="&#x28b;" 
d="M0 515h142v-429h286v286h-143v143h143v-143h143v-286h-143v-143h-286v143h-142v429z" />
    <glyph glyph-name="uni028C" unicode="&#x28c;" 
d="M285 515h143v-143h143v-429h-143v429h-143v-429h-143v429h143v143z" />
    <glyph glyph-name="uni028D" unicode="&#x28d;" 
d="M0 515h571v-572h-143v286h-286v-286h-142v572z" />
    <glyph glyph-name="uni028E" unicode="&#x28e;" 
d="M285 658h143v-143h-143v-143h143v-143h143v-286h-143v286h-143v143h-143v-429h-142v429h142v143h143v143z" />
    <glyph glyph-name="uni028F" unicode="&#x28f;" 
d="M0 515h142v-143h143v143h143v-143h-143v-429h-143v429h-142v143z" />
    <glyph glyph-name="uni0290" unicode="&#x290;" 
d="M0 515h571v-143h-143v-143h-143v-143h286v-286h-143v143h-428v143h142v143h143v143h-285v143z" />
    <glyph glyph-name="uni0291" unicode="&#x291;" 
d="M0 515h571v-143h-143v-143h143v-286h-286v-143h-143v143h-142v143h142v143h143v143h-285v143zM285 229v-143h143v143h-143z" />
    <glyph glyph-name="uni0292" unicode="&#x292;" 
d="M0 515h571v-143h-143v-286h143v-143h-143v-143h-428v143h428v143h-286v143h143v143h-285v143z" />
    <glyph glyph-name="uni0293" unicode="&#x293;" 
d="M0 515h571v-143h-143v-286h143v-143h143v-143h-572v429h143v143h-285v143zM285 86v-143h143v143h-143z" />
    <glyph glyph-name="uni0294" unicode="&#x294;" 
d="M142 658h286v-143h143v-286h-143v-286h-143v429h143v143h-286v143z" />
    <glyph glyph-name="uni0295" unicode="&#x295;" 
d="M285 658h286v-143h-286v-143h143v-429h-143v286h-143v286h143v143z" />
    <glyph glyph-name="uni0296" unicode="&#x296;" 
d="M285 658h143v-286h143v-286h-143v-143h-286v143h286v143h-143v429z" />
    <glyph glyph-name="uni0297" unicode="&#x297;" 
d="M285 658h143v-143h143v-143h-143v143h-143v-572h143v143h143v-143h-143v-143h-143v143h-143v572h143v143z" />
    <glyph glyph-name="uni0298" unicode="&#x298;" 
d="M142 658h429v-143h143v-429h-143v-143h-429v143h-142v429h142v143zM142 515v-429h429v429h-429zM285 372h143v-143h-143v143z" />
    <glyph glyph-name="uni0299" unicode="&#x299;" 
d="M0 515h428v-286h143v-143h-143v-143h-428v572zM142 229v-143h286v143h-286z" />
    <glyph glyph-name="uni029A" unicode="&#x29a;" 
d="M142 515h286v-143h143v-286h-143v-143h-286v143h-142v143h142v286zM285 372v-143h-143v-143h286v286h-143z" />
    <glyph glyph-name="uni029B" unicode="&#x29b;" 
d="M428 658h286v-143h-143v-143h-429v-286h286v143h143v-286h-429v143h-142v286h142v143h286v143z" />
    <glyph glyph-name="uni029C" unicode="&#x29c;" 
d="M0 515h142v-143h286v143h143v-572h-143v286h-286v-286h-142v572z" />
    <glyph glyph-name="uni029D" unicode="&#x29d;" 
d="M285 800h143v-142h-143v142zM285 515h143v-286h143v-143h-143v-143h-143v-143h-143v143h-142v143h142v143h143v286zM142 86v-143h143v143h-143z" />
    <glyph glyph-name="uni029E" unicode="&#x29e;" 
d="M0 515h142v-143h143v-143h143v286h143v-715h-143v286h-143v-143h-143v143h143v143h-143v143h-142v143z" />
    <glyph glyph-name="uni029F" unicode="&#x29f;" 
d="M0 515h142v-429h429v-143h-571v572z" />
    <glyph glyph-name="uni02A0" unicode="&#x2a0;" 
d="M428 658h286v-143h-143v-715h-143v143h-286v143h-142v286h142v143h286v143zM142 372v-286h286v286h-286z" />
    <glyph glyph-name="uni02A1" unicode="&#x2a1;" 
d="M142 658h286v-143h143v-143h-143v-143h143v-143h-143v-143h-143v143h-143v143h143v143h143v143h-286v143z" />
    <glyph glyph-name="uni02A2" unicode="&#x2a2;" 
d="M285 658h286v-143h-286v-143h143v-143h143v-143h-143v-143h-143v143h-143v143h143v143h-143v143h143v143z" />
    <glyph glyph-name="uni02A3" unicode="&#x2a3;" 
d="M285 800h143v-285h286v-286h-143v-143h143v-143h-572v143h-142v286h142v143h143v285zM142 372v-286h143v286h-143zM428 372v-143h143v143h-143z" />
    <glyph glyph-name="uni02A4" unicode="&#x2a4;" 
d="M285 800h143v-285h286v-286h-143v-143h143v-143h-143v-143h-143v143h-286v143h-142v286h142v143h143v285zM142 372v-286h143v286h-143zM428 372v-143h143v143h-143zM428 86v-143h143v143h-143z" />
    <glyph glyph-name="uni02A5" unicode="&#x2a5;" 
d="M285 800h143v-285h286v-572h-572v143h-142v286h142v143h143v285zM142 372v-286h143v286h-143zM428 372v-143h143v143h-143z" />
    <glyph glyph-name="uni02A6" unicode="&#x2a6;" 
d="M142 800h143v-285h143v-143h143v143h143v-143h-143v-143h143v-143h-143v-143h-286v143h-143v286h-142v143h142v285zM285 372v-286h286v143h-143v143h-143z" />
    <glyph glyph-name="uni02A7" unicode="&#x2a7;" 
d="M142 800h143v-285h143v143h143v142h143v-142h-143v-715h-143v-143h-143v286h-143v286h-142v143h142v285zM285 372v-286h143v286h-143z" />
    <glyph glyph-name="uni02A8" unicode="&#x2a8;" 
d="M142 800h143v-285h143v-143h143v143h143v-143h-143v-286h143v-143h-143v-143h-143v143h-143v143h-143v286h-142v143h142v285zM285 372v-286h143v286h-143z" />
    <glyph glyph-name="uni02B6" unicode="&#x2b6;" 
d="M0 800h142v-142h143v142h143v-142h-143v-143h143v-143h-143v-143h-285v571zM142 515v-143h143v143h-143z" />
    <glyph glyph-name="uni02B8" unicode="&#x2b8;" 
d="M142 800h143v-142h-143v-143h-142v143h142v142z" />
    <glyph glyph-name="uni02B9" unicode="&#x2b9;" 
d="M142 800h143v-142h143v142h143v-142h-143v-143h-143v143h-143v-143h-142v143h142v142z" />
    <glyph glyph-name="uni02BC" unicode="&#x2bc;" 
d="M285 800h286v-142h-143v-143h-143v-143h-143v143h143v285z" />
    <glyph glyph-name="uni02BD" unicode="&#x2bd;" 
d="M142 800h286v-285h143v-143h-143v143h-143v143h-143v142z" />
    <glyph glyph-name="circumflex" unicode="&#x2c6;" 
d="M285 800h143v-142h143v-143h-143v143h-143v-143h-143v143h143v142z" />
    <glyph glyph-name="caron" unicode="&#x2c7;" 
d="M142 800h143v-142h143v142h143v-142h-143v-143h-143v143h-143v142z" />
    <glyph glyph-name="uni02C8" unicode="&#x2c8;" 
d="M285 800h143v-285h-143v285z" />
    <glyph glyph-name="uni02C9" unicode="&#x2c9;" 
d="M142 800h429v-142h-429v142z" />
    <glyph glyph-name="uni02CC" unicode="&#x2cc;" 
d="M285 86h143v-286h-143v286z" />
    <glyph glyph-name="uni02D0" unicode="&#x2d0;" 
d="M142 658h429v-143h-143v-143h-143v143h-143v143zM285 229h143v-143h143v-143h-429v143h143v143z" />
    <glyph glyph-name="uni02D6" unicode="&#x2d6;" 
d="M285 515h143v-143h143v-143h-143v-143h-143v143h-143v143h143v143z" />
    <glyph glyph-name="breve" unicode="&#x2d8;" 
d="M0 800h142v-142h286v142h143v-142h-143v-143h-286v143h-142v142z" />
    <glyph glyph-name="dotaccent" unicode="&#x2d9;" 
d="M285 800h143v-142h-143v142z" />
    <glyph glyph-name="ring" unicode="&#x2da;" 
d="M285 800h143v-142h143v-143h-143v-143h-143v143h-143v143h143v142zM285 658v-143h143v143h-143z" />
    <glyph glyph-name="ogonek" unicode="&#x2db;" 
d="M285 86h143v-143h143v-143h-286v286z" />
    <glyph glyph-name="tilde" unicode="&#x2dc;" 
d="M142 800h143v-142h143v142h143v-142h-143v-143h-143v143h-143v-143h-142v143h142v142z" />
    <glyph glyph-name="hungarumlaut" unicode="&#x2dd;" 
d="M142 800h143v-142h-143v-143h-142v143h142v142zM571 800h143v-142h-143v-143h-143v143h143v142z" />
    <glyph glyph-name="gravecomb" unicode="&#x300;" 
d="M142 800h143v-142h143v-143h-143v143h-143v142z" />
    <glyph glyph-name="acutecomb" unicode="&#x301;" 
d="M285 800h143v-142h-143v-143h-143v143h143v142z" />
    <glyph glyph-name="uni0302" unicode="&#x302;" 
d="M142 800h286v-142h-286v142z" />
    <glyph glyph-name="tildecomb" unicode="&#x303;" 
d="M142 800h143v-142h143v142h143v-142h-143v-143h-143v143h-143v-143h-142v143h142v142z" />
    <glyph glyph-name="uni0304" unicode="&#x304;" 
d="M142 800h429v-142h-429v142z" />
    <glyph glyph-name="uni0305" unicode="&#x305;" 
d="M0 800h714v-142h-714v142z" />
    <glyph glyph-name="uni0306" unicode="&#x306;" 
d="M0 800h142v-142h286v142h143v-142h-143v-143h-286v143h-142v142z" />
    <glyph glyph-name="uni0307" unicode="&#x307;" 
d="M285 800h143v-142h-143v142z" />
    <glyph glyph-name="uni0308" unicode="&#x308;" 
d="M142 800h143v-142h-143v142zM428 800h143v-142h-143v142z" />
    <glyph glyph-name="hookabovecomb" unicode="&#x309;" 
d="M142 800h286v-285h-143v143h-143v142z" />
    <glyph glyph-name="uni030A" unicode="&#x30a;" 
d="M142 800h286v-285h-286v285z" />
    <glyph glyph-name="uni030B" unicode="&#x30b;" 
d="M142 800h143v-142h-143v-143h-142v143h142v142zM571 800h143v-142h-143v-143h-143v143h143v142z" />
    <glyph glyph-name="uni030C" unicode="&#x30c;" 
d="M142 800h143v-142h143v142h143v-142h-143v-143h-143v143h-143v142z" />
    <glyph glyph-name="uni030D" unicode="&#x30d;" 
d="M285 800h143v-285h-143v285z" />
    <glyph glyph-name="uni030E" unicode="&#x30e;" 
d="M142 800h143v-285h-143v285zM428 800h143v-285h-143v285z" />
    <glyph glyph-name="uni030F" unicode="&#x30f;" 
d="M0 800h142v-142h143v-143h-143v143h-142v142zM428 800h143v-142h143v-143h-143v143h-143v142z" />
    <glyph glyph-name="uni0310" unicode="&#x310;" 
d="M0 800h142v-142h143v142h143v-142h143v142h143v-142h-143v-143h-429v143h-142v142z" />
    <glyph glyph-name="uni0311" unicode="&#x311;" 
d="M142 800h286v-142h143v-143h-143v143h-286v-143h-142v143h142v142z" />
    <glyph glyph-name="dotbelowcomb" unicode="&#x323;" 
d="M285 -57h143v-143h-143v143z" />
    <glyph glyph-name="uni0324" unicode="&#x324;" 
d="M142 -57h143v-143h-143v143zM428 -57h143v-143h-143v143z" />
    <glyph glyph-name="uni0338" unicode="&#x338;" 
d="M428 800h143v-142h-143v-286h-143v-286h-143v-143h-142v143h142v286h143v286h143v142z" />
    <glyph glyph-name="uni0340" unicode="&#x340;" 
d="M142 800h143v-142h143v-143h-143v143h-143v142z" />
    <glyph glyph-name="uni0341" unicode="&#x341;" 
d="M285 800h143v-142h-143v-143h-143v143h143v142z" />
    <glyph glyph-name="uni0374" unicode="&#x374;" 
d="M285 800h143v-142h-143v-143h-143v143h143v142z" />
    <glyph glyph-name="uni0375" unicode="&#x375;" 
d="M285 86h143v-143h-143v-143h-143v143h143v143z" />
    <glyph glyph-name="uni037A" unicode="&#x37a;" 
d="M142 -57h143v-143h-143v143z" />
    <glyph glyph-name="uni037E" unicode="&#x37e;" 
d="M142 658h286v-286h-286v286zM142 229h286v-143h-143v-143h-143v-143h-142v143h142v286z" />
    <glyph glyph-name="tonos" unicode="&#x384;" 
d="M285 800h143v-142h-143v-143h-143v143h143v142z" />
    <glyph glyph-name="dieresistonos" unicode="&#x385;" 
d="M0 800h142v-142h143v142h286v-142h-286v-143h-143v143h-142v142z" />
    <glyph glyph-name="Alphatonos" unicode="&#x386;" 
d="M0 800h142v-142h143v142h143v-142h143v-715h-143v286h-143v-286h-143v572h-142v285zM285 658v-286h143v286h-143z" />
    <glyph glyph-name="anoteleia" unicode="&#x387;" 
d="M142 515h286v-286h-286v286z" />
    <glyph glyph-name="Epsilontonos" unicode="&#x388;" 
d="M0 800h571v-142h-286v-143h143v-143h-143v-286h286v-143h-429v572h-142v285z" />
    <glyph glyph-name="Etatonos" unicode="&#x389;" 
d="M0 800h285v-285h143v285h143v-857h-143v429h-143v-429h-143v572h-142v285z" />
    <glyph glyph-name="Iotatonos" unicode="&#x38a;" 
d="M0 800h571v-142h-143v-572h143v-143h-429v143h143v572h-143v-143h-142v285z" />
    <glyph glyph-name="Omicrontonos" unicode="&#x38c;" 
d="M0 800h142v-142h143v142h143v-142h143v-572h-143v-143h-143v143h-143v429h-142v285zM285 658v-572h143v572h-143z" />
    <glyph glyph-name="Upsilontonos" unicode="&#x38e;" 
d="M0 800h285v-428h143v428h143v-428h-143v-429h-143v429h-143v143h-142v285z" />
    <glyph glyph-name="Omegatonos" unicode="&#x38f;" 
d="M0 800h142v-142h143v142h143v-142h143v-429h-143v-143h143v-143h-143v143h-143v-143h-143v143h143v143h-143v286h-142v285zM285 658v-429h143v429h-143z" />
    <glyph glyph-name="iotadieresistonos" unicode="&#x390;" 
d="M0 800h142v-142h143v142h286v-142h-286v-143h-143v143h-142v142zM142 372h143v-286h143v-143h-143v143h-143v286z" />
    <glyph glyph-name="Alpha" unicode="&#x391;" 
d="M142 800h286v-142h143v-715h-143v286h-286v-286h-142v715h142v142zM142 658v-286h286v286h-286z" />
    <glyph glyph-name="Beta" unicode="&#x392;" 
d="M0 800h428v-142h143v-143h-143v-143h143v-286h-143v-143h-428v857zM142 658v-143h286v143h-286zM142 372v-286h286v286h-286z" />
    <glyph glyph-name="Gamma" unicode="&#x393;" 
d="M0 800h571v-142h-429v-715h-142v857z" />
    <glyph glyph-name="uni0394" unicode="&#x394;" 
d="M142 800h286v-285h143v-572h-571v572h142v285zM142 515v-429h286v429h-286z" />
    <glyph glyph-name="Epsilon" unicode="&#x395;" 
d="M0 800h571v-142h-429v-143h286v-143h-286v-286h429v-143h-571v857z" />
    <glyph glyph-name="Zeta" unicode="&#x396;" 
d="M0 800h571v-285h-143v-143h-143v-143h-143v-143h429v-143h-571v286h142v143h143v143h143v143h-428v142z" />
    <glyph glyph-name="Eta" unicode="&#x397;" 
d="M0 800h142v-285h286v285h143v-857h-143v429h-286v-429h-142v857z" />
    <glyph glyph-name="Theta" unicode="&#x398;" 
d="M142 800h286v-142h143v-572h-143v-143h-286v143h-142v572h142v142zM142 658v-143h286v143h-286zM142 372v-286h286v286h-286z" />
    <glyph glyph-name="Iota" unicode="&#x399;" 
d="M142 800h429v-142h-143v-572h143v-143h-429v143h143v572h-143v142z" />
    <glyph glyph-name="Kappa" unicode="&#x39a;" 
d="M0 800h142v-285h143v143h143v142h143v-142h-143v-143h-143v-286h143v-143h143v-143h-143v143h-143v143h-143v-286h-142v857z" />
    <glyph glyph-name="Lambda" unicode="&#x39b;" 
d="M142 800h286v-428h143v-429h-143v429h-286v-429h-142v429h142v428z" />
    <glyph glyph-name="Mu" unicode="&#x39c;" 
d="M0 800h142v-142h286v142h143v-857h-143v429h-286v-429h-142v857z" />
    <glyph glyph-name="Nu" unicode="&#x39d;" 
d="M0 800h142v-142h143v-286h143v428h143v-857h-143v143h-143v286h-143v-429h-142v857z" />
    <glyph glyph-name="Xi" unicode="&#x39e;" 
d="M0 800h571v-142h-571v142zM142 515h286v-143h-286v143zM0 86h571v-143h-571v143z" />
    <glyph glyph-name="Omicron" unicode="&#x39f;" 
d="M142 800h286v-142h143v-572h-143v-143h-286v143h-142v572h142v142zM142 658v-572h286v572h-286z" />
    <glyph glyph-name="Pi" unicode="&#x3a0;" 
d="M0 800h571v-857h-143v715h-286v-715h-142v857z" />
    <glyph glyph-name="Rho" unicode="&#x3a1;" 
d="M0 800h428v-142h143v-286h-143v-143h-286v-286h-142v857zM142 658v-286h286v286h-286z" />
    <glyph glyph-name="Sigma" unicode="&#x3a3;" 
d="M0 800h571v-142h-429v-143h143v-286h-143v-143h429v-143h-571v286h142v286h-142v285z" />
    <glyph glyph-name="Tau" unicode="&#x3a4;" 
d="M142 800h429v-142h-143v-715h-143v715h-143v142z" />
    <glyph glyph-name="Upsilon" unicode="&#x3a5;" 
d="M142 800h143v-428h143v428h143v-428h-143v-429h-143v429h-143v428z" />
    <glyph glyph-name="Phi" unicode="&#x3a6;" 
d="M285 800h143v-142h143v-572h-143v-143h-143v143h-143v572h143v142zM285 515v-286h143v286h-143z" />
    <glyph glyph-name="Chi" unicode="&#x3a7;" 
d="M0 800h142v-285h286v285h143v-285h-143v-286h143v-286h-143v286h-286v-286h-142v286h142v286h-142v285z" />
    <glyph glyph-name="Psi" unicode="&#x3a8;" 
d="M142 800h143v-142h143v142h143v-571h-143v-286h-143v286h-143v571z" />
    <glyph glyph-name="uni03A9" unicode="&#x3a9;" 
d="M285 800h143v-142h143v-429h-143v-143h143v-143h-143v143h-143v-143h-143v143h143v143h-143v429h143v142zM285 658v-429h143v429h-143z" />
    <glyph glyph-name="Iotadieresis" unicode="&#x3aa;" 
d="M142 800h143v-142h-143v142zM428 800h143v-142h-143v142zM142 515h429v-143h-143v-286h143v-143h-429v143h143v286h-143v143z" />
    <glyph glyph-name="Upsilondieresis" unicode="&#x3ab;" 
d="M0 800h142v-142h-142v142zM285 800h143v-142h-143v142zM0 515h142v-286h143v286h143v-286h-143v-286h-143v286h-142v286z" />
    <glyph glyph-name="alphatonos" unicode="&#x3ac;" 
d="M428 800h143v-142h-143v-143h143v-572h-143v143h-143v-143h-143v143h-142v286h142v143h143v143h143v142zM142 372v-286h143v143h143v143h-286z" />
    <glyph glyph-name="epsilontonos" unicode="&#x3ad;" 
d="M428 800h143v-142h-143v-143h143v-143h-143v-143h-143v-143h286v-143h-286v143h-143v143h143v143h-143v143h143v143h143v142z" />
    <glyph glyph-name="etatonos" unicode="&#x3ae;" 
d="M285 800h143v-142h-143v-143h143v-143h143v-572h-143v572h-286v-429h-142v572h142v143h143v142z" />
    <glyph glyph-name="iotatonos" unicode="&#x3af;" 
d="M285 800h143v-142h-143v-143h-143v143h143v142zM142 372h143v-286h143v-143h-143v143h-143v286z" />
    <glyph glyph-name="upsilondieresistonos" unicode="&#x3b0;" 
d="M0 800h142v-142h143v142h286v-142h-286v-143h-143v-429h286v429h143v-429h-143v-143h-286v143h-142v429h142v143h-142v142z" />
    <glyph glyph-name="alpha" unicode="&#x3b1;" 
d="M142 515h429v-572h-143v143h-143v-143h-143v143h-142v286h142v143zM142 372v-286h143v143h143v143h-286z" />
    <glyph glyph-name="beta" unicode="&#x3b2;" 
d="M142 800h286v-142h143v-143h-143v-143h143v-286h-143v-143h-286v-143h-142v858h142v142zM142 658v-143h286v143h-286zM142 372v-286h286v286h-286z" />
    <glyph glyph-name="gamma" unicode="&#x3b3;" 
d="M142 515h143v-286h143v286h143v-286h-143v-429h-143v429h-143v286z" />
    <glyph glyph-name="delta" unicode="&#x3b4;" 
d="M142 800h429v-142h-429v-143h286v-143h143v-286h-143v-143h-286v143h-142v286h142v143h-142v143h142v142zM142 372v-286h286v286h-286z" />
    <glyph glyph-name="epsilon" unicode="&#x3b5;" 
d="M142 515h429v-143h-143v-143h-143v-143h286v-143h-286v143h-143v143h143v143h-143v143z" />
    <glyph glyph-name="zeta" unicode="&#x3b6;" 
d="M0 800h571v-142h-286v-143h-143v-429h429v-286h-143v143h-286v143h-142v429h142v143h-142v142z" />
    <glyph glyph-name="eta" unicode="&#x3b7;" 
d="M0 515h428v-143h143v-572h-143v572h-286v-429h-142v572z" />
    <glyph glyph-name="theta" unicode="&#x3b8;" 
d="M285 800h143v-142h143v-572h-143v-143h-143v143h-143v572h143v142zM285 658v-143h143v143h-143zM285 372v-286h143v286h-143z" />
    <glyph glyph-name="iota" unicode="&#x3b9;" 
d="M142 515h143v-429h143v-143h-143v143h-143v429z" />
    <glyph glyph-name="kappa" unicode="&#x3ba;" 
d="M0 515h142v-286h143v143h143v143h143v-143h-143v-286h143v-143h-143v143h-286v-143h-142v572z" />
    <glyph glyph-name="lambda" unicode="&#x3bb;" 
d="M0 800h428v-142h143v-715h-143v286h-143v143h-143v-429h-142v429h142v143h143v-143h143v286h-428v142z" />
    <glyph glyph-name="uni03BC" unicode="&#x3bc;" 
d="M0 515h142v-429h286v429h143v-572h-429v-143h-142v715z" />
    <glyph glyph-name="nu" unicode="&#x3bd;" 
d="M142 515h143v-429h143v429h143v-429h-143v-143h-143v143h-143v429z" />
    <glyph glyph-name="xi" unicode="&#x3be;" 
d="M0 800h571v-142h-286v-143h-143v-143h286v-143h-286v-143h429v-286h-143v143h-286v143h-142v143h142v143h-142v143h142v143h-142v142z" />
    <glyph glyph-name="omicron" unicode="&#x3bf;" 
d="M142 515h286v-143h143v-286h-143v-143h-286v143h-142v286h142v143zM142 372v-286h286v286h-286z" />
    <glyph glyph-name="pi" unicode="&#x3c0;" 
d="M142 515h429v-572h-143v429h-143v-429h-143v572z" />
    <glyph glyph-name="rho" unicode="&#x3c1;" 
d="M142 515h286v-143h143v-286h-143v-143h-286v-143h-142v572h142v143zM142 372v-286h286v286h-286z" />
    <glyph glyph-name="sigma1" unicode="&#x3c2;" 
d="M142 515h429v-143h-286v-143h286v-143h-143v-143h-286v143h143v143h-285v143h142v143z" />
    <glyph glyph-name="sigma" unicode="&#x3c3;" 
d="M142 515h429v-143h-143v-143h143v-143h-143v-143h-286v143h-142v286h142v143zM142 372v-286h286v143h-143v143h-143z" />
    <glyph glyph-name="tau" unicode="&#x3c4;" 
d="M0 515h571v-143h-286v-286h143v-143h-143v143h-143v286h-142v143z" />
    <glyph glyph-name="upsilon" unicode="&#x3c5;" 
d="M0 515h142v-429h286v429h143v-429h-143v-143h-286v143h-142v429z" />
    <glyph glyph-name="phi" unicode="&#x3c6;" 
d="M285 515h143v-143h143v-429h-143v-143h-143v143h-143v429h143v143zM285 229v-143h143v143h-143z" />
    <glyph glyph-name="chi" unicode="&#x3c7;" 
d="M0 515h142v-143h286v143h143v-143h-143v-286h143v-286h-143v286h-286v-286h-142v286h142v286h-142v143z" />
    <glyph glyph-name="psi" unicode="&#x3c8;" 
d="M142 515h143v-143h143v143h143v-429h-143v-286h-143v286h-143v429z" />
    <glyph glyph-name="omega" unicode="&#x3c9;" 
d="M0 515h142v-286h286v286h143v-572h-571v572z" />
    <glyph glyph-name="iotadieresis" unicode="&#x3ca;" 
d="M0 800h142v-142h-142v142zM285 800h143v-142h-143v142zM142 515h143v-429h143v-143h-143v143h-143v429z" />
    <glyph glyph-name="upsilondieresis" unicode="&#x3cb;" 
d="M0 800h142v-142h-142v142zM428 800h143v-142h-143v142zM0 515h142v-429h286v429h143v-429h-143v-143h-286v143h-142v429z" />
    <glyph glyph-name="omicrontonos" unicode="&#x3cc;" 
d="M285 800h143v-142h-143v-143h143v-143h143v-286h-143v-143h-286v143h-142v286h142v286h143v142zM142 372v-286h286v286h-286z" />
    <glyph glyph-name="upsilontonos" unicode="&#x3cd;" 
d="M285 800h143v-142h-143v-143h-143v-429h286v429h143v-429h-143v-143h-286v143h-142v429h142v143h143v142z" />
    <glyph glyph-name="omegatonos" unicode="&#x3ce;" 
d="M285 800h143v-142h-143v-143h-143v-286h286v286h143v-572h-571v572h142v143h143v142z" />
    <glyph glyph-name="uni03D0" unicode="&#x3d0;" 
d="M142 800h286v-142h143v-143h-143v-143h143v-286h-143v-143h-286v143h-142v572h142v142zM142 658v-286h143v-143h-143v-143h286v286h-143v143h143v143h-286z" />
    <glyph glyph-name="theta1" unicode="&#x3d1;" 
d="M142 800h286v-142h143v-572h-143v-143h-286v143h-142v143h142v-143h286v286h-286v143h-142v143h142v142zM142 658v-143h286v143h-286z" />
    <glyph glyph-name="Upsilon1" unicode="&#x3d2;" 
d="M142 800h143v-428h143v428h143v-428h-143v-429h-143v429h-143v428z" />
    <glyph glyph-name="uni03D3" unicode="&#x3d3;" 
d="M0 800h285v-428h143v428h143v-428h-143v-429h-143v429h-143v143h-142v285z" />
    <glyph glyph-name="uni03D4" unicode="&#x3d4;" 
d="M142 800h143v-142h-143v142zM428 800h143v-142h-143v142zM142 515h143v-286h143v286h143v-286h-143v-286h-143v286h-143v286z" />
    <glyph glyph-name="phi1" unicode="&#x3d5;" 
d="M285 515h143v-143h143v-429h-143v-143h-143v143h-143v429h143v143zM285 229v-143h143v143h-143z" />
    <glyph glyph-name="omega1" unicode="&#x3d6;" 
d="M0 515h571v-572h-571v572zM142 372v-143h286v143h-286z" />
    <glyph glyph-name="uni03D7" unicode="&#x3d7;" 
d="M142 800h143v-142h143v-143h143v-143h-143v-286h143v-286h-286v143h143v143h-286v-143h-142v143h142v286h-142v143h142v-143h286v143h-143v143h-143v142z" />
    <glyph glyph-name="uni03DA" unicode="&#x3da;" 
d="M285 800h143v-142h143v-143h-143v143h-143v-143h-143v-286h286v-143h143v-143h-143v-143h-143v143h143v143h-286v143h-142v286h142v143h143v142z" />
    <glyph glyph-name="uni03DB" unicode="&#x3db;" 
d="M142 515h429v-143h-286v-143h286v-143h-143v-143h-286v143h143v143h-285v143h142v143z" />
    <glyph glyph-name="uni03DC" unicode="&#x3dc;" 
d="M0 800h571v-142h-429v-143h286v-143h-286v-429h-142v857z" />
    <glyph glyph-name="uni03DD" unicode="&#x3dd;" 
d="M142 515h429v-143h-286v-143h143v-143h-143v-286h-143v715z" />
    <glyph glyph-name="uni03DE" unicode="&#x3de;" 
d="M0 800h142v-428h143v143h143v143h143v-715h-143v429h-143v-143h-143v-143h-142v714z" />
    <glyph glyph-name="uni03DF" unicode="&#x3df;" 
d="M142 800h143v-285h-143v-143h429v-286h-143v-286h-143v286h143v143h-428v286h142v285z" />
    <glyph glyph-name="uni03E0" unicode="&#x3e0;" 
d="M142 800h286v-428h143v-429h-286v286h143v143h-286v-429h-142v429h142v428z" />
    <glyph glyph-name="uni03E1" unicode="&#x3e1;" 
d="M0 800h285v-142h143v-143h143v-715h-143v429h-143v-143h-143v143h-142v143h142v143h143v143h-285v142zM285 515v-143h-143v-143h143v143h143v143h-143z" />
    <glyph glyph-name="uni03F0" unicode="&#x3f0;" 
d="M0 515h142v-143h286v143h143v-143h-143v-286h143v-143h-286v143h-143v-143h-142v143h142v286h-142v143z" />
    <glyph glyph-name="uni03F1" unicode="&#x3f1;" 
d="M142 515h286v-143h143v-143h-143v-143h-286v-143h286v-143h-286v143h-142v429h142v143zM142 372v-143h286v143h-286z" />
    <glyph glyph-name="uni03F2" unicode="&#x3f2;" 
d="M285 515h286v-143h-286v-286h286v-143h-286v143h-143v286h143v143z" />
    <glyph glyph-name="uni03F3" unicode="&#x3f3;" 
d="M428 800h143v-142h-143v142zM428 515h143v-572h-143v-143h-143v143h-143v143h143v-143h143v572z" />
    <glyph glyph-name="uni03F4" unicode="&#x3f4;" 
d="M142 800h286v-142h143v-572h-143v-143h-286v143h-142v572h142v142zM142 658v-143h286v143h-286zM142 372v-286h286v286h-286z" />
    <glyph glyph-name="uni03F5" unicode="&#x3f5;" 
d="M285 515h286v-143h-143v-143h-143v-143h286v-143h-286v143h-143v286h143v143z" />
    <glyph glyph-name="uni0401" unicode="&#x401;" 
d="M0 800h571v-142h-429v-143h286v-143h-286v-286h429v-143h-571v857z" />
    <glyph glyph-name="uni0402" unicode="&#x402;" 
d="M0 800h428v-142h-143v-143h143v-143h143v-429h-143v-143h-143v143h143v429h-143v-286h-143v572h-142v142z" />
    <glyph glyph-name="uni0403" unicode="&#x403;" 
d="M0 800h571v-142h-429v-715h-142v857z" />
    <glyph glyph-name="uni0404" unicode="&#x404;" 
d="M142 800h286v-142h143v-143h-143v143h-286v-143h143v-143h-143v-286h286v143h143v-143h-143v-143h-286v143h-142v572h142v142z" />
    <glyph glyph-name="uni0405" unicode="&#x405;" 
d="M142 800h286v-142h143v-143h-143v143h-286v-143h143v-143h143v-143h143v-143h-143v-143h-286v143h-142v143h142v-143h286v143h-143v143h-143v143h-142v143h142v142z" />
    <glyph glyph-name="uni0406" unicode="&#x406;" 
d="M142 800h429v-142h-143v-572h143v-143h-429v143h143v572h-143v142z" />
    <glyph glyph-name="uni0407" unicode="&#x407;" 
d="M142 800h429v-142h-143v-572h143v-143h-429v143h143v572h-143v142z" />
    <glyph glyph-name="uni0408" unicode="&#x408;" 
d="M428 800h143v-714h-143v-143h-286v143h-142v143h142v-143h286v714z" />
    <glyph glyph-name="uni0409" unicode="&#x409;" 
d="M142 800h286v-285h143v-143h143v-286h-143v-143h-286v715h-143v-715h-142v715h142v142zM428 372v-286h143v286h-143z" />
    <glyph glyph-name="uni040A" unicode="&#x40a;" 
d="M0 800h142v-285h143v285h143v-285h143v-143h143v-286h-143v-143h-286v429h-143v-429h-142v857zM428 372v-286h143v286h-143z" />
    <glyph glyph-name="uni040B" unicode="&#x40b;" 
d="M0 800h428v-142h-143v-143h143v-143h143v-429h-143v429h-143v-429h-143v715h-142v142z" />
    <glyph glyph-name="uni040C" unicode="&#x40c;" 
d="M0 800h142v-285h143v143h143v142h143v-142h-143v-143h-143v-286h143v-143h143v-143h-143v143h-143v143h-143v-286h-142v857z" />
    <glyph glyph-name="uni040E" unicode="&#x40e;" 
d="M142 800h143v-428h143v428h143v-428h-143v-286h-143v-143h-143v143h143v286h-143v428z" />
    <glyph glyph-name="uni040F" unicode="&#x40f;" 
d="M142 800h143v-714h143v714h143v-857h-143v-143h-143v143h-143v857z" />
    <glyph glyph-name="uni0410" unicode="&#x410;" 
d="M142 800h286v-142h143v-715h-143v286h-286v-286h-142v715h142v142zM142 658v-286h286v286h-286z" />
    <glyph glyph-name="uni0411" unicode="&#x411;" 
d="M0 800h428v-142h-286v-143h286v-143h143v-286h-143v-143h-428v857zM142 372v-286h286v286h-286z" />
    <glyph glyph-name="uni0412" unicode="&#x412;" 
d="M0 800h428v-142h143v-143h-143v-143h143v-286h-143v-143h-428v857zM142 658v-143h286v143h-286zM142 372v-286h286v286h-286z" />
    <glyph glyph-name="uni0413" unicode="&#x413;" 
d="M0 800h571v-142h-429v-715h-142v857z" />
    <glyph glyph-name="uni0414" unicode="&#x414;" 
d="M285 800h286v-1000h-143v143h-286v-143h-142v286h142v572h143v142zM285 658v-572h143v572h-143z" />
    <glyph glyph-name="uni0415" unicode="&#x415;" 
d="M0 800h571v-142h-429v-143h286v-143h-286v-286h429v-143h-571v857z" />
    <glyph glyph-name="uni0416" unicode="&#x416;" 
d="M0 800h142v-285h143v285h143v-285h143v285h143v-285h-143v-286h143v-286h-143v286h-143v-286h-143v286h-143v-286h-142v286h142v286h-142v285z" />
    <glyph glyph-name="uni0417" unicode="&#x417;" 
d="M0 800h428v-142h143v-143h-143v-143h143v-286h-143v-143h-286v143h-142v143h142v-143h286v286h-286v143h286v143h-428v142z" />
    <glyph glyph-name="uni0418" unicode="&#x418;" 
d="M0 800h142v-428h143v286h143v142h143v-857h-143v429h-143v-286h-143v-143h-142v857z" />
    <glyph glyph-name="uni0419" unicode="&#x419;" 
d="M0 800h285v-142h143v142h143v-857h-143v429h-143v-286h-143v-143h-142v857zM142 658v-286h143v286h-143z" />
    <glyph glyph-name="uni041A" unicode="&#x41a;" 
d="M0 800h142v-285h143v143h143v142h143v-142h-143v-143h-143v-286h143v-143h143v-143h-143v143h-143v143h-143v-286h-142v857z" />
    <glyph glyph-name="uni041B" unicode="&#x41b;" 
d="M285 800h286v-857h-143v715h-143v-572h-143v-143h-142v143h142v572h143v142z" />
    <glyph glyph-name="uni041C" unicode="&#x41c;" 
d="M0 800h142v-142h286v142h143v-857h-143v429h-286v-429h-142v857z" />
    <glyph glyph-name="uni041D" unicode="&#x41d;" 
d="M0 800h142v-285h286v285h143v-857h-143v429h-286v-429h-142v857z" />
    <glyph glyph-name="uni041E" unicode="&#x41e;" 
d="M142 800h286v-142h143v-572h-143v-143h-286v143h-142v572h142v142zM142 658v-572h286v572h-286z" />
    <glyph glyph-name="uni041F" unicode="&#x41f;" 
d="M0 800h571v-857h-143v715h-286v-715h-142v857z" />
    <glyph glyph-name="uni0420" unicode="&#x420;" 
d="M0 800h428v-142h143v-286h-143v-143h-286v-286h-142v857zM142 658v-286h286v286h-286z" />
    <glyph glyph-name="uni0421" unicode="&#x421;" 
d="M142 800h286v-142h143v-143h-143v143h-286v-572h286v143h143v-143h-143v-143h-286v143h-142v572h142v142z" />
    <glyph glyph-name="uni0422" unicode="&#x422;" 
d="M142 800h429v-142h-143v-715h-143v715h-143v142z" />
    <glyph glyph-name="uni0423" unicode="&#x423;" 
d="M142 800h143v-428h143v428h143v-428h-143v-286h-143v-143h-143v143h143v286h-143v428z" />
    <glyph glyph-name="uni0424" unicode="&#x424;" 
d="M285 800h143v-142h143v-572h-143v-143h-143v143h-143v572h143v142zM285 515v-286h143v286h-143z" />
    <glyph glyph-name="uni0425" unicode="&#x425;" 
d="M0 800h142v-285h286v285h143v-285h-143v-286h143v-286h-143v286h-286v-286h-142v286h142v286h-142v285z" />
    <glyph glyph-name="uni0426" unicode="&#x426;" 
d="M0 800h142v-714h286v714h143v-1000h-143v143h-428v857z" />
    <glyph glyph-name="uni0427" unicode="&#x427;" 
d="M0 800h142v-428h286v428h143v-857h-143v286h-286v143h-142v428z" />
    <glyph glyph-name="uni0428" unicode="&#x428;" 
d="M0 800h142v-714h143v714h143v-714h143v714h143v-857h-714v857z" />
    <glyph glyph-name="uni0429" unicode="&#x429;" 
d="M0 800h142v-714h143v714h143v-714h143v714h143v-1000h-143v143h-571v857z" />
    <glyph glyph-name="uni042A" unicode="&#x42a;" 
d="M0 800h285v-285h143v-143h143v-286h-143v-143h-286v715h-142v142zM285 372v-286h143v286h-143z" />
    <glyph glyph-name="uni042B" unicode="&#x42b;" 
d="M0 800h142v-285h143v-143h143v428h143v-857h-143v143h-143v-143h-285v857zM142 372v-286h143v286h-143z" />
    <glyph glyph-name="uni042C" unicode="&#x42c;" 
d="M0 800h142v-285h286v-143h143v-286h-143v-143h-428v857zM142 372v-286h286v286h-286z" />
    <glyph glyph-name="uni042D" unicode="&#x42d;" 
d="M142 800h286v-142h143v-572h-143v-143h-286v143h-142v143h142v-143h286v286h-143v143h143v143h-286v-143h-142v143h142v142z" />
    <glyph glyph-name="uni042E" unicode="&#x42e;" 
d="M0 800h142v-142h143v142h143v-142h143v-572h-143v-143h-143v143h-143v-143h-142v857zM285 658v-572h143v572h-143z" />
    <glyph glyph-name="uni042F" unicode="&#x42f;" 
d="M142 800h429v-857h-143v286h-143v-143h-143v-143h-142v143h142v286h-142v286h142v142zM142 658v-286h286v286h-286z" />
    <glyph glyph-name="uni0430" unicode="&#x430;" 
d="M142 515h429v-572h-143v143h-143v-143h-143v143h-142v286h142v143zM142 372v-286h143v143h143v143h-286z" />
    <glyph glyph-name="uni0431" unicode="&#x431;" 
d="M142 658h286v-143h-286v-143h286v-143h143v-143h-143v-143h-286v143h-142v429h142v143zM142 229v-143h286v143h-286z" />
    <glyph glyph-name="uni0432" unicode="&#x432;" 
d="M0 515h428v-286h143v-143h-143v-143h-428v572zM142 229v-143h286v143h-286z" />
    <glyph glyph-name="uni0433" unicode="&#x433;" 
d="M0 515h571v-143h-429v-429h-142v572z" />
    <glyph glyph-name="uni0434" unicode="&#x434;" 
d="M285 515h286v-715h-143v143h-286v-143h-142v286h142v286h143v143zM285 372v-286h143v286h-143z" />
    <glyph glyph-name="uni0435" unicode="&#x435;" 
d="M142 515h286v-143h143v-143h-286v-143h143v-143h-286v143h-142v286h142v143zM142 372v-143h143v143h-143z" />
    <glyph glyph-name="uni0436" unicode="&#x436;" 
d="M0 515h142v-143h143v143h143v-143h143v143h143v-143h-143v-286h143v-143h-143v143h-143v-143h-143v143h-143v-143h-142v143h142v286h-142v143z" />
    <glyph glyph-name="uni0437" unicode="&#x437;" 
d="M0 515h428v-429h-143v-143h-285v143h285v143h-143v143h-142v143z" />
    <glyph glyph-name="uni0438" unicode="&#x438;" 
d="M0 515h142v-286h143v143h143v143h143v-572h-143v286h-143v-143h-143v-143h-142v572z" />
    <glyph glyph-name="uni0439" unicode="&#x439;" 
d="M0 800h142v-142h286v142h143v-142h-143v-143h143v-572h-143v286h-143v-143h-143v-143h-142v572h142v143h-142v142zM142 515v-286h143v143h143v143h-286z" />
    <glyph glyph-name="uni043A" unicode="&#x43a;" 
d="M0 515h142v-143h286v143h143v-143h-143v-286h143v-143h-143v143h-143v143h-143v-286h-142v572z" />
    <glyph glyph-name="uni043B" unicode="&#x43b;" 
d="M285 515h286v-572h-143v429h-143v-286h-143v-143h-142v143h142v286h143v143z" />
    <glyph glyph-name="uni043C" unicode="&#x43c;" 
d="M0 515h142v-143h143v-143h143v143h143v143h143v-572h-143v286h-143v-286h-143v286h-143v-286h-142v572z" />
    <glyph glyph-name="uni043D" unicode="&#x43d;" 
d="M0 515h142v-143h286v143h143v-572h-143v286h-286v-286h-142v572z" />
    <glyph glyph-name="uni043E" unicode="&#x43e;" 
d="M142 515h286v-143h143v-286h-143v-143h-286v143h-142v286h142v143zM142 372v-286h286v286h-286z" />
    <glyph glyph-name="uni043F" unicode="&#x43f;" 
d="M0 515h571v-572h-143v429h-286v-429h-142v572z" />
    <glyph glyph-name="uni0440" unicode="&#x440;" 
d="M0 515h428v-143h143v-286h-143v-143h-286v-143h-142v715zM142 372v-286h286v286h-286z" />
    <glyph glyph-name="uni0441" unicode="&#x441;" 
d="M142 515h286v-143h-286v-286h286v-143h-286v143h-142v286h142v143z" />
    <glyph glyph-name="uni0442" unicode="&#x442;" 
d="M0 515h428v-143h-143v-429h-143v429h-142v143z" />
    <glyph glyph-name="uni0443" unicode="&#x443;" 
d="M0 515h142v-286h143v-143h143v429h143v-429h-143v-143h-143v-143h-143v143h143v143h-143v143h-142v286z" />
    <glyph glyph-name="uni0444" unicode="&#x444;" 
d="M142 800h286v-428h143v-429h-143v-143h-143v143h-143v429h143v286h-143v142zM285 229v-143h143v143h-143z" />
    <glyph glyph-name="uni0445" unicode="&#x445;" 
d="M0 515h142v-143h286v143h143v-143h-143v-286h143v-143h-143v143h-286v-143h-142v143h142v286h-142v143z" />
    <glyph glyph-name="uni0446" unicode="&#x446;" 
d="M0 515h142v-429h286v429h143v-715h-143v143h-428v572z" />
    <glyph glyph-name="uni0447" unicode="&#x447;" 
d="M0 515h142v-286h286v286h143v-572h-143v143h-286v143h-142v286z" />
    <glyph glyph-name="uni0448" unicode="&#x448;" 
d="M0 515h142v-429h143v429h143v-429h143v429h143v-572h-714v572z" />
    <glyph glyph-name="uni0449" unicode="&#x449;" 
d="M0 515h142v-429h143v429h143v-429h143v429h143v-715h-143v143h-571v572z" />
    <glyph glyph-name="uni044A" unicode="&#x44a;" 
d="M0 515h285v-143h143v-143h143v-143h-143v-143h-286v429h-142v143zM285 229v-143h143v143h-143z" />
    <glyph glyph-name="uni044B" unicode="&#x44b;" 
d="M0 515h142v-143h143v-143h143v286h143v-572h-143v143h-143v-143h-285v572zM142 229v-143h143v143h-143z" />
    <glyph glyph-name="uni044C" unicode="&#x44c;" 
d="M0 515h142v-143h286v-143h143v-143h-143v-143h-428v572zM142 229v-143h286v143h-286z" />
    <glyph glyph-name="uni044D" unicode="&#x44d;" 
d="M142 515h286v-143h143v-286h-143v-143h-286v143h286v143h-143v143h-143v143z" />
    <glyph glyph-name="uni044E" unicode="&#x44e;" 
d="M0 515h142v-143h143v143h143v-143h143v-286h-143v-143h-143v143h-143v-143h-142v572zM285 372v-286h143v286h-143z" />
    <glyph glyph-name="uni044F" unicode="&#x44f;" 
d="M142 515h286v-572h-143v143h-143v-143h-142v143h142v143h-142v143h142v143zM142 372v-143h143v143h-143z" />
    <glyph glyph-name="uni0451" unicode="&#x451;" 
d="M0 800h142v-142h-142v142zM285 800h143v-142h-143v142zM142 515h286v-143h143v-143h-286v-143h143v-143h-286v143h-142v286h142v143zM142 372v-143h143v143h-143z" />
    <glyph glyph-name="uni0452" unicode="&#x452;" 
d="M142 800h143v-142h143v-143h-143v-143h143v-143h143v-286h-143v-143h-143v143h143v286h-143v-143h-143v429h-142v143h142v142z" />
    <glyph glyph-name="uni0453" unicode="&#x453;" 
d="M285 800h143v-142h-143v-143h286v-143h-429v-429h-142v572h142v143h143v142z" />
    <glyph glyph-name="uni0454" unicode="&#x454;" 
d="M285 515h286v-143h-143v-143h-143v-143h286v-143h-286v143h-143v286h143v143z" />
    <glyph glyph-name="uni0455" unicode="&#x455;" 
d="M142 515h429v-143h-286v-143h286v-143h-143v-143h-428v143h285v143h-285v143h142v143z" />
    <glyph glyph-name="uni0456" unicode="&#x456;" 
d="M285 800h143v-142h-143v142zM142 515h286v-429h143v-143h-429v143h143v286h-143v143z" />
    <glyph glyph-name="uni0457" unicode="&#x457;" 
d="M142 800h143v-142h-143v142zM428 800h143v-142h-143v142zM142 515h286v-429h143v-143h-429v143h143v286h-143v143z" />
    <glyph glyph-name="uni0458" unicode="&#x458;" 
d="M428 800h143v-142h-143v142zM428 515h143v-572h-143v-143h-143v143h-143v143h143v-143h143v572z" />
    <glyph glyph-name="uni0459" unicode="&#x459;" 
d="M142 515h286v-143h286v-286h-143v-143h-286v429h-143v-429h-142v429h142v143zM428 229v-143h143v143h-143z" />
    <glyph glyph-name="uni045A" unicode="&#x45a;" 
d="M0 515h142v-143h143v143h143v-143h143v-143h143v-143h-143v-143h-286v286h-143v-286h-142v572zM428 229v-143h143v143h-143z" />
    <glyph glyph-name="uni045B" unicode="&#x45b;" 
d="M142 800h143v-142h143v-143h-143v-143h286v-143h143v-286h-143v286h-286v-286h-143v572h-142v143h142v142z" />
    <glyph glyph-name="uni045C" unicode="&#x45c;" 
d="M285 800h143v-142h-143v-143h-143v-143h286v143h143v-143h-143v-286h143v-143h-143v143h-143v143h-143v-286h-142v572h142v143h143v142z" />
    <glyph glyph-name="uni045E" unicode="&#x45e;" 
d="M0 800h142v-142h286v142h143v-142h-143v-143h-286v143h-142v142zM0 372h142v-143h143v-143h143v286h143v-286h-143v-143h-143v-143h-143v143h143v143h-143v143h-142v143z" />
    <glyph glyph-name="uni045F" unicode="&#x45f;" 
d="M142 515h143v-429h143v429h143v-572h-143v-143h-143v143h-143v572z" />
    <glyph glyph-name="uni0490" unicode="&#x490;" 
d="M428 800h143v-285h-429v-572h-142v715h428v142z" />
    <glyph glyph-name="uni0491" unicode="&#x491;" 
d="M428 658h143v-286h-429v-429h-142v572h428v143z" />
    <glyph glyph-name="uni0492" unicode="&#x492;" 
d="M142 658h429v-143h-286v-143h143v-143h-143v-286h-143v286h-142v143h142v286z" />
    <glyph glyph-name="uni0493" unicode="&#x493;" 
d="M142 515h429v-143h-286v-143h143v-143h-143v-143h-143v143h-142v143h142v286z" />
    <glyph glyph-name="uni0496" unicode="&#x496;" 
d="M0 800h142v-285h143v285h143v-285h143v285h143v-285h-143v-286h143v-429h-143v429h-143v-286h-143v286h-143v-286h-142v286h142v286h-142v285z" />
    <glyph glyph-name="uni0497" unicode="&#x497;" 
d="M0 515h142v-143h143v143h143v-143h143v143h143v-143h-143v-286h143v-286h-143v286h-143v-143h-143v143h-143v-143h-142v143h142v286h-142v143z" />
    <glyph glyph-name="uni049A" unicode="&#x49a;" 
d="M0 800h142v-285h143v143h143v142h143v-142h-143v-143h-143v-286h143v-143h143v-143h143v-143h-143v143h-143v143h-143v143h-143v-286h-142v857z" />
    <glyph glyph-name="uni049B" unicode="&#x49b;" 
d="M0 515h142v-143h286v143h143v-143h-143v-286h143v-143h143v-143h-143v143h-143v143h-143v143h-143v-286h-142v572z" />
    <glyph glyph-name="uni04AE" unicode="&#x4ae;" 
d="M142 800h143v-428h143v428h143v-428h-143v-429h-143v429h-143v428z" />
    <glyph glyph-name="uni04AF" unicode="&#x4af;" 
d="M142 515h143v-286h143v286h143v-286h-143v-429h-143v429h-143v286z" />
    <glyph glyph-name="uni04B0" unicode="&#x4b0;" 
d="M142 800h143v-285h143v285h143v-285h-143v-143h143v-143h-143v-286h-143v286h-143v143h143v143h-143v285z" />
    <glyph glyph-name="uni04B1" unicode="&#x4b1;" 
d="M142 515h143v-143h143v143h143v-143h-143v-143h143v-143h-143v-286h-143v286h-143v143h143v143h-143v143z" />
    <glyph glyph-name="uni04B2" unicode="&#x4b2;" 
d="M0 800h142v-285h286v285h143v-285h-143v-286h143v-286h143v-143h-143v143h-143v286h-286v-286h-142v286h142v286h-142v285z" />
    <glyph glyph-name="uni04B3" unicode="&#x4b3;" 
d="M0 515h142v-143h286v143h143v-143h-143v-286h143v-143h143v-143h-143v143h-143v143h-286v-143h-142v143h142v286h-142v143z" />
    <glyph glyph-name="uni04BA" unicode="&#x4ba;" 
d="M0 800h142v-285h286v-143h143v-429h-143v429h-286v-429h-142v857z" />
    <glyph glyph-name="uni04BB" unicode="&#x4bb;" 
d="M142 800h143v-285h143v-143h143v-429h-143v429h-143v-429h-143v857z" />
    <glyph glyph-name="uni04D8" unicode="&#x4d8;" 
d="M142 800h286v-142h143v-572h-143v-143h-286v143h-142v286h428v286h-286v-143h-142v143h142v142zM142 229v-143h286v143h-286z" />
    <glyph glyph-name="uni04D9" unicode="&#x4d9;" 
d="M142 515h286v-143h143v-286h-143v-143h-286v143h-142v143h285v143h-143v143zM285 229v-143h143v143h-143z" />
    <glyph glyph-name="uni04E2" unicode="&#x4e2;" 
d="M142 800h429v-142h-143v-572h143v-143h-429v143h143v572h-143v142z" />
    <glyph glyph-name="uni04E3" unicode="&#x4e3;" 
d="M142 800h429v-142h-429v142zM142 515h286v-429h143v-143h-429v143h143v286h-143v143z" />
    <glyph glyph-name="uni04E8" unicode="&#x4e8;" 
d="M142 800h286v-142h143v-572h-143v-143h-286v143h-142v572h142v142zM142 658v-143h286v143h-286zM142 372v-286h286v286h-286z" />
    <glyph glyph-name="uni04E9" unicode="&#x4e9;" 
d="M142 515h286v-143h143v-286h-143v-143h-286v143h-142v286h142v143zM142 229v-143h286v143h-286z" />
    <glyph glyph-name="uni04EE" unicode="&#x4ee;" 
d="M0 800h142v-714h286v714h143v-714h-143v-143h-286v143h-142v714z" />
    <glyph glyph-name="uni04EF" unicode="&#x4ef;" 
d="M0 800h571v-142h-571v142zM0 515h142v-429h286v429h143v-572h-429v143h-142v429z" />
    <glyph glyph-name="uni05D0" unicode="&#x5d0;" 
d="M0 515h142v-143h143v-143h143v286h143v-286h-143v-143h143v-143h-143v143h-143v143h-143v-286h-142v286h142v143h-142v143z" />
    <glyph glyph-name="uni05D1" unicode="&#x5d1;" 
d="M0 515h428v-429h143v-143h-571v143h285v286h-285v143z" />
    <glyph glyph-name="uni05D2" unicode="&#x5d2;" 
d="M142 658h143v-143h143v-429h143v-143h-143v143h-143v-143h-285v143h285v429h-143v143z" />
    <glyph glyph-name="uni05D3" unicode="&#x5d3;" 
d="M0 515h571v-143h-143v-429h-143v429h-285v143z" />
    <glyph glyph-name="uni05D4" unicode="&#x5d4;" 
d="M0 515h571v-572h-143v429h-428v143zM0 229h142v-286h-142v286z" />
    <glyph glyph-name="uni05D5" unicode="&#x5d5;" 
d="M142 658h143v-143h143v-572h-143v572h-143v143z" />
    <glyph glyph-name="uni05D6" unicode="&#x5d6;" 
d="M142 515h429v-143h-143v-429h-143v429h-143v143z" />
    <glyph glyph-name="uni05D7" unicode="&#x5d7;" 
d="M0 515h571v-572h-143v429h-143v-429h-143v429h-142v143z" />
    <glyph glyph-name="uni05D8" unicode="&#x5d8;" 
d="M0 515h142v-429h286v429h143v-572h-571v572z" />
    <glyph glyph-name="uni05D9" unicode="&#x5d9;" 
d="M142 658h143v-143h143v-143h-143v143h-143v143z" />
    <glyph glyph-name="uni05DA" unicode="&#x5da;" 
d="M0 515h571v-286h-143v-286h-143v286h143v143h-428v143z" />
    <glyph glyph-name="uni05DB" unicode="&#x5db;" 
d="M0 658h142v-143h429v-429h-143v-143h-428v143h428v286h-286v143h-142v143z" />
    <glyph glyph-name="uni05DC" unicode="&#x5dc;" 
d="M0 658h142v-143h429v-286h-143v-143h-143v-143h-143v143h143v143h143v143h-286v143h-142v143z" />
    <glyph glyph-name="uni05DD" unicode="&#x5dd;" 
d="M0 658h142v-143h429v-572h-571v429h142v143h-142v143zM142 372v-286h286v286h-286z" />
    <glyph glyph-name="uni05DE" unicode="&#x5de;" 
d="M0 658h142v-143h429v-572h-286v143h143v286h-286v-429h-142v429h142v143h-142v143z" />
    <glyph glyph-name="uni05DF" unicode="&#x5df;" 
d="M142 658h143v-143h143v-143h-143v-429h-143v429h143v143h-143v143z" />
    <glyph glyph-name="uni05E0" unicode="&#x5e0;" 
d="M142 658h143v-143h143v-572h-286v143h143v429h-143v143z" />
    <glyph glyph-name="uni05E1" unicode="&#x5e1;" 
d="M0 658h142v-143h572v-429h-143v-143h-286v143h-143v429h-142v143zM285 372v-286h286v286h-286z" />
    <glyph glyph-name="uni05E2" unicode="&#x5e2;" 
d="M0 515h142v-143h143v-286h143v429h143v-572h-571v143h142v286h-142v143z" />
    <glyph glyph-name="uni05E3" unicode="&#x5e3;" 
d="M142 515h429v-572h-143v429h-286v-143h-142v143h142v143z" />
    <glyph glyph-name="uni05E4" unicode="&#x5e4;" 
d="M0 515h571v-572h-571v143h428v286h-286v-143h-142v286z" />
    <glyph glyph-name="uni05E5" unicode="&#x5e5;" 
d="M142 515h143v-143h143v143h143v-143h-143v-143h-143v-286h-143v572z" />
    <glyph glyph-name="uni05E6" unicode="&#x5e6;" 
d="M0 515h142v-143h286v143h143v-143h-143v-286h143v-143h-571v143h285v143h-143v143h-142v143z" />
    <glyph glyph-name="uni05E7" unicode="&#x5e7;" 
d="M0 515h428v-143h143v-143h-143v-143h-143v143h143v143h-428v143zM0 229h142v-286h-142v286z" />
    <glyph glyph-name="uni05E8" unicode="&#x5e8;" 
d="M0 515h571v-572h-143v429h-428v143z" />
    <glyph glyph-name="uni05E9" unicode="&#x5e9;" 
d="M0 515h142v-143h143v143h143v-143h-143v-143h-143v-143h429v429h143v-429h-143v-143h-571v572z" />
    <glyph glyph-name="uni05EA" unicode="&#x5ea;" 
d="M0 515h571v-572h-143v429h-143v-429h-285v143h142v286h-142v143z" />
    <glyph glyph-name="uni16A0" unicode="&#x16a0;" 
d="M142 800h143v-142h143v142h143v-142h-143v-143h143v-143h-143v-143h-143v-286h-143v857zM285 515v-143h143v143h-143z" />
    <glyph glyph-name="uni16A2" unicode="&#x16a2;" 
d="M142 800h286v-142h143v-715h-143v715h-143v-715h-143v857z" />
    <glyph glyph-name="uni16A3" unicode="&#x16a3;" 
d="M285 800h143v-142h143v-715h-429v715h143v142zM285 658v-286h143v286h-143z" />
    <glyph glyph-name="uni16A6" unicode="&#x16a6;" 
d="M142 800h143v-142h143v-143h143v-286h-143v-143h-143v-143h-143v857zM285 515v-286h143v286h-143z" />
    <glyph glyph-name="uni16A9" unicode="&#x16a9;" 
d="M0 800h285v-142h143v142h143v-142h-143v-143h-143v143h-143v-715h-142v857z" />
    <glyph glyph-name="uni16AA" unicode="&#x16aa;" 
d="M0 800h285v-142h143v142h143v-142h-143v-143h-143v143h-143v-286h143v-143h143v-143h-143v143h-143v-286h-142v857z" />
    <glyph glyph-name="uni16AB" unicode="&#x16ab;" 
d="M142 800h286v-142h143v-143h-143v-143h143v-143h-143v143h-143v-429h-143v857zM285 658v-143h143v143h-143z" />
    <glyph glyph-name="uni16B1" unicode="&#x16b1;" 
d="M0 800h428v-142h143v-143h-143v-143h-143v-143h143v-143h-143v143h-143v-286h-142v857zM142 658v-286h143v143h143v143h-286z" />
    <glyph glyph-name="uni16B3" unicode="&#x16b3;" 
d="M142 800h143v-285h143v-143h143v-429h-143v429h-143v-429h-143v857z" />
    <glyph glyph-name="uni16B7" unicode="&#x16b7;" 
d="M142 800h143v-285h143v285h143v-285h-143v-286h143v-286h-143v286h-143v-286h-143v286h143v286h-143v285z" />
    <glyph glyph-name="uni16B8" unicode="&#x16b8;" 
d="M142 800h143v-142h143v142h143v-285h143v-286h-143v-286h-143v143h-143v-143h-143v286h-142v286h142v285zM142 515v-286h143v286h-143zM428 515v-286h143v286h-143z" />
    <glyph glyph-name="uni16B9" unicode="&#x16b9;" 
d="M142 800h286v-142h143v-286h-143v-143h-143v-286h-143v857zM285 658v-286h143v286h-143z" />
    <glyph glyph-name="uni16BB" unicode="&#x16bb;" 
d="M0 800h142v-285h143v-143h143v428h143v-857h-286v143h-143v-143h-142v857zM142 372v-143h143v-143h143v143h-143v143h-143z" />
    <glyph glyph-name="uni16BE" unicode="&#x16be;" 
d="M285 800h143v-428h143v-143h-143v-286h-143v429h-143v143h143v285z" />
    <glyph glyph-name="uni16C0" unicode="&#x16c0;" 
d="M285 800h143v-857h-143v857z" />
    <glyph glyph-name="uni16C4" unicode="&#x16c4;" 
d="M285 800h143v-142h143v-143h143v-286h-143v-143h-143v-143h-143v143h-143v143h-142v286h142v143h143v142zM142 515v-286h143v286h-143zM428 515v-286h143v286h-143z" />
    <glyph glyph-name="uni16C7" unicode="&#x16c7;" 
d="M285 800h143v-142h143v-143h143v-143h-143v143h-143v-572h-143v143h-143v143h-142v143h142v-143h143v571z" />
    <glyph glyph-name="uni16C8" unicode="&#x16c8;" 
d="M0 800h285v-142h143v142h143v-142h-143v-143h-143v143h-143v-572h143v143h143v-143h143v-143h-143v143h-143v-143h-285v857z" />
    <glyph glyph-name="uni16C9" unicode="&#x16c9;" 
d="M0 800h142v-428h143v428h143v-428h143v428h143v-428h-143v-143h-143v-286h-143v286h-143v143h-142v428z" />
    <glyph glyph-name="uni16CB" unicode="&#x16cb;" 
d="M0 800h142v-428h143v143h143v143h143v-715h-143v429h-143v-143h-143v-143h-142v714z" />
    <glyph glyph-name="uni16CF" unicode="&#x16cf;" 
d="M285 800h143v-142h143v-143h143v-143h-143v143h-143v-572h-143v572h-143v-143h-142v143h142v143h143v142z" />
    <glyph glyph-name="uni16D2" unicode="&#x16d2;" 
d="M0 800h428v-142h143v-143h-143v-286h143v-143h-143v-143h-428v857zM142 658v-143h286v143h-286zM142 229v-143h286v143h-286z" />
    <glyph glyph-name="uni16D6" unicode="&#x16d6;" 
d="M0 800h142v-142h143v-143h143v143h143v142h143v-857h-143v572h-143v-143h-143v143h-143v-572h-142v857z" />
    <glyph glyph-name="uni16D7" unicode="&#x16d7;" 
d="M0 800h142v-142h143v-143h143v143h143v142h143v-857h-143v286h-143v143h-143v-143h-143v-286h-142v857zM142 515v-143h143v143h-143zM428 515v-143h143v143h-143z" />
    <glyph glyph-name="uni16DA" unicode="&#x16da;" 
d="M142 800h143v-142h143v-143h143v-143h-143v143h-143v-572h-143v857z" />
    <glyph glyph-name="uni16DD" unicode="&#x16dd;" 
d="M142 800h143v-142h143v142h143v-142h-143v-143h143v-286h-143v-143h143v-143h-143v143h-143v-143h-143v143h143v143h-143v286h143v143h-143v142zM285 515v-286h143v286h-143z" />
    <glyph glyph-name="uni16DE" unicode="&#x16de;" 
d="M0 800h142v-285h143v-143h143v143h143v285h143v-857h-143v143h-143v143h-143v-143h-143v-143h-142v857zM142 372v-143h143v143h-143zM428 372v-143h143v143h-143z" />
    <glyph glyph-name="uni16DF" unicode="&#x16df;" 
d="M285 800h143v-142h143v-286h-143v-143h143v-286h-143v286h-143v-286h-143v286h143v143h-143v286h143v142zM285 658v-286h143v286h-143z" />
    <glyph glyph-name="uni16E0" unicode="&#x16e0;" 
d="M0 800h142v-142h143v142h143v-142h143v142h143v-142h-143v-143h-143v-572h-143v572h-143v143h-142v142z" />
    <glyph glyph-name="uni16E1" unicode="&#x16e1;" 
d="M0 800h142v-142h143v142h143v-142h143v142h143v-142h-143v-286h143v-143h-143v143h-143v-429h-143v429h-143v-143h-142v143h142v286h-142v142z" />
    <glyph glyph-name="uni16E2" unicode="&#x16e2;" 
d="M285 800h143v-142h143v142h143v-142h-143v-143h-143v-572h-143v143h-143v-143h-142v143h142v143h143v571z" />
    <glyph glyph-name="uni16E3" unicode="&#x16e3;" 
d="M285 800h143v-428h143v-143h143v-286h-143v286h-143v-286h-143v286h-143v-286h-142v286h142v143h143v428z" />
    <glyph glyph-name="uni16E4" unicode="&#x16e4;" 
d="M0 800h142v-142h286v142h143v-857h-143v143h-286v-143h-142v857zM142 515v-286h286v286h-286z" />
    <glyph glyph-name="uni16EB" unicode="&#x16eb;" 
d="M285 372h143v-143h-143v143z" />
    <glyph glyph-name="uni16EC" unicode="&#x16ec;" 
d="M285 515h143v-143h-143v143zM285 229h143v-143h-143v143z" />
    <glyph glyph-name="uni16ED" unicode="&#x16ed;" 
d="M142 515h143v-143h143v143h143v-143h-143v-143h143v-143h-143v143h-143v-143h-143v143h143v143h-143v143z" />
    <glyph glyph-name="uni1E02" unicode="&#x1e02;" 
d="M0 800h428v-142h143v-143h-143v-143h143v-286h-143v-143h-428v857zM142 658v-143h286v143h-286zM142 372v-286h286v286h-286z" />
    <glyph glyph-name="uni1E03" unicode="&#x1e03;" 
d="M285 800h143v-142h-143v142zM0 658h142v-286h286v-143h143v-143h-143v-143h-428v715zM142 229v-143h286v143h-286z" />
    <glyph glyph-name="uni1E0A" unicode="&#x1e0a;" 
d="M0 800h428v-142h143v-572h-143v-143h-428v857zM142 658v-572h286v572h-286z" />
    <glyph glyph-name="uni1E0B" unicode="&#x1e0b;" 
d="M142 800h143v-142h-143v142zM428 658h143v-715h-429v143h-142v143h142v143h286v286zM142 229v-143h286v143h-286z" />
    <glyph glyph-name="uni1E1E" unicode="&#x1e1e;" 
d="M0 800h571v-142h-429v-143h286v-143h-286v-429h-142v857z" />
    <glyph glyph-name="uni1E1F" unicode="&#x1e1f;" 
d="M0 800h142v-142h-142v142zM285 658h143v-143h-143v-143h143v-143h-143v-286h-143v286h-142v143h142v143h143v143z" />
    <glyph glyph-name="uni1E40" unicode="&#x1e40;" 
d="M0 800h142v-142h286v142h143v-857h-143v429h-286v-429h-142v857z" />
    <glyph glyph-name="uni1E41" unicode="&#x1e41;" 
d="M285 800h143v-142h-143v142zM0 515h142v-143h143v143h143v-143h143v-429h-143v286h-286v-286h-142v572z" />
    <glyph glyph-name="uni1E56" unicode="&#x1e56;" 
d="M0 800h428v-142h143v-286h-143v-143h-286v-286h-142v857zM142 658v-286h286v286h-286z" />
    <glyph glyph-name="uni1E57" unicode="&#x1e57;" 
d="M285 800h143v-142h-143v142zM0 515h428v-143h143v-286h-143v-143h-286v-143h-142v715zM142 372v-286h286v286h-286z" />
    <glyph glyph-name="uni1E60" unicode="&#x1e60;" 
d="M142 800h286v-142h143v-143h-143v143h-286v-143h143v-143h143v-143h143v-143h-143v-143h-286v143h-142v143h142v-143h286v143h-143v143h-143v143h-142v143h142v142z" />
    <glyph glyph-name="uni1E61" unicode="&#x1e61;" 
d="M285 800h143v-142h-143v142zM142 515h429v-143h-286v-143h286v-143h-143v-143h-428v143h285v143h-285v143h142v143z" />
    <glyph glyph-name="uni1E6A" unicode="&#x1e6a;" 
d="M142 800h429v-142h-143v-715h-143v715h-143v142z" />
    <glyph glyph-name="uni1E6B" unicode="&#x1e6b;" 
d="M0 800h142v-142h-142v142zM285 658h143v-143h143v-143h-143v-286h143v-143h-143v143h-143v286h-143v143h143v143z" />
    <glyph glyph-name="Wgrave" unicode="&#x1e80;" 
d="M0 800h142v-428h286v428h143v-857h-143v143h-286v-143h-142v857z" />
    <glyph glyph-name="wgrave" unicode="&#x1e81;" 
d="M142 800h143v-142h143v-143h-143v143h-143v142zM0 372h142v-143h286v143h143v-429h-571v429z" />
    <glyph glyph-name="Wacute" unicode="&#x1e82;" 
d="M0 800h142v-428h286v428h143v-857h-143v143h-286v-143h-142v857z" />
    <glyph glyph-name="wacute" unicode="&#x1e83;" 
d="M285 800h143v-142h-143v-143h-143v143h143v142zM0 372h142v-143h286v143h143v-429h-571v429z" />
    <glyph glyph-name="Wdieresis" unicode="&#x1e84;" 
d="M0 800h142v-428h286v428h143v-857h-143v143h-286v-143h-142v857z" />
    <glyph glyph-name="wdieresis" unicode="&#x1e85;" 
d="M0 658h142v-143h-142v143zM285 658h143v-143h-143v143zM0 372h142v-143h286v143h143v-429h-571v429z" />
    <glyph glyph-name="Ygrave" unicode="&#x1ef2;" 
d="M142 800h143v-428h143v428h143v-428h-143v-429h-143v429h-143v428z" />
    <glyph glyph-name="ygrave" unicode="&#x1ef3;" 
d="M142 800h143v-142h143v-143h-143v143h-143v142zM0 372h142v-143h143v-143h143v286h143v-286h-143v-143h-143v-143h-143v143h143v143h-143v143h-142v143z" />
    <glyph glyph-name="uni1F00" unicode="&#x1f00;" 
d="M142 800h286v-285h143v-572h-143v143h-143v-143h-143v143h-142v286h142v143h143v143h-143v142zM142 372v-286h143v143h143v143h-286z" />
    <glyph glyph-name="uni1F01" unicode="&#x1f01;" 
d="M142 800h286v-142h-143v-143h286v-572h-143v143h-143v-143h-143v143h-142v286h142v428zM142 372v-286h143v143h143v143h-286z" />
    <glyph glyph-name="uni1F02" unicode="&#x1f02;" 
d="M0 800h428v-142h143v-715h-143v143h-143v-143h-143v143h-142v286h142v286h-142v142zM285 658v-143h143v143h-143zM142 372v-286h143v143h143v143h-286z" />
    <glyph glyph-name="uni1F03" unicode="&#x1f03;" 
d="M0 800h428v-142h143v-715h-143v143h-143v-143h-143v143h-142v286h142v143h-142v285zM142 658v-143h286v143h-286zM142 372v-286h143v143h143v143h-286z" />
    <glyph glyph-name="uni1F04" unicode="&#x1f04;" 
d="M0 800h285v-142h143v142h143v-142h-143v-143h143v-572h-143v143h-143v-143h-143v143h-142v286h142v286h-142v142zM142 372v-286h143v143h143v143h-286z" />
    <glyph glyph-name="uni1F05" unicode="&#x1f05;" 
d="M0 800h285v-142h143v142h143v-142h-143v-143h143v-572h-143v143h-143v-143h-143v143h-142v286h142v143h-142v285zM142 658v-143h143v143h-143zM142 372v-286h143v143h143v143h-286z" />
    <glyph glyph-name="uni1F06" unicode="&#x1f06;" 
d="M142 800h429v-142h-143v-143h143v-572h-143v143h-143v-143h-143v143h-142v286h142v143h143v143h-143v142zM142 372v-286h143v143h143v143h-286z" />
    <glyph glyph-name="uni1F07" unicode="&#x1f07;" 
d="M142 800h429v-142h-143v-143h143v-572h-143v143h-143v-143h-143v143h-142v286h142v143h143v143h-143v142zM142 372v-286h143v143h143v143h-286z" />
    <glyph glyph-name="uni1F08" unicode="&#x1f08;" 
d="M0 800h142v-142h143v142h143v-142h143v-715h-143v286h-143v-286h-143v572h-142v285zM285 658v-286h143v286h-143z" />
    <glyph glyph-name="uni1F09" unicode="&#x1f09;" 
d="M0 800h142v-142h143v142h143v-142h143v-715h-143v286h-143v-286h-143v572h-142v285zM285 658v-286h143v286h-143z" />
    <glyph glyph-name="uni1F0A" unicode="&#x1f0a;" 
d="M0 800h142v-142h143v142h143v-142h143v-715h-143v286h-143v-286h-143v572h-142v285zM285 658v-286h143v286h-143z" />
    <glyph glyph-name="uni1F0B" unicode="&#x1f0b;" 
d="M0 800h142v-142h143v142h143v-142h143v-715h-143v286h-143v-286h-143v572h-142v285zM285 658v-286h143v286h-143z" />
    <glyph glyph-name="uni1F0C" unicode="&#x1f0c;" 
d="M0 800h142v-142h143v142h143v-142h143v-715h-143v286h-143v-286h-143v572h-142v285zM285 658v-286h143v286h-143z" />
    <glyph glyph-name="uni1F0D" unicode="&#x1f0d;" 
d="M0 800h142v-142h143v142h143v-142h143v-715h-143v286h-143v-286h-143v572h-142v285zM285 658v-286h143v286h-143z" />
    <glyph glyph-name="uni1F0E" unicode="&#x1f0e;" 
d="M0 800h142v-142h143v142h143v-142h143v-715h-143v286h-143v-286h-143v572h-142v285zM285 658v-286h143v286h-143z" />
    <glyph glyph-name="uni1F0F" unicode="&#x1f0f;" 
d="M0 800h142v-142h143v142h143v-142h143v-715h-143v286h-143v-286h-143v572h-142v285zM285 658v-286h143v286h-143z" />
    <glyph glyph-name="uni1F10" unicode="&#x1f10;" 
d="M285 800h286v-428h-143v-143h-143v-143h286v-143h-286v143h-143v143h143v143h-143v143h286v143h-143v142z" />
    <glyph glyph-name="uni1F11" unicode="&#x1f11;" 
d="M285 800h286v-142h-143v-143h143v-143h-143v-143h-143v-143h286v-143h-286v143h-143v143h143v143h-143v143h143v285z" />
    <glyph glyph-name="uni1F12" unicode="&#x1f12;" 
d="M0 800h428v-142h143v-143h-143v-143h-143v-143h-143v-143h286v-143h-286v143h-142v143h142v143h-142v143h142v143h-142v142zM285 658v-143h143v143h-143z" />
    <glyph glyph-name="uni1F13" unicode="&#x1f13;" 
d="M0 800h428v-142h143v-143h-143v-143h-143v-143h-143v-143h286v-143h-286v143h-142v143h142v143h-142v428zM142 658v-143h286v143h-286z" />
    <glyph glyph-name="uni1F14" unicode="&#x1f14;" 
d="M0 800h285v-142h143v142h143v-142h-143v-286h-143v-143h-143v-143h286v-143h-286v143h-142v143h142v143h-142v143h142v143h-142v142z" />
    <glyph glyph-name="uni1F15" unicode="&#x1f15;" 
d="M0 800h285v-142h143v142h143v-142h-143v-286h-143v-143h-143v-143h286v-143h-286v143h-142v143h142v143h-142v428zM142 658v-143h143v143h-143z" />
    <glyph glyph-name="uni1F18" unicode="&#x1f18;" 
d="M0 800h571v-142h-286v-143h143v-143h-143v-286h286v-143h-429v572h-142v285z" />
    <glyph glyph-name="uni1F19" unicode="&#x1f19;" 
d="M0 800h571v-142h-286v-143h143v-143h-143v-286h286v-143h-429v572h-142v285z" />
    <glyph glyph-name="uni1F1A" unicode="&#x1f1a;" 
d="M0 800h571v-142h-286v-143h143v-143h-143v-286h286v-143h-429v572h-142v285z" />
    <glyph glyph-name="uni1F1B" unicode="&#x1f1b;" 
d="M0 800h571v-142h-286v-143h143v-143h-143v-286h286v-143h-429v572h-142v285z" />
    <glyph glyph-name="uni1F1C" unicode="&#x1f1c;" 
d="M0 800h571v-142h-286v-143h143v-143h-143v-286h286v-143h-429v572h-142v285z" />
    <glyph glyph-name="uni1F1D" unicode="&#x1f1d;" 
d="M0 800h571v-142h-286v-143h143v-143h-143v-286h286v-143h-429v572h-142v285z" />
    <glyph glyph-name="uni1F20" unicode="&#x1f20;" 
d="M142 800h286v-428h143v-572h-143v572h-286v-429h-142v572h285v143h-143v142z" />
    <glyph glyph-name="uni1F21" unicode="&#x1f21;" 
d="M142 800h286v-142h-143v-143h143v-143h143v-572h-143v572h-286v-429h-142v572h142v285z" />
    <glyph glyph-name="uni1F22" unicode="&#x1f22;" 
d="M0 800h428v-142h143v-143h-143v-143h143v-572h-143v572h-286v-429h-142v572h142v143h-142v142zM285 658v-143h143v143h-143z" />
    <glyph glyph-name="uni1F23" unicode="&#x1f23;" 
d="M0 800h428v-142h143v-143h-143v-143h143v-572h-143v572h-286v-429h-142v857zM142 658v-143h286v143h-286z" />
    <glyph glyph-name="uni1F24" unicode="&#x1f24;" 
d="M0 800h285v-142h143v142h143v-142h-143v-286h143v-572h-143v572h-286v-429h-142v572h142v143h-142v142z" />
    <glyph glyph-name="uni1F25" unicode="&#x1f25;" 
d="M0 800h285v-142h143v142h143v-142h-143v-286h143v-572h-143v572h-286v-429h-142v857zM142 658v-143h143v143h-143z" />
    <glyph glyph-name="uni1F26" unicode="&#x1f26;" 
d="M142 800h429v-142h-143v-286h143v-572h-143v572h-286v-429h-142v572h285v143h-143v142z" />
    <glyph glyph-name="uni1F27" unicode="&#x1f27;" 
d="M142 800h429v-142h-143v-286h143v-572h-143v572h-286v-429h-142v572h285v143h-143v142z" />
    <glyph glyph-name="uni1F28" unicode="&#x1f28;" 
d="M0 800h285v-285h143v285h143v-857h-143v429h-143v-429h-143v572h-142v285z" />
    <glyph glyph-name="uni1F29" unicode="&#x1f29;" 
d="M0 800h285v-285h143v285h143v-857h-143v429h-143v-429h-143v572h-142v285z" />
    <glyph glyph-name="uni1F2A" unicode="&#x1f2a;" 
d="M0 800h285v-285h143v285h143v-857h-143v429h-143v-429h-143v572h-142v285z" />
    <glyph glyph-name="uni1F2B" unicode="&#x1f2b;" 
d="M0 800h285v-285h143v285h143v-857h-143v429h-143v-429h-143v572h-142v285z" />
    <glyph glyph-name="uni1F2C" unicode="&#x1f2c;" 
d="M0 800h285v-285h143v285h143v-857h-143v429h-143v-429h-143v572h-142v285z" />
    <glyph glyph-name="uni1F2D" unicode="&#x1f2d;" 
d="M0 800h285v-285h143v285h143v-857h-143v429h-143v-429h-143v572h-142v285z" />
    <glyph glyph-name="uni1F2E" unicode="&#x1f2e;" 
d="M0 800h285v-285h143v285h143v-857h-143v429h-143v-429h-143v572h-142v285z" />
    <glyph glyph-name="uni1F2F" unicode="&#x1f2f;" 
d="M0 800h285v-285h143v285h143v-857h-143v429h-143v-429h-143v572h-142v285z" />
    <glyph glyph-name="uni1F30" unicode="&#x1f30;" 
d="M142 800h286v-285h-143v143h-143v142zM142 372h143v-286h143v-143h-143v143h-143v286z" />
    <glyph glyph-name="uni1F31" unicode="&#x1f31;" 
d="M142 800h286v-142h-143v-143h-143v285zM142 372h143v-286h143v-143h-143v143h-143v286z" />
    <glyph glyph-name="uni1F32" unicode="&#x1f32;" 
d="M0 800h428v-142h143v-143h-143v143h-143v-143h-143v143h-142v142zM142 372h143v-286h143v-143h-143v143h-143v286z" />
    <glyph glyph-name="uni1F33" unicode="&#x1f33;" 
d="M0 800h428v-142h143v-143h-143v143h-286v-143h-142v285zM142 372h143v-286h143v-143h-143v143h-143v286z" />
    <glyph glyph-name="uni1F34" unicode="&#x1f34;" 
d="M0 800h285v-142h143v142h143v-142h-143v-143h-286v143h-142v142zM142 372h143v-286h143v-143h-143v143h-143v286z" />
    <glyph glyph-name="uni1F35" unicode="&#x1f35;" 
d="M0 800h285v-142h143v142h143v-142h-143v-143h-143v143h-143v-143h-142v285zM142 372h143v-286h143v-143h-143v143h-143v286z" />
    <glyph glyph-name="uni1F36" unicode="&#x1f36;" 
d="M0 800h428v-142h-143v-143h-143v143h-142v142zM142 372h143v-286h143v-143h-143v143h-143v286z" />
    <glyph glyph-name="uni1F37" unicode="&#x1f37;" 
d="M0 800h428v-142h-143v-143h-143v143h-142v142zM142 372h143v-286h143v-143h-143v143h-143v286z" />
    <glyph glyph-name="uni1F38" unicode="&#x1f38;" 
d="M0 800h571v-142h-143v-572h143v-143h-429v143h143v572h-143v-143h-142v285z" />
    <glyph glyph-name="uni1F39" unicode="&#x1f39;" 
d="M0 800h571v-142h-143v-572h143v-143h-429v143h143v572h-143v-143h-142v285z" />
    <glyph glyph-name="uni1F3A" unicode="&#x1f3a;" 
d="M0 800h571v-142h-143v-572h143v-143h-429v143h143v572h-143v-143h-142v285z" />
    <glyph glyph-name="uni1F3B" unicode="&#x1f3b;" 
d="M0 800h571v-142h-143v-572h143v-143h-429v143h143v572h-143v-143h-142v285z" />
    <glyph glyph-name="uni1F3C" unicode="&#x1f3c;" 
d="M0 800h571v-142h-143v-572h143v-143h-429v143h143v572h-143v-143h-142v285z" />
    <glyph glyph-name="uni1F3D" unicode="&#x1f3d;" 
d="M0 800h571v-142h-143v-572h143v-143h-429v143h143v572h-143v-143h-142v285z" />
    <glyph glyph-name="uni1F3E" unicode="&#x1f3e;" 
d="M0 800h571v-142h-143v-572h143v-143h-429v143h143v572h-143v-143h-142v285z" />
    <glyph glyph-name="uni1F3F" unicode="&#x1f3f;" 
d="M0 800h571v-142h-143v-572h143v-143h-429v143h143v572h-143v-143h-142v285z" />
    <glyph glyph-name="uni1F40" unicode="&#x1f40;" 
d="M142 800h286v-428h143v-286h-143v-143h-286v143h-142v286h142v143h143v143h-143v142zM142 372v-286h286v286h-286z" />
    <glyph glyph-name="uni1F41" unicode="&#x1f41;" 
d="M142 800h286v-142h-143v-143h143v-143h143v-286h-143v-143h-286v143h-142v286h142v428zM142 372v-286h286v286h-286z" />
    <glyph glyph-name="uni1F42" unicode="&#x1f42;" 
d="M0 800h428v-142h143v-143h-143v-143h143v-286h-143v-143h-286v143h-142v286h142v286h-142v142zM285 658v-143h143v143h-143zM142 372v-286h286v286h-286z" />
    <glyph glyph-name="uni1F43" unicode="&#x1f43;" 
d="M0 800h428v-142h143v-143h-143v-143h143v-286h-143v-143h-286v143h-142v286h142v143h-142v285zM142 658v-143h286v143h-286zM142 372v-286h286v286h-286z" />
    <glyph glyph-name="uni1F44" unicode="&#x1f44;" 
d="M0 800h285v-142h143v142h143v-142h-143v-286h143v-286h-143v-143h-286v143h-142v286h142v286h-142v142zM142 372v-286h286v286h-286z" />
    <glyph glyph-name="uni1F45" unicode="&#x1f45;" 
d="M0 800h285v-142h143v142h143v-142h-143v-286h143v-286h-143v-143h-286v143h-142v286h142v143h-142v285zM142 658v-143h143v143h-143zM142 372v-286h286v286h-286z" />
    <glyph glyph-name="uni1F48" unicode="&#x1f48;" 
d="M0 800h142v-142h143v142h143v-142h143v-572h-143v-143h-143v143h-143v429h-142v285zM285 658v-572h143v572h-143z" />
    <glyph glyph-name="uni1F49" unicode="&#x1f49;" 
d="M0 800h142v-142h143v142h143v-142h143v-572h-143v-143h-143v143h-143v429h-142v285zM285 658v-572h143v572h-143z" />
    <glyph glyph-name="uni1F4A" unicode="&#x1f4a;" 
d="M0 800h142v-142h143v142h143v-142h143v-572h-143v-143h-143v143h-143v429h-142v285zM285 658v-572h143v572h-143z" />
    <glyph glyph-name="uni1F4B" unicode="&#x1f4b;" 
d="M0 800h142v-142h143v142h143v-142h143v-572h-143v-143h-143v143h-143v429h-142v285zM285 658v-572h143v572h-143z" />
    <glyph glyph-name="uni1F4C" unicode="&#x1f4c;" 
d="M0 800h142v-142h143v142h143v-142h143v-572h-143v-143h-143v143h-143v429h-142v285zM285 658v-572h143v572h-143z" />
    <glyph glyph-name="uni1F4D" unicode="&#x1f4d;" 
d="M0 800h142v-142h143v142h143v-142h143v-572h-143v-143h-143v143h-143v429h-142v285zM285 658v-572h143v572h-143z" />
    <glyph glyph-name="uni1F50" unicode="&#x1f50;" 
d="M142 800h286v-285h143v-429h-143v-143h-286v143h-142v429h142v-429h286v429h-143v143h-143v142z" />
    <glyph glyph-name="uni1F51" unicode="&#x1f51;" 
d="M142 800h286v-142h-143v-143h-143v-429h286v429h143v-429h-143v-143h-286v143h-142v429h142v285z" />
    <glyph glyph-name="uni1F52" unicode="&#x1f52;" 
d="M0 800h428v-142h143v-572h-143v-143h-286v143h-142v429h142v143h-142v142zM285 658v-143h-143v-429h286v572h-143z" />
    <glyph glyph-name="uni1F53" unicode="&#x1f53;" 
d="M0 800h428v-142h143v-572h-143v-143h-286v143h-142v714zM142 658v-572h286v572h-286z" />
    <glyph glyph-name="uni1F54" unicode="&#x1f54;" 
d="M0 800h285v-142h143v142h143v-142h-143v-143h143v-429h-143v-143h-286v143h-142v429h142v143h-142v142zM142 515v-429h286v429h-286z" />
    <glyph glyph-name="uni1F55" unicode="&#x1f55;" 
d="M0 800h285v-142h143v142h143v-142h-143v-143h143v-429h-143v-143h-286v143h-142v714zM142 658v-572h286v429h-143v143h-143z" />
    <glyph glyph-name="uni1F56" unicode="&#x1f56;" 
d="M142 800h429v-142h-143v-143h143v-429h-143v-143h-286v143h-142v429h142v-429h286v429h-143v143h-143v142z" />
    <glyph glyph-name="uni1F57" unicode="&#x1f57;" 
d="M142 800h429v-142h-143v-143h143v-429h-143v-143h-286v143h-142v429h142v-429h286v429h-143v143h-143v142z" />
    <glyph glyph-name="uni1F59" unicode="&#x1f59;" 
d="M0 800h285v-428h143v428h143v-428h-143v-429h-143v429h-143v143h-142v285z" />
    <glyph glyph-name="uni1F5B" unicode="&#x1f5b;" 
d="M0 800h285v-428h143v428h143v-428h-143v-429h-143v429h-143v143h-142v285z" />
    <glyph glyph-name="uni1F5D" unicode="&#x1f5d;" 
d="M0 800h285v-428h143v428h143v-428h-143v-429h-143v429h-143v143h-142v285z" />
    <glyph glyph-name="uni1F5F" unicode="&#x1f5f;" 
d="M0 800h285v-428h143v428h143v-428h-143v-429h-143v429h-143v143h-142v285z" />
    <glyph glyph-name="uni1F60" unicode="&#x1f60;" 
d="M142 800h286v-285h143v-572h-571v572h142v-286h286v286h-143v143h-143v142z" />
    <glyph glyph-name="uni1F61" unicode="&#x1f61;" 
d="M142 800h286v-142h-143v-143h-143v-286h286v286h143v-572h-571v572h142v285z" />
    <glyph glyph-name="uni1F62" unicode="&#x1f62;" 
d="M0 800h428v-142h143v-715h-571v572h142v143h-142v142zM285 658v-143h-143v-286h286v429h-143z" />
    <glyph glyph-name="uni1F63" unicode="&#x1f63;" 
d="M0 800h428v-142h143v-715h-571v857zM142 658v-429h286v429h-286z" />
    <glyph glyph-name="uni1F64" unicode="&#x1f64;" 
d="M0 800h285v-142h143v142h143v-142h-143v-143h143v-572h-571v572h142v143h-142v142zM142 515v-286h286v286h-286z" />
    <glyph glyph-name="uni1F65" unicode="&#x1f65;" 
d="M0 800h285v-142h143v142h143v-142h-143v-143h143v-572h-571v857zM142 658v-429h286v286h-143v143h-143z" />
    <glyph glyph-name="uni1F66" unicode="&#x1f66;" 
d="M142 800h429v-142h-143v-143h143v-572h-571v572h142v-286h286v286h-143v143h-143v142z" />
    <glyph glyph-name="uni1F67" unicode="&#x1f67;" 
d="M142 800h429v-142h-143v-143h143v-572h-571v572h142v-286h286v286h-143v143h-143v142z" />
    <glyph glyph-name="uni1F68" unicode="&#x1f68;" 
d="M0 800h142v-142h143v142h143v-142h143v-429h-143v-143h143v-143h-143v143h-143v-143h-143v143h143v143h-143v286h-142v285zM285 658v-429h143v429h-143z" />
    <glyph glyph-name="uni1F69" unicode="&#x1f69;" 
d="M0 800h142v-142h143v142h143v-142h143v-429h-143v-143h143v-143h-143v143h-143v-143h-143v143h143v143h-143v286h-142v285zM285 658v-429h143v429h-143z" />
    <glyph glyph-name="uni1F6A" unicode="&#x1f6a;" 
d="M0 800h142v-142h143v142h143v-142h143v-429h-143v-143h143v-143h-143v143h-143v-143h-143v143h143v143h-143v286h-142v285zM285 658v-429h143v429h-143z" />
    <glyph glyph-name="uni1F6B" unicode="&#x1f6b;" 
d="M0 800h142v-142h143v142h143v-142h143v-429h-143v-143h143v-143h-143v143h-143v-143h-143v143h143v143h-143v286h-142v285zM285 658v-429h143v429h-143z" />
    <glyph glyph-name="uni1F6C" unicode="&#x1f6c;" 
d="M0 800h142v-142h143v142h143v-142h143v-429h-143v-143h143v-143h-143v143h-143v-143h-143v143h143v143h-143v286h-142v285zM285 658v-429h143v429h-143z" />
    <glyph glyph-name="uni1F6D" unicode="&#x1f6d;" 
d="M0 800h142v-142h143v142h143v-142h143v-429h-143v-143h143v-143h-143v143h-143v-143h-143v143h143v143h-143v286h-142v285zM285 658v-429h143v429h-143z" />
    <glyph glyph-name="uni1F6E" unicode="&#x1f6e;" 
d="M0 800h142v-142h143v142h143v-142h143v-429h-143v-143h143v-143h-143v143h-143v-143h-143v143h143v143h-143v286h-142v285zM285 658v-429h143v429h-143z" />
    <glyph glyph-name="uni1F6F" unicode="&#x1f6f;" 
d="M0 800h142v-142h143v142h143v-142h143v-429h-143v-143h143v-143h-143v143h-143v-143h-143v143h143v143h-143v286h-142v285zM285 658v-429h143v429h-143z" />
    <glyph glyph-name="uni1F70" unicode="&#x1f70;" 
d="M142 800h143v-142h143v-143h143v-572h-143v143h-143v-143h-143v143h-142v286h142v143h143v143h-143v142zM142 372v-286h143v143h143v143h-286z" />
    <glyph glyph-name="uni1F71" unicode="&#x1f71;" 
d="M428 800h143v-142h-143v-143h143v-572h-143v143h-143v-143h-143v143h-142v286h142v143h143v143h143v142zM142 372v-286h143v143h143v143h-286z" />
    <glyph glyph-name="uni1F72" unicode="&#x1f72;" 
d="M142 800h143v-142h143v-143h143v-143h-143v-143h-143v-143h286v-143h-286v143h-143v143h143v143h-143v143h143v143h-143v142z" />
    <glyph glyph-name="uni1F73" unicode="&#x1f73;" 
d="M428 800h143v-142h-143v-143h143v-143h-143v-143h-143v-143h286v-143h-286v143h-143v143h143v143h-143v143h143v143h143v142z" />
    <glyph glyph-name="uni1F74" unicode="&#x1f74;" 
d="M0 800h142v-142h143v-143h143v-143h143v-572h-143v572h-286v-429h-142v572h142v143h-142v142z" />
    <glyph glyph-name="uni1F75" unicode="&#x1f75;" 
d="M285 800h143v-142h-143v-143h143v-143h143v-572h-143v572h-286v-429h-142v572h142v143h143v142z" />
    <glyph glyph-name="uni1F76" unicode="&#x1f76;" 
d="M0 800h142v-142h143v-143h-143v143h-142v142zM142 372h143v-286h143v-143h-143v143h-143v286z" />
    <glyph glyph-name="uni1F77" unicode="&#x1f77;" 
d="M285 800h143v-142h-143v-143h-143v143h143v142zM142 372h143v-286h143v-143h-143v143h-143v286z" />
    <glyph glyph-name="uni1F78" unicode="&#x1f78;" 
d="M0 800h142v-142h143v-143h143v-143h143v-286h-143v-143h-286v143h-142v286h142v286h-142v142zM142 372v-286h286v286h-286z" />
    <glyph glyph-name="uni1F79" unicode="&#x1f79;" 
d="M285 800h143v-142h-143v-143h143v-143h143v-286h-143v-143h-286v143h-142v286h142v286h143v142zM142 372v-286h286v286h-286z" />
    <glyph glyph-name="uni1F7A" unicode="&#x1f7a;" 
d="M142 800h143v-142h143v-143h143v-429h-143v-143h-286v143h-142v429h142v-429h286v429h-143v143h-143v142z" />
    <glyph glyph-name="uni1F7B" unicode="&#x1f7b;" 
d="M285 800h143v-142h-143v-143h-143v-429h286v429h143v-429h-143v-143h-286v143h-142v429h142v143h143v142z" />
    <glyph glyph-name="uni1F7C" unicode="&#x1f7c;" 
d="M142 800h143v-142h143v-143h143v-572h-571v572h142v-286h286v286h-143v143h-143v142z" />
    <glyph glyph-name="uni1F7D" unicode="&#x1f7d;" 
d="M285 800h143v-142h-143v-143h-143v-286h286v286h143v-572h-571v572h142v143h143v142z" />
    <glyph glyph-name="uni1F80" unicode="&#x1f80;" 
d="M142 800h286v-285h143v-572h-143v143h-143v-286h-143v286h-142v286h142v143h143v143h-143v142zM142 372v-286h143v143h143v143h-286z" />
    <glyph glyph-name="uni1F81" unicode="&#x1f81;" 
d="M142 800h286v-142h-143v-143h286v-572h-143v143h-143v-286h-143v286h-142v286h142v428zM142 372v-286h143v143h143v143h-286z" />
    <glyph glyph-name="uni1F82" unicode="&#x1f82;" 
d="M0 800h428v-142h143v-715h-143v143h-143v-286h-143v286h-142v286h142v286h-142v142zM285 658v-143h143v143h-143zM142 372v-286h143v143h143v143h-286z" />
    <glyph glyph-name="uni1F83" unicode="&#x1f83;" 
d="M0 800h428v-142h143v-715h-143v143h-143v-286h-143v286h-142v286h142v143h-142v285zM142 658v-143h286v143h-286zM142 372v-286h143v143h143v143h-286z" />
    <glyph glyph-name="uni1F84" unicode="&#x1f84;" 
d="M0 800h285v-142h143v142h143v-142h-143v-143h143v-572h-143v143h-143v-286h-143v286h-142v286h142v286h-142v142zM142 372v-286h143v143h143v143h-286z" />
    <glyph glyph-name="uni1F85" unicode="&#x1f85;" 
d="M0 800h285v-142h143v142h143v-142h-143v-143h143v-572h-143v143h-143v-286h-143v286h-142v286h142v143h-142v285zM142 658v-143h143v143h-143zM142 372v-286h143v143h143v143h-286z" />
    <glyph glyph-name="uni1F86" unicode="&#x1f86;" 
d="M142 800h429v-142h-143v-143h143v-572h-143v143h-143v-286h-143v286h-142v286h142v143h143v143h-143v142zM142 372v-286h143v143h143v143h-286z" />
    <glyph glyph-name="uni1F87" unicode="&#x1f87;" 
d="M142 800h429v-142h-143v-143h143v-572h-143v143h-143v-286h-143v286h-142v286h142v143h143v143h-143v142zM142 372v-286h143v143h143v143h-286z" />
    <glyph glyph-name="uni1F88" unicode="&#x1f88;" 
d="M0 800h142v-142h143v142h143v-142h143v-715h-143v-143h-143v143h-143v572h-142v285zM285 658v-286h143v286h-143zM285 229v-286h143v286h-143z" />
    <glyph glyph-name="uni1F89" unicode="&#x1f89;" 
d="M0 800h142v-142h143v142h143v-142h143v-715h-143v-143h-143v143h-143v572h-142v285zM285 658v-286h143v286h-143zM285 229v-286h143v286h-143z" />
    <glyph glyph-name="uni1F8A" unicode="&#x1f8a;" 
d="M0 800h142v-142h143v142h143v-142h143v-715h-143v-143h-143v143h-143v572h-142v285zM285 658v-286h143v286h-143zM285 229v-286h143v286h-143z" />
    <glyph glyph-name="uni1F8B" unicode="&#x1f8b;" 
d="M0 800h142v-142h143v142h143v-142h143v-715h-143v-143h-143v143h-143v572h-142v285zM285 658v-286h143v286h-143zM285 229v-286h143v286h-143z" />
    <glyph glyph-name="uni1F8C" unicode="&#x1f8c;" 
d="M0 800h142v-142h143v142h143v-142h143v-715h-143v-143h-143v143h-143v572h-142v285zM285 658v-286h143v286h-143zM285 229v-286h143v286h-143z" />
    <glyph glyph-name="uni1F8D" unicode="&#x1f8d;" 
d="M0 800h142v-142h143v142h143v-142h143v-715h-143v-143h-143v143h-143v572h-142v285zM285 658v-286h143v286h-143zM285 229v-286h143v286h-143z" />
    <glyph glyph-name="uni1F8E" unicode="&#x1f8e;" 
d="M0 800h142v-142h143v142h143v-142h143v-715h-143v-143h-143v143h-143v572h-142v285zM285 658v-286h143v286h-143zM285 229v-286h143v286h-143z" />
    <glyph glyph-name="uni1F8F" unicode="&#x1f8f;" 
d="M0 800h142v-142h143v142h143v-142h143v-715h-143v-143h-143v143h-143v572h-142v285zM285 658v-286h143v286h-143zM285 229v-286h143v286h-143z" />
    <glyph glyph-name="uni1F90" unicode="&#x1f90;" 
d="M142 800h286v-428h143v-572h-143v572h-286v-286h-142v429h285v143h-143v142zM0 -57h142v-143h-142v143z" />
    <glyph glyph-name="uni1F91" unicode="&#x1f91;" 
d="M142 800h286v-142h-143v-143h143v-143h143v-572h-143v572h-286v-286h-142v429h142v285zM0 -57h142v-143h-142v143z" />
    <glyph glyph-name="uni1F92" unicode="&#x1f92;" 
d="M0 800h428v-142h143v-143h-143v-143h143v-572h-143v572h-286v-286h-142v429h142v143h-142v142zM285 658v-143h143v143h-143zM0 -57h142v-143h-142v143z" />
    <glyph glyph-name="uni1F93" unicode="&#x1f93;" 
d="M0 800h428v-142h143v-143h-143v-143h143v-572h-143v572h-286v-286h-142v714zM142 658v-143h286v143h-286zM0 -57h142v-143h-142v143z" />
    <glyph glyph-name="uni1F94" unicode="&#x1f94;" 
d="M0 800h285v-142h143v142h143v-142h-143v-286h143v-572h-143v572h-286v-286h-142v429h142v143h-142v142zM0 -57h142v-143h-142v143z" />
    <glyph glyph-name="uni1F95" unicode="&#x1f95;" 
d="M0 800h285v-142h143v142h143v-142h-143v-286h143v-572h-143v572h-286v-286h-142v714zM142 658v-143h143v143h-143zM0 -57h142v-143h-142v143z" />
    <glyph glyph-name="uni1F96" unicode="&#x1f96;" 
d="M142 800h429v-142h-143v-286h143v-572h-143v572h-286v-286h-142v429h285v143h-143v142zM0 -57h142v-143h-142v143z" />
    <glyph glyph-name="uni1F97" unicode="&#x1f97;" 
d="M142 800h429v-142h-143v-286h143v-572h-143v572h-286v-286h-142v429h285v143h-143v142zM0 -57h142v-143h-142v143z" />
    <glyph glyph-name="uni1F98" unicode="&#x1f98;" 
d="M0 800h285v-285h143v285h143v-857h-143v-143h-143v143h-143v572h-142v285zM285 372v-429h143v429h-143z" />
    <glyph glyph-name="uni1F99" unicode="&#x1f99;" 
d="M0 800h285v-285h143v285h143v-857h-143v-143h-143v143h-143v572h-142v285zM285 372v-429h143v429h-143z" />
    <glyph glyph-name="uni1F9A" unicode="&#x1f9a;" 
d="M0 800h285v-285h143v285h143v-857h-143v-143h-143v143h-143v572h-142v285zM285 372v-429h143v429h-143z" />
    <glyph glyph-name="uni1F9B" unicode="&#x1f9b;" 
d="M0 800h285v-285h143v285h143v-857h-143v-143h-143v143h-143v572h-142v285zM285 372v-429h143v429h-143z" />
    <glyph glyph-name="uni1F9C" unicode="&#x1f9c;" 
d="M0 800h285v-285h143v285h143v-857h-143v-143h-143v143h-143v572h-142v285zM285 372v-429h143v429h-143z" />
    <glyph glyph-name="uni1F9D" unicode="&#x1f9d;" 
d="M0 800h285v-285h143v285h143v-857h-143v-143h-143v143h-143v572h-142v285zM285 372v-429h143v429h-143z" />
    <glyph glyph-name="uni1F9E" unicode="&#x1f9e;" 
d="M0 800h285v-285h143v285h143v-857h-143v-143h-143v143h-143v572h-142v285zM285 372v-429h143v429h-143z" />
    <glyph glyph-name="uni1F9F" unicode="&#x1f9f;" 
d="M0 800h285v-285h143v285h143v-857h-143v-143h-143v143h-143v572h-142v285zM285 372v-429h143v429h-143z" />
    <glyph glyph-name="uni1FA0" unicode="&#x1fa0;" 
d="M142 800h286v-285h143v-572h-286v-143h-143v143h-142v572h142v-286h286v286h-143v143h-143v142z" />
    <glyph glyph-name="uni1FA1" unicode="&#x1fa1;" 
d="M142 800h286v-142h-143v-143h-143v-286h286v286h143v-572h-286v-143h-143v143h-142v572h142v285z" />
    <glyph glyph-name="uni1FA2" unicode="&#x1fa2;" 
d="M0 800h428v-142h143v-715h-286v-143h-143v143h-142v572h142v143h-142v142zM285 658v-143h-143v-286h286v429h-143z" />
    <glyph glyph-name="uni1FA3" unicode="&#x1fa3;" 
d="M0 800h428v-142h143v-715h-286v-143h-143v143h-142v857zM142 658v-429h286v429h-286z" />
    <glyph glyph-name="uni1FA4" unicode="&#x1fa4;" 
d="M0 800h285v-142h143v142h143v-142h-143v-143h143v-572h-286v-143h-143v143h-142v572h142v143h-142v142zM142 515v-286h286v286h-286z" />
    <glyph glyph-name="uni1FA5" unicode="&#x1fa5;" 
d="M0 800h285v-142h143v142h143v-142h-143v-143h143v-572h-286v-143h-143v143h-142v857zM142 658v-429h286v286h-143v143h-143z" />
    <glyph glyph-name="uni1FA6" unicode="&#x1fa6;" 
d="M142 800h429v-142h-143v-143h143v-572h-286v-143h-143v143h-142v572h142v-286h286v286h-143v143h-143v142z" />
    <glyph glyph-name="uni1FA7" unicode="&#x1fa7;" 
d="M142 800h429v-142h-143v-143h143v-572h-286v-143h-143v143h-142v572h142v-286h286v286h-143v143h-143v142z" />
    <glyph glyph-name="uni1FA8" unicode="&#x1fa8;" 
d="M0 800h142v-142h143v142h143v-142h143v-429h-143v-143h143v-143h-143v-143h-143v143h-143v143h143v143h-143v286h-142v285zM285 658v-429h143v429h-143zM285 86v-143h143v143h-143z" />
    <glyph glyph-name="uni1FA9" unicode="&#x1fa9;" 
d="M0 800h142v-142h143v142h143v-142h143v-429h-143v-143h143v-143h-143v-143h-143v143h-143v143h143v143h-143v286h-142v285zM285 658v-429h143v429h-143zM285 86v-143h143v143h-143z" />
    <glyph glyph-name="uni1FAA" unicode="&#x1faa;" 
d="M0 800h142v-142h143v142h143v-142h143v-429h-143v-143h143v-143h-143v-143h-143v143h-143v143h143v143h-143v286h-142v285zM285 658v-429h143v429h-143zM285 86v-143h143v143h-143z" />
    <glyph glyph-name="uni1FAB" unicode="&#x1fab;" 
d="M0 800h142v-142h143v142h143v-142h143v-429h-143v-143h143v-143h-143v-143h-143v143h-143v143h143v143h-143v286h-142v285zM285 658v-429h143v429h-143zM285 86v-143h143v143h-143z" />
    <glyph glyph-name="uni1FAC" unicode="&#x1fac;" 
d="M0 800h142v-142h143v142h143v-142h143v-429h-143v-143h143v-143h-143v-143h-143v143h-143v143h143v143h-143v286h-142v285zM285 658v-429h143v429h-143zM285 86v-143h143v143h-143z" />
    <glyph glyph-name="uni1FAD" unicode="&#x1fad;" 
d="M0 800h142v-142h143v142h143v-142h143v-429h-143v-143h143v-143h-143v-143h-143v143h-143v143h143v143h-143v286h-142v285zM285 658v-429h143v429h-143zM285 86v-143h143v143h-143z" />
    <glyph glyph-name="uni1FAE" unicode="&#x1fae;" 
d="M0 800h142v-142h143v142h143v-142h143v-429h-143v-143h143v-143h-143v-143h-143v143h-143v143h143v143h-143v286h-142v285zM285 658v-429h143v429h-143zM285 86v-143h143v143h-143z" />
    <glyph glyph-name="uni1FAF" unicode="&#x1faf;" 
d="M0 800h142v-142h143v142h143v-142h143v-429h-143v-143h143v-143h-143v-143h-143v143h-143v143h143v143h-143v286h-142v285zM285 658v-429h143v429h-143zM285 86v-143h143v143h-143z" />
    <glyph glyph-name="uni1FB0" unicode="&#x1fb0;" 
d="M0 800h142v-142h286v142h143v-142h-143v-143h143v-572h-143v143h-143v-143h-143v143h-142v286h142v286h-142v142zM142 372v-286h143v143h143v143h-286z" />
    <glyph glyph-name="uni1FB1" unicode="&#x1fb1;" 
d="M0 800h571v-142h-571v142zM142 515h429v-572h-143v143h-143v-143h-143v143h-142v286h142v143zM142 372v-286h143v143h143v143h-286z" />
    <glyph glyph-name="uni1FB2" unicode="&#x1fb2;" 
d="M142 800h143v-142h143v-143h143v-572h-143v143h-143v-286h-143v286h-142v286h142v143h143v143h-143v142zM142 372v-286h143v143h143v143h-286z" />
    <glyph glyph-name="uni1FB3" unicode="&#x1fb3;" 
d="M142 515h429v-572h-143v143h-143v-286h-143v286h-142v286h142v143zM142 372v-286h143v143h143v143h-286z" />
    <glyph glyph-name="uni1FB4" unicode="&#x1fb4;" 
d="M428 800h143v-142h-143v-143h143v-572h-143v143h-143v-286h-143v286h-142v286h142v143h143v143h143v142zM142 372v-286h143v143h143v143h-286z" />
    <glyph glyph-name="uni1FB6" unicode="&#x1fb6;" 
d="M142 800h429v-142h-429v142zM142 515h429v-572h-143v143h-143v-143h-143v143h-142v286h142v143zM142 372v-286h143v143h143v143h-286z" />
    <glyph glyph-name="uni1FB7" unicode="&#x1fb7;" 
d="M142 800h429v-142h-429v142zM142 515h429v-572h-143v143h-143v-286h-143v286h-142v286h142v143zM142 372v-286h143v143h143v143h-286z" />
    <glyph glyph-name="uni1FB8" unicode="&#x1fb8;" 
d="M0 800h142v-142h286v142h143v-142h-143v-286h143v-429h-143v143h-286v-143h-142v429h142v286h-142v142zM142 372v-143h286v143h-286z" />
    <glyph glyph-name="uni1FB9" unicode="&#x1fb9;" 
d="M0 800h571v-142h-571v142zM142 515h286v-143h143v-429h-143v143h-286v-143h-142v429h142v143zM142 372v-143h286v143h-286z" />
    <glyph glyph-name="uni1FBA" unicode="&#x1fba;" 
d="M0 800h142v-142h143v142h143v-142h143v-715h-143v286h-143v-286h-143v572h-142v285zM285 658v-286h143v286h-143z" />
    <glyph glyph-name="uni1FBB" unicode="&#x1fbb;" 
d="M0 800h142v-142h143v142h143v-142h143v-715h-143v286h-143v-286h-143v572h-142v285zM285 658v-286h143v286h-143z" />
    <glyph glyph-name="uni1FBC" unicode="&#x1fbc;" 
d="M142 800h286v-142h143v-715h-143v286h-286v-286h143v-143h-143v143h-142v715h142v142zM142 658v-286h286v286h-286z" />
    <glyph glyph-name="uni1FBD" unicode="&#x1fbd;" 
d="M142 800h286v-285h-143v143h-143v142z" />
    <glyph glyph-name="uni1FBE" unicode="&#x1fbe;" 
d="M142 372h143v-286h143v-143h-143v143h-143v286z" />
    <glyph glyph-name="uni1FBF" unicode="&#x1fbf;" 
d="M142 800h286v-285h-143v143h-143v142z" />
    <glyph glyph-name="uni1FC0" unicode="&#x1fc0;" 
d="M0 800h428v-142h-428v142z" />
    <glyph glyph-name="uni1FC1" unicode="&#x1fc1;" 
d="M0 800h428v-285h-143v143h-143v-143h-142v285z" />
    <glyph glyph-name="uni1FC2" unicode="&#x1fc2;" 
d="M0 800h142v-142h143v-143h143v-143h143v-572h-143v572h-286v-286h-142v429h142v143h-142v142zM0 -57h142v-143h-142v143z" />
    <glyph glyph-name="uni1FC3" unicode="&#x1fc3;" 
d="M0 515h428v-143h143v-572h-143v572h-286v-286h-142v429zM0 -57h142v-143h-142v143z" />
    <glyph glyph-name="uni1FC4" unicode="&#x1fc4;" 
d="M285 800h143v-142h-143v-143h143v-143h143v-572h-143v572h-286v-286h-142v429h142v143h143v142zM0 -57h142v-143h-142v143z" />
    <glyph glyph-name="uni1FC6" unicode="&#x1fc6;" 
d="M142 800h429v-142h-429v142zM0 515h428v-143h143v-572h-143v572h-286v-429h-142v572z" />
    <glyph glyph-name="uni1FC7" unicode="&#x1fc7;" 
d="M142 800h429v-142h-429v142zM0 515h428v-143h143v-572h-143v572h-286v-286h-142v429zM0 -57h142v-143h-142v143z" />
    <glyph glyph-name="uni1FC8" unicode="&#x1fc8;" 
d="M0 800h571v-142h-286v-143h143v-143h-143v-286h286v-143h-429v572h-142v285z" />
    <glyph glyph-name="uni1FC9" unicode="&#x1fc9;" 
d="M0 800h571v-142h-286v-143h143v-143h-143v-286h286v-143h-429v572h-142v285z" />
    <glyph glyph-name="uni1FCA" unicode="&#x1fca;" 
d="M0 800h285v-285h143v285h143v-857h-143v429h-143v-429h-143v572h-142v285z" />
    <glyph glyph-name="uni1FCB" unicode="&#x1fcb;" 
d="M0 800h285v-285h143v285h143v-857h-143v429h-143v-429h-143v572h-142v285z" />
    <glyph glyph-name="uni1FCC" unicode="&#x1fcc;" 
d="M0 800h142v-285h286v285h143v-857h-143v429h-286v-429h143v-143h-143v143h-142v857z" />
    <glyph glyph-name="uni1FCD" unicode="&#x1fcd;" 
d="M0 800h428v-142h143v-143h-143v143h-143v-143h-143v143h-142v142z" />
    <glyph glyph-name="uni1FCE" unicode="&#x1fce;" 
d="M0 800h285v-142h143v142h143v-142h-143v-143h-286v143h-142v142z" />
    <glyph glyph-name="uni1FCF" unicode="&#x1fcf;" 
d="M0 800h428v-142h-143v-143h-143v143h-142v142z" />
    <glyph glyph-name="uni1FD0" unicode="&#x1fd0;" 
d="M0 800h142v-142h286v142h143v-142h-143v-143h-143v-429h143v-143h-143v143h-143v572h-142v142z" />
    <glyph glyph-name="uni1FD1" unicode="&#x1fd1;" 
d="M0 800h571v-142h-571v142zM142 515h143v-429h143v-143h-143v143h-143v429z" />
    <glyph glyph-name="uni1FD2" unicode="&#x1fd2;" 
d="M0 800h285v-142h143v142h143v-142h-143v-143h-143v143h-285v142zM285 372h143v-286h143v-143h-143v143h-143v286z" />
    <glyph glyph-name="uni1FD3" unicode="&#x1fd3;" 
d="M0 800h142v-142h143v142h286v-142h-286v-143h-143v143h-142v142zM142 372h143v-286h143v-143h-143v143h-143v286z" />
    <glyph glyph-name="uni1FD6" unicode="&#x1fd6;" 
d="M0 800h428v-142h-428v142zM142 515h143v-429h143v-143h-143v143h-143v429z" />
    <glyph glyph-name="uni1FD7" unicode="&#x1fd7;" 
d="M0 800h428v-285h-143v143h-143v-143h-142v285zM142 372h143v-286h143v-143h-143v143h-143v286z" />
    <glyph glyph-name="uni1FD8" unicode="&#x1fd8;" 
d="M0 800h142v-142h286v142h143v-142h-143v-143h143v-143h-143v-286h143v-143h-429v143h143v286h-143v286h-142v142z" />
    <glyph glyph-name="uni1FD9" unicode="&#x1fd9;" 
d="M142 800h429v-142h-429v142zM142 515h429v-143h-143v-286h143v-143h-429v143h143v286h-143v143z" />
    <glyph glyph-name="uni1FDA" unicode="&#x1fda;" 
d="M0 800h571v-142h-143v-572h143v-143h-429v143h143v572h-143v-143h-142v285z" />
    <glyph glyph-name="uni1FDB" unicode="&#x1fdb;" 
d="M0 800h571v-142h-143v-572h143v-143h-429v143h143v572h-143v-143h-142v285z" />
    <glyph glyph-name="uni1FDD" unicode="&#x1fdd;" 
d="M0 800h428v-142h143v-143h-143v143h-286v-143h-142v285z" />
    <glyph glyph-name="uni1FDE" unicode="&#x1fde;" 
d="M0 800h285v-142h143v142h143v-142h-143v-143h-143v143h-143v-143h-142v285z" />
    <glyph glyph-name="uni1FDF" unicode="&#x1fdf;" 
d="M0 800h428v-142h-143v-143h-143v143h-142v142z" />
    <glyph glyph-name="uni1FE0" unicode="&#x1fe0;" 
d="M0 800h142v-142h286v142h143v-142h-143v-143h143v-429h-143v-143h-286v143h-142v429h142v143h-142v142zM142 515v-429h286v429h-286z" />
    <glyph glyph-name="uni1FE1" unicode="&#x1fe1;" 
d="M0 800h571v-142h-571v142zM0 515h142v-429h286v429h143v-429h-143v-143h-286v143h-142v429z" />
    <glyph glyph-name="uni1FE2" unicode="&#x1fe2;" 
d="M0 800h285v-142h143v142h143v-142h-143v-143h143v-429h-143v-143h-286v143h-142v429h142v-429h286v429h-143v143h-285v142z" />
    <glyph glyph-name="uni1FE3" unicode="&#x1fe3;" 
d="M0 800h142v-142h143v142h286v-142h-286v-143h-143v-429h286v429h143v-429h-143v-143h-286v143h-142v429h142v143h-142v142z" />
    <glyph glyph-name="uni1FE4" unicode="&#x1fe4;" 
d="M142 800h286v-428h143v-286h-143v-143h-286v-143h-142v572h142v143h143v143h-143v142zM142 372v-286h286v286h-286z" />
    <glyph glyph-name="uni1FE5" unicode="&#x1fe5;" 
d="M142 800h286v-142h-143v-143h143v-143h143v-286h-143v-143h-286v-143h-142v572h142v428zM142 372v-286h286v286h-286z" />
    <glyph glyph-name="uni1FE6" unicode="&#x1fe6;" 
d="M142 800h429v-142h-429v142zM0 515h142v-429h286v429h143v-429h-143v-143h-286v143h-142v429z" />
    <glyph glyph-name="uni1FE7" unicode="&#x1fe7;" 
d="M0 800h571v-285h-143v143h-286v-143h-142v285zM0 372h142v-286h286v286h143v-286h-143v-143h-286v143h-142v286z" />
    <glyph glyph-name="uni1FE8" unicode="&#x1fe8;" 
d="M0 800h142v-142h286v142h143v-142h-143v-429h-143v-286h-143v286h-142v286h142v143h-142v142zM142 515v-286h143v286h-143z" />
    <glyph glyph-name="uni1FE9" unicode="&#x1fe9;" 
d="M0 800h571v-142h-571v142zM0 515h142v-286h143v286h143v-286h-143v-286h-143v286h-142v286z" />
    <glyph glyph-name="uni1FEA" unicode="&#x1fea;" 
d="M0 800h285v-428h143v428h143v-428h-143v-429h-143v429h-143v143h-142v285z" />
    <glyph glyph-name="uni1FEB" unicode="&#x1feb;" 
d="M0 800h285v-428h143v428h143v-428h-143v-429h-143v429h-143v143h-142v285z" />
    <glyph glyph-name="uni1FEC" unicode="&#x1fec;" 
d="M0 800h428v-142h143v-286h-143v-143h-143v-286h-143v572h-142v285zM285 658v-286h143v286h-143z" />
    <glyph glyph-name="uni1FED" unicode="&#x1fed;" 
d="M0 800h285v-142h143v142h143v-142h-143v-143h-143v143h-285v142z" />
    <glyph glyph-name="uni1FEE" unicode="&#x1fee;" 
d="M0 800h142v-142h143v142h286v-142h-286v-143h-143v143h-142v142z" />
    <glyph glyph-name="uni1FEF" unicode="&#x1fef;" 
d="M142 800h143v-142h143v-143h-143v143h-143v142z" />
    <glyph glyph-name="uni1FF2" unicode="&#x1ff2;" 
d="M142 800h143v-142h143v-143h143v-572h-286v-143h-143v143h-142v572h142v-286h286v286h-143v143h-143v142z" />
    <glyph glyph-name="uni1FF3" unicode="&#x1ff3;" 
d="M0 515h142v-286h286v286h143v-572h-286v-143h-143v143h-142v572z" />
    <glyph glyph-name="uni1FF4" unicode="&#x1ff4;" 
d="M285 800h143v-142h-143v-143h-143v-286h286v286h143v-572h-286v-143h-143v143h-142v572h142v143h143v142z" />
    <glyph glyph-name="uni1FF6" unicode="&#x1ff6;" 
d="M142 800h429v-142h-429v142zM0 515h142v-286h286v286h143v-572h-571v572z" />
    <glyph glyph-name="uni1FF7" unicode="&#x1ff7;" 
d="M142 800h429v-142h-429v142zM0 515h142v-286h286v286h143v-572h-286v-143h-143v143h-142v572z" />
    <glyph glyph-name="uni1FF8" unicode="&#x1ff8;" 
d="M0 800h142v-142h143v142h143v-142h143v-572h-143v-143h-143v143h-143v429h-142v285zM285 658v-572h143v572h-143z" />
    <glyph glyph-name="uni1FF9" unicode="&#x1ff9;" 
d="M0 800h142v-142h143v142h143v-142h143v-572h-143v-143h-143v143h-143v429h-142v285zM285 658v-572h143v572h-143z" />
    <glyph glyph-name="uni1FFA" unicode="&#x1ffa;" 
d="M0 800h142v-142h143v142h143v-142h143v-429h-143v-143h143v-143h-143v143h-143v-143h-143v143h143v143h-143v286h-142v285zM285 658v-429h143v429h-143z" />
    <glyph glyph-name="uni1FFB" unicode="&#x1ffb;" 
d="M0 800h142v-142h143v142h143v-142h143v-429h-143v-143h143v-143h-143v143h-143v-143h-143v143h143v143h-143v286h-142v285zM285 658v-429h143v429h-143z" />
    <glyph glyph-name="uni1FFC" unicode="&#x1ffc;" 
d="M285 800h143v-142h143v-429h-143v-143h143v-143h-143v-143h-143v143h-143v143h143v143h-143v429h143v142zM285 658v-429h143v429h-143zM285 86v-143h143v143h-143z" />
    <glyph glyph-name="uni1FFD" unicode="&#x1ffd;" 
d="M285 800h143v-142h-143v-143h-143v143h143v142z" />
    <glyph glyph-name="uni1FFE" unicode="&#x1ffe;" 
d="M142 800h286v-142h-143v-143h-143v285z" />
    <glyph glyph-name="uni2010" unicode="&#x2010;" 
d="M142 372h429v-143h-429v143z" />
    <glyph glyph-name="uni2011" unicode="&#x2011;" 
d="M142 372h429v-143h-429v143z" />
    <glyph glyph-name="figuredash" unicode="&#x2012;" 
d="M0 372h571v-143h-571v143z" />
    <glyph glyph-name="endash" unicode="&#x2013;" 
d="M0 372h571v-143h-571v143z" />
    <glyph glyph-name="emdash" unicode="&#x2014;" 
d="M0 372h714v-143h-714v143z" />
    <glyph glyph-name="uni2015" unicode="&#x2015;" 
d="M0 372h714v-143h-714v143z" />
    <glyph glyph-name="uni2016" unicode="&#x2016;" 
d="M142 800h143v-857h-143v857zM428 800h143v-857h-143v857z" />
    <glyph glyph-name="underscoredbl" unicode="&#x2017;" 
d="M0 229h571v-143h-571v143zM0 -57h571v-143h-571v143z" />
    <glyph glyph-name="quoteleft" unicode="&#x2018;" 
d="M285 800h143v-142h-143v-143h143v-143h-286v286h143v142z" />
    <glyph glyph-name="quoteright" unicode="&#x2019;" 
d="M142 800h286v-285h-143v-143h-143v143h143v143h-143v142z" />
    <glyph glyph-name="quotesinglbase" unicode="&#x201a;" 
d="M142 229h286v-286h-143v-143h-143v143h143v143h-143v143z" />
    <glyph glyph-name="quotereversed" unicode="&#x201b;" 
d="M142 800h286v-142h-143v-143h143v-143h-143v143h-143v285z" />
    <glyph glyph-name="quotedblleft" unicode="&#x201c;" 
d="M142 800h143v-142h143v142h143v-142h-143v-286h-143v286h-143v-286h-142v286h142v142z" />
    <glyph glyph-name="quotedblright" unicode="&#x201d;" 
d="M142 800h143v-285h143v285h143v-285h-143v-143h-143v143h-143v-143h-142v143h142v285z" />
    <glyph glyph-name="quotedblbase" unicode="&#x201e;" 
d="M142 229h143v-286h143v286h143v-286h-143v-143h-143v143h-143v-143h-142v143h142v286z" />
    <glyph glyph-name="uni201F" unicode="&#x201f;" 
d="M0 800h142v-285h143v285h143v-285h143v-143h-143v143h-143v-143h-143v143h-142v285z" />
    <glyph glyph-name="dagger" unicode="&#x2020;" 
d="M285 658h143v-143h143v-143h-143v-429h-143v429h-143v143h143v143z" />
    <glyph glyph-name="daggerdbl" unicode="&#x2021;" 
d="M285 658h143v-143h143v-143h-143v-143h143v-143h-143v-143h-143v143h-143v143h143v143h-143v143h143v143z" />
    <glyph glyph-name="bullet" unicode="&#x2022;" 
d="M142 515h286v-143h143v-286h-143v-143h-286v143h-142v286h142v143z" />
    <glyph glyph-name="uni2023" unicode="&#x2023;" 
d="M142 658h143v-143h143v-143h143v-143h-143v-143h-143v-143h-143v715z" />
    <glyph glyph-name="onedotenleader" unicode="&#x2024;" 
d="M285 86h143v-143h-143v143z" />
    <glyph glyph-name="twodotenleader" unicode="&#x2025;" 
d="M142 86h143v-143h-143v143zM428 86h143v-143h-143v143z" />
    <glyph glyph-name="ellipsis" unicode="&#x2026;" 
d="M0 86h142v-143h-142v143zM285 86h143v-143h-143v143zM571 86h143v-143h-143v143z" />
    <glyph glyph-name="uni2027" unicode="&#x2027;" 
d="M142 372h286v-143h-286v143z" />
    <glyph glyph-name="perthousand" unicode="&#x2030;" 
d="M0 800h142v-285h-142v285zM428 658h143v-143h-143v-143h-143v-143h143v-286h-143v286h-143v-143h-142v143h142v143h143v143h143v143zM571 229h143v-286h-143v286z" />
    <glyph glyph-name="minute" unicode="&#x2032;" 
d="M285 800h143v-285h-143v-143h-143v143h143v285z" />
    <glyph glyph-name="second" unicode="&#x2033;" 
d="M142 800h143v-285h143v285h143v-285h-143v-143h-143v143h-143v-143h-142v143h142v285z" />
    <glyph glyph-name="uni2034" unicode="&#x2034;" 
d="M142 800h429v-285h-143v-143h-428v143h142v285z" />
    <glyph glyph-name="uni2035" unicode="&#x2035;" 
d="M142 800h143v-285h143v-143h-143v143h-143v285z" />
    <glyph glyph-name="uni2036" unicode="&#x2036;" 
d="M0 800h142v-285h143v285h143v-285h143v-143h-143v143h-143v-143h-143v143h-142v285z" />
    <glyph glyph-name="uni2037" unicode="&#x2037;" 
d="M0 800h428v-285h143v-143h-429v143h-142v285z" />
    <glyph glyph-name="guilsinglleft" unicode="&#x2039;" 
d="M285 515h143v-143h-143v-143h143v-143h-143v143h-143v143h143v143z" />
    <glyph glyph-name="guilsinglright" unicode="&#x203a;" 
d="M142 515h143v-143h143v-143h-143v-143h-143v143h143v143h-143v143z" />
    <glyph glyph-name="exclamdbl" unicode="&#x203c;" 
d="M142 800h143v-571h-143v571zM428 800h143v-571h-143v571zM142 86h143v-143h-143v143zM428 86h143v-143h-143v143z" />
    <glyph glyph-name="uni203E" unicode="&#x203e;" 
d="M0 800h714v-142h-714v142z" />
    <glyph glyph-name="fraction" unicode="&#x2044;" 
d="M428 658h143v-143h-143v-143h-143v-143h-143v-143h-142v143h142v143h143v143h143v143z" />
    <glyph glyph-name="uni2070" unicode="&#x2070;" 
d="M285 800h143v-142h143v-286h-143v-143h-143v143h-143v286h143v142zM285 658v-286h143v286h-143z" />
    <glyph glyph-name="uni2071" unicode="&#x2071;" 
d="M285 800h143v-142h-143v142zM285 515h143v-286h-143v286z" />
    <glyph glyph-name="uni2074" unicode="&#x2074;" 
d="M285 800h143v-285h143v-143h-143v-143h-143v143h-143v286h143v142z" />
    <glyph glyph-name="uni2075" unicode="&#x2075;" 
d="M142 800h429v-142h-143v-143h143v-143h-143v-143h-286v143h286v143h-286v285z" />
    <glyph glyph-name="uni2076" unicode="&#x2076;" 
d="M285 800h286v-142h-143v-143h143v-143h-143v-143h-143v143h-143v286h143v142zM285 515v-143h143v143h-143z" />
    <glyph glyph-name="uni2077" unicode="&#x2077;" 
d="M142 800h429v-285h-143v-286h-143v286h143v143h-286v142z" />
    <glyph glyph-name="uni2078" unicode="&#x2078;" 
d="M285 800h143v-142h143v-143h-143v-143h143v-143h-143v-143h-143v143h-143v143h143v143h-143v143h143v142zM285 658v-143h143v143h-143zM285 372v-143h143v143h-143z" />
    <glyph glyph-name="uni2079" unicode="&#x2079;" 
d="M285 800h143v-142h143v-286h-143v-143h-286v143h143v143h-143v143h143v142zM285 658v-143h143v143h-143z" />
    <glyph glyph-name="uni207A" unicode="&#x207a;" 
d="M285 658h143v-143h143v-143h-143v-143h-143v143h-143v143h143v143z" />
    <glyph glyph-name="uni207B" unicode="&#x207b;" 
d="M142 515h429v-143h-429v143z" />
    <glyph glyph-name="uni207C" unicode="&#x207c;" 
d="M142 658h429v-143h-429v143zM142 372h429v-143h-429v143z" />
    <glyph glyph-name="uni207D" unicode="&#x207d;" 
d="M285 800h143v-142h-143v-286h143v-143h-143v143h-143v286h143v142z" />
    <glyph glyph-name="uni207E" unicode="&#x207e;" 
d="M285 800h143v-142h143v-286h-143v-143h-143v143h143v286h-143v142z" />
    <glyph glyph-name="uni207F" unicode="&#x207f;" 
d="M142 658h286v-143h143v-286h-143v286h-143v-286h-143v429z" />
    <glyph glyph-name="uni2080" unicode="&#x2080;" 
d="M285 372h143v-143h143v-286h-143v-143h-143v143h-143v286h143v143zM285 229v-286h143v286h-143z" />
    <glyph glyph-name="uni2081" unicode="&#x2081;" 
d="M285 372h143v-429h143v-143h-429v143h143v143h-143v143h143v143z" />
    <glyph glyph-name="uni2082" unicode="&#x2082;" 
d="M142 372h286v-286h-143v-143h143v-143h-286v286h143v143h-143v143z" />
    <glyph glyph-name="uni2083" unicode="&#x2083;" 
d="M142 372h286v-572h-286v143h143v143h-143v286z" />
    <glyph glyph-name="uni2084" unicode="&#x2084;" 
d="M285 372h143v-286h143v-143h-143v-143h-143v143h-143v286h143v143z" />
    <glyph glyph-name="uni2085" unicode="&#x2085;" 
d="M142 372h429v-143h-143v-143h143v-143h-143v-143h-286v143h286v143h-286v286z" />
    <glyph glyph-name="uni2086" unicode="&#x2086;" 
d="M285 372h286v-143h-143v-143h143v-143h-143v-143h-143v143h-143v286h143v143zM285 86v-143h143v143h-143z" />
    <glyph glyph-name="uni2087" unicode="&#x2087;" 
d="M142 372h429v-286h-143v-286h-143v286h143v143h-286v143z" />
    <glyph glyph-name="uni2088" unicode="&#x2088;" 
d="M285 515h143v-143h143v-143h-143v-143h143v-143h-143v-143h-143v143h-143v143h143v143h-143v143h143v143zM285 372v-143h143v143h-143zM285 86v-143h143v143h-143z" />
    <glyph glyph-name="uni2089" unicode="&#x2089;" 
d="M285 372h143v-143h143v-286h-143v-143h-286v143h143v143h-143v143h143v143zM285 229v-143h143v143h-143z" />
    <glyph glyph-name="uni208A" unicode="&#x208a;" 
d="M285 229h143v-143h143v-143h-143v-143h-143v143h-143v143h143v143z" />
    <glyph glyph-name="uni208B" unicode="&#x208b;" 
d="M142 86h429v-143h-429v143z" />
    <glyph glyph-name="uni208C" unicode="&#x208c;" 
d="M142 229h429v-143h-429v143zM142 -57h429v-143h-429v143z" />
    <glyph glyph-name="uni208D" unicode="&#x208d;" 
d="M285 372h143v-143h-143v-286h143v-143h-143v143h-143v286h143v143z" />
    <glyph glyph-name="uni208E" unicode="&#x208e;" 
d="M285 372h143v-143h143v-286h-143v-143h-143v143h143v286h-143v143z" />
    <glyph glyph-name="franc" unicode="&#x20a3;" 
d="M0 800h571v-142h-429v-143h143v-143h143v143h286v-143h-286v-429h-143v429h-143v-429h-142v857z" />
    <glyph glyph-name="lira" unicode="&#x20a4;" 
d="M285 800h286v-142h-286v-143h143v-286h-143v-143h286v-143h-286v143h-143v-143h-142v143h142v143h-142v286h142v143h143v142z" />
    <glyph glyph-name="peseta" unicode="&#x20a7;" 
d="M142 800h286v-142h143v-143h143v-143h-143v-143h-286v-286h-143v429h-142v143h142v285zM285 658v-143h143v143h-143z" />
    <glyph glyph-name="dong" unicode="&#x20ab;" 
d="M428 800h143v-142h143v-143h-143v-715h-571v143h142v143h-142v286h142v143h143v143h143v142zM142 372v-286h286v286h-286z" />
    <glyph glyph-name="Euro" unicode="&#x20ac;" 
d="M285 800h286v-142h-286v-143h143v-286h-143v-143h286v-143h-286v143h-143v143h-142v286h142v143h143v142z" />
    <glyph glyph-name="uni20AF" unicode="&#x20af;" 
d="M142 800h143v-142h143v-143h143v-429h-143v-143h-428v286h142v143h-142v143h142v285zM285 515v-429h143v429h-143z" />
    <glyph glyph-name="uni20D0" unicode="&#x20d0;" 
d="M142 800h143v-142h429v-143h-714v143h142v142z" />
    <glyph glyph-name="uni20D1" unicode="&#x20d1;" 
d="M428 800h143v-142h143v-143h-714v143h428v142z" />
    <glyph glyph-name="uni20D2" unicode="&#x20d2;" 
d="M285 800h143v-1000h-143v1000z" />
    <glyph glyph-name="uni20D3" unicode="&#x20d3;" 
d="M285 658h143v-858h-143v858z" />
    <glyph glyph-name="uni20D4" unicode="&#x20d4;" 
d="M0 800h142v-142h143v142h143v-142h143v-286h-143v286h-143v-286h-285v428z" />
    <glyph glyph-name="uni20D5" unicode="&#x20d5;" 
d="M142 800h143v-142h143v142h143v-428h-286v286h-143v-286h-142v286h142v142z" />
    <glyph glyph-name="uni20D6" unicode="&#x20d6;" 
d="M142 800h143v-142h429v-143h-429v-143h-143v143h-142v143h142v142z" />
    <glyph glyph-name="uni20D7" unicode="&#x20d7;" 
d="M428 800h143v-142h143v-143h-143v-143h-143v143h-428v143h428v142z" />
    <glyph glyph-name="uni2102" unicode="&#x2102;" 
d="M142 800h286v-142h143v-143h-143v143h-143v-572h143v143h143v-143h-143v-143h-286v143h-142v572h142v142z" />
    <glyph glyph-name="uni2105" unicode="&#x2105;" 
d="M142 800h286v-142h-286v-143h429v-143h-143v-286h143v-143h-143v-143h-143v143h-143v143h-142v143h142v286h-142v143h142v142zM142 229v-143h143v-143h143v143h-143v143h-143z" />
    <glyph glyph-name="uni2113" unicode="&#x2113;" 
d="M285 800h286v-428h-143v-286h143v-143h-143v143h-143v-143h-143v143h143v714z" />
    <glyph glyph-name="uni2115" unicode="&#x2115;" 
d="M0 800h285v-285h143v-143h143v428h143v-857h-143v286h-143v143h-143v-429h-285v857z" />
    <glyph glyph-name="uni2116" unicode="&#x2116;" 
d="M0 800h285v-142h143v-286h143v-143h143v-143h-143v-143h-286v715h-143v-715h-142v857zM428 229v-143h143v143h-143z" />
    <glyph glyph-name="uni211A" unicode="&#x211a;" 
d="M142 800h286v-142h143v-858h-143v143h-286v143h-142v572h142v142zM285 658v-429h143v429h-143z" />
    <glyph glyph-name="uni211D" unicode="&#x211d;" 
d="M0 800h428v-142h143v-429h-143v-143h143v-143h-143v143h-143v-143h-285v857zM285 658v-286h143v286h-143z" />
    <glyph glyph-name="trademark" unicode="&#x2122;" 
d="M142 800h429v-142h-143v-286h-143v286h-143v142zM0 229h714v-429h-143v286h-143v-286h-143v286h-143v-286h-142v429z" />
    <glyph glyph-name="uni2124" unicode="&#x2124;" 
d="M0 800h571v-285h-143v-286h-143v-143h286v-143h-571v286h142v286h143v143h-285v142z" />
    <glyph glyph-name="Omega" unicode="&#x2126;" 
d="M285 800h143v-142h143v-429h-143v-143h143v-143h-429v143h143v143h-143v429h143v142zM285 658v-429h143v429h-143z" />
    <glyph glyph-name="uni2127" unicode="&#x2127;" 
d="M142 800h429v-142h-143v-143h143v-429h-143v-143h-143v143h-143v429h143v143h-143v142zM285 515v-429h143v429h-143z" />
    <glyph glyph-name="estimated" unicode="&#x212e;" 
d="M142 515h429v-143h143v-143h-286v-143h143v-143h-429v143h-142v286h142v143zM285 372v-143h143v143h-143z" />
    <glyph glyph-name="oneeighth" unicode="&#x215b;" 
d="M0 800h142v-571h-142v571zM285 372h286v-572h-286v572z" />
    <glyph glyph-name="threeeighths" unicode="&#x215c;" 
d="M0 800h285v-428h286v-572h-286v429h-285v143h142v143h-142v285z" />
    <glyph glyph-name="fiveeighths" unicode="&#x215d;" 
d="M0 800h285v-142h-143v-143h143v-143h286v-572h-286v572h-143v-143h-142v143h142v143h-142v285z" />
    <glyph glyph-name="seveneighths" unicode="&#x215e;" 
d="M0 800h285v-285h-143v-286h-142v286h142v143h-142v142zM285 372h286v-572h-286v572z" />
    <glyph glyph-name="arrowleft" unicode="&#x2190;" 
d="M142 515h143v-143h286v-143h-286v-143h-143v143h-142v143h142v143z" />
    <glyph glyph-name="arrowup" unicode="&#x2191;" 
d="M285 800h143v-142h143v-143h-143v-572h-143v572h-143v143h143v142z" />
    <glyph glyph-name="arrowright" unicode="&#x2192;" 
d="M285 515h143v-143h143v-143h-143v-143h-143v143h-285v143h285v143z" />
    <glyph glyph-name="arrowdown" unicode="&#x2193;" 
d="M285 800h143v-571h143v-143h-143v-143h-143v143h-143v143h143v571z" />
    <glyph glyph-name="arrowboth" unicode="&#x2194;" 
d="M142 515h143v-143h143v143h143v-143h143v-143h-143v-143h-143v143h-143v-143h-143v143h-142v143h142v143z" />
    <glyph glyph-name="arrowupdn" unicode="&#x2195;" 
d="M285 800h143v-142h143v-143h-143v-286h143v-143h-143v-143h-143v143h-143v143h143v286h-143v143h143v142z" />
    <glyph glyph-name="uni21A4" unicode="&#x21a4;" 
d="M142 515h143v-143h143v143h143v-429h-143v143h-143v-143h-143v143h-142v143h142v143z" />
    <glyph glyph-name="uni21A5" unicode="&#x21a5;" 
d="M285 800h143v-142h143v-143h-143v-429h143v-143h-429v143h143v429h-143v143h143v142z" />
    <glyph glyph-name="uni21A6" unicode="&#x21a6;" 
d="M0 515h142v-143h143v143h143v-143h143v-143h-143v-143h-143v143h-143v-143h-142v429z" />
    <glyph glyph-name="uni21A7" unicode="&#x21a7;" 
d="M142 800h429v-142h-143v-429h143v-143h-143v-143h-143v143h-143v143h143v429h-143v142z" />
    <glyph glyph-name="arrowupdnbse" unicode="&#x21a8;" 
d="M285 800h143v-142h143v-143h-143v-286h143v-143h-143v-143h143v-143h-429v143h143v143h-143v143h143v286h-143v143h143v142z" />
    <glyph glyph-name="uni21C4" unicode="&#x21c4;" 
d="M428 800h143v-142h143v-143h-143v-143h-143v143h-428v143h428v142zM142 372h143v-143h429v-143h-429v-143h-143v143h-142v143h142v143z" />
    <glyph glyph-name="uni21C6" unicode="&#x21c6;" 
d="M142 800h143v-142h429v-143h-429v-143h-143v143h-142v143h142v142zM428 372h143v-143h143v-143h-143v-143h-143v143h-428v143h428v143z" />
    <glyph glyph-name="uni21CB" unicode="&#x21cb;" 
d="M142 658h143v-143h286v-143h-571v143h142v143zM0 229h571v-143h-143v-143h-143v143h-285v143z" />
    <glyph glyph-name="uni21CC" unicode="&#x21cc;" 
d="M285 658h143v-143h143v-143h-571v143h285v143zM0 229h571v-143h-286v-143h-143v143h-142v143z" />
    <glyph glyph-name="arrowdblleft" unicode="&#x21d0;" 
d="M428 800h143v-142h-143v-143h286v-143h-572v-143h572v-143h-286v-143h143v-143h-143v143h-143v143h-143v143h-142v143h142v143h143v143h143v142z" />
    <glyph glyph-name="arrowdblup" unicode="&#x21d1;" 
d="M285 800h143v-142h143v-143h143v-143h-143v-429h-143v715h-143v-715h-143v429h-142v143h142v143h143v142z" />
    <glyph glyph-name="arrowdblright" unicode="&#x21d2;" 
d="M142 800h143v-142h143v-143h143v-143h143v-143h-143v-143h-143v-143h-143v-143h-143v143h143v143h-285v143h571v143h-571v143h285v143h-143v142z" />
    <glyph glyph-name="arrowdbldown" unicode="&#x21d3;" 
d="M142 800h143v-714h143v714h143v-428h143v-143h-143v-143h-143v-143h-143v143h-143v143h-142v143h142v428z" />
    <glyph glyph-name="arrowdblboth" unicode="&#x21d4;" 
d="M285 658h143v-143h143v-143h143v-143h-143v-143h-143v-143h-143v143h-143v143h-142v143h142v143h143v143zM142 372v-143h429v143h-429z" />
    <glyph glyph-name="uni21D5" unicode="&#x21d5;" 
d="M285 800h143v-142h143v-143h143v-143h-143v-143h143v-143h-143v-143h-143v-143h-143v143h-143v143h-142v143h142v143h-142v143h142v143h143v142zM285 658v-715h143v715h-143z" />
    <glyph glyph-name="universal" unicode="&#x2200;" 
d="M0 800h142v-285h286v285h143v-714h-143v-143h-286v143h-142v714zM142 372v-286h286v286h-286z" />
    <glyph glyph-name="uni2201" unicode="&#x2201;" 
d="M285 800h143v-142h143v-143h-143v143h-143v-572h143v143h143v-143h-143v-143h-143v143h-143v572h143v142z" />
    <glyph glyph-name="partialdiff" unicode="&#x2202;" 
d="M285 800h143v-142h143v-572h-143v-143h-143v143h-143v286h143v143h143v143h-143v142zM285 372v-286h143v286h-143z" />
    <glyph glyph-name="existential" unicode="&#x2203;" 
d="M0 800h571v-857h-571v143h428v286h-286v143h286v143h-428v142z" />
    <glyph glyph-name="uni2204" unicode="&#x2204;" 
d="M285 800h143v-142h143v-715h-286v-143h-143v143h-142v143h142v429h-142v143h285v142zM285 515v-143h143v143h-143zM285 229v-143h143v143h-143z" />
    <glyph glyph-name="emptyset" unicode="&#x2205;" 
d="M428 800h143v-714h-143v-143h-286v-143h-142v715h142v143h286v142zM142 515v-143h143v-286h143v286h-143v143h-143z" />
    <glyph glyph-name="Delta" unicode="&#x2206;" 
d="M285 800h143v-285h143v-286h143v-286h-714v286h142v286h143v285zM285 515v-286h-143v-143h429v143h-143v286h-143z" />
    <glyph glyph-name="gradient" unicode="&#x2207;" 
d="M0 800h714v-285h-143v-286h-143v-286h-143v286h-143v286h-142v285zM142 658v-143h143v-286h143v286h143v143h-429z" />
    <glyph glyph-name="element" unicode="&#x2208;" 
d="M142 658h429v-143h-429v-143h429v-143h-429v-143h429v-143h-429v143h-142v429h142v143z" />
    <glyph glyph-name="notelement" unicode="&#x2209;" 
d="M428 800h143v-285h-143v-143h143v-143h-143v-143h143v-143h-286v-143h-143v286h-142v429h142v143h286v142zM142 515v-143h143v143h-143zM142 229v-143h143v143h-143z" />
    <glyph glyph-name="uni220A" unicode="&#x220a;" 
d="M285 658h286v-143h-286v-143h286v-143h-286v-143h286v-143h-286v143h-143v429h143v143z" />
    <glyph glyph-name="suchthat" unicode="&#x220b;" 
d="M0 658h428v-143h143v-429h-143v-143h-428v143h428v143h-428v143h428v143h-428v143z" />
    <glyph glyph-name="uni220C" unicode="&#x220c;" 
d="M285 800h143v-285h143v-429h-143v-143h-286v-143h-142v286h142v143h-142v143h142v143h-142v143h285v142zM285 515v-143h143v143h-143zM285 229v-143h143v143h-143z" />
    <glyph glyph-name="uni220D" unicode="&#x220d;" 
d="M142 658h286v-143h143v-429h-143v-143h-286v143h286v143h-286v143h286v143h-286v143z" />
    <glyph glyph-name="uni220E" unicode="&#x220e;" 
d="M0 658h571v-715h-571v715z" />
    <glyph glyph-name="product" unicode="&#x220f;" 
d="M0 800h714v-142h-143v-572h143v-143h-286v715h-143v-715h-285v143h142v572h-142v142z" />
    <glyph glyph-name="uni2210" unicode="&#x2210;" 
d="M0 800h285v-714h143v714h286v-142h-143v-572h143v-143h-714v143h142v572h-142v142z" />
    <glyph glyph-name="summation" unicode="&#x2211;" 
d="M0 800h571v-142h-286v-143h143v-143h-143v-143h-143v-143h429v-143h-571v286h142v143h143v143h-143v143h-142v142z" />
    <glyph glyph-name="minus" unicode="&#x2212;" 
d="M0 372h714v-143h-714v143z" />
    <glyph glyph-name="uni2213" unicode="&#x2213;" 
d="M0 800h714v-142h-286v-286h286v-143h-286v-286h-143v286h-285v143h285v286h-285v142z" />
    <glyph glyph-name="uni2214" unicode="&#x2214;" 
d="M285 800h143v-142h-143v142zM285 515h143v-286h286v-143h-286v-286h-143v286h-285v143h285v286z" />
    <glyph glyph-name="uni2215" unicode="&#x2215;" 
d="M428 800h143v-285h-143v-143h-143v-143h-143v-286h-142v286h142v143h143v143h143v285z" />
    <glyph glyph-name="uni2216" unicode="&#x2216;" 
d="M0 515h142v-143h143v-143h143v-143h143v-143h-143v143h-143v143h-143v143h-142v143z" />
    <glyph glyph-name="asteriskmath" unicode="&#x2217;" 
d="M285 658h143v-286h143v143h143v-143h-143v-143h143v-143h-143v143h-143v-286h-143v286h-143v-143h-142v143h142v143h-142v143h142v-143h143v286z" />
    <glyph glyph-name="uni2218" unicode="&#x2218;" 
d="M285 515h143v-143h143v-143h-143v-143h-143v143h-143v143h143v143zM285 372v-143h143v143h-143z" />
    <glyph glyph-name="uni2219" unicode="&#x2219;" 
d="M285 515h143v-143h143v-143h-143v-143h-143v143h-143v143h143v143z" />
    <glyph glyph-name="radical" unicode="&#x221a;" 
d="M571 800h143v-142h-143v-286h-143v-286h-143v-143h-143v143h-142v143h142v-143h143v286h143v286h143v142z" />
    <glyph glyph-name="uni221B" unicode="&#x221b;" 
d="M0 800h142v-142h143v-143h-143v-143h-142v428zM571 800h143v-142h-143v-286h-143v-286h-143v-143h-143v143h-142v143h142v-143h143v286h143v286h143v142z" />
    <glyph glyph-name="uni221C" unicode="&#x221c;" 
d="M0 800h142v-142h143v-286h143v286h143v142h143v-142h-143v-286h-143v-286h-143v-143h-143v143h-142v143h142v-143h143v286h-143v143h-142v285z" />
    <glyph glyph-name="proportional" unicode="&#x221d;" 
d="M142 515h143v-143h143v143h143v-143h-143v-286h143v-143h-143v143h-143v-143h-143v143h-142v286h142v143zM142 372v-286h143v286h-143z" />
    <glyph glyph-name="infinity" unicode="&#x221e;" 
d="M142 515h143v-143h143v143h143v-143h143v-286h-143v-143h-143v143h-143v-143h-143v143h-142v286h142v143zM142 372v-286h143v286h-143zM428 372v-286h143v286h-143z" />
    <glyph glyph-name="orthogonal" unicode="&#x221f;" 
d="M0 515h142v-429h429v-143h-571v572z" />
    <glyph glyph-name="angle" unicode="&#x2220;" 
d="M428 515h143v-143h-143v-143h-143v-143h286v-143h-571v143h142v143h143v143h143v143z" />
    <glyph glyph-name="uni2221" unicode="&#x2221;" 
d="M428 515h143v-143h-143v-143h-143v-143h286v-143h-143v-143h-143v143h-285v143h142v143h-142v143h142v-143h143v143h143v143z" />
    <glyph glyph-name="uni2222" unicode="&#x2222;" 
d="M142 658h143v-143h143v143h143v-143h-143v-429h143v-143h-143v143h-143v-143h-143v286h-142v143h142v286zM142 372v-143h143v143h-143z" />
    <glyph glyph-name="uni2223" unicode="&#x2223;" 
d="M285 800h143v-857h-143v857z" />
    <glyph glyph-name="uni2224" unicode="&#x2224;" 
d="M285 800h143v-285h143v-143h-143v-429h-143v286h-143v143h143v428z" />
    <glyph glyph-name="uni2225" unicode="&#x2225;" 
d="M142 800h143v-857h-143v857zM428 800h143v-857h-143v857z" />
    <glyph glyph-name="uni2226" unicode="&#x2226;" 
d="M142 800h143v-285h143v285h143v-142h143v-143h-143v-572h-143v286h-143v-286h-143v143h-142v143h142v571z" />
    <glyph glyph-name="logicaland" unicode="&#x2227;" 
d="M285 515h143v-286h143v-286h-143v286h-143v-286h-143v286h143v286z" />
    <glyph glyph-name="logicalor" unicode="&#x2228;" 
d="M142 515h143v-286h143v286h143v-286h-143v-286h-143v286h-143v286z" />
    <glyph glyph-name="intersection" unicode="&#x2229;" 
d="M142 515h286v-143h143v-429h-143v429h-286v-429h-142v429h142v143z" />
    <glyph glyph-name="union" unicode="&#x222a;" 
d="M0 515h142v-429h286v429h143v-429h-143v-143h-286v143h-142v429z" />
    <glyph glyph-name="integral" unicode="&#x222b;" 
d="M428 800h143v-142h143v-143h-143v143h-143v-715h-143v-143h-143v143h-142v143h142v-143h143v715h143v142z" />
    <glyph glyph-name="uni222C" unicode="&#x222c;" 
d="M285 800h143v-142h143v142h143v-142h-143v-715h-143v-143h-143v143h-143v-143h-142v143h142v715h143v142zM285 658v-715h143v715h-143z" />
    <glyph glyph-name="uni222D" unicode="&#x222d;" 
d="M285 800h429v-142h-143v-715h-143v-143h-428v143h142v715h143v142z" />
    <glyph glyph-name="uni222E" unicode="&#x222e;" 
d="M428 800h143v-142h143v-143h-143v-143h143v-143h-143v-143h-143v-143h-143v-143h-143v143h-142v143h142v143h-142v143h142v143h143v143h143v142zM428 658v-143h143v143h-143zM142 372v-143h143v143h-143zM428 372v-143h143v143h-143zM142 86v-143h143v143h-143z" />
    <glyph glyph-name="uni222F" unicode="&#x222f;" 
d="M285 800h143v-142h143v142h143v-142h-143v-286h143v-143h-143v-286h-143v-143h-143v143h-143v-143h-142v143h142v286h-142v143h142v286h143v142zM285 658v-143h143v143h-143zM285 372v-143h143v143h-143zM285 86v-143h143v143h-143z" />
    <glyph glyph-name="uni2230" unicode="&#x2230;" 
d="M285 800h429v-142h-143v-286h143v-143h-143v-286h-143v-143h-428v143h142v286h-142v143h142v286h143v142z" />
    <glyph glyph-name="therefore" unicode="&#x2234;" 
d="M285 515h143v-143h-143v143zM142 229h143v-143h-143v143zM428 229h143v-143h-143v143z" />
    <glyph glyph-name="uni2235" unicode="&#x2235;" 
d="M142 515h143v-143h-143v143zM428 515h143v-143h-143v143zM285 229h143v-143h-143v143z" />
    <glyph glyph-name="uni2236" unicode="&#x2236;" 
d="M285 515h143v-143h-143v143zM285 86h143v-143h-143v143z" />
    <glyph glyph-name="uni2237" unicode="&#x2237;" 
d="M0 515h142v-143h-142v143zM428 515h143v-143h-143v143zM0 86h142v-143h-142v143zM428 86h143v-143h-143v143z" />
    <glyph glyph-name="uni2238" unicode="&#x2238;" 
d="M285 515h143v-143h-143v143zM0 229h714v-143h-714v143z" />
    <glyph glyph-name="uni2239" unicode="&#x2239;" 
d="M428 515h143v-143h-143v143zM0 372h285v-143h-285v143zM428 229h143v-143h-143v143z" />
    <glyph glyph-name="uni223A" unicode="&#x223a;" 
d="M0 658h142v-143h-142v143zM428 658h143v-143h-143v143zM0 372h571v-143h-571v143zM0 86h142v-143h-142v143zM428 86h143v-143h-143v143z" />
    <glyph glyph-name="similar" unicode="&#x223c;" 
d="M142 372h143v-143h143v143h143v-143h-143v-143h-143v143h-143v-143h-142v143h142v143z" />
    <glyph glyph-name="uni2243" unicode="&#x2243;" 
d="M142 658h143v-143h143v143h143v-143h-143v-143h-143v143h-143v-143h-142v143h142v143zM0 229h571v-143h-571v143z" />
    <glyph glyph-name="congruent" unicode="&#x2245;" 
d="M142 800h143v-142h143v142h143v-142h-143v-143h-143v143h-143v-143h-142v143h142v142zM0 372h571v-143h-571v143zM0 86h571v-143h-571v143z" />
    <glyph glyph-name="approxequal" unicode="&#x2248;" 
d="M142 658h143v-143h143v143h143v-143h-143v-143h-143v143h-143v-143h-142v143h142v143zM142 229h143v-143h143v143h143v-143h-143v-143h-143v143h-143v-143h-142v143h142v143z" />
    <glyph glyph-name="uni2249" unicode="&#x2249;" 
d="M428 800h143v-285h-143v-286h143v-143h-143v-143h-143v143h-143v-286h-142v286h142v143h143v286h-143v-143h-142v143h142v143h143v-143h143v285zM285 229v-143h143v143h-143z" />
    <glyph glyph-name="uni2259" unicode="&#x2259;" 
d="M285 800h143v-142h143v-143h-143v143h-143v-143h-143v143h143v142zM0 372h571v-143h-571v143zM0 86h571v-143h-571v143z" />
    <glyph glyph-name="uni225A" unicode="&#x225a;" 
d="M142 800h143v-142h143v142h143v-142h-143v-143h-143v143h-143v142zM0 372h571v-143h-571v143zM0 86h571v-143h-571v143z" />
    <glyph glyph-name="uni225F" unicode="&#x225f;" 
d="M142 800h286v-285h-143v143h-143v142zM285 372h143v-143h143v-143h-571v143h285v143zM0 -57h571v-143h-571v143z" />
    <glyph glyph-name="notequal" unicode="&#x2260;" 
d="M428 658h143v-286h-143v-143h143v-143h-286v-143h-143v143h-142v143h285v143h-285v143h428v143z" />
    <glyph glyph-name="equivalence" unicode="&#x2261;" 
d="M0 658h571v-143h-571v143zM0 372h571v-143h-571v143zM0 86h571v-143h-571v143z" />
    <glyph glyph-name="uni2262" unicode="&#x2262;" 
d="M428 800h143v-285h-143v-143h143v-143h-143v-143h143v-143h-286v-143h-143v143h-142v143h285v143h-285v143h285v143h-285v143h428v142z" />
    <glyph glyph-name="uni2263" unicode="&#x2263;" 
d="M0 800h571v-142h-571v142zM0 515h571v-143h-571v143zM0 229h571v-143h-571v143zM0 -57h571v-143h-571v143z" />
    <glyph glyph-name="lessequal" unicode="&#x2264;" 
d="M428 800h143v-142h-143v-143h-143v-143h143v-143h143v-286h-429v143h286v143h-143v143h-143v143h143v143h143v142z" />
    <glyph glyph-name="greaterequal" unicode="&#x2265;" 
d="M142 800h143v-142h143v-143h143v-143h-143v-143h-143v-143h286v-143h-429v286h143v143h143v143h-143v143h-143v142z" />
    </font>
</defs>
</svg>
