<?xml version="1.0" standalone="no"?>
<!DOCTYPE svg PUBLIC "-//W3C//DTD SVG 1.1//EN" "http://www.w3.org/Graphics/SVG/1.1/DTD/svg11.dtd" >
<svg xmlns="http://www.w3.org/2000/svg" xmlns:xlink="http://www.w3.org/1999/xlink" version="1.1">
<metadata>
Created by FontForge 20170731 at Wed Mar 21 03:15:07 2018
 By Aleksey,,,
Copyright (c) 2018, Sam,,,
</metadata>
<defs>
<font id="6x10" horiz-adv-x="600" >
  <font-face 
    font-family="6x10"
    font-weight="400"
    font-stretch="normal"
    units-per-em="1000"
    panose-1="2 0 5 9 0 0 0 0 0 0"
    ascent="800"
    descent="-200"
    x-height="500"
    cap-height="700"
    bbox="0 -200 600 800"
    underline-thickness="50"
    underline-position="-200"
    unicode-range="U+0020-FFFD"
  />
<missing-glyph 
d="M33 0v666h265v-666h-265zM66 33h199v600h-199v-600z" />
    <glyph glyph-name=".notdef" 
d="M33 0v666h265v-666h-265zM66 33h199v600h-199v-600z" />
    <glyph glyph-name="uni0000" 
d="M0 700h100v-100h-100v100zM200 700h100v-100h-100v100zM400 700h100v-100h-100v100zM0 500h100v-100h-100v100zM400 500h100v-100h-100v100zM0 300h100v-100h-100v100zM400 300h100v-100h-100v100zM0 100h100v-100h-100v100zM200 100h100v-100h-100v100zM400 100h100
v-100h-100v100z" />
    <glyph glyph-name="uni0000" 
d="M0 700h100v-100h-100v100zM200 700h100v-100h-100v100zM400 700h100v-100h-100v100zM0 500h100v-100h-100v100zM400 500h100v-100h-100v100zM0 300h100v-100h-100v100zM400 300h100v-100h-100v100zM0 100h100v-100h-100v100zM200 100h100v-100h-100v100zM400 100h100
v-100h-100v100z" />
    <glyph glyph-name="nonmarkingreturn" 
 />
    <glyph glyph-name="space" unicode=" " 
 />
    <glyph glyph-name="exclam" unicode="!" 
d="M200 700h100v-500h-100v500zM200 100h100v-100h-100v100z" />
    <glyph glyph-name="quotedbl" unicode="&#x22;" 
d="M100 700h100v-300h-100v300zM300 700h100v-300h-100v300z" />
    <glyph glyph-name="numbersign" unicode="#" 
d="M100 700h100v-200h100v200h100v-200h100v-100h-100v-100h100v-100h-100v-200h-100v200h-100v-200h-100v200h-100v100h100v100h-100v100h100v200zM200 400v-100h100v100h-100z" />
    <glyph glyph-name="dollar" unicode="$" 
d="M200 700h100v-100h100v-100h-100v-100h100v-100h100v-100h-100v-100h-100v-100h-100v100h-100v100h100v100h-100v100h-100v100h100v100h100v100zM100 500v-100h100v100h-100zM300 300v-100h100v100h-100z" />
    <glyph glyph-name="percent" unicode="%" 
d="M100 700h100v-100h100v-100h100v200h100v-200h-100v-100h-100v-100h100v-100h100v-100h-100v-100h-100v100h-100v100h-100v-200h-100v200h100v100h100v100h-100v100h-100v100h100v100zM100 600v-100h100v-100h100v100h-100v100h-100zM200 300v-100h100v-100h100v100h-100
v100h-100z" />
    <glyph glyph-name="ampersand" unicode="&#x26;" 
d="M100 700h100v-100h100v-200h-100v-100h100v-100h100v100h100v-100h-100v-100h100v-100h-100v100h-100v-100h-200v100h-100v200h100v100h-100v200h100v100zM100 600v-200h100v200h-100zM100 300v-200h200v100h-100v100h-100z" />
    <glyph glyph-name="quotesingle" unicode="'" 
d="M200 700h100v-300h-100v300z" />
    <glyph glyph-name="parenleft" unicode="(" 
d="M300 700h100v-100h-100v-100h-100v-300h100v-100h100v-100h-100v100h-100v100h-100v300h100v100h100v100z" />
    <glyph glyph-name="parenright" unicode=")" 
d="M100 700h100v-100h100v-100h100v-300h-100v-100h-100v-100h-100v100h100v100h100v300h-100v100h-100v100z" />
    <glyph glyph-name="asterisk" unicode="*" 
d="M0 600h100v-100h100v-100h100v100h100v100h100v-100h-100v-100h100v-100h-100v-100h100v-100h-100v100h-100v100h-100v-100h-100v-100h-100v100h100v100h-100v100h100v100h-100v100z" />
    <glyph glyph-name="plus" unicode="+" 
d="M200 600h100v-200h200v-100h-200v-200h-100v200h-200v100h200v200z" />
    <glyph glyph-name="comma" unicode="," 
d="M200 200h200v-100h-100v-100h-100v-100h-100v100h100v200z" />
    <glyph glyph-name="hyphen" unicode="-" 
d="M0 400h500v-100h-500v100z" />
    <glyph glyph-name="period" unicode="." 
d="M200 200h100v-100h100v-100h-100v-100h-100v100h-100v100h100v100z" />
    <glyph glyph-name="slash" unicode="/" 
d="M400 700h100v-200h-100v-100h-100v-100h-100v-100h-100v-200h-100v200h100v100h100v100h100v100h100v200z" />
    <glyph glyph-name="zero" unicode="0" 
d="M200 700h100v-100h100v-100h100v-300h-100v-100h-100v-100h-100v100h-100v100h-100v300h100v100h100v100zM200 600v-100h-100v-300h100v-100h100v100h100v300h-100v100h-100z" />
    <glyph glyph-name="one" unicode="1" 
d="M200 700h100v-600h200v-100h-500v100h200v400h-100v-100h-100v100h100v100h100v100z" />
    <glyph glyph-name="two" unicode="2" 
d="M100 700h300v-100h100v-200h-100v-100h-200v-100h-100v-100h400v-100h-500v200h100v100h100v100h200v200h-300v-100h-100v100h100v100z" />
    <glyph glyph-name="three" unicode="3" 
d="M0 700h500v-200h-100v-200h100v-200h-100v-100h-300v100h-100v100h100v-100h300v200h-200v100h100v100h100v100h-400v100z" />
    <glyph glyph-name="four" unicode="4" 
d="M300 700h100v-400h100v-100h-100v-200h-100v200h-300v200h100v100h100v100h100v100zM200 500v-100h-100v-100h200v200h-100z" />
    <glyph glyph-name="five" unicode="5" 
d="M0 700h500v-100h-400v-200h100v100h200v-100h100v-300h-100v-100h-300v100h-100v100h100v-100h300v300h-200v-100h-200v400z" />
    <glyph glyph-name="six" unicode="6" 
d="M200 700h200v-100h-200v-100h-100v-200h100v100h200v-100h100v-200h-100v-100h-300v100h-100v400h100v100h100v100zM200 300v-100h-100v-100h300v200h-200z" />
    <glyph glyph-name="seven" unicode="7" 
d="M0 700h500v-200h-100v-200h-100v-100h-100v-200h-100v200h100v100h100v200h100v100h-400v100z" />
    <glyph glyph-name="eight" unicode="8" 
d="M100 700h300v-100h100v-200h-100v-100h100v-200h-100v-100h-300v100h-100v200h100v100h-100v200h100v100zM100 600v-200h300v200h-300zM100 300v-200h300v200h-300z" />
    <glyph glyph-name="nine" unicode="9" 
d="M100 700h300v-100h100v-400h-100v-100h-100v-100h-200v100h200v100h100v200h-100v-100h-200v100h-100v200h100v100zM100 600v-200h200v100h100v100h-300z" />
    <glyph glyph-name="colon" unicode=":" 
d="M200 600h100v-100h100v-100h-100v-100h-100v100h-100v100h100v100zM200 200h100v-100h100v-100h-100v-100h-100v100h-100v100h100v100z" />
    <glyph glyph-name="semicolon" unicode=";" 
d="M200 600h100v-100h100v-100h-100v-100h-100v100h-100v100h100v100zM200 200h200v-100h-100v-100h-100v-100h-100v100h100v200z" />
    <glyph glyph-name="less" unicode="&#x3c;" 
d="M400 700h100v-100h-100v-100h-100v-100h-100v-100h100v-100h100v-100h100v-100h-100v100h-100v100h-100v100h-100v100h100v100h100v100h100v100z" />
    <glyph glyph-name="equal" unicode="=" 
d="M0 500h500v-100h-500v100zM0 300h500v-100h-500v100z" />
    <glyph glyph-name="greater" unicode="&#x3e;" 
d="M100 700h100v-100h100v-100h100v-100h100v-100h-100v-100h-100v-100h-100v-100h-100v100h100v100h100v100h100v100h-100v100h-100v100h-100v100z" />
    <glyph glyph-name="question" unicode="?" 
d="M100 700h300v-100h100v-100h-100v-100h-100v-200h-100v200h100v100h100v100h-300v-100h-100v100h100v100zM200 100h100v-100h-100v100z" />
    <glyph glyph-name="at" unicode="@" 
d="M100 700h300v-100h100v-300h-100v-100h-200v200h100v100h100v100h-300v-500h300v-100h-300v100h-100v500h100v100zM300 400v-100h100v100h-100z" />
    <glyph glyph-name="A" unicode="A" 
d="M200 700h100v-100h100v-100h100v-500h-100v200h-300v-200h-100v500h100v100h100v100zM200 600v-100h-100v-200h300v200h-100v100h-100z" />
    <glyph glyph-name="B" unicode="B" 
d="M0 700h400v-100h100v-200h-100v-100h100v-200h-100v-100h-400v100h100v500h-100v100zM200 600v-200h200v200h-200zM200 300v-200h200v200h-200z" />
    <glyph glyph-name="C" unicode="C" 
d="M100 700h300v-100h100v-100h-100v100h-300v-500h300v100h100v-100h-100v-100h-300v100h-100v500h100v100z" />
    <glyph glyph-name="D" unicode="D" 
d="M0 700h400v-100h100v-500h-100v-100h-400v100h100v500h-100v100zM200 600v-500h200v500h-200z" />
    <glyph glyph-name="E" unicode="E" 
d="M0 700h500v-100h-400v-200h300v-100h-300v-200h400v-100h-500v700z" />
    <glyph glyph-name="F" unicode="F" 
d="M0 700h500v-100h-400v-200h300v-100h-300v-300h-100v700z" />
    <glyph glyph-name="G" unicode="G" 
d="M100 700h300v-100h100v-100h-100v100h-300v-500h300v100h-100v100h200v-200h-100v-100h-300v100h-100v500h100v100z" />
    <glyph glyph-name="H" unicode="H" 
d="M0 700h100v-300h300v300h100v-700h-100v300h-300v-300h-100v700z" />
    <glyph glyph-name="I" unicode="I" 
d="M100 700h300v-100h-100v-500h100v-100h-300v100h100v500h-100v100z" />
    <glyph glyph-name="J" unicode="J" 
d="M200 700h300v-100h-100v-500h-100v-100h-200v100h-100v100h100v-100h200v500h-100v100z" />
    <glyph glyph-name="K" unicode="K" 
d="M0 700h100v-300h100v100h100v100h100v100h100v-100h-100v-100h-100v-100h-100v-100h100v-100h100v-100h100v-100h-100v100h-100v100h-100v100h-100v-300h-100v700z" />
    <glyph glyph-name="L" unicode="L" 
d="M0 700h100v-600h400v-100h-500v700z" />
    <glyph glyph-name="M" unicode="M" 
d="M0 700h100v-200h100v-100h100v100h100v200h100v-700h-100v400h-100v-100h-100v100h-100v-400h-100v700z" />
    <glyph glyph-name="N" unicode="N" 
d="M0 700h100v-200h100v-100h100v-100h100v400h100v-700h-100v200h-100v100h-100v100h-100v-400h-100v700z" />
    <glyph glyph-name="O" unicode="O" 
d="M100 700h300v-100h100v-500h-100v-100h-300v100h-100v500h100v100zM100 600v-500h300v500h-300z" />
    <glyph glyph-name="P" unicode="P" 
d="M0 700h400v-100h100v-200h-100v-100h-300v-300h-100v700zM100 600v-200h300v200h-300z" />
    <glyph glyph-name="Q" unicode="Q" 
d="M100 700h300v-100h100v-500h-100v-100h100v-100h-100v100h-300v100h-100v500h100v100zM100 600v-500h100v100h100v-100h100v500h-300z" />
    <glyph glyph-name="R" unicode="R" 
d="M0 700h400v-100h100v-200h-100v-100h-100v-100h100v-100h100v-100h-100v100h-100v100h-100v100h-100v-300h-100v700zM100 600v-200h300v200h-300z" />
    <glyph glyph-name="S" unicode="S" 
d="M100 700h300v-100h100v-100h-100v100h-300v-200h300v-100h100v-200h-100v-100h-300v100h-100v100h100v-100h300v200h-300v100h-100v200h100v100z" />
    <glyph glyph-name="T" unicode="T" 
d="M0 700h500v-100h-200v-600h-100v600h-200v100z" />
    <glyph glyph-name="U" unicode="U" 
d="M0 700h100v-600h300v600h100v-600h-100v-100h-300v100h-100v600z" />
    <glyph glyph-name="V" unicode="V" 
d="M0 700h100v-300h100v-300h100v300h100v300h100v-300h-100v-300h-100v-100h-100v100h-100v300h-100v300z" />
    <glyph glyph-name="W" unicode="W" 
d="M0 700h100v-500h100v200h100v-200h100v500h100v-700h-100v100h-100v100h-100v-100h-100v-100h-100v700z" />
    <glyph glyph-name="X" unicode="X" 
d="M0 700h100v-200h100v-100h100v100h100v200h100v-200h-100v-100h-100v-100h100v-100h100v-200h-100v200h-100v100h-100v-100h-100v-200h-100v200h100v100h100v100h-100v100h-100v200z" />
    <glyph glyph-name="Y" unicode="Y" 
d="M0 700h100v-200h100v-100h100v100h100v200h100v-200h-100v-100h-100v-400h-100v400h-100v100h-100v200z" />
    <glyph glyph-name="Z" unicode="Z" 
d="M0 700h500v-200h-100v-100h-100v-100h-100v-100h-100v-100h400v-100h-500v200h100v100h100v100h100v100h100v100h-400v100z" />
    <glyph glyph-name="bracketleft" unicode="[" 
d="M100 700h300v-100h-200v-500h200v-100h-300v700z" />
    <glyph glyph-name="backslash" unicode="\" 
d="M0 700h100v-200h100v-100h100v-100h100v-100h100v-200h-100v200h-100v100h-100v100h-100v100h-100v200z" />
    <glyph glyph-name="bracketright" unicode="]" 
d="M100 700h300v-700h-300v100h200v500h-200v100z" />
    <glyph glyph-name="asciicircum" unicode="^" 
d="M200 700h100v-100h100v-100h100v-100h-100v100h-100v100h-100v-100h-100v-100h-100v100h100v100h100v100z" />
    <glyph glyph-name="underscore" unicode="_" 
d="M0 0h500v-100h-500v100z" />
    <glyph glyph-name="grave" unicode="`" 
d="M200 800h100v-100h100v-100h-100v100h-100v100z" />
    <glyph glyph-name="a" unicode="a" 
d="M100 500h300v-100h100v-400h-400v100h-100v100h100v100h300v100h-300v100zM100 200v-100h300v100h-300z" />
    <glyph glyph-name="b" unicode="b" 
d="M0 700h100v-300h100v100h200v-100h100v-300h-100v-100h-200v100h-100v-100h-100v700zM200 400v-100h-100v-100h100v-100h200v300h-200z" />
    <glyph glyph-name="c" unicode="c" 
d="M100 500h300v-100h100v-100h-100v100h-300v-300h300v100h100v-100h-100v-100h-300v100h-100v300h100v100z" />
    <glyph glyph-name="d" unicode="d" 
d="M400 700h100v-700h-100v100h-100v-100h-200v100h-100v300h100v100h200v-100h100v300zM100 400v-300h200v100h100v100h-100v100h-200z" />
    <glyph glyph-name="e" unicode="e" 
d="M100 500h300v-100h100v-200h-400v-100h300v-100h-300v100h-100v300h100v100zM100 400v-100h300v100h-300z" />
    <glyph glyph-name="f" unicode="f" 
d="M200 700h200v-100h100v-100h-100v100h-200v-200h200v-100h-200v-300h-100v300h-100v100h100v200h100v100z" />
    <glyph glyph-name="g" unicode="g" 
d="M100 500h400v-600h-100v-100h-300v100h-100v100h100v-100h300v200h-300v100h-100v200h100v100zM100 400v-200h300v200h-300z" />
    <glyph glyph-name="h" unicode="h" 
d="M0 700h100v-300h100v100h200v-100h100v-400h-100v400h-200v-100h-100v-300h-100v700z" />
    <glyph glyph-name="i" unicode="i" 
d="M200 700h100v-100h-100v100zM100 500h200v-400h100v-100h-300v100h100v300h-100v100z" />
    <glyph glyph-name="j" unicode="j" 
d="M400 700h100v-100h-100v100zM300 500h200v-600h-100v-100h-200v100h-100v200h100v-200h200v500h-100v100z" />
    <glyph glyph-name="k" unicode="k" 
d="M0 700h100v-400h200v100h100v100h100v-100h-100v-100h-100v-100h100v-100h100v-100h-100v100h-100v100h-200v-200h-100v700z" />
    <glyph glyph-name="l" unicode="l" 
d="M100 700h200v-600h100v-100h-300v100h100v500h-100v100z" />
    <glyph glyph-name="m" unicode="m" 
d="M0 500h200v-100h100v100h100v-100h100v-400h-100v400h-100v-300h-100v300h-100v-400h-100v500z" />
    <glyph glyph-name="n" unicode="n" 
d="M0 500h100v-100h100v100h200v-100h100v-400h-100v400h-200v-100h-100v-300h-100v500z" />
    <glyph glyph-name="o" unicode="o" 
d="M100 500h300v-100h100v-300h-100v-100h-300v100h-100v300h100v100zM100 400v-300h300v300h-300z" />
    <glyph glyph-name="p" unicode="p" 
d="M0 500h100v-100h100v100h200v-100h100v-300h-100v-100h-200v100h-100v-300h-100v700zM200 400v-100h-100v-100h100v-100h200v300h-200z" />
    <glyph glyph-name="q" unicode="q" 
d="M100 500h200v-100h100v100h100v-700h-100v300h-100v-100h-200v100h-100v300h100v100zM100 400v-300h200v100h100v100h-100v100h-200z" />
    <glyph glyph-name="r" unicode="r" 
d="M0 500h100v-100h100v100h200v-100h100v-100h-100v100h-200v-100h-100v-300h-100v500z" />
    <glyph glyph-name="s" unicode="s" 
d="M100 500h300v-100h-300v-100h300v-100h100v-100h-100v-100h-400v100h400v100h-300v100h-100v100h100v100z" />
    <glyph glyph-name="t" unicode="t" 
d="M100 700h100v-200h200v-100h-200v-300h200v100h100v-100h-100v-100h-200v100h-100v300h-100v100h100v200z" />
    <glyph glyph-name="u" unicode="u" 
d="M0 500h100v-400h200v100h100v300h100v-500h-100v100h-100v-100h-200v100h-100v400z" />
    <glyph glyph-name="v" unicode="v" 
d="M0 500h100v-200h100v-200h100v200h100v200h100v-200h-100v-200h-100v-100h-100v100h-100v200h-100v200z" />
    <glyph glyph-name="w" unicode="w" 
d="M0 500h100v-400h100v200h100v-200h100v400h100v-400h-100v-100h-100v100h-100v-100h-100v100h-100v400z" />
    <glyph glyph-name="x" unicode="x" 
d="M0 500h100v-100h100v-100h100v100h100v100h100v-100h-100v-100h-100v-100h100v-100h100v-100h-100v100h-100v100h-100v-100h-100v-100h-100v100h100v100h100v100h-100v100h-100v100z" />
    <glyph glyph-name="y" unicode="y" 
d="M0 500h100v-300h200v100h100v200h100v-600h-100v-100h-300v100h-100v100h100v-100h300v300h-100v-100h-200v100h-100v300z" />
    <glyph glyph-name="z" unicode="z" 
d="M0 500h500v-100h-100v-100h-100v-100h-100v-100h300v-100h-500v100h100v100h100v100h100v100h-300v100z" />
    <glyph glyph-name="braceleft" unicode="{" 
d="M300 700h200v-100h-200v-100h100v-100h-100v-100h100v-100h-100v-100h200v-100h-200v100h-100v100h100v100h-200v100h200v100h-100v100h100v100z" />
    <glyph glyph-name="bar" unicode="|" 
d="M200 700h100v-700h-100v700z" />
    <glyph glyph-name="braceright" unicode="}" 
d="M100 700h200v-100h100v-100h-100v-100h200v-100h-200v-100h100v-100h-100v-100h-200v100h200v100h-100v100h100v100h-100v100h100v100h-200v100z" />
    <glyph glyph-name="asciitilde" unicode="~" 
d="M100 700h100v-100h100v-100h100v200h100v-200h-100v-100h-100v100h-100v100h-100v-200h-100v200h100v100z" />
    <glyph glyph-name="uni00A0" unicode="&#xa0;" 
 />
    <glyph glyph-name="exclamdown" unicode="&#xa1;" 
d="M200 700h100v-100h-100v100zM200 500h100v-500h-100v500z" />
    <glyph glyph-name="cent" unicode="&#xa2;" 
d="M200 600h100v-100h200v-100h-200v-300h200v-100h-200v-100h-100v100h-100v100h-100v300h100v100h100v100zM100 400v-300h100v300h-100z" />
    <glyph glyph-name="sterling" unicode="&#xa3;" 
d="M200 700h200v-100h100v-100h-100v100h-200v-200h100v-100h-100v-200h200v100h100v-100h-100v-100h-200v100h-100v-100h-100v100h100v200h-100v100h100v200h100v100z" />
    <glyph glyph-name="currency" unicode="&#xa4;" 
d="M0 500h100v-100h300v100h100v-100h-100v-300h100v-100h-100v100h-300v-100h-100v100h100v300h-100v100zM200 300v-100h100v100h-100z" />
    <glyph glyph-name="yen" unicode="&#xa5;" 
d="M0 700h100v-200h100v-100h100v100h100v200h100v-200h-100v-100h-100v-100h200v-100h-200v-300h-100v300h-200v100h200v100h-100v100h-100v200z" />
    <glyph glyph-name="brokenbar" unicode="&#xa6;" 
d="M200 700h100v-300h-100v300zM200 300h100v-300h-100v300z" />
    <glyph glyph-name="section" unicode="&#xa7;" 
d="M100 700h300v-100h-300v-100h200v-100h100v-100h100v-300h-100v-100h-300v100h300v100h-200v100h-100v100h-100v300h100v100zM100 400v-100h100v-100h200v100h-100v100h-200z" />
    <glyph glyph-name="dieresis" unicode="&#xa8;" 
d="M100 800h100v-100h-100v100zM300 800h100v-100h-100v100z" />
    <glyph glyph-name="copyright" unicode="&#xa9;" 
d="M100 700h300v-100h100v-500h-100v-100h-300v100h-100v500h100v100zM100 600v-200h100v-100h-100v-200h300v500h-300zM200 500h100v-100h-100v100zM200 300h100v-100h-100v100z" />
    <glyph glyph-name="ordfeminine" unicode="&#xaa;" 
d="M200 700h300v-400h-100v100h-100v-100h-100v100h-100v200h100v100zM200 600v-200h100v100h100v100h-200zM100 200h400v-100h-400v100z" />
    <glyph glyph-name="guillemotleft" unicode="&#xab;" 
d="M200 500h100v-100h-100v-100h-100v-100h100v-100h100v-100h-100v100h-100v100h-100v100h100v100h100v100zM500 500h100v-100h-100v-100h-100v-100h100v-100h100v-100h-100v100h-100v100h-100v100h100v100h100v100z" />
    <glyph glyph-name="logicalnot" unicode="&#xac;" 
d="M100 400h400v-200h-100v100h-300v100z" />
    <glyph glyph-name="uni00AD" unicode="&#xad;" 
d="M100 400h400v-100h-400v100z" />
    <glyph glyph-name="registered" unicode="&#xae;" 
d="M100 700h300v-100h100v-500h-100v-100h-300v100h-100v500h100v100zM100 600v-100h200v-100h-100v-200h-100v-100h300v500h-300z" />
    <glyph glyph-name="macron" unicode="&#xaf;" 
d="M0 800h500v-100h-500v100z" />
    <glyph glyph-name="degree" unicode="&#xb0;" 
d="M200 700h100v-100h100v-100h-100v-100h-100v100h-100v100h100v100zM200 600v-100h100v100h-100z" />
    <glyph glyph-name="plusminus" unicode="&#xb1;" 
d="M200 600h100v-200h200v-100h-200v-200h200v-100h-500v100h200v200h-200v100h200v200z" />
    <glyph glyph-name="uni00B2" unicode="&#xb2;" 
d="M200 800h200v-100h100v-100h-100v-100h-100v-100h200v-100h-400v100h100v100h100v100h100v100h-200v-100h-100v100h100v100z" />
    <glyph glyph-name="uni00B3" unicode="&#xb3;" 
d="M100 800h300v-100h100v-100h-100v-100h100v-100h-100v-100h-300v100h300v100h-200v100h200v100h-300v100z" />
    <glyph glyph-name="acute" unicode="&#xb4;" 
d="M300 800h100v-100h-100v-100h-100v100h100v100z" />
    <glyph glyph-name="mu" unicode="&#xb5;" 
d="M0 500h100v-300h100v-100h200v400h100v-400h-100v-100h-200v100h-100v-200h-100v600z" />
    <glyph glyph-name="paragraph" unicode="&#xb6;" 
d="M100 700h400v-700h-100v600h-100v-600h-100v300h-100v100h-100v200h100v100z" />
    <glyph glyph-name="periodcentered" unicode="&#xb7;" 
d="M200 400h100v-100h-100v100z" />
    <glyph glyph-name="cedilla" unicode="&#xb8;" 
d="M300 0h100v-100h-100v-100h-100v100h100v100z" />
    <glyph glyph-name="uni00B9" unicode="&#xb9;" 
d="M200 800h100v-400h100v-100h-300v100h100v200h-100v100h100v100z" />
    <glyph glyph-name="ordmasculine" unicode="&#xba;" 
d="M200 700h200v-100h100v-200h-100v-100h-200v100h-100v200h100v100zM200 600v-200h200v200h-200zM100 200h400v-100h-400v100z" />
    <glyph glyph-name="guillemotright" unicode="&#xbb;" 
d="M0 500h100v-100h100v-100h100v-100h-100v-100h-100v-100h-100v100h100v100h100v100h-100v100h-100v100zM300 500h100v-100h100v-100h100v-100h-100v-100h-100v-100h-100v100h100v100h100v100h-100v100h-100v100z" />
    <glyph glyph-name="onequarter" unicode="&#xbc;" 
d="M100 800h100v-400h100v-100h-300v100h100v200h-100v100h100v100zM500 400h100v-500h-100v100h-300v100h100v100h100v100h100v100zM400 200v-100h100v100h-100z" />
    <glyph glyph-name="onehalf" unicode="&#xbd;" 
d="M100 800h100v-400h100v-100h100v100h100v-100h100v-200h-100v-100h100v-100h-300v100h100v100h100v200h-100v-100h-100v100h-300v100h100v200h-100v100h100v100z" />
    <glyph glyph-name="threequarters" unicode="&#xbe;" 
d="M0 800h200v-100h100v-100h-100v-100h100v-100h-100v-100h-200v100h200v100h-100v100h100v100h-200v100zM400 400h100v-500h-100v100h-300v100h100v100h100v100h100v100zM300 200v-100h100v100h-100z" />
    <glyph glyph-name="questiondown" unicode="&#xbf;" 
d="M200 700h100v-100h-100v100zM200 500h100v-200h-100v-100h-100v-100h300v100h100v-100h-100v-100h-300v100h-100v100h100v100h100v200z" />
    <glyph glyph-name="Agrave" unicode="&#xc0;" 
d="M100 800h100v-100h100v-100h100v-100h100v-500h-100v200h-300v-200h-100v500h100v100h100v100h-100v100zM100 500v-200h300v200h-300z" />
    <glyph glyph-name="Aacute" unicode="&#xc1;" 
d="M300 800h100v-100h-100v-100h100v-100h100v-500h-100v200h-300v-200h-100v500h100v100h100v100h100v100zM100 500v-200h300v200h-300z" />
    <glyph glyph-name="Acircumflex" unicode="&#xc2;" 
d="M200 800h100v-100h100v-200h100v-500h-100v200h-300v-200h-100v500h100v200h100v100zM200 700v-100h100v100h-100zM100 500v-200h300v200h-300z" />
    <glyph glyph-name="Atilde" unicode="&#xc3;" 
d="M100 800h100v-100h200v100h100v-100h-100v-200h100v-500h-100v200h-300v-200h-100v500h100v100h-100v100h100v100zM100 700v-100h100v100h-100zM100 500v-200h300v200h-300z" />
    <glyph glyph-name="Adieresis" unicode="&#xc4;" 
d="M100 800h100v-100h-100v100zM300 800h100v-100h-100v100zM100 600h300v-100h100v-500h-100v200h-300v-200h-100v500h100v100zM100 500v-200h300v200h-300z" />
    <glyph glyph-name="Aring" unicode="&#xc5;" 
d="M200 800h100v-100h100v-200h100v-500h-100v200h-300v-200h-100v500h100v200h100v100zM200 700v-100h100v100h-100zM100 500v-200h300v200h-300z" />
    <glyph glyph-name="AE" unicode="&#xc6;" 
d="M200 700h400v-100h-200v-200h200v-100h-200v-200h200v-100h-300v200h-200v-200h-100v500h100v100h100v100zM200 600v-100h-100v-200h200v300h-100z" />
    <glyph glyph-name="Ccedilla" unicode="&#xc7;" 
d="M100 700h300v-100h100v-100h-100v100h-300v-500h300v100h100v-100h-100v-100h-100v-100h-100v-100h-100v100h100v100h-100v100h-100v500h100v100z" />
    <glyph glyph-name="Egrave" unicode="&#xc8;" 
d="M100 800h100v-100h300v-100h-400v-200h300v-100h-300v-200h400v-100h-500v700h100v100z" />
    <glyph glyph-name="Eacute" unicode="&#xc9;" 
d="M300 800h100v-100h100v-100h-400v-200h300v-100h-300v-200h400v-100h-500v700h300v100z" />
    <glyph glyph-name="Ecircumflex" unicode="&#xca;" 
d="M200 800h100v-100h200v-100h-400v-200h300v-100h-300v-200h400v-100h-500v700h200v100z" />
    <glyph glyph-name="Edieresis" unicode="&#xcb;" 
d="M100 800h100v-100h100v100h100v-100h100v-100h-400v-200h300v-100h-300v-200h400v-100h-500v700h100v100z" />
    <glyph glyph-name="Igrave" unicode="&#xcc;" 
d="M100 800h100v-100h100v-100h100v-100h-100v-400h100v-100h-300v100h100v400h-100v100h100v100h-100v100z" />
    <glyph glyph-name="Iacute" unicode="&#xcd;" 
d="M300 800h100v-100h-100v-100h100v-100h-100v-400h100v-100h-300v100h100v400h-100v100h100v100h100v100z" />
    <glyph glyph-name="Icircumflex" unicode="&#xce;" 
d="M200 800h100v-100h100v-200h-100v-400h100v-100h-300v100h100v400h-100v200h100v100zM200 700v-100h100v100h-100z" />
    <glyph glyph-name="Idieresis" unicode="&#xcf;" 
d="M100 800h100v-100h-100v100zM300 800h100v-100h-100v100zM100 600h300v-100h-100v-400h100v-100h-300v100h100v400h-100v100z" />
    <glyph glyph-name="Eth" unicode="&#xd0;" 
d="M0 700h400v-100h100v-500h-100v-100h-400v100h100v200h-100v100h100v200h-100v100zM200 600v-200h100v-100h-100v-200h200v500h-200z" />
    <glyph glyph-name="Ntilde" unicode="&#xd1;" 
d="M200 800h100v-100h100v100h100v-100h-100v-100h100v-600h-100v200h-100v100h-100v100h-100v-400h-100v600h100v100h100v100zM200 700v-100h-100v-100h100v-100h100v-100h100v300h-100v100h-100z" />
    <glyph glyph-name="Ograve" unicode="&#xd2;" 
d="M100 800h100v-100h100v-100h100v-100h100v-400h-100v-100h-300v100h-100v400h100v100h100v100h-100v100zM100 500v-400h300v400h-300z" />
    <glyph glyph-name="Oacute" unicode="&#xd3;" 
d="M300 800h100v-100h-100v-100h100v-100h100v-400h-100v-100h-300v100h-100v400h100v100h100v100h100v100zM100 500v-400h300v400h-300z" />
    <glyph glyph-name="Ocircumflex" unicode="&#xd4;" 
d="M200 800h100v-100h100v-200h100v-400h-100v-100h-300v100h-100v400h100v200h100v100zM200 700v-100h100v100h-100zM100 500v-400h300v400h-300z" />
    <glyph glyph-name="Otilde" unicode="&#xd5;" 
d="M200 800h100v-100h100v100h100v-100h-100v-200h100v-400h-100v-100h-300v100h-100v400h100v200h100v100zM200 700v-100h100v100h-100zM100 500v-400h300v400h-300z" />
    <glyph glyph-name="Odieresis" unicode="&#xd6;" 
d="M100 800h100v-100h-100v100zM300 800h100v-100h-100v100zM100 600h300v-100h100v-400h-100v-100h-300v100h-100v400h100v100zM100 500v-400h300v400h-300z" />
    <glyph glyph-name="multiply" unicode="&#xd7;" 
d="M0 500h100v-100h100v-100h100v100h100v100h100v-100h-100v-100h-100v-100h100v-100h100v-100h-100v100h-100v100h-100v-100h-100v-100h-100v100h100v100h100v100h-100v100h-100v100z" />
    <glyph glyph-name="Oslash" unicode="&#xd8;" 
d="M100 700h300v-100h100v-500h-100v-100h-300v100h-100v500h100v100zM100 600v-300h100v-200h200v300h-100v200h-200zM200 400h100v-100h-100v100z" />
    <glyph glyph-name="Ugrave" unicode="&#xd9;" 
d="M100 800h100v-100h100v-100h-100v100h-100v100zM0 600h100v-500h300v500h100v-500h-100v-100h-300v100h-100v500z" />
    <glyph glyph-name="Uacute" unicode="&#xda;" 
d="M300 800h100v-100h-100v-100h-100v100h100v100zM0 600h100v-500h300v500h100v-500h-100v-100h-300v100h-100v500z" />
    <glyph glyph-name="Ucircumflex" unicode="&#xdb;" 
d="M200 800h100v-100h100v-100h-100v100h-100v-100h-100v100h100v100zM0 500h100v-400h300v400h100v-400h-100v-100h-300v100h-100v400z" />
    <glyph glyph-name="Udieresis" unicode="&#xdc;" 
d="M100 800h100v-100h-100v100zM300 800h100v-100h-100v100zM0 600h100v-500h300v500h100v-500h-100v-100h-300v100h-100v500z" />
    <glyph glyph-name="Yacute" unicode="&#xdd;" 
d="M300 800h100v-100h-100v-100h-100v100h100v100zM0 600h100v-200h100v-100h100v100h100v200h100v-200h-100v-100h-100v-300h-100v300h-100v100h-100v200z" />
    <glyph glyph-name="Thorn" unicode="&#xde;" 
d="M0 700h100v-100h300v-100h100v-100h-100v-100h-300v-300h-100v700zM100 500v-100h300v100h-300z" />
    <glyph glyph-name="germandbls" unicode="&#xdf;" 
d="M100 700h300v-100h100v-100h-100v-100h-100v-100h100v-100h100v-100h-100v-100h-200v100h200v100h-100v100h-100v100h100v100h100v100h-300v-600h-100v600h100v100z" />
    <glyph glyph-name="agrave" unicode="&#xe0;" 
d="M100 800h100v-100h100v-100h-100v100h-100v100zM100 500h300v-100h100v-400h-400v100h-100v100h100v100h300v100h-300v100zM100 200v-100h300v100h-300z" />
    <glyph glyph-name="aacute" unicode="&#xe1;" 
d="M300 800h100v-100h-100v-100h-100v100h100v100zM100 500h300v-100h100v-400h-400v100h-100v100h100v100h300v100h-300v100zM100 200v-100h300v100h-300z" />
    <glyph glyph-name="acircumflex" unicode="&#xe2;" 
d="M200 800h100v-100h100v-100h-100v100h-100v-100h-100v100h100v100zM100 500h300v-100h100v-400h-400v100h-100v100h100v100h300v100h-300v100zM100 200v-100h300v100h-300z" />
    <glyph glyph-name="atilde" unicode="&#xe3;" 
d="M200 800h100v-100h100v100h100v-100h-100v-100h-100v100h-100v-100h-100v100h100v100zM100 500h300v-100h100v-400h-400v100h-100v100h100v100h300v100h-300v100zM100 200v-100h300v100h-300z" />
    <glyph glyph-name="adieresis" unicode="&#xe4;" 
d="M100 700h100v-100h-100v100zM300 700h100v-100h-100v100zM100 500h300v-100h100v-400h-400v100h-100v100h100v100h300v100h-300v100zM100 200v-100h300v100h-300z" />
    <glyph glyph-name="aring" unicode="&#xe5;" 
d="M200 800h100v-100h100v-100h-100v-100h100v-100h100v-400h-400v100h-100v100h100v100h300v100h-300v100h100v100h-100v100h100v100zM200 700v-100h100v100h-100zM100 200v-100h300v100h-300z" />
    <glyph glyph-name="ae" unicode="&#xe6;" 
d="M100 500h400v-100h100v-200h-200v-100h200v-100h-500v100h-100v100h100v100h200v100h-200v100zM400 400v-100h100v100h-100zM100 200v-100h200v100h-200z" />
    <glyph glyph-name="ccedilla" unicode="&#xe7;" 
d="M100 500h300v-100h100v-100h-100v100h-300v-300h300v100h100v-100h-100v-100h-100v-100h-100v-100h-100v100h100v100h-100v100h-100v300h100v100z" />
    <glyph glyph-name="egrave" unicode="&#xe8;" 
d="M100 800h100v-100h100v-100h-100v100h-100v100zM100 500h300v-100h100v-200h-400v-100h300v-100h-300v100h-100v300h100v100zM100 400v-100h300v100h-300z" />
    <glyph glyph-name="eacute" unicode="&#xe9;" 
d="M300 800h100v-100h-100v-100h-100v100h100v100zM100 500h300v-100h100v-200h-400v-100h300v-100h-300v100h-100v300h100v100zM100 400v-100h300v100h-300z" />
    <glyph glyph-name="ecircumflex" unicode="&#xea;" 
d="M200 800h100v-100h100v-100h-100v100h-100v-100h-100v100h100v100zM100 500h300v-100h100v-200h-400v-100h300v-100h-300v100h-100v300h100v100zM100 400v-100h300v100h-300z" />
    <glyph glyph-name="edieresis" unicode="&#xeb;" 
d="M100 700h100v-100h-100v100zM300 700h100v-100h-100v100zM100 500h300v-100h100v-200h-400v-100h300v-100h-300v100h-100v300h100v100zM100 400v-100h300v100h-300z" />
    <glyph glyph-name="igrave" unicode="&#xec;" 
d="M100 800h100v-100h100v-100h-100v100h-100v100zM100 500h200v-400h100v-100h-300v100h100v300h-100v100z" />
    <glyph glyph-name="iacute" unicode="&#xed;" 
d="M200 800h100v-100h-100v-100h-100v100h100v100zM100 500h200v-400h100v-100h-300v100h100v300h-100v100z" />
    <glyph glyph-name="icircumflex" unicode="&#xee;" 
d="M200 800h100v-100h100v-100h-100v100h-100v-100h-100v100h100v100zM100 500h200v-400h100v-100h-300v100h100v300h-100v100z" />
    <glyph glyph-name="idieresis" unicode="&#xef;" 
d="M100 700h100v-100h-100v100zM300 700h100v-100h-100v100zM100 500h200v-400h100v-100h-300v100h100v300h-100v100z" />
    <glyph glyph-name="eth" unicode="&#xf0;" 
d="M0 700h200v-100h200v-200h100v-300h-100v-100h-300v100h-100v300h100v100h100v100h-200v100zM100 400v-300h300v300h-300z" />
    <glyph glyph-name="ntilde" unicode="&#xf1;" 
d="M200 800h100v-100h100v100h100v-100h-100v-100h-100v100h-100v-100h-100v100h100v100zM0 500h100v-100h100v100h200v-100h100v-400h-100v400h-200v-100h-100v-300h-100v500z" />
    <glyph glyph-name="ograve" unicode="&#xf2;" 
d="M100 800h100v-100h100v-100h-100v100h-100v100zM100 500h300v-100h100v-300h-100v-100h-300v100h-100v300h100v100zM100 400v-300h300v300h-300z" />
    <glyph glyph-name="oacute" unicode="&#xf3;" 
d="M300 800h100v-100h-100v-100h-100v100h100v100zM100 500h300v-100h100v-300h-100v-100h-300v100h-100v300h100v100zM100 400v-300h300v300h-300z" />
    <glyph glyph-name="ocircumflex" unicode="&#xf4;" 
d="M200 800h100v-100h100v-100h-100v100h-100v-100h-100v100h100v100zM100 500h300v-100h100v-300h-100v-100h-300v100h-100v300h100v100zM100 400v-300h300v300h-300z" />
    <glyph glyph-name="otilde" unicode="&#xf5;" 
d="M200 800h100v-100h100v100h100v-100h-100v-100h-100v100h-100v-100h-100v100h100v100zM100 500h300v-100h100v-300h-100v-100h-300v100h-100v300h100v100zM100 400v-300h300v300h-300z" />
    <glyph glyph-name="odieresis" unicode="&#xf6;" 
d="M100 700h100v-100h-100v100zM300 700h100v-100h-100v100zM100 500h300v-100h100v-300h-100v-100h-300v100h-100v300h100v100zM100 400v-300h300v300h-300z" />
    <glyph glyph-name="divide" unicode="&#xf7;" 
d="M200 600h100v-100h-100v100zM0 400h500v-100h-500v100zM200 200h100v-100h-100v100z" />
    <glyph glyph-name="oslash" unicode="&#xf8;" 
d="M100 500h400v-400h-100v-100h-400v400h100v100zM100 400v-200h100v-100h200v200h-100v100h-200zM200 300h100v-100h-100v100z" />
    <glyph glyph-name="ugrave" unicode="&#xf9;" 
d="M100 800h100v-100h100v-100h-100v100h-100v100zM0 500h100v-400h200v100h100v300h100v-500h-100v100h-100v-100h-200v100h-100v400z" />
    <glyph glyph-name="uacute" unicode="&#xfa;" 
d="M300 800h100v-100h-100v-100h-100v100h100v100zM0 500h100v-400h200v100h100v300h100v-500h-100v100h-100v-100h-200v100h-100v400z" />
    <glyph glyph-name="ucircumflex" unicode="&#xfb;" 
d="M200 800h100v-100h100v-100h-100v100h-100v-100h-100v100h100v100zM0 500h100v-400h200v100h100v300h100v-500h-100v100h-100v-100h-200v100h-100v400z" />
    <glyph glyph-name="udieresis" unicode="&#xfc;" 
d="M100 700h100v-100h-100v100zM300 700h100v-100h-100v100zM0 500h100v-400h200v100h100v300h100v-500h-100v100h-100v-100h-200v100h-100v400z" />
    <glyph glyph-name="yacute" unicode="&#xfd;" 
d="M300 700h100v-100h-100v-100h-100v100h100v100zM0 500h100v-300h200v100h100v200h100v-600h-100v-100h-300v100h-100v100h100v-100h300v300h-100v-100h-200v100h-100v300z" />
    <glyph glyph-name="thorn" unicode="&#xfe;" 
d="M0 600h100v-100h300v-100h100v-300h-100v-100h-300v-200h-100v800zM100 400v-300h300v300h-300z" />
    <glyph glyph-name="ydieresis" unicode="&#xff;" 
d="M100 700h100v-100h-100v100zM300 700h100v-100h-100v100zM0 500h100v-300h200v100h100v200h100v-600h-100v-100h-300v100h-100v100h100v-100h300v300h-100v-100h-200v100h-100v300z" />
    <glyph glyph-name="Amacron" unicode="&#x100;" 
d="M100 800h300v-100h-300v100zM100 600h300v-100h100v-500h-100v200h-300v-200h-100v500h100v100zM100 500v-200h300v200h-300z" />
    <glyph glyph-name="amacron" unicode="&#x101;" 
d="M100 700h300v-100h-300v100zM100 500h300v-100h100v-400h-400v100h-100v100h100v100h300v100h-300v100zM100 200v-100h300v100h-300z" />
    <glyph glyph-name="Abreve" unicode="&#x102;" 
d="M0 800h100v-100h300v100h100v-100h-100v-200h100v-500h-100v200h-300v-200h-100v500h100v200h-100v100zM100 500v-200h300v200h-300z" />
    <glyph glyph-name="abreve" unicode="&#x103;" 
d="M0 800h100v-100h300v100h100v-100h-100v-100h-300v100h-100v100zM100 500h300v-100h100v-400h-400v100h-100v100h100v100h300v100h-300v100zM100 200v-100h300v100h-300z" />
    <glyph glyph-name="Aogonek" unicode="&#x104;" 
d="M200 700h100v-100h100v-100h100v-500h-100v-100h100v-100h-200v200h100v200h-300v-200h-100v500h100v100h100v100zM200 600v-100h-100v-200h300v200h-100v100h-100z" />
    <glyph glyph-name="aogonek" unicode="&#x105;" 
d="M100 500h300v-100h100v-400h-100v-100h100v-100h-200v200h-200v100h-100v100h100v100h300v100h-300v100zM100 200v-100h300v100h-300z" />
    <glyph glyph-name="Cacute" unicode="&#x106;" 
d="M300 800h100v-100h-100v-100h100v-100h100v-100h-100v100h-300v-400h300v100h100v-100h-100v-100h-300v100h-100v400h100v100h100v100h100v100z" />
    <glyph glyph-name="cacute" unicode="&#x107;" 
d="M300 800h100v-100h-100v-100h-100v100h100v100zM100 500h300v-100h100v-100h-100v100h-300v-300h300v100h100v-100h-100v-100h-300v100h-100v300h100v100z" />
    <glyph glyph-name="Ccircumflex" unicode="&#x108;" 
d="M200 800h100v-100h100v-200h100v-100h-100v100h-300v-400h300v100h100v-100h-100v-100h-300v100h-100v400h100v200h100v100zM200 700v-100h100v100h-100z" />
    <glyph glyph-name="ccircumflex" unicode="&#x109;" 
d="M200 800h100v-100h100v-100h-100v100h-100v-100h-100v100h100v100zM100 500h300v-100h100v-100h-100v100h-300v-300h300v100h100v-100h-100v-100h-300v100h-100v300h100v100z" />
    <glyph glyph-name="Cdotaccent" unicode="&#x10a;" 
d="M200 800h100v-100h-100v100zM100 600h300v-100h100v-100h-100v100h-300v-400h300v100h100v-100h-100v-100h-300v100h-100v400h100v100z" />
    <glyph glyph-name="cdotaccent" unicode="&#x10b;" 
d="M200 700h100v-100h-100v100zM100 500h300v-100h100v-100h-100v100h-300v-300h300v100h100v-100h-100v-100h-300v100h-100v300h100v100z" />
    <glyph glyph-name="Ccaron" unicode="&#x10c;" 
d="M100 800h100v-100h100v100h100v-100h-100v-100h100v-100h100v-100h-100v100h-300v-400h300v100h100v-100h-100v-100h-300v100h-100v400h100v100h100v100h-100v100z" />
    <glyph glyph-name="ccaron" unicode="&#x10d;" 
d="M100 800h100v-100h100v100h100v-100h-100v-100h-100v100h-100v100zM100 500h300v-100h100v-100h-100v100h-300v-300h300v100h100v-100h-100v-100h-300v100h-100v300h100v100z" />
    <glyph glyph-name="Dcaron" unicode="&#x10e;" 
d="M100 800h100v-100h100v100h100v-100h-100v-100h100v-100h100v-400h-100v-100h-400v600h200v100h-100v100zM100 500v-400h300v400h-300z" />
    <glyph glyph-name="dcaron" unicode="&#x10f;" 
d="M100 800h100v-100h100v100h100v-100h-100v-100h-100v100h-100v100zM400 600h100v-600h-100v100h-100v-100h-200v100h-100v300h100v100h200v-100h100v200zM100 400v-300h200v100h100v100h-100v100h-200z" />
    <glyph glyph-name="Dcroat" unicode="&#x110;" 
d="M100 700h400v-100h100v-500h-100v-100h-400v300h-100v100h100v300zM200 600v-200h100v-100h-100v-200h300v500h-300z" />
    <glyph glyph-name="dcroat" unicode="&#x111;" 
d="M300 700h100v-100h100v-100h-100v-500h-300v100h-100v200h100v100h200v100h-100v100h100v100zM100 300v-200h200v200h-200z" />
    <glyph glyph-name="Emacron" unicode="&#x112;" 
d="M100 800h300v-100h-300v100zM0 600h500v-100h-400v-100h300v-100h-300v-200h400v-100h-500v600z" />
    <glyph glyph-name="emacron" unicode="&#x113;" 
d="M100 700h300v-100h-300v100zM100 500h300v-100h100v-200h-400v-100h300v-100h-300v100h-100v300h100v100zM100 400v-100h300v100h-300z" />
    <glyph glyph-name="Ebreve" unicode="&#x114;" 
d="M0 800h100v-100h300v100h100v-100h-100v-100h100v-100h-400v-100h300v-100h-300v-200h400v-100h-500v600h100v100h-100v100z" />
    <glyph glyph-name="ebreve" unicode="&#x115;" 
d="M0 800h100v-100h300v100h100v-100h-100v-100h-300v100h-100v100zM100 500h300v-100h100v-200h-400v-100h300v-100h-300v100h-100v300h100v100zM100 400v-100h300v100h-300z" />
    <glyph glyph-name="Edotaccent" unicode="&#x116;" 
d="M200 800h100v-100h-100v100zM0 600h500v-100h-400v-100h300v-100h-300v-200h400v-100h-500v600z" />
    <glyph glyph-name="edotaccent" unicode="&#x117;" 
d="M200 700h100v-100h-100v100zM100 500h300v-100h100v-200h-400v-100h300v-100h-300v100h-100v300h100v100zM100 400v-100h300v100h-300z" />
    <glyph glyph-name="Eogonek" unicode="&#x118;" 
d="M0 700h500v-100h-400v-200h300v-100h-300v-200h400v-100h-200v-100h100v-100h-200v200h-200v700z" />
    <glyph glyph-name="eogonek" unicode="&#x119;" 
d="M100 500h300v-100h100v-200h-400v-100h300v-100h-100v-100h100v-100h-200v200h-100v100h-100v300h100v100zM100 400v-100h300v100h-300z" />
    <glyph glyph-name="Ecaron" unicode="&#x11a;" 
d="M100 800h100v-100h100v100h100v-100h-100v-100h200v-100h-400v-100h300v-100h-300v-200h400v-100h-500v600h200v100h-100v100z" />
    <glyph glyph-name="ecaron" unicode="&#x11b;" 
d="M100 800h100v-100h100v100h100v-100h-100v-100h-100v100h-100v100zM100 500h300v-100h100v-200h-400v-100h300v-100h-300v100h-100v300h100v100zM100 400v-100h300v100h-300z" />
    <glyph glyph-name="Gcircumflex" unicode="&#x11c;" 
d="M200 800h100v-100h100v-200h100v-100h-100v100h-300v-400h300v100h-100v100h200v-200h-100v-100h-300v100h-100v400h100v200h100v100zM200 700v-100h100v100h-100z" />
    <glyph glyph-name="gcircumflex" unicode="&#x11d;" 
d="M200 800h100v-100h100v-100h-100v100h-100v-100h-100v100h100v100zM100 500h200v-100h100v100h100v-100h-100v-100h-100v-100h-200v-100h300v-100h100v-100h-100v-100h-300v100h-100v100h100v100h-100v100h100v100h-100v100h100v100zM100 400v-100h200v100h-200zM100 0
v-100h300v100h-300z" />
    <glyph glyph-name="Gbreve" unicode="&#x11e;" 
d="M0 800h100v-100h300v100h100v-100h-100v-200h100v-100h-100v100h-300v-400h300v100h-100v100h200v-200h-100v-100h-300v100h-100v400h100v200h-100v100z" />
    <glyph glyph-name="gbreve" unicode="&#x11f;" 
d="M0 800h100v-100h300v100h100v-100h-100v-100h-300v100h-100v100zM100 500h200v-100h100v100h100v-100h-100v-100h-100v-100h-200v-100h300v-100h100v-100h-100v-100h-300v100h-100v100h100v100h-100v100h100v100h-100v100h100v100zM100 400v-100h200v100h-200zM100 0
v-100h300v100h-300z" />
    <glyph glyph-name="Gdotaccent" unicode="&#x120;" 
d="M200 800h100v-100h-100v100zM100 600h300v-100h100v-100h-100v100h-300v-400h300v100h-100v100h200v-200h-100v-100h-300v100h-100v400h100v100z" />
    <glyph glyph-name="gdotaccent" unicode="&#x121;" 
d="M200 700h100v-100h-100v100zM100 500h200v-100h100v100h100v-100h-100v-100h-100v-100h-200v-100h300v-100h100v-100h-100v-100h-300v100h-100v100h100v100h-100v100h100v100h-100v100h100v100zM100 400v-100h200v100h-200zM100 0v-100h300v100h-300z" />
    <glyph glyph-name="uni0122" unicode="&#x122;" 
d="M100 600h300v-100h100v-100h-100v100h-300v-400h300v100h-100v100h200v-200h-100v-100h-100v-100h-100v-100h-100v100h100v100h-100v100h-100v400h100v100z" />
    <glyph glyph-name="uni0123" unicode="&#x123;" 
d="M100 800h100v-100h100v-100h-200v200zM100 500h200v-100h100v100h100v-100h-100v-100h-100v-100h-200v-100h300v-100h100v-100h-100v-100h-300v100h-100v100h100v100h-100v100h100v100h-100v100h100v100zM100 400v-100h200v100h-200zM100 0v-100h300v100h-300z" />
    <glyph glyph-name="Hcircumflex" unicode="&#x124;" 
d="M200 800h100v-100h100v-100h-100v100h-100v-100h-100v100h100v100zM0 500h100v-200h300v200h100v-500h-100v200h-300v-200h-100v500z" />
    <glyph glyph-name="hcircumflex" unicode="&#x125;" 
d="M300 800h100v-100h100v-100h-100v100h-100v-100h-100v100h100v100zM0 600h100v-200h300v-100h100v-300h-100v300h-300v-300h-100v600z" />
    <glyph glyph-name="Hbar" unicode="&#x126;" 
d="M100 700h100v-100h200v100h100v-100h100v-100h-100v-500h-100v300h-200v-300h-100v500h-100v100h100v100zM200 500v-100h200v100h-200z" />
    <glyph glyph-name="hbar" unicode="&#x127;" 
d="M100 700h100v-100h100v-100h200v-100h100v-400h-100v400h-200v-100h-100v-300h-100v500h-100v100h100v100zM200 500v-100h100v100h-100z" />
    <glyph glyph-name="Itilde" unicode="&#x128;" 
d="M200 800h100v-100h100v100h100v-100h-100v-200h-100v-400h100v-100h-300v100h100v400h-100v200h100v100zM200 700v-100h100v100h-100z" />
    <glyph glyph-name="itilde" unicode="&#x129;" 
d="M200 800h100v-100h100v100h100v-100h-100v-100h-100v100h-100v-100h-100v100h100v100zM200 500h200v-400h100v-100h-300v100h100v300h-100v100z" />
    <glyph glyph-name="Imacron" unicode="&#x12a;" 
d="M100 800h300v-100h-300v100zM100 600h300v-100h-100v-400h100v-100h-300v100h100v400h-100v100z" />
    <glyph glyph-name="imacron" unicode="&#x12b;" 
d="M100 700h300v-100h-300v100zM100 500h200v-400h100v-100h-300v100h100v300h-100v100z" />
    <glyph glyph-name="Ibreve" unicode="&#x12c;" 
d="M0 800h100v-100h300v100h100v-100h-100v-200h-100v-400h100v-100h-300v100h100v400h-100v200h-100v100z" />
    <glyph glyph-name="ibreve" unicode="&#x12d;" 
d="M0 800h100v-100h300v100h100v-100h-100v-100h-300v100h-100v100zM100 500h200v-400h100v-100h-300v100h100v300h-100v100z" />
    <glyph glyph-name="Iogonek" unicode="&#x12e;" 
d="M100 700h300v-100h-100v-500h100v-100h-100v-100h100v-100h-200v200h-100v100h100v500h-100v100z" />
    <glyph glyph-name="iogonek" unicode="&#x12f;" 
d="M200 700h100v-100h-100v100zM100 500h200v-400h100v-100h-100v-100h100v-100h-200v200h-100v100h100v300h-100v100z" />
    <glyph glyph-name="Idotaccent" unicode="&#x130;" 
d="M200 800h100v-100h-100v100zM100 600h300v-100h-100v-400h100v-100h-300v100h100v400h-100v100z" />
    <glyph glyph-name="dotlessi" unicode="&#x131;" 
d="M100 500h200v-400h100v-100h-300v100h100v300h-100v100z" />
    <glyph glyph-name="IJ" unicode="&#x132;" 
d="M0 700h100v-700h-100v700zM200 700h300v-600h-100v-100h-100v100h-100v100h100v-100h100v500h-200v100z" />
    <glyph glyph-name="ij" unicode="&#x133;" 
d="M100 700h100v-100h-100v100zM400 700h100v-100h-100v100zM100 500h100v-500h-100v500zM300 500h200v-600h-100v-100h-200v100h200v500h-100v100z" />
    <glyph glyph-name="Jcircumflex" unicode="&#x134;" 
d="M300 800h100v-100h100v-200h-100v-400h-100v-100h-200v100h-100v100h100v-100h200v400h-100v200h100v100zM300 700v-100h100v100h-100z" />
    <glyph glyph-name="jcircumflex" unicode="&#x135;" 
d="M300 800h100v-100h100v-100h-100v100h-100v-100h-100v100h100v100zM200 500h200v-600h-100v-100h-200v100h-100v200h100v-200h200v500h-100v100z" />
    <glyph glyph-name="uni0136" unicode="&#x136;" 
d="M0 700h100v-300h100v100h100v100h100v100h100v-100h-100v-100h-100v-100h-100v-100h100v-100h100v-100h100v-100h-100v100h-100v100h-100v100h-100v-300h-100v700zM200 0h100v-200h-200v100h100v100z" />
    <glyph glyph-name="uni0137" unicode="&#x137;" 
d="M0 700h100v-400h200v100h100v100h100v-100h-100v-100h-100v-100h100v-100h100v-100h-100v100h-100v100h-200v-200h-100v700zM200 0h100v-200h-200v100h100v100z" />
    <glyph glyph-name="kgreenlandic" unicode="&#x138;" 
d="M0 500h100v-200h200v100h100v100h100v-100h-100v-100h-100v-100h100v-100h100v-100h-100v100h-100v100h-200v-200h-100v500z" />
    <glyph glyph-name="Lacute" unicode="&#x139;" 
d="M300 800h100v-100h-100v-100h-100v100h100v100zM0 700h100v-600h400v-100h-500v700z" />
    <glyph glyph-name="lacute" unicode="&#x13a;" 
d="M300 800h100v-100h-100v-600h100v-100h-300v100h100v400h-100v100h100v100h100v100z" />
    <glyph glyph-name="uni013B" unicode="&#x13b;" 
d="M0 700h100v-600h400v-100h-200v-200h-200v100h100v100h-200v700z" />
    <glyph glyph-name="uni013C" unicode="&#x13c;" 
d="M100 700h200v-600h100v-100h-100v-200h-200v100h100v100h-100v100h100v500h-100v100z" />
    <glyph glyph-name="Lcaron" unicode="&#x13d;" 
d="M200 800h100v-100h100v100h100v-100h-100v-100h-100v100h-100v100zM0 700h100v-600h400v-100h-500v700z" />
    <glyph glyph-name="lcaron" unicode="&#x13e;" 
d="M100 800h100v-100h100v100h100v-100h-100v-600h100v-100h-300v100h100v400h-100v100h100v100h-100v100z" />
    <glyph glyph-name="Ldot" unicode="&#x13f;" 
d="M0 700h100v-600h400v-100h-500v700zM200 500h100v-100h-100v100z" />
    <glyph glyph-name="ldot" unicode="&#x140;" 
d="M100 700h200v-600h100v-100h-300v100h100v500h-100v100zM400 500h100v-100h-100v100z" />
    <glyph glyph-name="Lslash" unicode="&#x141;" 
d="M100 700h100v-200h100v-100h-100v-300h400v-100h-500v300h-100v100h100v300z" />
    <glyph glyph-name="lslash" unicode="&#x142;" 
d="M100 700h200v-200h100v-100h-100v-300h100v-100h-300v100h100v200h-100v100h100v200h-100v100z" />
    <glyph glyph-name="Nacute" unicode="&#x143;" 
d="M300 800h100v-100h-100v-100h-100v100h100v100zM0 600h100v-100h100v-100h100v-100h100v300h100v-600h-100v200h-100v100h-100v100h-100v-400h-100v600z" />
    <glyph glyph-name="nacute" unicode="&#x144;" 
d="M300 800h100v-100h-100v-100h-100v100h100v100zM0 500h100v-100h100v100h200v-100h100v-400h-100v400h-200v-100h-100v-300h-100v500z" />
    <glyph glyph-name="uni0145" unicode="&#x145;" 
d="M0 700h100v-200h100v-100h100v-100h100v400h100v-700h-100v200h-100v100h-100v100h-100v-400h-100v700zM200 0h100v-100h-100v-100h-100v100h100v100z" />
    <glyph glyph-name="uni0146" unicode="&#x146;" 
d="M0 500h100v-100h100v100h200v-100h100v-400h-100v400h-200v-100h-100v-300h-100v500zM200 0h100v-100h-100v-100h-100v100h100v100z" />
    <glyph glyph-name="Ncaron" unicode="&#x147;" 
d="M100 800h100v-100h100v100h100v-100h-100v-100h-100v100h-100v100zM0 600h100v-100h100v-100h100v-100h100v300h100v-600h-100v200h-100v100h-100v100h-100v-400h-100v600z" />
    <glyph glyph-name="ncaron" unicode="&#x148;" 
d="M100 800h100v-100h100v100h100v-100h-100v-100h-100v100h-100v100zM0 500h100v-100h100v100h200v-100h100v-400h-100v400h-200v-100h-100v-300h-100v500z" />
    <glyph glyph-name="napostrophe" unicode="&#x149;" 
d="M0 800h200v-200h-100v-100h-100v100h100v100h-100v100zM200 500h100v-100h100v100h100v-100h100v-400h-100v400h-100v-100h-100v-300h-100v500z" />
    <glyph glyph-name="Eng" unicode="&#x14a;" 
d="M0 700h100v-200h100v-100h100v-100h100v400h100v-800h-100v-100h-200v100h200v300h-100v100h-100v100h-100v-400h-100v700z" />
    <glyph glyph-name="eng" unicode="&#x14b;" 
d="M0 500h100v-100h100v100h200v-100h100v-500h-100v-100h-200v100h200v500h-200v-100h-100v-300h-100v500z" />
    <glyph glyph-name="Omacron" unicode="&#x14c;" 
d="M100 800h300v-100h-300v100zM100 600h300v-100h100v-400h-100v-100h-300v100h-100v400h100v100zM100 500v-400h300v400h-300z" />
    <glyph glyph-name="omacron" unicode="&#x14d;" 
d="M100 700h300v-100h-300v100zM100 500h300v-100h100v-300h-100v-100h-300v100h-100v300h100v100zM100 400v-300h300v300h-300z" />
    <glyph glyph-name="Obreve" unicode="&#x14e;" 
d="M0 800h100v-100h300v100h100v-100h-100v-200h100v-400h-100v-100h-300v100h-100v400h100v200h-100v100zM100 500v-400h300v400h-300z" />
    <glyph glyph-name="obreve" unicode="&#x14f;" 
d="M0 800h100v-100h300v100h100v-100h-100v-100h-300v100h-100v100zM100 500h300v-100h100v-300h-100v-100h-300v100h-100v300h100v100zM100 400v-300h300v300h-300z" />
    <glyph glyph-name="Ohungarumlaut" unicode="&#x150;" 
d="M100 800h100v-100h-100v-100h200v100h100v100h100v-100h-100v-200h100v-400h-100v-100h-300v100h-100v400h100v100h-100v100h100v100zM100 500v-400h300v400h-300z" />
    <glyph glyph-name="ohungarumlaut" unicode="&#x151;" 
d="M100 800h100v-100h-100v-100h-100v100h100v100zM400 800h100v-100h-100v-100h-100v100h100v100zM100 500h300v-100h100v-300h-100v-100h-300v100h-100v300h100v100zM100 400v-300h300v300h-300z" />
    <glyph glyph-name="OE" unicode="&#x152;" 
d="M100 700h400v-100h-200v-200h100v-100h-100v-200h200v-100h-400v100h-100v500h100v100zM100 600v-500h100v500h-100z" />
    <glyph glyph-name="oe" unicode="&#x153;" 
d="M100 500h300v-100h100v-100h-100v-100h-100v-100h200v-100h-400v100h-100v300h100v100zM100 400v-300h100v300h-100zM300 400v-100h100v100h-100z" />
    <glyph glyph-name="Racute" unicode="&#x154;" 
d="M300 800h100v-100h-100v-100h100v-100h100v-100h-100v-100h-100v-100h100v-100h100v-100h-100v100h-100v100h-100v100h-100v-300h-100v600h200v100h100v100zM100 500v-100h300v100h-300z" />
    <glyph glyph-name="racute" unicode="&#x155;" 
d="M300 800h100v-100h-100v-100h-100v100h100v100zM0 500h100v-100h100v100h200v-100h100v-100h-100v100h-200v-100h-100v-300h-100v500z" />
    <glyph glyph-name="uni0156" unicode="&#x156;" 
d="M100 700h400v-100h100v-200h-100v-100h-100v-100h100v-100h100v-100h-100v100h-100v100h-100v100h-100v-300h100v-100h-100v-100h-200v100h200v100h-100v700zM200 600v-200h300v200h-300z" />
    <glyph glyph-name="uni0157" unicode="&#x157;" 
d="M100 500h100v-100h100v100h200v-100h100v-100h-100v100h-200v-100h-100v-300h100v-100h-100v-100h-200v100h200v100h-100v500z" />
    <glyph glyph-name="Rcaron" unicode="&#x158;" 
d="M100 800h100v-100h100v100h100v-100h-100v-100h100v-100h100v-100h-100v-100h-100v-100h100v-100h100v-100h-100v100h-100v100h-100v100h-100v-300h-100v600h200v100h-100v100zM100 500v-100h300v100h-300z" />
    <glyph glyph-name="rcaron" unicode="&#x159;" 
d="M100 800h100v-100h100v100h100v-100h-100v-100h-100v100h-100v100zM0 500h100v-100h100v100h200v-100h100v-100h-100v100h-200v-100h-100v-300h-100v500z" />
    <glyph glyph-name="Sacute" unicode="&#x15a;" 
d="M300 800h100v-100h-100v-100h200v-100h-400v-100h300v-100h100v-200h-100v-100h-300v100h-100v100h100v-100h300v200h-300v100h-100v100h100v100h100v100h100v100z" />
    <glyph glyph-name="sacute" unicode="&#x15b;" 
d="M300 800h100v-100h-100v-100h-100v100h100v100zM100 500h300v-100h-300v-100h300v-100h100v-100h-100v-100h-400v100h400v100h-300v100h-100v100h100v100z" />
    <glyph glyph-name="Scircumflex" unicode="&#x15c;" 
d="M200 800h100v-100h100v-100h100v-100h-400v-100h300v-100h100v-200h-100v-100h-300v100h-100v100h100v-100h300v200h-300v100h-100v100h100v200h100v100zM200 700v-100h100v100h-100z" />
    <glyph glyph-name="scircumflex" unicode="&#x15d;" 
d="M200 800h100v-100h100v-100h-100v100h-100v-100h-100v100h100v100zM100 500h300v-100h-300v-100h300v-100h100v-100h-100v-100h-400v100h400v100h-300v100h-100v100h100v100z" />
    <glyph glyph-name="Scedilla" unicode="&#x15e;" 
d="M100 700h300v-100h100v-100h-100v100h-300v-200h300v-100h100v-200h-100v-100h-100v-100h-100v-100h-100v100h100v100h-100v100h-100v100h100v-100h300v200h-300v100h-100v200h100v100z" />
    <glyph glyph-name="scedilla" unicode="&#x15f;" 
d="M100 500h300v-100h-300v-100h300v-100h100v-100h-100v-100h-100v-100h-100v-100h-100v100h100v100h-200v100h400v100h-300v100h-100v100h100v100z" />
    <glyph glyph-name="Scaron" unicode="&#x160;" 
d="M100 800h100v-100h100v100h100v-100h-100v-100h100v-100h-300v-100h300v-100h100v-200h-100v-100h-300v100h-100v100h100v-100h300v200h-300v100h-100v100h100v100h100v100h-100v100z" />
    <glyph glyph-name="scaron" unicode="&#x161;" 
d="M100 800h100v-100h100v100h100v-100h-100v-100h-100v100h-100v100zM100 500h300v-100h-300v-100h300v-100h100v-100h-100v-100h-400v100h400v100h-300v100h-100v100h100v100z" />
    <glyph glyph-name="uni0162" unicode="&#x162;" 
d="M0 700h500v-100h-200v-600h100v-100h-100v-100h-200v100h200v100h-100v600h-200v100z" />
    <glyph glyph-name="uni0163" unicode="&#x163;" 
d="M100 700h100v-200h200v-100h-200v-300h200v100h100v-100h-100v-200h-100v-100h-200v100h200v100h-100v100h-100v300h-100v100h100v200z" />
    <glyph glyph-name="Tcaron" unicode="&#x164;" 
d="M100 800h100v-100h100v100h100v-100h-100v-100h200v-100h-200v-500h-100v500h-200v100h200v100h-100v100z" />
    <glyph glyph-name="tcaron" unicode="&#x165;" 
d="M0 800h100v-100h100v100h100v-100h-100v-200h200v-100h-200v-300h200v100h100v-100h-100v-100h-200v100h-100v300h-100v100h100v200h-100v100z" />
    <glyph glyph-name="Tbar" unicode="&#x166;" 
d="M0 700h500v-100h-200v-200h100v-100h-100v-300h-100v300h-100v100h100v200h-200v100z" />
    <glyph glyph-name="tbar" unicode="&#x167;" 
d="M100 700h100v-100h200v-100h-200v-100h200v-100h-200v-200h200v100h100v-100h-100v-100h-200v100h-100v200h-100v100h100v100h-100v100h100v100z" />
    <glyph glyph-name="Utilde" unicode="&#x168;" 
d="M200 800h100v-100h100v100h100v-100h-100v-100h-100v100h-100v-100h-100v100h100v100zM0 500h100v-400h300v400h100v-400h-100v-100h-300v100h-100v400z" />
    <glyph glyph-name="utilde" unicode="&#x169;" 
d="M200 800h100v-100h100v100h100v-100h-100v-100h-100v100h-100v-100h-100v100h100v100zM0 500h100v-400h200v100h100v300h100v-500h-100v100h-100v-100h-200v100h-100v400z" />
    <glyph glyph-name="Umacron" unicode="&#x16a;" 
d="M100 800h300v-100h-300v100zM0 600h100v-500h300v500h100v-500h-100v-100h-300v100h-100v500z" />
    <glyph glyph-name="umacron" unicode="&#x16b;" 
d="M100 700h300v-100h-300v100zM0 500h100v-400h200v100h100v300h100v-500h-100v100h-100v-100h-200v100h-100v400z" />
    <glyph glyph-name="Ubreve" unicode="&#x16c;" 
d="M0 800h100v-100h300v100h100v-100h-100v-100h-300v100h-100v100zM0 500h100v-400h300v400h100v-400h-100v-100h-300v100h-100v400z" />
    <glyph glyph-name="ubreve" unicode="&#x16d;" 
d="M0 800h100v-100h300v100h100v-100h-100v-100h-300v100h-100v100zM0 500h100v-400h200v100h100v300h100v-500h-100v100h-100v-100h-200v100h-100v400z" />
    <glyph glyph-name="Uring" unicode="&#x16e;" 
d="M200 800h100v-100h100v-100h100v-500h-100v-100h-300v100h-100v500h100v100h100v100zM200 700v-100h-100v-500h300v500h-100v100h-100zM200 600h100v-100h-100v100z" />
    <glyph glyph-name="uring" unicode="&#x16f;" 
d="M200 800h100v-100h100v-100h-100v-100h-100v100h-100v100h100v100zM200 700v-100h100v100h-100zM0 500h100v-400h200v100h100v300h100v-500h-100v100h-100v-100h-200v100h-100v400z" />
    <glyph glyph-name="Uhungarumlaut" unicode="&#x170;" 
d="M100 800h100v-100h-100v-100h-100v100h100v100zM400 800h100v-100h-100v-100h-100v100h100v100zM0 500h100v-400h300v400h100v-400h-100v-100h-300v100h-100v400z" />
    <glyph glyph-name="uhungarumlaut" unicode="&#x171;" 
d="M100 800h100v-100h-100v-100h-100v100h100v100zM400 800h100v-100h-100v-100h-100v100h100v100zM0 500h100v-400h200v100h100v300h100v-500h-100v100h-100v-100h-200v100h-100v400z" />
    <glyph glyph-name="Uogonek" unicode="&#x172;" 
d="M0 700h100v-600h300v600h100v-600h-100v-100h-100v-100h100v-100h-200v200h-100v100h-100v600z" />
    <glyph glyph-name="uogonek" unicode="&#x173;" 
d="M0 500h100v-400h300v400h100v-400h-100v-200h100v-100h-200v200h-200v100h-100v400z" />
    <glyph glyph-name="Wcircumflex" unicode="&#x174;" 
d="M200 800h100v-100h100v-100h-100v100h-100v-100h-100v100h100v100zM0 500h100v-300h100v200h100v-200h100v300h100v-500h-100v100h-100v100h-100v-100h-100v-100h-100v500z" />
    <glyph glyph-name="wcircumflex" unicode="&#x175;" 
d="M200 800h100v-100h100v-100h-100v100h-100v-100h-100v100h100v100zM0 500h100v-400h100v200h100v-200h100v400h100v-400h-100v-100h-100v100h-100v-100h-100v100h-100v400z" />
    <glyph glyph-name="Ycircumflex" unicode="&#x176;" 
d="M200 800h100v-100h100v-100h-100v100h-100v-100h-100v100h100v100zM0 500h100v-100h100v-100h100v100h100v100h100v-100h-100v-100h-100v-300h-100v300h-100v100h-100v100z" />
    <glyph glyph-name="ycircumflex" unicode="&#x177;" 
d="M200 800h100v-100h100v-100h-100v100h-100v-100h-100v100h100v100zM0 500h100v-300h200v100h100v200h100v-600h-100v-100h-300v100h-100v100h100v-100h300v300h-100v-100h-200v100h-100v300z" />
    <glyph glyph-name="Ydieresis" unicode="&#x178;" 
d="M100 800h100v-100h-100v100zM300 800h100v-100h-100v100zM0 600h100v-100h100v-100h100v100h100v100h100v-100h-100v-100h-100v-400h-100v400h-100v100h-100v100z" />
    <glyph glyph-name="Zacute" unicode="&#x179;" 
d="M300 800h100v-100h-100v-100h200v-100h-100v-100h-100v-100h-100v-100h-100v-100h400v-100h-500v200h100v100h100v100h100v100h-300v100h200v100h100v100z" />
    <glyph glyph-name="zacute" unicode="&#x17a;" 
d="M300 800h100v-100h-100v-100h-100v100h100v100zM0 500h500v-100h-100v-100h-100v-100h-100v-100h300v-100h-500v100h100v100h100v100h100v100h-300v100z" />
    <glyph glyph-name="Zdotaccent" unicode="&#x17b;" 
d="M200 800h100v-100h-100v100zM0 600h500v-100h-100v-100h-100v-100h-100v-100h-100v-100h400v-100h-500v200h100v100h100v100h100v100h-300v100z" />
    <glyph glyph-name="zdotaccent" unicode="&#x17c;" 
d="M200 700h100v-100h-100v100zM0 500h500v-100h-100v-100h-100v-100h-100v-100h300v-100h-500v100h100v100h100v100h100v100h-300v100z" />
    <glyph glyph-name="Zcaron" unicode="&#x17d;" 
d="M100 800h100v-100h100v100h100v-100h-100v-100h200v-100h-100v-100h-100v-100h-100v-100h-100v-100h400v-100h-500v200h100v100h100v100h100v100h-300v100h200v100h-100v100z" />
    <glyph glyph-name="zcaron" unicode="&#x17e;" 
d="M100 800h100v-100h100v100h100v-100h-100v-100h-100v100h-100v100zM0 500h500v-100h-100v-100h-100v-100h-100v-100h300v-100h-500v100h100v100h100v100h100v100h-300v100z" />
    <glyph glyph-name="longs" unicode="&#x17f;" 
d="M200 700h200v-100h100v-100h-100v100h-200v-600h-100v300h-100v100h100v200h100v100z" />
    <glyph glyph-name="uni018F" unicode="&#x18f;" 
d="M100 700h300v-100h100v-500h-100v-100h-300v100h-100v300h400v200h-300v-100h-100v100h100v100zM100 300v-200h300v200h-300z" />
    <glyph glyph-name="florin" unicode="&#x192;" 
d="M300 700h100v-100h100v-100h-100v100h-100v-200h100v-100h-100v-300h-100v-100h-100v100h-100v100h100v-100h100v300h-100v100h100v200h100v100z" />
    <glyph glyph-name="Ohorn" unicode="&#x1a0;" 
d="M100 700h200v-100h100v-100h100v200h100v-200h-100v-100h-100v-300h-100v-100h-200v100h-100v500h100v100zM100 600v-500h200v500h-200z" />
    <glyph glyph-name="ohorn" unicode="&#x1a1;" 
d="M100 500h200v-100h200v100h100v-100h-100v-100h-100v-200h-100v-100h-200v100h-100v300h100v100zM100 400v-300h200v300h-200z" />
    <glyph glyph-name="Uhorn" unicode="&#x1af;" 
d="M0 700h100v-600h200v600h100v-200h100v200h100v-200h-100v-100h-100v-300h-100v-100h-200v100h-100v600z" />
    <glyph glyph-name="uhorn" unicode="&#x1b0;" 
d="M0 500h100v-400h100v100h100v300h100v-100h100v100h100v-100h-100v-100h-100v-300h-100v100h-100v-100h-100v100h-100v400z" />
    <glyph glyph-name="uni01B5" unicode="&#x1b5;" 
d="M0 700h500v-200h-100v-100h100v-100h-300v-100h-100v-100h400v-100h-500v200h100v100h-100v100h300v100h100v100h-400v100z" />
    <glyph glyph-name="uni01B6" unicode="&#x1b6;" 
d="M0 500h500v-100h-100v-100h100v-100h-300v-100h300v-100h-500v100h100v100h-100v100h300v100h-300v100z" />
    <glyph glyph-name="uni01D1" unicode="&#x1d1;" 
d="M100 800h100v-100h100v100h100v-100h-100v-100h100v-100h100v-400h-100v-100h-300v100h-100v400h100v100h100v100h-100v100zM100 500v-400h300v400h-300z" />
    <glyph glyph-name="uni01D2" unicode="&#x1d2;" 
d="M100 800h100v-100h100v100h100v-100h-100v-100h-100v100h-100v100zM100 500h300v-100h100v-300h-100v-100h-300v100h-100v300h100v100zM100 400v-300h300v300h-300z" />
    <glyph glyph-name="Gcaron" unicode="&#x1e6;" 
d="M100 800h100v-100h100v100h100v-100h-100v-100h100v-100h100v-100h-100v100h-300v-400h300v100h-100v100h200v-200h-100v-100h-300v100h-100v400h100v100h100v100h-100v100z" />
    <glyph glyph-name="gcaron" unicode="&#x1e7;" 
d="M100 800h100v-100h100v100h100v-100h-100v-100h-100v100h-100v100zM100 500h200v-100h100v100h100v-100h-100v-100h-100v-100h-200v-100h300v-100h100v-100h-100v-100h-300v100h-100v100h100v100h-100v100h100v100h-100v100h100v100zM100 400v-100h200v100h-200zM100 0
v-100h300v100h-300z" />
    <glyph glyph-name="Aringacute" unicode="&#x1fa;" 
d="M300 800h100v-100h-100v-200h100v-200h100v-300h-100v100h-300v-100h-100v300h100v200h100v200h100v100zM200 500v-100h100v100h-100zM100 300v-100h300v100h-300z" />
    <glyph glyph-name="aringacute" unicode="&#x1fb;" 
d="M300 800h100v-100h-100v-200h100v-100h-100v-100h200v-300h-400v100h-100v100h100v100h100v100h-100v100h100v200h100v100zM200 500v-100h100v100h-100zM100 200v-100h300v100h-300z" />
    <glyph glyph-name="AEacute" unicode="&#x1fc;" 
d="M400 800h100v-100h-100v-100h200v-100h-200v-100h200v-100h-200v-200h200v-100h-300v200h-200v-200h-100v500h100v100h200v100h100v100zM100 500v-200h200v200h-200z" />
    <glyph glyph-name="aeacute" unicode="&#x1fd;" 
d="M400 800h100v-100h-100v-100h-100v100h100v100zM100 500h400v-100h100v-200h-200v-100h200v-100h-500v100h-100v100h100v100h200v100h-200v100zM400 400v-100h100v100h-100zM100 200v-100h200v100h-200z" />
    <glyph glyph-name="Oslashacute" unicode="&#x1fe;" 
d="M300 800h100v-100h-100v-100h100v-100h100v-400h-100v-100h-300v100h-100v400h100v100h100v100h100v100zM100 500v-300h100v-100h200v300h-100v100h-200zM200 400h100v-200h-100v200z" />
    <glyph glyph-name="oslashacute" unicode="&#x1ff;" 
d="M300 800h100v-100h-100v-100h-100v100h100v100zM100 500h400v-400h-100v-100h-400v400h100v100zM100 400v-200h100v-100h200v200h-100v100h-200zM200 300h100v-100h-100v100z" />
    <glyph glyph-name="uni0218" unicode="&#x218;" 
d="M100 700h300v-100h100v-100h-100v100h-300v-200h300v-100h100v-200h-100v-100h-100v-100h-100v-100h-100v100h100v100h-100v100h-100v100h100v-100h300v200h-300v100h-100v200h100v100z" />
    <glyph glyph-name="uni0219" unicode="&#x219;" 
d="M100 500h300v-100h-300v-100h300v-100h100v-100h-100v-100h-100v-100h-100v-100h-100v100h100v100h-200v100h400v100h-300v100h-100v100h100v100z" />
    <glyph glyph-name="uni021A" unicode="&#x21a;" 
d="M0 700h500v-100h-200v-600h100v-100h-100v-100h-100v100h100v100h-100v600h-200v100z" />
    <glyph glyph-name="uni021B" unicode="&#x21b;" 
d="M100 700h100v-200h200v-100h-200v-300h200v100h100v-100h-100v-200h-100v-100h-100v100h100v100h-100v100h-100v300h-100v100h100v200z" />
    <glyph glyph-name="uni0259" unicode="&#x259;" 
d="M100 500h300v-100h100v-300h-100v-100h-300v100h-100v200h400v100h-300v100zM100 200v-100h300v100h-300z" />
    <glyph glyph-name="uni02BC" unicode="&#x2bc;" 
d="M200 700h200v-200h-100v-100h-100v100h100v100h-100v100z" />
    <glyph glyph-name="uni02BD" unicode="&#x2bd;" 
d="M200 700h200v-100h-100v-100h100v-100h-100v100h-100v200z" />
    <glyph glyph-name="circumflex" unicode="&#x2c6;" 
d="M200 800h100v-100h100v-100h-100v100h-100v-100h-100v100h100v100z" />
    <glyph glyph-name="caron" unicode="&#x2c7;" 
d="M100 800h100v-100h100v100h100v-100h-100v-100h-100v100h-100v100z" />
    <glyph glyph-name="uni02C9" unicode="&#x2c9;" 
d="M100 800h300v-100h-300v100z" />
    <glyph glyph-name="uni02D6" unicode="&#x2d6;" 
d="M200 800h100v-100h100v-100h-100v-100h-100v100h-100v100h100v100z" />
    <glyph glyph-name="breve" unicode="&#x2d8;" 
d="M0 800h100v-100h300v100h100v-100h-100v-100h-300v100h-100v100z" />
    <glyph glyph-name="dotaccent" unicode="&#x2d9;" 
d="M200 800h100v-100h-100v100z" />
    <glyph glyph-name="ring" unicode="&#x2da;" 
d="M200 800h100v-100h100v-100h-100v-100h-100v100h-100v100h100v100zM200 700v-100h100v100h-100z" />
    <glyph glyph-name="ogonek" unicode="&#x2db;" 
d="M200 0h100v-100h100v-100h-200v200z" />
    <glyph glyph-name="tilde" unicode="&#x2dc;" 
d="M200 800h100v-100h100v100h100v-100h-100v-100h-100v100h-100v-100h-100v100h100v100z" />
    <glyph glyph-name="hungarumlaut" unicode="&#x2dd;" 
d="M100 800h100v-100h-100v-100h-100v100h100v100zM400 800h100v-100h-100v-100h-100v100h100v100z" />
    <glyph glyph-name="gravecomb" unicode="&#x300;" 
d="M200 800h100v-100h100v-100h-100v100h-100v100z" />
    <glyph glyph-name="acutecomb" unicode="&#x301;" 
d="M300 800h100v-100h-100v-100h-100v100h100v100z" />
    <glyph glyph-name="uni0302" unicode="&#x302;" 
d="M200 800h100v-100h100v-100h-100v100h-100v-100h-100v100h100v100z" />
    <glyph glyph-name="tildecomb" unicode="&#x303;" 
d="M200 800h100v-100h100v100h100v-100h-100v-100h-100v100h-100v-100h-100v100h100v100z" />
    <glyph glyph-name="uni0304" unicode="&#x304;" 
d="M100 800h300v-100h-300v100z" />
    <glyph glyph-name="uni0305" unicode="&#x305;" 
d="M0 800h500v-100h-500v100z" />
    <glyph glyph-name="uni0306" unicode="&#x306;" 
d="M0 800h100v-100h300v100h100v-100h-100v-100h-300v100h-100v100z" />
    <glyph glyph-name="uni0307" unicode="&#x307;" 
d="M200 800h100v-100h-100v100z" />
    <glyph glyph-name="uni0308" unicode="&#x308;" 
d="M100 800h100v-100h-100v100zM300 800h100v-100h-100v100z" />
    <glyph glyph-name="hookabovecomb" unicode="&#x309;" 
d="M100 800h200v-100h100v-100h-100v-100h-100v100h100v100h-200v100z" />
    <glyph glyph-name="uni030A" unicode="&#x30a;" 
d="M200 800h100v-100h100v-100h-100v-100h-100v100h-100v100h100v100zM200 700v-100h100v100h-100z" />
    <glyph glyph-name="uni030B" unicode="&#x30b;" 
d="M100 800h100v-100h-100v-100h-100v100h100v100zM400 800h100v-100h-100v-100h-100v100h100v100z" />
    <glyph glyph-name="uni030C" unicode="&#x30c;" 
d="M100 800h100v-100h100v100h100v-100h-100v-100h-100v100h-100v100z" />
    <glyph glyph-name="uni030D" unicode="&#x30d;" 
d="M200 800h100v-200h-100v200z" />
    <glyph glyph-name="uni030E" unicode="&#x30e;" 
d="M100 800h100v-200h-100v200zM300 800h100v-200h-100v200z" />
    <glyph glyph-name="uni030F" unicode="&#x30f;" 
d="M0 800h100v-100h100v-100h-100v100h-100v100zM300 800h100v-100h100v-100h-100v100h-100v100z" />
    <glyph glyph-name="uni0310" unicode="&#x310;" 
d="M0 800h100v-100h100v100h100v-100h100v100h100v-100h-100v-100h-300v100h-100v100z" />
    <glyph glyph-name="uni0311" unicode="&#x311;" 
d="M100 800h300v-100h100v-100h-100v100h-300v-100h-100v100h100v100z" />
    <glyph glyph-name="dotbelowcomb" unicode="&#x323;" 
d="M200 -100h100v-100h-100v100z" />
    <glyph glyph-name="uni0324" unicode="&#x324;" 
d="M100 -100h100v-100h-100v100zM300 -100h100v-100h-100v100z" />
    <glyph glyph-name="uni0338" unicode="&#x338;" 
d="M300 600h100v-200h-100v-200h-100v-200h-100v200h100v200h100v200z" />
    <glyph glyph-name="uni0340" unicode="&#x340;" 
d="M200 800h100v-100h100v-100h-100v100h-100v100z" />
    <glyph glyph-name="uni0341" unicode="&#x341;" 
d="M300 800h100v-100h-100v-100h-100v100h100v100z" />
    <glyph glyph-name="uni0374" unicode="&#x374;" 
d="M300 700h100v-100h-100v-100h-100v100h100v100z" />
    <glyph glyph-name="uni0375" unicode="&#x375;" 
d="M300 0h100v-100h-100v-100h-100v100h100v100z" />
    <glyph glyph-name="uni037A" unicode="&#x37a;" 
d="M200 0h100v-100h100v-100h-200v200z" />
    <glyph glyph-name="uni037E" unicode="&#x37e;" 
d="M200 600h100v-100h100v-100h-100v-100h-100v100h-100v100h100v100zM200 200h200v-100h-100v-100h-100v-100h-100v100h100v200z" />
    <glyph glyph-name="tonos" unicode="&#x384;" 
d="M300 700h100v-100h-100v-100h-100v100h100v100z" />
    <glyph glyph-name="dieresistonos" unicode="&#x385;" 
d="M300 700h100v-100h100v-100h-100v100h-100v-100h-100v100h100v100zM0 600h100v-100h-100v100z" />
    <glyph glyph-name="Alphatonos" unicode="&#x386;" 
d="M100 700h100v-100h100v100h200v-100h100v-600h-100v200h-200v-200h-100v600h-100v-100h-100v100h100v100zM300 600v-300h200v300h-200z" />
    <glyph glyph-name="anoteleia" unicode="&#x387;" 
d="M200 500h100v-100h-100v100z" />
    <glyph glyph-name="Epsilontonos" unicode="&#x388;" 
d="M100 700h500v-100h-300v-200h200v-100h-200v-200h300v-100h-400v600h-100v-100h-100v100h100v100z" />
    <glyph glyph-name="Etatonos" unicode="&#x389;" 
d="M100 700h200v-300h200v300h100v-700h-100v300h-200v-300h-100v600h-100v-100h-100v100h100v100z" />
    <glyph glyph-name="Iotatonos" unicode="&#x38a;" 
d="M100 700h100v-100h-100v-100h-100v100h100v100zM300 700h300v-100h-100v-500h100v-100h-300v100h100v500h-100v100z" />
    <glyph glyph-name="Omicrontonos" unicode="&#x38c;" 
d="M100 700h100v-100h100v100h200v-100h100v-500h-100v-100h-200v100h-100v500h-100v-100h-100v100h100v100zM300 600v-500h200v500h-200z" />
    <glyph glyph-name="Upsilontonos" unicode="&#x38e;" 
d="M100 700h100v-100h-100v-100h-100v100h100v100zM300 700h100v-300h100v300h100v-300h-100v-400h-100v400h-100v300z" />
    <glyph glyph-name="Omegatonos" unicode="&#x38f;" 
d="M100 700h100v-100h100v100h200v-100h100v-400h-100v-100h100v-100h-400v100h100v100h-100v400h-100v-100h-100v100h100v100zM300 600v-400h200v400h-200z" />
    <glyph glyph-name="iotadieresistonos" unicode="&#x390;" 
d="M300 800h100v-100h100v-100h-100v100h-100v-100h-100v100h100v100zM0 700h100v-100h-100v100zM200 500h100v-400h100v100h100v-100h-100v-100h-100v100h-100v400z" />
    <glyph glyph-name="Alpha" unicode="&#x391;" 
d="M200 700h100v-100h100v-100h100v-500h-100v200h-300v-200h-100v500h100v100h100v100zM200 600v-100h-100v-200h300v200h-100v100h-100z" />
    <glyph glyph-name="Beta" unicode="&#x392;" 
d="M0 700h400v-100h100v-200h-100v-100h100v-200h-100v-100h-400v700zM100 600v-200h300v200h-300zM100 300v-200h300v200h-300z" />
    <glyph glyph-name="Gamma" unicode="&#x393;" 
d="M0 700h500v-100h-400v-600h-100v700z" />
    <glyph glyph-name="uni0394" unicode="&#x394;" 
d="M200 700h100v-100h100v-300h100v-300h-500v300h100v300h100v100zM200 600v-300h-100v-200h300v200h-100v300h-100z" />
    <glyph glyph-name="Epsilon" unicode="&#x395;" 
d="M0 700h500v-100h-400v-200h300v-100h-300v-200h400v-100h-500v700z" />
    <glyph glyph-name="Zeta" unicode="&#x396;" 
d="M0 700h500v-200h-100v-100h-100v-100h-100v-100h-100v-100h400v-100h-500v200h100v100h100v100h100v100h100v100h-400v100z" />
    <glyph glyph-name="Eta" unicode="&#x397;" 
d="M0 700h100v-300h300v300h100v-700h-100v300h-300v-300h-100v700z" />
    <glyph glyph-name="Theta" unicode="&#x398;" 
d="M100 700h300v-100h100v-500h-100v-100h-300v100h-100v500h100v100zM100 600v-200h300v200h-300zM100 300v-200h300v200h-300z" />
    <glyph glyph-name="Iota" unicode="&#x399;" 
d="M100 700h300v-100h-100v-500h100v-100h-300v100h100v500h-100v100z" />
    <glyph glyph-name="Kappa" unicode="&#x39a;" 
d="M0 700h100v-300h100v100h100v100h100v100h100v-100h-100v-100h-100v-100h-100v-100h100v-100h100v-100h100v-100h-100v100h-100v100h-100v100h-100v-300h-100v700z" />
    <glyph glyph-name="Lambda" unicode="&#x39b;" 
d="M200 700h100v-100h100v-300h100v-300h-100v300h-100v300h-100v-300h-100v-300h-100v300h100v300h100v100z" />
    <glyph glyph-name="Mu" unicode="&#x39c;" 
d="M0 700h100v-200h100v-100h100v100h100v200h100v-700h-100v400h-100v-100h-100v100h-100v-400h-100v700z" />
    <glyph glyph-name="Nu" unicode="&#x39d;" 
d="M0 700h100v-200h100v-100h100v-100h100v400h100v-700h-100v200h-100v100h-100v100h-100v-400h-100v700z" />
    <glyph glyph-name="Xi" unicode="&#x39e;" 
d="M0 700h500v-100h-500v100zM100 400h300v-100h-300v100zM0 100h500v-100h-500v100z" />
    <glyph glyph-name="Omicron" unicode="&#x39f;" 
d="M100 700h300v-100h100v-500h-100v-100h-300v100h-100v500h100v100zM100 600v-500h300v500h-300z" />
    <glyph glyph-name="Pi" unicode="&#x3a0;" 
d="M0 700h500v-700h-100v600h-300v-600h-100v700z" />
    <glyph glyph-name="Rho" unicode="&#x3a1;" 
d="M0 700h400v-100h100v-200h-100v-100h-300v-300h-100v700zM100 600v-200h300v200h-300z" />
    <glyph glyph-name="Sigma" unicode="&#x3a3;" 
d="M0 700h500v-100h-400v-100h100v-100h100v-100h-100v-100h-100v-100h400v-100h-500v200h100v100h100v100h-100v100h-100v200z" />
    <glyph glyph-name="Tau" unicode="&#x3a4;" 
d="M0 700h500v-100h-200v-600h-100v600h-200v100z" />
    <glyph glyph-name="Upsilon" unicode="&#x3a5;" 
d="M0 700h100v-200h100v-100h100v100h100v200h100v-200h-100v-100h-100v-400h-100v400h-100v100h-100v200z" />
    <glyph glyph-name="Phi" unicode="&#x3a6;" 
d="M200 700h100v-100h100v-100h100v-300h-100v-100h-100v-100h-100v100h-100v100h-100v300h100v100h100v100zM100 500v-300h100v300h-100zM300 500v-300h100v300h-100z" />
    <glyph glyph-name="Chi" unicode="&#x3a7;" 
d="M0 700h100v-200h100v-100h100v100h100v200h100v-200h-100v-100h-100v-100h100v-100h100v-200h-100v200h-100v100h-100v-100h-100v-200h-100v200h100v100h100v100h-100v100h-100v200z" />
    <glyph glyph-name="Psi" unicode="&#x3a8;" 
d="M0 700h100v-400h100v400h100v-400h100v400h100v-400h-100v-100h-100v-200h-100v200h-100v100h-100v400z" />
    <glyph glyph-name="uni03A9" unicode="&#x3a9;" 
d="M100 700h300v-100h100v-400h-100v-100h100v-100h-200v200h100v400h-300v-400h100v-200h-200v100h100v100h-100v400h100v100z" />
    <glyph glyph-name="Iotadieresis" unicode="&#x3aa;" 
d="M100 800h100v-100h-100v100zM300 800h100v-100h-100v100zM100 600h300v-100h-100v-400h100v-100h-300v100h100v400h-100v100z" />
    <glyph glyph-name="Upsilondieresis" unicode="&#x3ab;" 
d="M0 800h100v-100h-100v100zM400 800h100v-100h-100v100zM0 600h100v-200h100v-100h100v100h100v200h100v-200h-100v-100h-100v-300h-100v300h-100v100h-100v200z" />
    <glyph glyph-name="alphatonos" unicode="&#x3ac;" 
d="M300 800h100v-100h-100v-100h-100v100h100v100zM100 500h300v-100h100v-400h-100v100h-100v-100h-200v100h-100v300h100v100zM100 400v-300h200v100h100v200h-300z" />
    <glyph glyph-name="epsilontonos" unicode="&#x3ad;" 
d="M300 800h100v-100h-100v-100h-100v100h100v100zM100 500h300v-100h100v-100h-100v100h-300v-100h200v-100h-200v-100h300v100h100v-100h-100v-100h-300v100h-100v100h100v100h-100v100h100v100z" />
    <glyph glyph-name="etatonos" unicode="&#x3ae;" 
d="M300 800h100v-100h-100v-100h-100v100h100v100zM0 500h100v-100h100v100h200v-100h100v-600h-100v600h-200v-100h-100v-300h-100v500z" />
    <glyph glyph-name="iotatonos" unicode="&#x3af;" 
d="M200 800h100v-100h-100v-100h-100v100h100v100zM100 500h100v-400h100v100h100v-100h-100v-100h-100v100h-100v400z" />
    <glyph glyph-name="upsilondieresistonos" unicode="&#x3b0;" 
d="M300 800h100v-100h100v-100h-100v100h-100v-100h-100v100h100v100zM0 700h100v-100h-100v100zM0 500h100v-400h300v400h100v-400h-100v-100h-300v100h-100v400z" />
    <glyph glyph-name="alpha" unicode="&#x3b1;" 
d="M100 500h300v-100h100v-400h-100v100h-100v-100h-200v100h-100v300h100v100zM100 400v-300h200v100h100v200h-300z" />
    <glyph glyph-name="beta" unicode="&#x3b2;" 
d="M100 700h200v-100h100v-300h100v-200h-100v-100h-300v-200h-100v800h100v100zM100 600v-200h200v200h-200zM100 300v-200h300v200h-300z" />
    <glyph glyph-name="gamma" unicode="&#x3b3;" 
d="M0 500h100v-200h100v-200h100v200h100v200h100v-200h-100v-200h-100v-300h-100v300h-100v200h-100v200z" />
    <glyph glyph-name="delta" unicode="&#x3b4;" 
d="M100 700h300v-100h100v-100h-100v100h-300v-100h200v-100h100v-100h100v-200h-100v-100h-300v100h-100v300h100v100h-100v100h100v100zM100 400v-300h300v200h-100v100h-200z" />
    <glyph glyph-name="epsilon" unicode="&#x3b5;" 
d="M100 500h300v-100h100v-100h-100v100h-300v-100h200v-100h-200v-100h300v100h100v-100h-100v-100h-300v100h-100v100h100v100h-100v100h100v100z" />
    <glyph glyph-name="zeta" unicode="&#x3b6;" 
d="M0 700h500v-100h-200v-100h-100v-200h-100v-200h300v-100h100v-100h-100v-100h-200v100h200v100h-300v100h-100v200h100v200h100v100h-200v100z" />
    <glyph glyph-name="eta" unicode="&#x3b7;" 
d="M0 500h100v-100h100v100h200v-100h100v-600h-100v600h-200v-100h-100v-300h-100v500z" />
    <glyph glyph-name="theta" unicode="&#x3b8;" 
d="M200 700h200v-100h100v-500h-100v-100h-200v100h-100v500h100v100zM200 600v-200h200v200h-200zM200 300v-200h200v200h-200z" />
    <glyph glyph-name="iota" unicode="&#x3b9;" 
d="M100 500h100v-400h100v100h100v-100h-100v-100h-100v100h-100v400z" />
    <glyph glyph-name="kappa" unicode="&#x3ba;" 
d="M0 500h100v-200h200v100h100v100h100v-100h-100v-100h-100v-100h100v-100h100v-100h-100v100h-100v100h-200v-200h-100v500z" />
    <glyph glyph-name="lambda" unicode="&#x3bb;" 
d="M100 700h300v-100h100v-600h-100v300h-100v100h-200v-400h-100v400h100v100h-100v100h100v100zM100 600v-100h200v-100h100v200h-300z" />
    <glyph glyph-name="uni03BC" unicode="&#x3bc;" 
d="M0 500h100v-300h100v-100h100v100h100v300h100v-500h-100v100h-100v-100h-100v100h-100v-300h-100v700z" />
    <glyph glyph-name="nu" unicode="&#x3bd;" 
d="M0 500h100v-200h100v-200h100v200h100v200h100v-200h-100v-200h-100v-100h-100v100h-100v200h-100v200z" />
    <glyph glyph-name="xi" unicode="&#x3be;" 
d="M0 700h500v-100h-200v-100h-100v-100h200v-100h-200v-100h-100v-100h300v-100h100v-100h-100v-100h-200v100h200v100h-300v100h-100v100h100v100h100v100h-100v100h100v100h-200v100z" />
    <glyph glyph-name="omicron" unicode="&#x3bf;" 
d="M100 500h300v-100h100v-300h-100v-100h-300v100h-100v300h100v100zM100 400v-300h300v300h-300z" />
    <glyph glyph-name="pi" unicode="&#x3c0;" 
d="M0 500h500v-100h-100v-400h-100v400h-100v-400h-100v400h-100v100z" />
    <glyph glyph-name="rho" unicode="&#x3c1;" 
d="M100 500h300v-100h100v-300h-100v-100h-300v-200h-100v600h100v100zM100 400v-300h300v300h-300z" />
    <glyph glyph-name="sigma1" unicode="&#x3c2;" 
d="M100 500h300v-100h100v-100h-100v100h-300v-300h300v-100h100v-100h-100v-100h-200v100h200v100h-300v100h-100v300h100v100z" />
    <glyph glyph-name="sigma" unicode="&#x3c3;" 
d="M100 500h400v-100h-100v-100h100v-200h-100v-100h-300v100h-100v300h100v100zM100 400v-300h300v200h-100v100h-200z" />
    <glyph glyph-name="tau" unicode="&#x3c4;" 
d="M0 500h500v-100h-200v-300h100v-100h-100v100h-100v300h-200v100z" />
    <glyph glyph-name="upsilon" unicode="&#x3c5;" 
d="M0 500h100v-400h300v400h100v-400h-100v-100h-300v100h-100v400z" />
    <glyph glyph-name="phi" unicode="&#x3c6;" 
d="M100 500h100v-100h100v100h100v-100h100v-300h-100v-100h-100v-200h-100v200h-100v100h-100v300h100v100zM100 400v-300h100v300h-100zM300 400v-300h100v300h-100z" />
    <glyph glyph-name="chi" unicode="&#x3c7;" 
d="M0 500h100v-100h100v-200h100v200h100v100h100v-100h-100v-200h-100v-100h100v-200h100v-100h-100v100h-100v200h-100v-200h-100v-100h-100v100h100v200h100v100h-100v200h-100v100z" />
    <glyph glyph-name="psi" unicode="&#x3c8;" 
d="M0 500h100v-400h100v400h100v-400h100v400h100v-400h-100v-100h-100v-200h-100v200h-100v100h-100v400z" />
    <glyph glyph-name="omega" unicode="&#x3c9;" 
d="M0 500h100v-400h100v300h100v-300h100v400h100v-400h-100v-100h-100v100h-100v-100h-100v100h-100v400z" />
    <glyph glyph-name="iotadieresis" unicode="&#x3ca;" 
d="M0 700h100v-100h-100v100zM400 700h100v-100h-100v100zM200 500h100v-400h100v100h100v-100h-100v-100h-100v100h-100v400z" />
    <glyph glyph-name="upsilondieresis" unicode="&#x3cb;" 
d="M0 700h100v-100h-100v100zM400 700h100v-100h-100v100zM0 500h100v-400h300v400h100v-400h-100v-100h-300v100h-100v400z" />
    <glyph glyph-name="omicrontonos" unicode="&#x3cc;" 
d="M300 800h100v-100h-100v-100h-100v100h100v100zM100 500h300v-100h100v-300h-100v-100h-300v100h-100v300h100v100zM100 400v-300h300v300h-300z" />
    <glyph glyph-name="upsilontonos" unicode="&#x3cd;" 
d="M300 800h100v-100h-100v-100h-100v100h100v100zM0 500h100v-400h300v400h100v-400h-100v-100h-300v100h-100v400z" />
    <glyph glyph-name="omegatonos" unicode="&#x3ce;" 
d="M300 800h100v-100h-100v-100h-100v100h100v100zM0 500h100v-400h100v300h100v-300h100v400h100v-400h-100v-100h-100v100h-100v-100h-100v100h-100v400z" />
    <glyph glyph-name="uni03D0" unicode="&#x3d0;" 
d="M100 700h200v-100h100v-100h-100v-100h100v-100h100v-200h-100v-100h-300v100h-100v500h100v100zM100 600v-200h100v100h100v100h-200zM100 300v-200h300v200h-300z" />
    <glyph glyph-name="theta1" unicode="&#x3d1;" 
d="M100 700h200v-100h100v-100h100v-100h-100v-300h-100v-100h-200v100h-100v200h100v-200h200v300h-200v100h-100v100h100v100zM100 600v-100h200v100h-200z" />
    <glyph glyph-name="Upsilon1" unicode="&#x3d2;" 
d="M100 700h100v-100h100v100h100v-100h100v-100h-100v100h-100v-600h-100v600h-100v-100h-100v100h100v100z" />
    <glyph glyph-name="uni03D3" unicode="&#x3d3;" 
d="M100 700h100v-100h100v100h100v-100h100v-100h-100v100h-100v-600h-100v600h-100v-100h-100v100h100v100zM0 400h100v-200h-100v200z" />
    <glyph glyph-name="uni03D4" unicode="&#x3d4;" 
d="M0 800h100v-100h-100v100zM400 800h100v-100h-100v100zM100 600h100v-100h100v100h100v-100h100v-100h-100v100h-100v-500h-100v500h-100v-100h-100v100h100v100z" />
    <glyph glyph-name="phi1" unicode="&#x3d5;" 
d="M200 700h100v-200h100v-100h100v-300h-100v-100h-100v-200h-100v200h-100v100h-100v300h100v100h100v200zM100 400v-300h100v300h-100zM300 400v-300h100v300h-100z" />
    <glyph glyph-name="omega1" unicode="&#x3d6;" 
d="M0 500h500v-400h-100v-100h-100v100h-100v-100h-100v100h-100v400zM100 400v-300h100v200h100v-200h100v300h-300z" />
    <glyph glyph-name="uni03D7" unicode="&#x3d7;" 
d="M300 700h100v-100h-100v-100h-100v100h100v100zM0 500h100v-100h100v-100h100v100h100v100h100v-100h-100v-100h-100v-200h200v-200h-100v-100h-300v100h300v100h-100v100h-200v-100h-100v100h100v300h-100v100z" />
    <glyph glyph-name="uni03DA" unicode="&#x3da;" 
d="M200 700h200v-100h100v-100h-100v100h-200v-100h-100v-300h300v-100h100v-100h-100v-100h-100v100h100v100h-300v100h-100v300h100v100h100v100z" />
    <glyph glyph-name="uni03DB" unicode="&#x3db;" 
d="M400 600h100v-100h-100v-100h-300v-300h300v-100h100v-100h-100v-100h-200v100h200v100h-300v100h-100v300h100v100h300v100z" />
    <glyph glyph-name="uni03DC" unicode="&#x3dc;" 
d="M0 700h500v-100h-400v-200h300v-100h-300v-300h-100v700z" />
    <glyph glyph-name="uni03DD" unicode="&#x3dd;" 
d="M100 500h400v-100h-300v-200h200v-100h-200v-300h-100v700z" />
    <glyph glyph-name="uni03DE" unicode="&#x3de;" 
d="M0 700h100v-400h100v100h100v100h100v100h100v-600h-100v400h-100v-100h-100v-100h-100v-100h-100v600z" />
    <glyph glyph-name="uni03DF" unicode="&#x3df;" 
d="M200 700h100v-100h-100v-200h-100v-100h400v-200h-100v-200h-100v-100h-100v100h100v200h100v100h-400v200h100v200h100v100z" />
    <glyph glyph-name="uni03E0" unicode="&#x3e0;" 
d="M200 700h100v-100h100v-300h100v-300h-100v200h-100v-200h-100v200h100v400h-100v-300h-100v-300h-100v300h100v300h100v100z" />
    <glyph glyph-name="uni03E1" unicode="&#x3e1;" 
d="M0 700h200v-100h100v-100h100v-200h100v-500h-100v400h-100v-100h-100v100h-100v100h100v100h100v100h-100v100h-200v100zM200 300v-100h100v100h-100z" />
    <glyph glyph-name="uni03F0" unicode="&#x3f0;" 
d="M0 500h100v-100h100v-100h100v100h100v100h100v-100h-100v-100h-100v-200h200v-100h-200v100h-200v-100h-100v100h100v300h-100v100z" />
    <glyph glyph-name="uni03F1" unicode="&#x3f1;" 
d="M100 500h300v-100h100v-300h-100v-100h-300v-100h300v-100h-300v100h-100v500h100v100zM100 400v-300h300v300h-300z" />
    <glyph glyph-name="uni03F2" unicode="&#x3f2;" 
d="M100 500h300v-100h100v-100h-100v100h-300v-300h300v100h100v-100h-100v-100h-300v100h-100v300h100v100z" />
    <glyph glyph-name="uni03F3" unicode="&#x3f3;" 
d="M400 700h100v-100h-100v100zM300 500h200v-600h-100v-100h-200v100h-100v200h100v-200h200v500h-100v100z" />
    <glyph glyph-name="uni03F4" unicode="&#x3f4;" 
d="M100 700h300v-100h100v-500h-100v-100h-300v100h-100v500h100v100zM100 600v-200h300v200h-300zM100 300v-200h300v200h-300z" />
    <glyph glyph-name="uni03F5" unicode="&#x3f5;" 
d="M200 500h300v-100h-300v-100h200v-100h-200v-100h300v-100h-300v100h-100v300h100v100z" />
    <glyph glyph-name="uni0401" unicode="&#x401;" 
d="M100 800h100v-100h-100v100zM300 800h100v-100h-100v100zM0 600h500v-100h-400v-100h300v-100h-300v-200h400v-100h-500v600z" />
    <glyph glyph-name="uni0402" unicode="&#x402;" 
d="M0 700h300v-100h-100v-200h200v-100h100v-400h-100v-100h-200v100h200v400h-200v-300h-100v600h-100v100z" />
    <glyph glyph-name="uni0403" unicode="&#x403;" 
d="M300 800h100v-100h-100v-100h200v-100h-400v-500h-100v600h200v100h100v100z" />
    <glyph glyph-name="uni0404" unicode="&#x404;" 
d="M100 700h300v-100h100v-100h-100v100h-300v-200h200v-100h-200v-200h300v100h100v-100h-100v-100h-300v100h-100v500h100v100z" />
    <glyph glyph-name="uni0405" unicode="&#x405;" 
d="M100 700h300v-100h100v-100h-100v100h-300v-200h300v-100h100v-200h-100v-100h-300v100h-100v100h100v-100h300v200h-300v100h-100v200h100v100z" />
    <glyph glyph-name="uni0406" unicode="&#x406;" 
d="M100 700h300v-100h-100v-500h100v-100h-300v100h100v500h-100v100z" />
    <glyph glyph-name="uni0407" unicode="&#x407;" 
d="M100 800h100v-100h-100v100zM300 800h100v-100h-100v100zM100 600h300v-100h-100v-400h100v-100h-300v100h100v400h-100v100z" />
    <glyph glyph-name="uni0408" unicode="&#x408;" 
d="M200 700h300v-600h-100v-100h-300v100h-100v100h100v-100h300v500h-200v100z" />
    <glyph glyph-name="uni0409" unicode="&#x409;" 
d="M200 700h200v-300h100v-100h100v-200h-100v-100h-200v600h-100v-200h-100v-400h-100v400h100v200h100v100zM400 300v-200h100v200h-100z" />
    <glyph glyph-name="uni040A" unicode="&#x40a;" 
d="M0 700h100v-300h100v300h100v-300h100v-100h100v-200h-100v-100h-200v300h-100v-300h-100v700zM300 300v-200h100v200h-100z" />
    <glyph glyph-name="uni040B" unicode="&#x40b;" 
d="M0 700h300v-100h-100v-200h200v-100h100v-300h-100v300h-200v-300h-100v600h-100v100z" />
    <glyph glyph-name="uni040C" unicode="&#x40c;" 
d="M300 800h100v-100h-100v-100h-100v100h100v100zM0 600h100v-200h200v100h100v100h100v-100h-100v-100h-100v-100h100v-100h100v-200h-100v200h-100v100h-200v-300h-100v600z" />
    <glyph glyph-name="uni040E" unicode="&#x40e;" 
d="M100 800h100v-100h100v100h100v-100h-100v-100h-100v100h-100v100zM0 600h100v-200h100v-100h100v100h100v200h100v-200h-100v-100h-100v-100h-100v-100h-100v-100h-100v100h100v100h100v100h-100v100h-100v200z" />
    <glyph glyph-name="uni040F" unicode="&#x40f;" 
d="M0 700h100v-600h300v600h100v-700h-200v-100h-100v100h-200v700z" />
    <glyph glyph-name="uni0410" unicode="&#x410;" 
d="M200 700h100v-100h100v-100h100v-500h-100v200h-300v-200h-100v500h100v100h100v100zM200 600v-100h-100v-200h300v200h-100v100h-100z" />
    <glyph glyph-name="uni0411" unicode="&#x411;" 
d="M0 700h400v-100h-300v-200h300v-100h100v-200h-100v-100h-400v700zM100 300v-200h300v200h-300z" />
    <glyph glyph-name="uni0412" unicode="&#x412;" 
d="M0 700h400v-100h100v-200h-100v-100h100v-200h-100v-100h-400v700zM100 600v-200h300v200h-300zM100 300v-200h300v200h-300z" />
    <glyph glyph-name="uni0413" unicode="&#x413;" 
d="M0 700h500v-100h-400v-600h-100v700z" />
    <glyph glyph-name="uni0414" unicode="&#x414;" 
d="M300 700h200v-800h-100v100h-300v-100h-100v200h100v300h100v200h100v100zM300 600v-200h-100v-300h200v500h-100z" />
    <glyph glyph-name="uni0415" unicode="&#x415;" 
d="M0 700h500v-100h-400v-200h300v-100h-300v-200h400v-100h-500v700z" />
    <glyph glyph-name="uni0416" unicode="&#x416;" 
d="M0 700h100v-300h100v300h100v-300h100v300h100v-300h-100v-100h100v-300h-100v300h-100v-300h-100v300h-100v-300h-100v300h100v100h-100v300z" />
    <glyph glyph-name="uni0417" unicode="&#x417;" 
d="M100 700h300v-100h100v-200h-100v-100h100v-200h-100v-100h-300v100h-100v100h100v-100h300v200h-200v100h200v200h-300v-100h-100v100h100v100z" />
    <glyph glyph-name="uni0418" unicode="&#x418;" 
d="M0 700h100v-400h100v100h100v100h100v200h100v-700h-100v400h-100v-100h-100v-100h-100v-200h-100v700z" />
    <glyph glyph-name="uni0419" unicode="&#x419;" 
d="M100 800h100v-100h100v100h100v-100h-100v-100h-100v100h-100v100zM0 600h100v-300h100v100h100v100h100v100h100v-600h-100v400h-100v-100h-100v-100h-100v-200h-100v600z" />
    <glyph glyph-name="uni041A" unicode="&#x41a;" 
d="M0 700h100v-300h100v100h100v100h100v100h100v-100h-100v-100h-100v-100h-100v-100h100v-100h100v-100h100v-100h-100v100h-100v100h-100v100h-100v-300h-100v700z" />
    <glyph glyph-name="uni041B" unicode="&#x41b;" 
d="M200 700h300v-700h-100v600h-200v-500h-100v-100h-100v100h100v500h100v100z" />
    <glyph glyph-name="uni041C" unicode="&#x41c;" 
d="M0 700h100v-200h100v-100h100v100h100v200h100v-700h-100v400h-100v-100h-100v100h-100v-400h-100v700z" />
    <glyph glyph-name="uni041D" unicode="&#x41d;" 
d="M0 700h100v-300h300v300h100v-700h-100v300h-300v-300h-100v700z" />
    <glyph glyph-name="uni041E" unicode="&#x41e;" 
d="M100 700h300v-100h100v-500h-100v-100h-300v100h-100v500h100v100zM100 600v-500h300v500h-300z" />
    <glyph glyph-name="uni041F" unicode="&#x41f;" 
d="M0 700h500v-700h-100v600h-300v-600h-100v700z" />
    <glyph glyph-name="uni0420" unicode="&#x420;" 
d="M0 700h400v-100h100v-200h-100v-100h-300v-300h-100v700zM100 600v-200h300v200h-300z" />
    <glyph glyph-name="uni0421" unicode="&#x421;" 
d="M100 700h300v-100h100v-100h-100v100h-300v-500h300v100h100v-100h-100v-100h-300v100h-100v500h100v100z" />
    <glyph glyph-name="uni0422" unicode="&#x422;" 
d="M0 700h500v-100h-200v-600h-100v600h-200v100z" />
    <glyph glyph-name="uni0423" unicode="&#x423;" 
d="M0 700h100v-300h100v-100h100v100h100v300h100v-300h-100v-100h-100v-100h-100v-100h-100v-100h-100v100h100v100h100v100h-100v100h-100v300z" />
    <glyph glyph-name="uni0424" unicode="&#x424;" 
d="M200 700h100v-100h100v-100h100v-300h-100v-100h-100v-100h-100v100h-100v100h-100v300h100v100h100v100zM100 500v-300h100v300h-100zM300 500v-300h100v300h-100z" />
    <glyph glyph-name="uni0425" unicode="&#x425;" 
d="M0 700h100v-200h100v-100h100v100h100v200h100v-200h-100v-100h-100v-100h100v-100h100v-200h-100v200h-100v100h-100v-100h-100v-200h-100v200h100v100h100v100h-100v100h-100v200z" />
    <glyph glyph-name="uni0426" unicode="&#x426;" 
d="M0 700h100v-600h200v600h100v-600h100v-300h-100v200h-400v700z" />
    <glyph glyph-name="uni0427" unicode="&#x427;" 
d="M0 700h100v-300h300v300h100v-700h-100v300h-300v100h-100v300z" />
    <glyph glyph-name="uni0428" unicode="&#x428;" 
d="M0 700h100v-600h100v600h100v-600h100v600h100v-700h-500v700z" />
    <glyph glyph-name="uni0429" unicode="&#x429;" 
d="M0 700h100v-600h100v600h100v-600h100v600h100v-900h-100v200h-400v700z" />
    <glyph glyph-name="uni042A" unicode="&#x42a;" 
d="M0 700h200v-300h200v-100h100v-200h-100v-100h-300v600h-100v100zM200 300v-200h200v200h-200z" />
    <glyph glyph-name="uni042B" unicode="&#x42b;" 
d="M0 700h100v-300h200v-100h100v400h100v-700h-100v100h-100v-100h-300v700zM100 300v-200h200v200h-200z" />
    <glyph glyph-name="uni042C" unicode="&#x42c;" 
d="M100 700h100v-300h200v-100h100v-200h-100v-100h-300v700zM200 300v-200h200v200h-200z" />
    <glyph glyph-name="uni042D" unicode="&#x42d;" 
d="M100 700h300v-100h100v-500h-100v-100h-300v100h-100v100h100v-100h300v200h-200v100h200v200h-300v-100h-100v100h100v100z" />
    <glyph glyph-name="uni042E" unicode="&#x42e;" 
d="M0 700h100v-300h100v200h100v100h100v-100h100v-500h-100v-100h-100v100h-100v200h-100v-300h-100v700zM300 600v-500h100v500h-100z" />
    <glyph glyph-name="uni042F" unicode="&#x42f;" 
d="M100 700h400v-700h-100v300h-100v-100h-100v-100h-100v-100h-100v100h100v100h100v100h-100v100h-100v200h100v100zM100 600v-200h300v200h-300z" />
    <glyph glyph-name="uni0430" unicode="&#x430;" 
d="M100 500h300v-100h100v-400h-400v100h-100v100h100v100h300v100h-300v100zM100 200v-100h300v100h-300z" />
    <glyph glyph-name="uni0431" unicode="&#x431;" 
d="M100 700h400v-100h-400v-100h300v-100h100v-300h-100v-100h-300v100h-100v300h100v100h-100v100h100v100zM100 400v-300h300v300h-300z" />
    <glyph glyph-name="uni0432" unicode="&#x432;" 
d="M0 500h400v-100h100v-100h-100v-100h100v-100h-100v-100h-400v500zM100 400v-100h300v100h-300zM100 200v-100h300v100h-300z" />
    <glyph glyph-name="uni0433" unicode="&#x433;" 
d="M100 500h400v-100h-300v-400h-100v500z" />
    <glyph glyph-name="uni0434" unicode="&#x434;" 
d="M200 500h200v-400h100v-200h-100v100h-300v-100h-100v200h100v300h100v100zM200 400v-300h100v300h-100z" />
    <glyph glyph-name="uni0435" unicode="&#x435;" 
d="M100 500h300v-100h100v-200h-400v-100h300v-100h-300v100h-100v300h100v100zM100 400v-100h300v100h-300z" />
    <glyph glyph-name="uni0436" unicode="&#x436;" 
d="M0 500h100v-200h100v200h100v-200h100v200h100v-200h-100v-100h100v-200h-100v200h-100v-200h-100v200h-100v-200h-100v200h100v100h-100v200z" />
    <glyph glyph-name="uni0437" unicode="&#x437;" 
d="M100 500h300v-100h100v-100h-100v-100h100v-100h-100v-100h-300v100h-100v100h100v-100h300v100h-200v100h200v100h-300v-100h-100v100h100v100z" />
    <glyph glyph-name="uni0438" unicode="&#x438;" 
d="M0 500h100v-300h100v100h100v100h100v100h100v-500h-100v300h-100v-100h-100v-100h-100v-100h-100v500z" />
    <glyph glyph-name="uni0439" unicode="&#x439;" 
d="M100 700h100v-100h100v100h100v-100h-100v-100h-100v100h-100v100zM0 500h100v-300h100v100h100v100h100v100h100v-500h-100v300h-100v-100h-100v-100h-100v-100h-100v500z" />
    <glyph glyph-name="uni043A" unicode="&#x43a;" 
d="M0 500h100v-200h200v100h100v100h100v-100h-100v-100h-100v-100h100v-100h100v-100h-100v100h-100v100h-200v-200h-100v500z" />
    <glyph glyph-name="uni043B" unicode="&#x43b;" 
d="M200 500h300v-500h-100v400h-200v-300h-100v-100h-100v100h100v300h100v100z" />
    <glyph glyph-name="uni043C" unicode="&#x43c;" 
d="M0 500h100v-100h100v-100h100v100h100v100h100v-500h-100v300h-100v-100h-100v100h-100v-300h-100v500z" />
    <glyph glyph-name="uni043D" unicode="&#x43d;" 
d="M0 500h100v-200h300v200h100v-500h-100v200h-300v-200h-100v500z" />
    <glyph glyph-name="uni043E" unicode="&#x43e;" 
d="M100 500h300v-100h100v-300h-100v-100h-300v100h-100v300h100v100zM100 400v-300h300v300h-300z" />
    <glyph glyph-name="uni043F" unicode="&#x43f;" 
d="M0 500h500v-500h-100v400h-300v-400h-100v500z" />
    <glyph glyph-name="uni0440" unicode="&#x440;" 
d="M0 500h100v-100h100v100h200v-100h100v-300h-100v-100h-200v100h-100v-300h-100v700zM200 400v-100h-100v-100h100v-100h200v300h-200z" />
    <glyph glyph-name="uni0441" unicode="&#x441;" 
d="M100 500h300v-100h100v-100h-100v100h-300v-300h300v100h100v-100h-100v-100h-300v100h-100v300h100v100z" />
    <glyph glyph-name="uni0442" unicode="&#x442;" 
d="M0 500h500v-100h-200v-400h-100v400h-200v100z" />
    <glyph glyph-name="uni0443" unicode="&#x443;" 
d="M0 500h100v-300h300v300h100v-600h-100v-100h-300v100h-100v100h100v-100h300v200h-300v100h-100v300z" />
    <glyph glyph-name="uni0444" unicode="&#x444;" 
d="M200 700h100v-200h100v-100h100v-300h-100v-100h-100v-200h-100v200h-100v100h-100v300h100v100h100v200zM100 400v-300h100v300h-100zM300 400v-300h100v300h-100z" />
    <glyph glyph-name="uni0445" unicode="&#x445;" 
d="M0 500h100v-100h100v-100h100v100h100v100h100v-100h-100v-100h-100v-100h100v-100h100v-100h-100v100h-100v100h-100v-100h-100v-100h-100v100h100v100h100v100h-100v100h-100v100z" />
    <glyph glyph-name="uni0446" unicode="&#x446;" 
d="M0 500h100v-400h200v400h100v-400h100v-300h-100v200h-400v500z" />
    <glyph glyph-name="uni0447" unicode="&#x447;" 
d="M0 500h100v-200h300v200h100v-500h-100v200h-300v100h-100v200z" />
    <glyph glyph-name="uni0448" unicode="&#x448;" 
d="M0 500h100v-400h100v400h100v-400h100v400h100v-500h-500v500z" />
    <glyph glyph-name="uni0449" unicode="&#x449;" 
d="M0 500h100v-400h100v400h100v-400h100v400h100v-700h-100v200h-400v500z" />
    <glyph glyph-name="uni044A" unicode="&#x44a;" 
d="M0 500h200v-200h200v-100h100v-100h-100v-100h-300v400h-100v100zM200 200v-100h200v100h-200z" />
    <glyph glyph-name="uni044B" unicode="&#x44b;" 
d="M0 500h100v-200h200v-100h100v300h100v-500h-100v100h-100v-100h-300v500zM100 200v-100h200v100h-200z" />
    <glyph glyph-name="uni044C" unicode="&#x44c;" 
d="M100 500h100v-200h200v-100h100v-100h-100v-100h-300v500zM200 200v-100h200v100h-200z" />
    <glyph glyph-name="uni044D" unicode="&#x44d;" 
d="M100 500h300v-100h100v-300h-100v-100h-300v100h-100v100h100v-100h300v100h-200v100h200v100h-300v-100h-100v100h100v100z" />
    <glyph glyph-name="uni044E" unicode="&#x44e;" 
d="M0 500h100v-200h100v100h100v100h100v-100h100v-300h-100v-100h-100v100h-100v100h-100v-200h-100v500zM300 400v-300h100v300h-100z" />
    <glyph glyph-name="uni044F" unicode="&#x44f;" 
d="M100 500h400v-500h-100v200h-300v-200h-100v200h100v100h-100v100h100v100zM100 400v-100h300v100h-300z" />
    <glyph glyph-name="uni0451" unicode="&#x451;" 
d="M100 700h100v-100h-100v100zM300 700h100v-100h-100v100zM100 500h300v-100h100v-200h-400v-100h300v-100h-300v100h-100v300h100v100zM100 400v-100h300v100h-300z" />
    <glyph glyph-name="uni0452" unicode="&#x452;" 
d="M100 700h100v-100h200v-100h-200v-100h200v-100h100v-400h-100v-100h-200v100h200v400h-200v-300h-100v500h-100v100h100v100z" />
    <glyph glyph-name="uni0453" unicode="&#x453;" 
d="M300 800h100v-100h-100v-100h-100v100h100v100zM100 500h400v-100h-300v-400h-100v500z" />
    <glyph glyph-name="uni0454" unicode="&#x454;" 
d="M200 500h200v-100h100v-100h-100v100h-200v-100h100v-100h-100v-100h200v100h100v-100h-100v-100h-200v100h-100v300h100v100z" />
    <glyph glyph-name="uni0455" unicode="&#x455;" 
d="M100 500h300v-100h-300v-100h300v-100h100v-100h-100v-100h-400v100h400v100h-300v100h-100v100h100v100z" />
    <glyph glyph-name="uni0456" unicode="&#x456;" 
d="M200 700h100v-100h-100v100zM100 500h200v-400h100v-100h-300v100h100v300h-100v100z" />
    <glyph glyph-name="uni0457" unicode="&#x457;" 
d="M100 700h100v-100h-100v100zM300 700h100v-100h-100v100zM100 500h200v-400h100v-100h-300v100h100v300h-100v100z" />
    <glyph glyph-name="uni0458" unicode="&#x458;" 
d="M400 700h100v-100h-100v100zM300 500h200v-600h-100v-100h-200v100h-100v200h100v-200h200v500h-100v100z" />
    <glyph glyph-name="uni0459" unicode="&#x459;" 
d="M200 500h200v-200h100v-100h100v-100h-100v-100h-200v400h-100v-100h-100v-300h-100v300h100v100h100v100zM400 200v-100h100v100h-100z" />
    <glyph glyph-name="uni045A" unicode="&#x45a;" 
d="M0 500h100v-200h100v200h100v-200h100v-100h100v-100h-100v-100h-200v200h-100v-200h-100v500zM300 200v-100h100v100h-100z" />
    <glyph glyph-name="uni045B" unicode="&#x45b;" 
d="M100 700h100v-100h200v-100h-200v-100h200v-100h100v-300h-100v300h-200v-300h-100v500h-100v100h100v100z" />
    <glyph glyph-name="uni045C" unicode="&#x45c;" 
d="M300 700h100v-100h-100v-100h-100v100h100v100zM0 500h100v-200h200v100h100v100h100v-100h-100v-100h-100v-100h100v-100h100v-100h-100v100h-100v100h-200v-200h-100v500z" />
    <glyph glyph-name="uni045E" unicode="&#x45e;" 
d="M100 700h100v-100h100v100h100v-100h-100v-100h-100v100h-100v100zM0 500h100v-300h200v100h100v200h100v-600h-100v-100h-300v100h-100v100h100v-100h300v300h-100v-100h-200v100h-100v300z" />
    <glyph glyph-name="uni045F" unicode="&#x45f;" 
d="M0 500h100v-400h300v400h100v-500h-200v-100h-100v100h-200v500z" />
    <glyph glyph-name="uni0462" unicode="&#x462;" 
d="M100 700h100v-100h200v-100h-200v-100h200v-100h100v-200h-100v-100h-300v500h-100v100h100v100zM200 300v-200h200v200h-200z" />
    <glyph glyph-name="uni0463" unicode="&#x463;" 
d="M100 700h100v-200h200v-100h-200v-100h200v-100h100v-100h-100v-100h-300v400h-100v100h100v200zM200 200v-100h200v100h-200z" />
    <glyph glyph-name="uni0470" unicode="&#x470;" 
d="M0 700h100v-300h100v300h100v-300h100v300h100v-300h-100v-100h-100v-300h-100v300h-100v100h-100v300z" />
    <glyph glyph-name="uni0471" unicode="&#x471;" 
d="M0 500h100v-200h100v200h100v-200h100v200h100v-200h-100v-100h-100v-200h-100v200h-100v100h-100v200z" />
    <glyph glyph-name="uni0472" unicode="&#x472;" 
d="M100 700h300v-100h100v-500h-100v-100h-300v100h-100v500h100v100zM100 600v-200h300v200h-300zM100 300v-200h300v200h-300z" />
    <glyph glyph-name="uni0473" unicode="&#x473;" 
d="M100 500h300v-100h100v-300h-100v-100h-300v100h-100v300h100v100zM100 400v-100h300v100h-300zM100 200v-100h300v100h-300z" />
    <glyph glyph-name="uni0474" unicode="&#x474;" 
d="M0 700h100v-300h100v-300h100v500h100v100h100v-100h-100v-500h-100v-100h-100v100h-100v300h-100v300z" />
    <glyph glyph-name="uni0475" unicode="&#x475;" 
d="M0 500h100v-200h100v-200h100v300h100v100h100v-100h-100v-300h-100v-100h-100v100h-100v200h-100v200z" />
    <glyph glyph-name="uni0476" unicode="&#x476;" 
d="M100 800h100v-100h100v100h100v-100h100v-100h-100v100h-100v-100h-100v100h-100v100zM0 600h100v-200h100v-300h100v300h100v100h100v-100h-100v-300h-100v-100h-100v100h-100v300h-100v200z" />
    <glyph glyph-name="uni0477" unicode="&#x477;" 
d="M100 700h100v-100h100v100h100v-100h100v-100h-100v100h-100v-100h-100v100h-100v100zM0 500h100v-200h100v-200h100v200h100v100h100v-100h-100v-200h-100v-100h-100v100h-100v200h-100v200z" />
    <glyph glyph-name="uni0490" unicode="&#x490;" 
d="M400 800h100v-200h-400v-600h-100v700h400v100z" />
    <glyph glyph-name="uni0491" unicode="&#x491;" 
d="M400 600h100v-200h-300v-400h-100v500h300v100z" />
    <glyph glyph-name="uni0492" unicode="&#x492;" 
d="M100 700h400v-100h-300v-200h200v-100h-200v-300h-100v300h-100v100h100v300z" />
    <glyph glyph-name="uni0493" unicode="&#x493;" 
d="M100 500h400v-100h-300v-100h200v-100h-200v-200h-100v200h-100v100h100v200z" />
    <glyph glyph-name="uni0496" unicode="&#x496;" 
d="M0 700h100v-300h100v300h100v-300h100v300h100v-300h-100v-100h100v-300h100v-200h-100v200h-100v300h-100v-300h-100v300h-100v-300h-100v300h100v100h-100v300z" />
    <glyph glyph-name="uni0497" unicode="&#x497;" 
d="M0 500h100v-200h100v200h100v-200h100v200h100v-200h-100v-100h100v-200h100v-200h-100v200h-100v200h-100v-200h-100v200h-100v-200h-100v200h100v100h-100v200z" />
    <glyph glyph-name="uni049A" unicode="&#x49a;" 
d="M0 700h100v-300h100v100h100v100h100v100h100v-100h-100v-100h-100v-100h-100v-100h100v-100h100v-100h100v-100h100v-200h-100v200h-100v100h-100v100h-100v100h-100v-300h-100v700z" />
    <glyph glyph-name="uni049B" unicode="&#x49b;" 
d="M0 500h100v-200h200v100h100v100h100v-100h-100v-100h-100v-100h100v-100h100v-100h100v-200h-100v200h-100v100h-100v100h-200v-200h-100v500z" />
    <glyph glyph-name="uni04AE" unicode="&#x4ae;" 
d="M0 700h100v-200h100v-100h100v100h100v200h100v-200h-100v-100h-100v-400h-100v400h-100v100h-100v200z" />
    <glyph glyph-name="uni04AF" unicode="&#x4af;" 
d="M0 500h100v-200h100v-100h100v100h100v200h100v-200h-100v-100h-100v-400h-100v400h-100v100h-100v200z" />
    <glyph glyph-name="uni04B0" unicode="&#x4b0;" 
d="M0 700h100v-200h100v-100h100v100h100v200h100v-200h-100v-100h100v-100h-200v-300h-100v300h-200v100h100v100h-100v200z" />
    <glyph glyph-name="uni04B1" unicode="&#x4b1;" 
d="M0 500h100v-200h100v-100h100v100h100v200h100v-200h-100v-100h100v-100h-200v-300h-100v300h-200v100h100v100h-100v200z" />
    <glyph glyph-name="uni04B2" unicode="&#x4b2;" 
d="M0 700h100v-200h100v-100h100v100h100v200h100v-200h-100v-100h-100v-100h100v-100h100v-200h100v-200h-100v200h-100v200h-100v100h-100v-100h-100v-200h-100v200h100v100h100v100h-100v100h-100v200z" />
    <glyph glyph-name="uni04B3" unicode="&#x4b3;" 
d="M0 500h100v-100h100v-100h100v100h100v100h100v-100h-100v-100h-100v-100h100v-100h100v-100h100v-200h-100v200h-100v100h-100v100h-100v-100h-100v-100h-100v100h100v100h100v100h-100v100h-100v100z" />
    <glyph glyph-name="uni04BA" unicode="&#x4ba;" 
d="M0 700h100v-200h300v-100h100v-400h-100v400h-300v-400h-100v700z" />
    <glyph glyph-name="uni04BB" unicode="&#x4bb;" 
d="M100 700h100v-300h100v100h100v-100h100v-400h-100v400h-100v-100h-100v-300h-100v700z" />
    <glyph glyph-name="uni04D8" unicode="&#x4d8;" 
d="M100 700h300v-100h100v-500h-100v-100h-300v100h-100v300h400v200h-300v-100h-100v100h100v100zM100 300v-200h300v200h-300z" />
    <glyph glyph-name="uni04D9" unicode="&#x4d9;" 
d="M100 500h300v-100h100v-300h-100v-100h-300v100h-100v200h400v100h-300v100zM100 200v-100h300v100h-300z" />
    <glyph glyph-name="uni04E2" unicode="&#x4e2;" 
d="M100 800h300v-100h-300v100zM100 600h300v-100h-100v-400h100v-100h-300v100h100v400h-100v100z" />
    <glyph glyph-name="uni04E3" unicode="&#x4e3;" 
d="M100 700h300v-100h-300v100zM100 500h200v-400h100v-100h-300v100h100v300h-100v100z" />
    <glyph glyph-name="uni04E8" unicode="&#x4e8;" 
d="M100 700h300v-100h100v-500h-100v-100h-300v100h-100v500h100v100zM100 600v-200h300v200h-300zM100 300v-200h300v200h-300z" />
    <glyph glyph-name="uni04E9" unicode="&#x4e9;" 
d="M100 500h300v-100h100v-300h-100v-100h-300v100h-100v300h100v100zM100 400v-100h300v100h-300zM100 200v-100h300v100h-300z" />
    <glyph glyph-name="uni04EE" unicode="&#x4ee;" 
d="M100 800h300v-100h-300v100zM0 600h100v-500h300v500h100v-500h-100v-100h-300v100h-100v500z" />
    <glyph glyph-name="uni04EF" unicode="&#x4ef;" 
d="M100 700h300v-100h-300v100zM0 500h100v-400h200v100h100v300h100v-500h-100v100h-100v-100h-200v100h-100v400z" />
    <glyph glyph-name="uni05D0" unicode="&#x5d0;" 
d="M0 500h100v-100h100v-100h200v100h-100v100h100v-100h100v-100h-100v-200h100v-100h-100v100h-100v100h-100v100h-100v-200h100v-100h-200v300h100v100h-100v100z" />
    <glyph glyph-name="uni05D1" unicode="&#x5d1;" 
d="M0 500h400v-100h100v-400h-500v100h400v300h-400v100z" />
    <glyph glyph-name="uni05D2" unicode="&#x5d2;" 
d="M200 500h200v-400h100v-100h-100v100h-100v-100h-200v100h200v300h-100v100z" />
    <glyph glyph-name="uni05D3" unicode="&#x5d3;" 
d="M0 500h500v-100h-100v-400h-100v400h-300v100z" />
    <glyph glyph-name="uni05D4" unicode="&#x5d4;" 
d="M0 500h500v-100h-100v-400h-100v400h-300v100zM0 300h100v-300h-100v300z" />
    <glyph glyph-name="uni05D5" unicode="&#x5d5;" 
d="M200 500h200v-500h-100v400h-100v100z" />
    <glyph glyph-name="uni05D6" unicode="&#x5d6;" 
d="M100 600h100v-100h200v-100h-100v-400h-100v500h-100v100z" />
    <glyph glyph-name="uni05D7" unicode="&#x5d7;" 
d="M0 500h500v-500h-100v400h-300v-400h-100v500z" />
    <glyph glyph-name="uni05D8" unicode="&#x5d8;" 
d="M0 500h100v-400h300v300h-100v-100h-100v200h300v-500h-500v500z" />
    <glyph glyph-name="uni05D9" unicode="&#x5d9;" 
d="M200 500h200v-200h-100v100h-100v100z" />
    <glyph glyph-name="uni05DA" unicode="&#x5da;" 
d="M100 500h300v-700h-100v600h-200v100z" />
    <glyph glyph-name="uni05DB" unicode="&#x5db;" 
d="M0 500h400v-100h100v-300h-100v-100h-400v100h400v300h-400v100z" />
    <glyph glyph-name="uni05DC" unicode="&#x5dc;" 
d="M0 700h100v-200h300v-100h100v-200h-100v-100h-100v-100h-100v100h100v100h100v200h-400v300z" />
    <glyph glyph-name="uni05DD" unicode="&#x5dd;" 
d="M0 500h400v-100h100v-400h-500v500zM100 400v-300h300v300h-300z" />
    <glyph glyph-name="uni05DE" unicode="&#x5de;" 
d="M0 500h100v-100h100v100h200v-100h100v-400h-300v100h200v300h-200v-100h-100v-300h-100v300h100v100h-100v100z" />
    <glyph glyph-name="uni05DF" unicode="&#x5df;" 
d="M200 500h200v-700h-100v600h-100v100z" />
    <glyph glyph-name="uni05E0" unicode="&#x5e0;" 
d="M200 500h200v-500h-200v100h100v300h-100v100z" />
    <glyph glyph-name="uni05E1" unicode="&#x5e1;" 
d="M0 500h500v-400h-100v-100h-300v100h-100v400zM100 400v-300h300v300h-300z" />
    <glyph glyph-name="uni05E2" unicode="&#x5e2;" 
d="M100 500h100v-400h200v400h100v-400h-100v-100h-400v100h100v400z" />
    <glyph glyph-name="uni05E3" unicode="&#x5e3;" 
d="M100 500h400v-700h-100v600h-200v-100h100v-100h-200v300z" />
    <glyph glyph-name="uni05E4" unicode="&#x5e4;" 
d="M0 500h300v-100h100v-100h100v-300h-500v100h400v200h-100v100h-200v-100h100v-100h-200v300z" />
    <glyph glyph-name="uni05E5" unicode="&#x5e5;" 
d="M100 500h100v-300h100v300h100v-300h-100v-100h-100v-300h-100v700z" />
    <glyph glyph-name="uni05E6" unicode="&#x5e6;" 
d="M0 500h100v-100h100v-100h100v100h100v100h100v-100h-100v-100h-100v-100h100v-100h100v-100h-500v100h300v100h-100v100h-100v100h-100v100z" />
    <glyph glyph-name="uni05E7" unicode="&#x5e7;" 
d="M0 500h500v-400h-100v-100h-300v-200h-100v500h100v-200h300v300h-400v100z" />
    <glyph glyph-name="uni05E8" unicode="&#x5e8;" 
d="M0 500h400v-100h100v-400h-100v400h-400v100z" />
    <glyph glyph-name="uni05E9" unicode="&#x5e9;" 
d="M0 500h100v-200h100v200h100v-200h-100v-100h-100v-100h300v400h100v-400h-100v-100h-400v500z" />
    <glyph glyph-name="uni05EA" unicode="&#x5ea;" 
d="M0 500h500v-500h-100v400h-300v-200h100v-100h-100v-100h-100v100h100v100h-100v300z" />
    <glyph glyph-name="uni16A0" unicode="&#x16a0;" 
d="M200 700h100v-100h100v100h100v-100h-100v-100h100v-100h-100v-100h-100v-300h-100v700zM300 500v-100h100v100h-100z" />
    <glyph glyph-name="uni16A2" unicode="&#x16a2;" 
d="M100 700h200v-100h100v-200h100v-400h-100v400h-100v200h-100v-600h-100v700z" />
    <glyph glyph-name="uni16A3" unicode="&#x16a3;" 
d="M200 700h100v-100h100v-100h100v-500h-100v500h-100v100h-100v-100h-100v-500h-100v500h100v100h100v100zM200 300h100v-300h-100v300z" />
    <glyph glyph-name="uni16A6" unicode="&#x16a6;" 
d="M200 700h100v-200h100v-100h100v-100h-100v-100h-100v-200h-100v700zM300 400v-100h100v100h-100z" />
    <glyph glyph-name="uni16A9" unicode="&#x16a9;" 
d="M0 700h100v-100h100v-100h100v100h100v100h100v-100h-100v-100h100v-100h-100v-100h-100v-100h-100v100h-100v-300h-100v700zM100 500v-100h100v-100h100v100h100v100h-100v-100h-100v100h-100z" />
    <glyph glyph-name="uni16AA" unicode="&#x16aa;" 
d="M0 700h100v-100h100v-100h100v100h100v100h100v-100h-100v-100h-100v-100h-100v-100h100v-100h-100v100h-100v-300h-100v700zM100 500v-100h100v100h-100z" />
    <glyph glyph-name="uni16AB" unicode="&#x16ab;" 
d="M200 700h100v-100h100v-100h100v-100h-100v-100h100v-100h-100v100h-100v-300h-100v700zM300 500v-100h100v100h-100z" />
    <glyph glyph-name="uni16AC" unicode="&#x16ac;" 
 />
    <glyph glyph-name="uni16B1" unicode="&#x16b1;" 
d="M100 700h200v-100h100v-100h100v-100h-100v-100h-100v-100h100v-100h-100v100h-100v-200h-100v700zM200 600v-300h100v100h100v100h-100v100h-100z" />
    <glyph glyph-name="uni16B3" unicode="&#x16b3;" 
d="M100 700h100v-200h100v-100h100v-200h100v-200h-100v200h-100v200h-100v-400h-100v700z" />
    <glyph glyph-name="uni16B7" unicode="&#x16b7;" 
d="M0 700h100v-100h100v-200h100v200h100v100h100v-100h-100v-200h-100v-100h100v-200h100v-100h-100v100h-100v200h-100v-200h-100v-100h-100v100h100v200h100v100h-100v200h-100v100z" />
    <glyph glyph-name="uni16B8" unicode="&#x16b8;" 
d="M0 700h100v-100h300v100h100v-100h-100v-200h100v-100h-100v-200h100v-100h-100v100h-300v-100h-100v100h100v200h-100v100h100v200h-100v100zM200 500v-100h-100v-100h100v-100h100v100h100v100h-100v100h-100zM200 400h100v-100h-100v100z" />
    <glyph glyph-name="uni16B9" unicode="&#x16b9;" 
d="M100 700h200v-100h100v-100h100v-100h-100v-100h-100v-100h-100v-200h-100v700zM200 600v-300h100v100h100v100h-100v100h-100z" />
    <glyph glyph-name="uni16BB" unicode="&#x16bb;" 
d="M0 700h100v-200h100v-100h100v-100h100v400h100v-700h-200v100h-100v100h-100v-200h-100v700zM100 400v-100h100v-100h100v-100h100v100h-100v100h-100v100h-100z" />
    <glyph glyph-name="uni16BE" unicode="&#x16be;" 
d="M200 700h100v-300h100v-100h100v-100h-100v100h-100v-300h-100v400h-100v100h-100v100h100v-100h100v200z" />
    <glyph glyph-name="uni16C1" unicode="&#x16c1;" 
d="M200 700h100v-700h-100v700z" />
    <glyph glyph-name="uni16C4" unicode="&#x16c4;" 
d="M200 700h100v-200h100v-100h100v-100h-100v-100h-100v-200h-100v200h-100v100h-100v100h100v100h100v200zM100 400v-100h100v100h-100zM300 400v-100h100v100h-100z" />
    <glyph glyph-name="uni16C7" unicode="&#x16c7;" 
d="M200 700h100v-100h100v-100h100v-100h-100v100h-100v-500h-100v100h-100v100h-100v100h100v-100h100v500z" />
    <glyph glyph-name="uni16C8" unicode="&#x16c8;" 
d="M0 700h100v-100h100v-100h100v100h100v100h100v-100h-100v-100h-100v-100h-100v100h-100v-300h100v100h100v-100h100v-100h100v-100h-100v100h-100v100h-100v-100h-100v-100h-100v700z" />
    <glyph glyph-name="uni16C9" unicode="&#x16c9;" 
d="M0 700h100v-300h100v300h100v-300h100v300h100v-300h-100v-100h-100v-300h-100v300h-100v100h-100v300z" />
    <glyph glyph-name="uni16CB" unicode="&#x16cb;" 
d="M0 700h100v-400h100v100h100v100h100v100h100v-600h-100v400h-100v-100h-100v-100h-100v-100h-100v600z" />
    <glyph glyph-name="uni16CF" unicode="&#x16cf;" 
d="M200 700h100v-100h100v-100h100v-100h-100v100h-100v-500h-100v500h-100v-100h-100v100h100v100h100v100z" />
    <glyph glyph-name="uni16D2" unicode="&#x16d2;" 
d="M100 700h200v-100h100v-100h100v-100h-100v-100h100v-100h-100v-100h-100v-100h-200v700zM200 600v-200h200v100h-100v100h-100zM200 300v-200h100v100h100v100h-200z" />
    <glyph glyph-name="uni16D6" unicode="&#x16d6;" 
d="M0 700h100v-100h100v-100h100v100h100v100h100v-700h-100v500h-100v-100h-100v100h-100v-500h-100v700z" />
    <glyph glyph-name="uni16D7" unicode="&#x16d7;" 
d="M0 700h100v-100h100v-100h100v100h100v100h100v-700h-100v300h-100v100h-100v-100h-100v-300h-100v700zM100 500v-100h100v100h-100zM300 500v-100h100v100h-100z" />
    <glyph glyph-name="uni16DA" unicode="&#x16da;" 
d="M200 700h100v-100h100v-100h100v-100h-100v100h-100v-500h-100v700z" />
    <glyph glyph-name="uni16DD" unicode="&#x16dd;" 
d="M0 700h100v-100h100v-100h100v100h100v100h100v-100h-100v-100h-100v-100h100v-100h-100v-100h100v-100h100v-100h-100v100h-100v100h-100v-100h-100v-100h-100v100h100v100h100v100h-100v100h100v100h-100v100h-100v100zM200 400v-100h100v100h-100z" />
    <glyph glyph-name="uni16DE" unicode="&#x16de;" 
d="M0 700h100v-200h100v-100h100v100h100v200h100v-700h-100v200h-100v100h-100v-100h-100v-200h-100v700zM100 400v-100h100v100h-100zM300 400v-100h100v100h-100z" />
    <glyph glyph-name="uni16DF" unicode="&#x16df;" 
d="M200 700h100v-100h100v-100h100v-100h-100v-100h-100v-100h100v-100h100v-100h-100v100h-100v100h-100v-100h-100v-100h-100v100h100v100h100v100h-100v100h-100v100h100v100h100v100zM200 600v-100h-100v-100h100v-100h100v100h100v100h-100v100h-100z" />
    <glyph glyph-name="uni16E0" unicode="&#x16e0;" 
d="M0 700h100v-100h100v100h100v-100h100v100h100v-100h-100v-100h-100v-500h-100v500h-100v100h-100v100z" />
    <glyph glyph-name="uni16E1" unicode="&#x16e1;" 
d="M0 700h100v-100h100v100h100v-100h100v100h100v-100h-100v-100h-100v-100h100v-100h100v-100h-100v100h-100v-300h-100v300h-100v-100h-100v100h100v100h100v100h-100v100h-100v100z" />
    <glyph glyph-name="uni16E2" unicode="&#x16e2;" 
d="M200 700h100v-100h100v100h100v-100h-100v-100h-100v-500h-100v100h-100v-100h-100v100h100v100h100v500z" />
    <glyph glyph-name="uni16E3" unicode="&#x16e3;" 
d="M200 700h100v-300h100v-100h100v-300h-100v300h-100v-300h-100v300h-100v-300h-100v300h100v100h100v300z" />
    <glyph glyph-name="uni16E5" unicode="&#x16e5;" 
d="M0 700h100v-100h100v-100h100v100h100v100h100v-700h-100v100h-100v100h-100v-100h-100v-100h-100v700zM100 500v-300h100v100h100v-100h100v300h-100v-100h-100v100h-100z" />
    <glyph glyph-name="uni16EB" unicode="&#x16eb;" 
d="M200 400h100v-100h-100v100z" />
    <glyph glyph-name="uni16EC" unicode="&#x16ec;" 
d="M200 500h100v-100h-100v100zM200 300h100v-100h-100v100z" />
    <glyph glyph-name="uni16ED" unicode="&#x16ed;" 
d="M100 500h100v-100h100v100h100v-100h-100v-100h100v-100h-100v100h-100v-100h-100v100h100v100h-100v100z" />
    <glyph glyph-name="uni1E02" unicode="&#x1e02;" 
d="M200 800h100v-100h-100v100zM0 600h400v-100h100v-100h-100v-100h100v-200h-100v-100h-400v600zM100 500v-100h300v100h-300zM100 300v-200h300v200h-300z" />
    <glyph glyph-name="uni1E03" unicode="&#x1e03;" 
d="M0 700h100v-300h100v100h200v-100h100v-300h-100v-100h-200v100h-100v-100h-100v700zM300 700h100v-100h-100v100zM200 400v-100h-100v-100h100v-100h200v300h-200z" />
    <glyph glyph-name="uni1E04" unicode="&#x1e04;" 
 />
    <glyph glyph-name="uni1E0A" unicode="&#x1e0a;" 
d="M200 800h100v-100h-100v100zM0 600h400v-100h100v-400h-100v-100h-400v600zM100 500v-400h300v400h-300z" />
    <glyph glyph-name="uni1E0B" unicode="&#x1e0b;" 
d="M200 800h100v-100h-100v100zM400 700h100v-700h-100v100h-100v-100h-200v100h-100v300h100v100h200v-100h100v300zM100 400v-300h200v100h100v100h-100v100h-200z" />
    <glyph glyph-name="uni1E1E" unicode="&#x1e1e;" 
d="M200 800h100v-100h-100v100zM0 600h500v-100h-400v-100h300v-100h-300v-300h-100v600z" />
    <glyph glyph-name="uni1E1F" unicode="&#x1e1f;" 
d="M200 800h100v-100h-100v100zM200 600h200v-100h100v-100h-100v100h-200v-200h200v-100h-200v-200h-100v200h-100v100h100v200h100v100z" />
    <glyph glyph-name="uni1E40" unicode="&#x1e40;" 
d="M200 800h100v-100h-100v100zM0 700h100v-200h100v-100h100v100h100v200h100v-700h-100v400h-100v-100h-100v100h-100v-400h-100v700z" />
    <glyph glyph-name="uni1E41" unicode="&#x1e41;" 
d="M200 700h100v-100h-100v100zM0 500h200v-100h100v100h100v-100h100v-400h-100v400h-100v-300h-100v300h-100v-400h-100v500z" />
    <glyph glyph-name="uni1E56" unicode="&#x1e56;" 
d="M200 800h100v-100h-100v100zM0 600h400v-100h100v-200h-100v-100h-300v-200h-100v600zM100 500v-200h300v200h-300z" />
    <glyph glyph-name="uni1E57" unicode="&#x1e57;" 
d="M200 700h100v-100h-100v100zM0 500h100v-100h100v100h200v-100h100v-300h-100v-100h-200v100h-100v-300h-100v700zM200 400v-100h-100v-100h100v-100h200v300h-200z" />
    <glyph glyph-name="uni1E60" unicode="&#x1e60;" 
d="M200 800h100v-100h-100v100zM100 600h300v-100h-300v-100h300v-100h100v-200h-100v-100h-300v100h-100v100h100v-100h300v200h-300v100h-100v100h100v100z" />
    <glyph glyph-name="uni1E61" unicode="&#x1e61;" 
d="M200 700h100v-100h-100v100zM100 500h300v-100h-300v-100h300v-100h100v-100h-100v-100h-400v100h400v100h-300v100h-100v100h100v100z" />
    <glyph glyph-name="uni1E6A" unicode="&#x1e6a;" 
d="M200 800h100v-100h-100v100zM0 600h500v-100h-200v-500h-100v500h-200v100z" />
    <glyph glyph-name="uni1E6B" unicode="&#x1e6b;" 
d="M100 800h100v-100h-100v100zM100 600h100v-100h200v-100h-200v-300h200v100h100v-100h-100v-100h-200v100h-100v300h-100v100h100v100z" />
    <glyph glyph-name="Wgrave" unicode="&#x1e80;" 
d="M100 800h100v-100h100v-100h-100v100h-100v100zM0 600h100v-400h100v200h100v-200h100v400h100v-600h-100v100h-100v100h-100v-100h-100v-100h-100v600z" />
    <glyph glyph-name="wgrave" unicode="&#x1e81;" 
d="M100 700h100v-100h100v-100h-100v100h-100v100zM0 500h100v-400h100v200h100v-200h100v400h100v-400h-100v-100h-100v100h-100v-100h-100v100h-100v400z" />
    <glyph glyph-name="Wacute" unicode="&#x1e82;" 
d="M300 800h100v-100h-100v-100h-100v100h100v100zM0 600h100v-400h100v200h100v-200h100v400h100v-600h-100v100h-100v100h-100v-100h-100v-100h-100v600z" />
    <glyph glyph-name="wacute" unicode="&#x1e83;" 
d="M300 700h100v-100h-100v-100h-100v100h100v100zM0 500h100v-400h100v200h100v-200h100v400h100v-400h-100v-100h-100v100h-100v-100h-100v100h-100v400z" />
    <glyph glyph-name="Wdieresis" unicode="&#x1e84;" 
d="M100 800h100v-100h-100v100zM300 800h100v-100h-100v100zM0 600h100v-400h100v200h100v-200h100v400h100v-600h-100v100h-100v100h-100v-100h-100v-100h-100v600z" />
    <glyph glyph-name="wdieresis" unicode="&#x1e85;" 
d="M100 700h100v-100h-100v100zM300 700h100v-100h-100v100zM0 500h100v-400h100v200h100v-200h100v400h100v-400h-100v-100h-100v100h-100v-100h-100v100h-100v400z" />
    <glyph glyph-name="Ygrave" unicode="&#x1ef2;" 
d="M100 800h100v-100h100v-100h-100v100h-100v100zM0 600h100v-100h100v-100h100v100h100v100h100v-100h-100v-100h-100v-400h-100v400h-100v100h-100v100z" />
    <glyph glyph-name="ygrave" unicode="&#x1ef3;" 
d="M100 800h100v-100h100v-100h-100v100h-100v100zM0 500h100v-300h200v100h100v200h100v-600h-100v-100h-300v100h-100v100h100v-100h300v300h-100v-100h-200v100h-100v300z" />
    <glyph glyph-name="uni1F00" unicode="&#x1f00;" 
d="M200 800h200v-200h-100v-100h100v-100h100v-400h-100v100h-100v-100h-200v100h-100v300h100v100h100v100h100v100h-100v100zM100 400v-300h200v100h100v200h-300z" />
    <glyph glyph-name="uni1F01" unicode="&#x1f01;" 
d="M200 800h200v-100h-100v-100h100v-200h100v-400h-100v100h-100v-100h-200v100h-100v300h100v100h200v100h-100v200zM100 400v-300h200v100h100v200h-300z" />
    <glyph glyph-name="uni1F02" unicode="&#x1f02;" 
d="M100 800h300v-100h100v-100h-100v100h-100v-100h-100v-100h200v-100h100v-400h-100v100h-100v-100h-200v100h-100v300h100v200h100v100h-100v100zM100 400v-300h200v100h100v200h-300z" />
    <glyph glyph-name="uni1F03" unicode="&#x1f03;" 
d="M100 800h300v-100h100v-100h-100v100h-200v-100h100v-100h100v-100h100v-400h-100v100h-100v-100h-200v100h-100v300h100v100h100v100h-100v200zM100 400v-300h200v100h100v200h-300z" />
    <glyph glyph-name="uni1F04" unicode="&#x1f04;" 
d="M100 800h200v-100h100v100h100v-100h-100v-100h-200v-100h200v-100h100v-400h-100v100h-100v-100h-200v100h-100v300h100v200h100v100h-100v100zM100 400v-300h200v100h100v200h-300z" />
    <glyph glyph-name="uni1F05" unicode="&#x1f05;" 
d="M100 800h200v-100h100v100h100v-100h-100v-100h-100v-100h100v-100h100v-400h-100v100h-100v-100h-200v100h-100v300h100v100h100v100h-100v200zM200 700v-100h100v100h-100zM100 400v-300h200v100h100v200h-300z" />
    <glyph glyph-name="uni1F06" unicode="&#x1f06;" 
d="M100 800h400v-100h-100v-100h-100v-100h100v-100h100v-400h-100v100h-100v-100h-200v100h-100v300h100v100h100v100h100v100h-200v100zM100 400v-300h200v100h100v200h-300z" />
    <glyph glyph-name="uni1F07" unicode="&#x1f07;" 
d="M100 800h400v-100h-200v-100h100v-200h100v-400h-100v100h-100v-100h-200v100h-100v300h100v100h200v100h-100v100h-100v100zM100 400v-300h200v100h100v200h-300z" />
    <glyph glyph-name="uni1F08" unicode="&#x1f08;" 
d="M0 700h200v-100h100v100h200v-100h100v-600h-100v200h-200v-200h-100v500h-100v-100h-100v100h100v100h-100v100zM300 600v-300h200v300h-200z" />
    <glyph glyph-name="uni1F09" unicode="&#x1f09;" 
d="M0 700h200v-100h100v100h200v-100h100v-600h-100v200h-200v-200h-100v400h-100v100h-100v200zM100 600v-100h100v100h-100zM300 600v-300h200v300h-200z" />
    <glyph glyph-name="uni1F0A" unicode="&#x1f0a;" 
d="M0 700h200v-100h100v100h200v-100h100v-600h-100v200h-200v-200h-100v200h-100v100h-100v200h100v100h-100v100zM300 600v-300h200v300h-200zM100 500v-200h100v200h-100z" />
    <glyph glyph-name="uni1F0B" unicode="&#x1f0b;" 
d="M0 700h200v-100h100v100h200v-100h100v-600h-100v200h-200v-200h-100v200h-100v100h-100v100h100v100h-100v200zM100 600v-100h100v100h-100zM300 600v-300h200v300h-200zM100 400v-100h100v100h-100z" />
    <glyph glyph-name="uni1F0C" unicode="&#x1f0c;" 
d="M0 700h200v-100h100v100h200v-100h100v-600h-100v200h-200v-200h-100v300h-100v-100h-100v100h100v100h-100v100h100v100h-100v100zM300 600v-300h200v300h-200zM100 500v-100h100v100h-100z" />
    <glyph glyph-name="uni1F0D" unicode="&#x1f0d;" 
d="M0 700h200v-100h100v100h200v-100h100v-600h-100v200h-200v-200h-100v300h-100v-100h-100v100h100v200h-100v200zM100 600v-100h100v100h-100zM300 600v-300h200v300h-200z" />
    <glyph glyph-name="uni1F0E" unicode="&#x1f0e;" 
d="M0 700h200v-100h100v100h200v-100h100v-600h-100v200h-200v-200h-100v300h-100v-100h-100v100h100v100h-100v100h200v100h-200v100zM300 600v-300h200v300h-200z" />
    <glyph glyph-name="uni1F0F" unicode="&#x1f0f;" 
d="M0 700h200v-100h100v100h200v-100h100v-600h-100v200h-200v-200h-100v200h-100v100h-100v200h200v100h-200v100zM300 600v-300h200v300h-200zM100 400v-100h100v100h-100z" />
    <glyph glyph-name="uni1F10" unicode="&#x1f10;" 
d="M200 800h200v-200h-100v-100h100v-100h100v-100h-100v100h-300v-100h200v-100h-200v-100h300v100h100v-100h-100v-100h-300v100h-100v100h100v100h-100v100h100v100h100v100h100v100h-100v100z" />
    <glyph glyph-name="uni1F11" unicode="&#x1f11;" 
d="M200 800h200v-100h-100v-100h100v-200h100v-100h-100v100h-300v-100h200v-100h-200v-100h300v100h100v-100h-100v-100h-300v100h-100v100h100v100h-100v100h100v100h200v100h-100v200z" />
    <glyph glyph-name="uni1F12" unicode="&#x1f12;" 
d="M100 800h300v-100h100v-100h-100v100h-100v-100h-100v-100h200v-100h100v-100h-100v100h-300v-100h200v-100h-200v-100h300v100h100v-100h-100v-100h-300v100h-100v100h100v100h-100v100h100v200h100v100h-100v100z" />
    <glyph glyph-name="uni1F13" unicode="&#x1f13;" 
d="M100 800h300v-100h100v-100h-100v100h-200v-100h100v-100h100v-100h100v-100h-100v100h-300v-100h200v-100h-200v-100h300v100h100v-100h-100v-100h-300v100h-100v100h100v100h-100v100h100v100h100v100h-100v200z" />
    <glyph glyph-name="uni1F14" unicode="&#x1f14;" 
d="M100 800h200v-100h100v100h100v-100h-100v-100h-200v-100h200v-100h100v-100h-100v100h-300v-100h200v-100h-200v-100h300v100h100v-100h-100v-100h-300v100h-100v100h100v100h-100v100h100v200h100v100h-100v100z" />
    <glyph glyph-name="uni1F15" unicode="&#x1f15;" 
d="M100 800h200v-100h100v100h100v-100h-100v-100h-100v-100h100v-100h100v-100h-100v100h-300v-100h200v-100h-200v-100h300v100h100v-100h-100v-100h-300v100h-100v100h100v100h-100v100h100v100h100v100h-100v200zM200 700v-100h100v100h-100z" />
    <glyph glyph-name="uni1F18" unicode="&#x1f18;" 
d="M0 700h600v-100h-300v-200h200v-100h-200v-200h300v-100h-400v500h-100v-100h-100v100h100v100h-100v100z" />
    <glyph glyph-name="uni1F19" unicode="&#x1f19;" 
d="M0 700h600v-100h-300v-200h200v-100h-200v-200h300v-100h-400v400h-100v100h-100v200zM100 600v-100h100v100h-100z" />
    <glyph glyph-name="uni1F1A" unicode="&#x1f1a;" 
d="M0 700h600v-100h-300v-200h200v-100h-200v-200h300v-100h-400v200h-100v100h-100v200h100v100h-100v100zM100 500v-200h100v200h-100z" />
    <glyph glyph-name="uni1F1B" unicode="&#x1f1b;" 
d="M0 700h600v-100h-300v-200h200v-100h-200v-200h300v-100h-400v200h-100v100h-100v100h100v100h-100v200zM100 600v-100h100v100h-100zM100 400v-100h100v100h-100z" />
    <glyph glyph-name="uni1F1C" unicode="&#x1f1c;" 
d="M0 700h600v-100h-300v-200h200v-100h-200v-200h300v-100h-400v300h-100v-100h-100v100h100v100h-100v100h100v100h-100v100zM100 500v-100h100v100h-100z" />
    <glyph glyph-name="uni1F1D" unicode="&#x1f1d;" 
d="M0 700h600v-100h-300v-200h200v-100h-200v-200h300v-100h-400v300h-100v-100h-100v100h100v200h-100v200zM100 600v-100h100v100h-100z" />
    <glyph glyph-name="uni1F20" unicode="&#x1f20;" 
d="M200 800h200v-200h-100v-100h100v-100h100v-600h-100v600h-200v-100h-100v-300h-100v500h100v-100h100v200h100v100h-100v100z" />
    <glyph glyph-name="uni1F21" unicode="&#x1f21;" 
d="M200 800h200v-100h-100v-100h100v-200h100v-600h-100v600h-200v-100h-100v-300h-100v500h100v-100h100v100h100v100h-100v200z" />
    <glyph glyph-name="uni1F22" unicode="&#x1f22;" 
d="M100 800h300v-100h100v-100h-100v100h-100v-100h-100v-100h200v-100h100v-600h-100v600h-200v-100h-100v-300h-100v500h100v100h100v100h-100v100zM100 500v-100h100v100h-100z" />
    <glyph glyph-name="uni1F23" unicode="&#x1f23;" 
d="M100 800h300v-100h100v-100h-100v100h-200v-100h100v-100h100v-100h100v-600h-100v600h-200v-100h-100v-300h-100v500h100v-100h100v200h-100v200z" />
    <glyph glyph-name="uni1F24" unicode="&#x1f24;" 
d="M100 800h200v-100h100v100h100v-100h-100v-100h-200v-100h200v-100h100v-600h-100v600h-200v-100h-100v-300h-100v500h100v100h100v100h-100v100zM100 500v-100h100v100h-100z" />
    <glyph glyph-name="uni1F25" unicode="&#x1f25;" 
d="M100 800h200v-100h100v100h100v-100h-100v-100h-100v-100h100v-100h100v-600h-100v600h-200v-100h-100v-300h-100v500h100v-100h100v200h-100v200zM200 700v-100h100v100h-100z" />
    <glyph glyph-name="uni1F26" unicode="&#x1f26;" 
d="M100 800h400v-100h-100v-100h-100v-100h100v-100h100v-600h-100v600h-200v-100h-100v-300h-100v500h100v-100h100v200h100v100h-200v100z" />
    <glyph glyph-name="uni1F27" unicode="&#x1f27;" 
d="M100 800h400v-100h-200v-100h100v-200h100v-600h-100v600h-200v-100h-100v-300h-100v500h100v-100h100v100h100v100h-100v100h-100v100z" />
    <glyph glyph-name="uni1F28" unicode="&#x1f28;" 
d="M0 700h300v-300h200v300h100v-700h-100v300h-200v-300h-100v500h-100v-100h-100v100h100v100h-100v100z" />
    <glyph glyph-name="uni1F29" unicode="&#x1f29;" 
d="M0 700h300v-300h200v300h100v-700h-100v300h-200v-300h-100v400h-100v100h-100v200zM100 600v-100h100v100h-100z" />
    <glyph glyph-name="uni1F2A" unicode="&#x1f2a;" 
d="M0 700h300v-300h200v300h100v-700h-100v300h-200v-300h-100v200h-100v100h-100v200h100v100h-100v100zM100 500v-200h100v200h-100z" />
    <glyph glyph-name="uni1F2B" unicode="&#x1f2b;" 
d="M0 700h300v-300h200v300h100v-700h-100v300h-200v-300h-100v200h-100v100h-100v100h100v100h-100v200zM100 600v-100h100v100h-100zM100 400v-100h100v100h-100z" />
    <glyph glyph-name="uni1F2C" unicode="&#x1f2c;" 
d="M0 700h300v-300h200v300h100v-700h-100v300h-200v-300h-100v300h-100v-100h-100v100h100v100h-100v100h100v100h-100v100zM100 500v-100h100v100h-100z" />
    <glyph glyph-name="uni1F2D" unicode="&#x1f2d;" 
d="M0 700h300v-300h200v300h100v-700h-100v300h-200v-300h-100v300h-100v-100h-100v100h100v200h-100v200zM100 600v-100h100v100h-100z" />
    <glyph glyph-name="uni1F2E" unicode="&#x1f2e;" 
d="M0 700h300v-300h200v300h100v-700h-100v300h-200v-300h-100v300h-100v-100h-100v100h100v100h-100v100h200v100h-200v100z" />
    <glyph glyph-name="uni1F2F" unicode="&#x1f2f;" 
d="M0 700h300v-300h200v300h100v-700h-100v300h-200v-300h-100v200h-100v100h-100v200h200v100h-200v100zM100 400v-100h100v100h-100z" />
    <glyph glyph-name="uni1F30" unicode="&#x1f30;" 
d="M100 800h200v-200h-100v-500h100v100h100v-100h-100v-100h-100v100h-100v500h100v100h-100v100z" />
    <glyph glyph-name="uni1F31" unicode="&#x1f31;" 
d="M100 800h200v-100h-100v-100h100v-100h-100v-400h100v100h100v-100h-100v-100h-100v100h-100v400h100v100h-100v200z" />
    <glyph glyph-name="uni1F32" unicode="&#x1f32;" 
d="M100 800h300v-100h100v-100h-100v100h-100v-100h-100v-100h100v-400h100v100h100v-100h-100v-100h-100v100h-100v400h-100v100h100v100h-100v100z" />
    <glyph glyph-name="uni1F33" unicode="&#x1f33;" 
d="M100 800h300v-100h100v-100h-100v100h-200v-100h100v-500h100v100h100v-100h-100v-100h-100v100h-100v500h-100v200z" />
    <glyph glyph-name="uni1F34" unicode="&#x1f34;" 
d="M100 800h200v-100h100v100h100v-100h-100v-100h-200v-100h100v-400h100v100h100v-100h-100v-100h-100v100h-100v400h-100v100h100v100h-100v100z" />
    <glyph glyph-name="uni1F35" unicode="&#x1f35;" 
d="M100 800h200v-100h100v100h100v-100h-100v-100h-100v-500h100v100h100v-100h-100v-100h-100v100h-100v500h-100v200zM200 700v-100h100v100h-100z" />
    <glyph glyph-name="uni1F36" unicode="&#x1f36;" 
d="M100 800h400v-100h-100v-100h-100v-500h100v100h100v-100h-100v-100h-100v100h-100v500h100v100h-200v100z" />
    <glyph glyph-name="uni1F37" unicode="&#x1f37;" 
d="M100 800h400v-100h-200v-100h100v-100h-100v-400h100v100h100v-100h-100v-100h-100v100h-100v400h100v100h-100v100h-100v100z" />
    <glyph glyph-name="uni1F38" unicode="&#x1f38;" 
d="M0 700h200v-200h-100v-100h-100v100h100v100h-100v100zM300 700h300v-100h-100v-500h100v-100h-300v100h100v500h-100v100z" />
    <glyph glyph-name="uni1F39" unicode="&#x1f39;" 
d="M0 700h200v-100h-100v-100h100v-100h-100v100h-100v200zM300 700h300v-100h-100v-500h100v-100h-300v100h100v500h-100v100z" />
    <glyph glyph-name="uni1F3A" unicode="&#x1f3a;" 
d="M0 700h200v-200h-100v-200h100v-100h-100v100h-100v200h100v100h-100v100zM300 700h300v-100h-100v-500h100v-100h-300v100h100v500h-100v100z" />
    <glyph glyph-name="uni1F3B" unicode="&#x1f3b;" 
d="M0 700h200v-100h-100v-100h100v-100h-100v-100h100v-100h-100v100h-100v100h100v100h-100v200zM300 700h300v-100h-100v-500h100v-100h-300v100h100v500h-100v100z" />
    <glyph glyph-name="uni1F3C" unicode="&#x1f3c;" 
d="M0 700h200v-200h-100v-100h100v-100h-100v-100h-100v100h100v100h-100v100h100v100h-100v100zM300 700h300v-100h-100v-500h100v-100h-300v100h100v500h-100v100z" />
    <glyph glyph-name="uni1F3D" unicode="&#x1f3d;" 
d="M0 700h200v-100h-100v-100h100v-200h-100v-100h-100v100h100v200h-100v200zM300 700h300v-100h-100v-500h100v-100h-300v100h100v500h-100v100z" />
    <glyph glyph-name="uni1F3E" unicode="&#x1f3e;" 
d="M0 700h200v-100h-200v100zM300 700h300v-100h-100v-500h100v-100h-300v100h100v500h-100v100zM0 500h200v-200h-100v-100h-100v100h100v100h-100v100z" />
    <glyph glyph-name="uni1F3F" unicode="&#x1f3f;" 
d="M0 700h200v-100h-200v100zM300 700h300v-100h-100v-500h100v-100h-300v100h100v500h-100v100zM0 500h200v-100h-100v-100h100v-100h-100v100h-100v200z" />
    <glyph glyph-name="uni1F40" unicode="&#x1f40;" 
d="M200 800h200v-200h-100v-100h100v-100h100v-300h-100v-100h-300v100h-100v300h100v100h100v100h100v100h-100v100zM100 400v-300h300v300h-300z" />
    <glyph glyph-name="uni1F41" unicode="&#x1f41;" 
d="M200 800h200v-100h-100v-100h100v-200h100v-300h-100v-100h-300v100h-100v300h100v100h200v100h-100v200zM100 400v-300h300v300h-300z" />
    <glyph glyph-name="uni1F42" unicode="&#x1f42;" 
d="M100 800h300v-100h100v-100h-100v100h-100v-100h-100v-100h200v-100h100v-300h-100v-100h-300v100h-100v300h100v200h100v100h-100v100zM100 400v-300h300v300h-300z" />
    <glyph glyph-name="uni1F43" unicode="&#x1f43;" 
d="M100 800h300v-100h100v-100h-100v100h-200v-100h100v-100h100v-100h100v-300h-100v-100h-300v100h-100v300h100v100h100v100h-100v200zM100 400v-300h300v300h-300z" />
    <glyph glyph-name="uni1F44" unicode="&#x1f44;" 
d="M100 800h200v-100h100v100h100v-100h-100v-100h-200v-100h200v-100h100v-300h-100v-100h-300v100h-100v300h100v200h100v100h-100v100zM100 400v-300h300v300h-300z" />
    <glyph glyph-name="uni1F45" unicode="&#x1f45;" 
d="M100 800h200v-100h100v100h100v-100h-100v-100h-100v-100h100v-100h100v-300h-100v-100h-300v100h-100v300h100v100h100v100h-100v200zM200 700v-100h100v100h-100zM100 400v-300h300v300h-300z" />
    <glyph glyph-name="uni1F48" unicode="&#x1f48;" 
d="M0 700h200v-100h100v100h200v-100h100v-500h-100v-100h-200v100h-100v400h-100v-100h-100v100h100v100h-100v100zM300 600v-500h200v500h-200z" />
    <glyph glyph-name="uni1F49" unicode="&#x1f49;" 
d="M0 700h200v-100h100v100h200v-100h100v-500h-100v-100h-200v100h-100v300h-100v100h-100v200zM100 600v-100h100v100h-100zM300 600v-500h200v500h-200z" />
    <glyph glyph-name="uni1F4A" unicode="&#x1f4a;" 
d="M0 700h200v-100h100v100h200v-100h100v-500h-100v-100h-200v100h-100v100h-100v100h-100v200h100v100h-100v100zM300 600v-500h200v500h-200zM100 500v-200h100v200h-100z" />
    <glyph glyph-name="uni1F4B" unicode="&#x1f4b;" 
d="M0 700h200v-100h100v100h200v-100h100v-500h-100v-100h-200v100h-100v100h-100v100h-100v100h100v100h-100v200zM100 600v-100h100v100h-100zM300 600v-500h200v500h-200zM100 400v-100h100v100h-100z" />
    <glyph glyph-name="uni1F4C" unicode="&#x1f4c;" 
d="M0 700h200v-100h100v100h200v-100h100v-500h-100v-100h-200v100h-100v200h-100v-100h-100v100h100v100h-100v100h100v100h-100v100zM300 600v-500h200v500h-200zM100 500v-100h100v100h-100z" />
    <glyph glyph-name="uni1F4D" unicode="&#x1f4d;" 
d="M0 700h200v-100h100v100h200v-100h100v-500h-100v-100h-200v100h-100v200h-100v-100h-100v100h100v200h-100v200zM100 600v-100h100v100h-100zM300 600v-500h200v500h-200z" />
    <glyph glyph-name="uni1F50" unicode="&#x1f50;" 
d="M200 800h200v-200h-100v-100h-100v100h100v100h-100v100zM0 500h100v-400h300v400h100v-400h-100v-100h-300v100h-100v400z" />
    <glyph glyph-name="uni1F51" unicode="&#x1f51;" 
d="M200 800h200v-100h-100v-100h100v-100h100v-400h-100v-100h-300v100h-100v400h100v-400h300v400h-100v100h-100v200z" />
    <glyph glyph-name="uni1F52" unicode="&#x1f52;" 
d="M100 800h300v-100h100v-100h-100v100h-100v-100h-100v-100h-100v-400h300v400h100v-400h-100v-100h-300v100h-100v400h100v100h100v100h-100v100z" />
    <glyph glyph-name="uni1F53" unicode="&#x1f53;" 
d="M100 800h300v-100h100v-100h-100v100h-200v-100h100v-100h-100v100h-100v200zM0 500h100v-400h300v400h100v-400h-100v-100h-300v100h-100v400z" />
    <glyph glyph-name="uni1F54" unicode="&#x1f54;" 
d="M100 800h200v-100h100v100h100v-100h-100v-100h-200v-100h-100v-400h300v400h100v-400h-100v-100h-300v100h-100v400h100v100h100v100h-100v100z" />
    <glyph glyph-name="uni1F55" unicode="&#x1f55;" 
d="M100 800h200v-100h100v100h100v-100h-100v-100h-100v-100h-100v100h-100v200zM200 700v-100h100v100h-100zM0 500h100v-400h300v400h100v-400h-100v-100h-300v100h-100v400z" />
    <glyph glyph-name="uni1F56" unicode="&#x1f56;" 
d="M100 800h400v-100h-100v-100h-100v-100h-100v100h100v100h-200v100zM0 500h100v-400h300v400h100v-400h-100v-100h-300v100h-100v400z" />
    <glyph glyph-name="uni1F57" unicode="&#x1f57;" 
d="M100 800h400v-100h-200v-100h100v-100h100v-400h-100v-100h-300v100h-100v400h100v-400h300v400h-100v100h-100v100h-100v100z" />
    <glyph glyph-name="uni1F59" unicode="&#x1f59;" 
d="M0 700h200v-100h-100v-100h100v-100h-100v100h-100v200zM300 700h100v-300h100v300h100v-300h-100v-400h-100v400h-100v300z" />
    <glyph glyph-name="uni1F5B" unicode="&#x1f5b;" 
d="M0 700h200v-100h-100v-100h100v-100h-100v-100h100v-100h-100v100h-100v100h100v100h-100v200zM300 700h100v-300h100v300h100v-300h-100v-400h-100v400h-100v300z" />
    <glyph glyph-name="uni1F5D" unicode="&#x1f5d;" 
d="M0 700h200v-100h-100v-100h100v-200h-100v-100h-100v100h100v200h-100v200zM300 700h100v-300h100v300h100v-300h-100v-400h-100v400h-100v300z" />
    <glyph glyph-name="uni1F5F" unicode="&#x1f5f;" 
d="M0 700h200v-100h-200v100zM300 700h100v-300h100v300h100v-300h-100v-400h-100v400h-100v300zM0 500h200v-100h-100v-100h100v-100h-100v100h-100v200z" />
    <glyph glyph-name="uni1F60" unicode="&#x1f60;" 
d="M200 800h200v-200h-100v-100h-100v100h100v100h-100v100zM0 500h100v-400h100v300h100v-300h100v400h100v-400h-100v-100h-100v100h-100v-100h-100v100h-100v400z" />
    <glyph glyph-name="uni1F61" unicode="&#x1f61;" 
d="M200 800h200v-100h-100v-100h100v-100h100v-400h-100v-100h-100v100h-100v-100h-100v100h-100v400h100v-400h100v300h100v-300h100v400h-100v100h-100v200z" />
    <glyph glyph-name="uni1F62" unicode="&#x1f62;" 
d="M100 800h300v-100h100v-100h-100v100h-100v-100h-100v-100h-100v-400h100v300h100v-300h100v400h100v-400h-100v-100h-100v100h-100v-100h-100v100h-100v400h100v100h100v100h-100v100z" />
    <glyph glyph-name="uni1F63" unicode="&#x1f63;" 
d="M100 800h300v-100h100v-100h-100v100h-200v-100h100v-100h-100v100h-100v200zM0 500h100v-400h100v300h100v-300h100v400h100v-400h-100v-100h-100v100h-100v-100h-100v100h-100v400z" />
    <glyph glyph-name="uni1F64" unicode="&#x1f64;" 
d="M100 800h200v-100h100v100h100v-100h-100v-100h-200v-100h-100v-400h100v300h100v-300h100v400h100v-400h-100v-100h-100v100h-100v-100h-100v100h-100v400h100v100h100v100h-100v100z" />
    <glyph glyph-name="uni1F65" unicode="&#x1f65;" 
d="M100 800h200v-100h100v100h100v-100h-100v-100h-100v-100h-100v100h-100v200zM200 700v-100h100v100h-100zM0 500h100v-400h100v300h100v-300h100v400h100v-400h-100v-100h-100v100h-100v-100h-100v100h-100v400z" />
    <glyph glyph-name="uni1F66" unicode="&#x1f66;" 
d="M100 800h400v-100h-100v-100h-100v-100h-100v100h100v100h-200v100zM0 500h100v-400h100v300h100v-300h100v400h100v-400h-100v-100h-100v100h-100v-100h-100v100h-100v400z" />
    <glyph glyph-name="uni1F67" unicode="&#x1f67;" 
d="M100 800h400v-100h-200v-100h100v-100h100v-400h-100v-100h-100v100h-100v-100h-100v100h-100v400h100v-400h100v300h100v-300h100v400h-100v100h-100v100h-100v100z" />
    <glyph glyph-name="uni1F68" unicode="&#x1f68;" 
d="M0 700h200v-100h100v100h200v-100h100v-400h-100v-100h100v-100h-400v100h100v100h-100v300h-100v-100h-100v100h100v100h-100v100zM300 600v-400h200v400h-200z" />
    <glyph glyph-name="uni1F69" unicode="&#x1f69;" 
d="M0 700h200v-100h100v100h200v-100h100v-400h-100v-100h100v-100h-400v100h100v100h-100v200h-100v100h-100v200zM100 600v-100h100v100h-100zM300 600v-400h200v400h-200z" />
    <glyph glyph-name="uni1F6A" unicode="&#x1f6a;" 
d="M0 700h200v-100h100v100h200v-100h100v-400h-100v-100h100v-100h-400v100h100v100h-200v100h-100v200h100v100h-100v100zM300 600v-400h200v400h-200zM100 500v-200h100v200h-100z" />
    <glyph glyph-name="uni1F6B" unicode="&#x1f6b;" 
d="M0 700h200v-100h100v100h200v-100h100v-400h-100v-100h100v-100h-400v100h100v100h-200v100h-100v100h100v100h-100v200zM100 600v-100h100v100h-100zM300 600v-400h200v400h-200zM100 400v-100h100v100h-100z" />
    <glyph glyph-name="uni1F6C" unicode="&#x1f6c;" 
d="M0 700h200v-100h100v100h200v-100h100v-400h-100v-100h100v-100h-400v100h100v100h-100v100h-100v-100h-100v100h100v100h-100v100h100v100h-100v100zM300 600v-400h200v400h-200zM100 500v-100h100v100h-100z" />
    <glyph glyph-name="uni1F6D" unicode="&#x1f6d;" 
d="M0 700h200v-100h100v100h200v-100h100v-400h-100v-100h100v-100h-400v100h100v100h-100v100h-100v-100h-100v100h100v200h-100v200zM100 600v-100h100v100h-100zM300 600v-400h200v400h-200z" />
    <glyph glyph-name="uni1F6E" unicode="&#x1f6e;" 
d="M0 700h200v-100h100v100h200v-100h100v-400h-100v-100h100v-100h-400v100h100v100h-100v100h-100v-100h-100v100h100v100h-100v100h200v100h-200v100zM300 600v-400h200v400h-200z" />
    <glyph glyph-name="uni1F6F" unicode="&#x1f6f;" 
d="M0 700h200v-100h100v100h200v-100h100v-400h-100v-100h100v-100h-400v100h100v100h-200v100h-100v200h200v100h-200v100zM300 600v-400h200v400h-200zM100 400v-100h100v100h-100z" />
    <glyph glyph-name="uni1F70" unicode="&#x1f70;" 
d="M100 800h100v-100h100v-100h-100v100h-100v100zM100 500h300v-100h100v-400h-100v100h-100v-100h-200v100h-100v300h100v100zM100 400v-300h200v100h100v200h-300z" />
    <glyph glyph-name="uni1F71" unicode="&#x1f71;" 
d="M300 800h100v-100h-100v-100h-100v100h100v100zM100 500h300v-100h100v-400h-100v100h-100v-100h-200v100h-100v300h100v100zM100 400v-300h200v100h100v200h-300z" />
    <glyph glyph-name="uni1F72" unicode="&#x1f72;" 
d="M100 800h100v-100h100v-100h-100v100h-100v100zM100 500h300v-100h100v-100h-100v100h-300v-100h200v-100h-200v-100h300v100h100v-100h-100v-100h-300v100h-100v100h100v100h-100v100h100v100z" />
    <glyph glyph-name="uni1F73" unicode="&#x1f73;" 
d="M300 800h100v-100h-100v-100h-100v100h100v100zM100 500h300v-100h100v-100h-100v100h-300v-100h200v-100h-200v-100h300v100h100v-100h-100v-100h-300v100h-100v100h100v100h-100v100h100v100z" />
    <glyph glyph-name="uni1F74" unicode="&#x1f74;" 
d="M100 800h100v-100h100v-100h-100v100h-100v100zM0 500h100v-100h100v100h200v-100h100v-600h-100v600h-200v-100h-100v-300h-100v500z" />
    <glyph glyph-name="uni1F75" unicode="&#x1f75;" 
d="M300 800h100v-100h-100v-100h-100v100h100v100zM0 500h100v-100h100v100h200v-100h100v-600h-100v600h-200v-100h-100v-300h-100v500z" />
    <glyph glyph-name="uni1F76" unicode="&#x1f76;" 
d="M100 800h100v-100h100v-100h-100v100h-100v100zM200 500h100v-400h100v100h100v-100h-100v-100h-100v100h-100v400z" />
    <glyph glyph-name="uni1F77" unicode="&#x1f77;" 
d="M200 800h100v-100h-100v-100h-100v100h100v100zM100 500h100v-400h100v100h100v-100h-100v-100h-100v100h-100v400z" />
    <glyph glyph-name="uni1F78" unicode="&#x1f78;" 
d="M100 800h100v-100h100v-100h-100v100h-100v100zM100 500h300v-100h100v-300h-100v-100h-300v100h-100v300h100v100zM100 400v-300h300v300h-300z" />
    <glyph glyph-name="uni1F79" unicode="&#x1f79;" 
d="M300 800h100v-100h-100v-100h-100v100h100v100zM100 500h300v-100h100v-300h-100v-100h-300v100h-100v300h100v100zM100 400v-300h300v300h-300z" />
    <glyph glyph-name="uni1F7A" unicode="&#x1f7a;" 
d="M100 800h100v-100h100v-100h-100v100h-100v100zM0 500h100v-400h300v400h100v-400h-100v-100h-300v100h-100v400z" />
    <glyph glyph-name="uni1F7B" unicode="&#x1f7b;" 
d="M300 800h100v-100h-100v-100h-100v100h100v100zM0 500h100v-400h300v400h100v-400h-100v-100h-300v100h-100v400z" />
    <glyph glyph-name="uni1F7C" unicode="&#x1f7c;" 
d="M100 800h100v-100h100v-100h-100v100h-100v100zM0 500h100v-400h100v300h100v-300h100v400h100v-400h-100v-100h-100v100h-100v-100h-100v100h-100v400z" />
    <glyph glyph-name="uni1F7D" unicode="&#x1f7d;" 
d="M300 800h100v-100h-100v-100h-100v100h100v100zM0 500h100v-400h100v300h100v-300h100v400h100v-400h-100v-100h-100v100h-100v-100h-100v100h-100v400z" />
    <glyph glyph-name="uni1F80" unicode="&#x1f80;" 
d="M200 800h200v-200h-100v-100h100v-100h100v-400h-100v100h-100v-100h-200v100h-100v300h100v100h100v100h100v100h-100v100zM100 400v-300h200v100h100v200h-300zM200 -100h100v-100h-100v100z" />
    <glyph glyph-name="uni1F81" unicode="&#x1f81;" 
d="M200 800h200v-100h-100v-100h100v-200h100v-400h-100v100h-100v-100h-200v100h-100v300h100v100h200v100h-100v200zM100 400v-300h200v100h100v200h-300zM200 -100h100v-100h-100v100z" />
    <glyph glyph-name="uni1F82" unicode="&#x1f82;" 
d="M100 800h300v-100h100v-100h-100v100h-100v-100h-100v-100h200v-100h100v-400h-100v100h-100v-100h-200v100h-100v300h100v200h100v100h-100v100zM100 400v-300h200v100h100v200h-300zM200 -100h100v-100h-100v100z" />
    <glyph glyph-name="uni1F83" unicode="&#x1f83;" 
d="M100 800h300v-100h100v-100h-100v100h-200v-100h100v-100h100v-100h100v-400h-100v100h-100v-100h-200v100h-100v300h100v100h100v100h-100v200zM100 400v-300h200v100h100v200h-300zM200 -100h100v-100h-100v100z" />
    <glyph glyph-name="uni1F84" unicode="&#x1f84;" 
d="M100 800h200v-100h100v100h100v-100h-100v-100h-200v-100h200v-100h100v-400h-100v100h-100v-100h-200v100h-100v300h100v200h100v100h-100v100zM100 400v-300h200v100h100v200h-300zM200 -100h100v-100h-100v100z" />
    <glyph glyph-name="uni1F85" unicode="&#x1f85;" 
d="M100 800h200v-100h100v100h100v-100h-100v-100h-100v-100h100v-100h100v-400h-100v100h-100v-100h-200v100h-100v300h100v100h100v100h-100v200zM200 700v-100h100v100h-100zM100 400v-300h200v100h100v200h-300zM200 -100h100v-100h-100v100z" />
    <glyph glyph-name="uni1F86" unicode="&#x1f86;" 
d="M100 800h400v-100h-100v-100h-100v-100h100v-100h100v-400h-100v100h-100v-100h-200v100h-100v300h100v100h100v100h100v100h-200v100zM100 400v-300h200v100h100v200h-300zM200 -100h100v-100h-100v100z" />
    <glyph glyph-name="uni1F87" unicode="&#x1f87;" 
d="M100 800h400v-100h-200v-100h100v-200h100v-400h-100v100h-100v-100h-200v100h-100v300h100v100h200v100h-100v100h-100v100zM100 400v-300h200v100h100v200h-300zM200 -100h100v-100h-100v100z" />
    <glyph glyph-name="uni1F88" unicode="&#x1f88;" 
d="M0 700h200v-100h100v100h200v-100h100v-600h-100v200h-200v-200h-100v500h-100v-100h-100v100h100v100h-100v100zM300 600v-300h200v300h-200zM300 -100h100v-100h-100v100z" />
    <glyph glyph-name="uni1F89" unicode="&#x1f89;" 
d="M0 700h200v-100h100v100h200v-100h100v-600h-100v200h-200v-200h-100v400h-100v100h-100v200zM100 600v-100h100v100h-100zM300 600v-300h200v300h-200zM300 -100h100v-100h-100v100z" />
    <glyph glyph-name="uni1F8A" unicode="&#x1f8a;" 
d="M0 700h200v-100h100v100h200v-100h100v-600h-100v200h-200v-200h-100v200h-100v100h-100v200h100v100h-100v100zM300 600v-300h200v300h-200zM100 500v-200h100v200h-100zM300 -100h100v-100h-100v100z" />
    <glyph glyph-name="uni1F8B" unicode="&#x1f8b;" 
d="M0 700h200v-100h100v100h200v-100h100v-600h-100v200h-200v-200h-100v200h-100v100h-100v100h100v100h-100v200zM100 600v-100h100v100h-100zM300 600v-300h200v300h-200zM100 400v-100h100v100h-100zM300 -100h100v-100h-100v100z" />
    <glyph glyph-name="uni1F8C" unicode="&#x1f8c;" 
d="M0 700h200v-100h100v100h200v-100h100v-600h-100v200h-200v-200h-100v300h-100v-100h-100v100h100v100h-100v100h100v100h-100v100zM300 600v-300h200v300h-200zM100 500v-100h100v100h-100zM300 -100h100v-100h-100v100z" />
    <glyph glyph-name="uni1F8D" unicode="&#x1f8d;" 
d="M0 700h200v-100h100v100h200v-100h100v-600h-100v200h-200v-200h-100v300h-100v-100h-100v100h100v200h-100v200zM100 600v-100h100v100h-100zM300 600v-300h200v300h-200zM300 -100h100v-100h-100v100z" />
    <glyph glyph-name="uni1F8E" unicode="&#x1f8e;" 
d="M0 700h200v-100h100v100h200v-100h100v-600h-100v200h-200v-200h-100v300h-100v-100h-100v100h100v100h-100v100h200v100h-200v100zM300 600v-300h200v300h-200zM300 -100h100v-100h-100v100z" />
    <glyph glyph-name="uni1F8F" unicode="&#x1f8f;" 
d="M0 700h200v-100h100v100h200v-100h100v-600h-100v200h-200v-200h-100v200h-100v100h-100v200h200v100h-200v100zM300 600v-300h200v300h-200zM100 400v-100h100v100h-100zM300 -100h100v-100h-100v100z" />
    <glyph glyph-name="uni1F90" unicode="&#x1f90;" 
d="M200 800h200v-200h-100v-100h100v-100h100v-600h-100v600h-200v-100h-100v-300h-100v500h100v-100h100v200h100v100h-100v100zM0 -100h100v-100h-100v100z" />
    <glyph glyph-name="uni1F91" unicode="&#x1f91;" 
d="M200 800h200v-100h-100v-100h100v-200h100v-600h-100v600h-200v-100h-100v-300h-100v500h100v-100h100v100h100v100h-100v200zM0 -100h100v-100h-100v100z" />
    <glyph glyph-name="uni1F92" unicode="&#x1f92;" 
d="M100 800h300v-100h100v-100h-100v100h-100v-100h-100v-100h200v-100h100v-600h-100v600h-200v-100h-100v-300h-100v500h100v100h100v100h-100v100zM100 500v-100h100v100h-100zM0 -100h100v-100h-100v100z" />
    <glyph glyph-name="uni1F93" unicode="&#x1f93;" 
d="M100 800h300v-100h100v-100h-100v100h-200v-100h100v-100h100v-100h100v-600h-100v600h-200v-100h-100v-300h-100v500h100v-100h100v200h-100v200zM0 -100h100v-100h-100v100z" />
    <glyph glyph-name="uni1F94" unicode="&#x1f94;" 
d="M100 800h200v-100h100v100h100v-100h-100v-100h-200v-100h200v-100h100v-600h-100v600h-200v-100h-100v-300h-100v500h100v100h100v100h-100v100zM100 500v-100h100v100h-100zM0 -100h100v-100h-100v100z" />
    <glyph glyph-name="uni1F95" unicode="&#x1f95;" 
d="M100 800h200v-100h100v100h100v-100h-100v-100h-100v-100h100v-100h100v-600h-100v600h-200v-100h-100v-300h-100v500h100v-100h100v200h-100v200zM200 700v-100h100v100h-100zM0 -100h100v-100h-100v100z" />
    <glyph glyph-name="uni1F96" unicode="&#x1f96;" 
d="M100 800h400v-100h-100v-100h-100v-100h100v-100h100v-600h-100v600h-200v-100h-100v-300h-100v500h100v-100h100v200h100v100h-200v100zM0 -100h100v-100h-100v100z" />
    <glyph glyph-name="uni1F97" unicode="&#x1f97;" 
d="M100 800h400v-100h-200v-100h100v-200h100v-600h-100v600h-200v-100h-100v-300h-100v500h100v-100h100v100h100v100h-100v100h-100v100zM0 -100h100v-100h-100v100z" />
    <glyph glyph-name="uni1F98" unicode="&#x1f98;" 
d="M0 700h300v-300h200v300h100v-700h-100v300h-200v-300h-100v500h-100v-100h-100v100h100v100h-100v100zM300 -100h100v-100h-100v100z" />
    <glyph glyph-name="uni1F99" unicode="&#x1f99;" 
d="M0 700h300v-300h200v300h100v-700h-100v300h-200v-300h-100v400h-100v100h-100v200zM100 600v-100h100v100h-100zM300 -100h100v-100h-100v100z" />
    <glyph glyph-name="uni1F9A" unicode="&#x1f9a;" 
d="M0 700h300v-300h200v300h100v-700h-100v300h-200v-300h-100v200h-100v100h-100v200h100v100h-100v100zM100 500v-200h100v200h-100zM300 -100h100v-100h-100v100z" />
    <glyph glyph-name="uni1F9B" unicode="&#x1f9b;" 
d="M0 700h300v-300h200v300h100v-700h-100v300h-200v-300h-100v200h-100v100h-100v100h100v100h-100v200zM100 600v-100h100v100h-100zM100 400v-100h100v100h-100zM300 -100h100v-100h-100v100z" />
    <glyph glyph-name="uni1F9C" unicode="&#x1f9c;" 
d="M0 700h300v-300h200v300h100v-700h-100v300h-200v-300h-100v300h-100v-100h-100v100h100v100h-100v100h100v100h-100v100zM100 500v-100h100v100h-100zM300 -100h100v-100h-100v100z" />
    <glyph glyph-name="uni1F9D" unicode="&#x1f9d;" 
d="M0 700h300v-300h200v300h100v-700h-100v300h-200v-300h-100v300h-100v-100h-100v100h100v200h-100v200zM100 600v-100h100v100h-100zM300 -100h100v-100h-100v100z" />
    <glyph glyph-name="uni1F9E" unicode="&#x1f9e;" 
d="M0 700h300v-300h200v300h100v-700h-100v300h-200v-300h-100v300h-100v-100h-100v100h100v100h-100v100h200v100h-200v100zM300 -100h100v-100h-100v100z" />
    <glyph glyph-name="uni1F9F" unicode="&#x1f9f;" 
d="M0 700h300v-300h200v300h100v-700h-100v300h-200v-300h-100v200h-100v100h-100v200h200v100h-200v100zM100 400v-100h100v100h-100zM300 -100h100v-100h-100v100z" />
    <glyph glyph-name="uni1FA0" unicode="&#x1fa0;" 
d="M200 800h200v-200h-100v-100h-100v100h100v100h-100v100zM0 500h100v-400h100v300h100v-300h100v400h100v-400h-100v-100h-100v100h-100v-100h-100v100h-100v400zM200 -100h100v-100h-100v100z" />
    <glyph glyph-name="uni1FA1" unicode="&#x1fa1;" 
d="M200 800h200v-100h-100v-100h100v-100h100v-400h-100v-100h-100v100h-100v-100h-100v100h-100v400h100v-400h100v300h100v-300h100v400h-100v100h-100v200zM200 -100h100v-100h-100v100z" />
    <glyph glyph-name="uni1FA2" unicode="&#x1fa2;" 
d="M100 800h300v-100h100v-100h-100v100h-100v-100h-100v-100h-100v-400h100v300h100v-300h100v400h100v-400h-100v-100h-100v100h-100v-100h-100v100h-100v400h100v100h100v100h-100v100zM200 -100h100v-100h-100v100z" />
    <glyph glyph-name="uni1FA3" unicode="&#x1fa3;" 
d="M100 800h300v-100h100v-100h-100v100h-200v-100h100v-100h-100v100h-100v200zM0 500h100v-400h100v300h100v-300h100v400h100v-400h-100v-100h-100v100h-100v-100h-100v100h-100v400zM200 -100h100v-100h-100v100z" />
    <glyph glyph-name="uni1FA4" unicode="&#x1fa4;" 
d="M100 800h200v-100h100v100h100v-100h-100v-100h-200v-100h-100v-400h100v300h100v-300h100v400h100v-400h-100v-100h-100v100h-100v-100h-100v100h-100v400h100v100h100v100h-100v100zM200 -100h100v-100h-100v100z" />
    <glyph glyph-name="uni1FA5" unicode="&#x1fa5;" 
d="M100 800h200v-100h100v100h100v-100h-100v-100h-100v-100h-100v100h-100v200zM200 700v-100h100v100h-100zM0 500h100v-400h100v300h100v-300h100v400h100v-400h-100v-100h-100v100h-100v-100h-100v100h-100v400zM200 -100h100v-100h-100v100z" />
    <glyph glyph-name="uni1FA6" unicode="&#x1fa6;" 
d="M100 800h400v-100h-100v-100h-100v-100h-100v100h100v100h-200v100zM0 500h100v-400h100v300h100v-300h100v400h100v-400h-100v-100h-100v100h-100v-100h-100v100h-100v400zM200 -100h100v-100h-100v100z" />
    <glyph glyph-name="uni1FA7" unicode="&#x1fa7;" 
d="M100 800h400v-100h-200v-100h100v-100h100v-400h-100v-100h-100v100h-100v-100h-100v100h-100v400h100v-400h100v300h100v-300h100v400h-100v100h-100v100h-100v100zM200 -100h100v-100h-100v100z" />
    <glyph glyph-name="uni1FA8" unicode="&#x1fa8;" 
d="M0 700h200v-100h100v100h200v-100h100v-400h-100v-100h100v-100h-400v100h100v100h-100v300h-100v-100h-100v100h100v100h-100v100zM300 600v-400h200v400h-200zM300 -100h100v-100h-100v100z" />
    <glyph glyph-name="uni1FA9" unicode="&#x1fa9;" 
d="M0 700h200v-100h100v100h200v-100h100v-400h-100v-100h100v-100h-400v100h100v100h-100v200h-100v100h-100v200zM100 600v-100h100v100h-100zM300 600v-400h200v400h-200zM300 -100h100v-100h-100v100z" />
    <glyph glyph-name="uni1FAA" unicode="&#x1faa;" 
d="M0 700h200v-100h100v100h200v-100h100v-400h-100v-100h100v-100h-400v100h100v100h-200v100h-100v200h100v100h-100v100zM300 600v-400h200v400h-200zM100 500v-200h100v200h-100zM300 -100h100v-100h-100v100z" />
    <glyph glyph-name="uni1FAB" unicode="&#x1fab;" 
d="M0 700h200v-100h100v100h200v-100h100v-400h-100v-100h100v-100h-400v100h100v100h-200v100h-100v100h100v100h-100v200zM100 600v-100h100v100h-100zM300 600v-400h200v400h-200zM100 400v-100h100v100h-100zM300 -100h100v-100h-100v100z" />
    <glyph glyph-name="uni1FAC" unicode="&#x1fac;" 
d="M0 700h200v-100h100v100h200v-100h100v-400h-100v-100h100v-100h-400v100h100v100h-100v100h-100v-100h-100v100h100v100h-100v100h100v100h-100v100zM300 600v-400h200v400h-200zM100 500v-100h100v100h-100zM300 -100h100v-100h-100v100z" />
    <glyph glyph-name="uni1FAD" unicode="&#x1fad;" 
d="M0 700h200v-100h100v100h200v-100h100v-400h-100v-100h100v-100h-400v100h100v100h-100v100h-100v-100h-100v100h100v200h-100v200zM100 600v-100h100v100h-100zM300 600v-400h200v400h-200zM300 -100h100v-100h-100v100z" />
    <glyph glyph-name="uni1FAE" unicode="&#x1fae;" 
d="M0 700h200v-100h100v100h200v-100h100v-400h-100v-100h100v-100h-400v100h100v100h-100v100h-100v-100h-100v100h100v100h-100v100h200v100h-200v100zM300 600v-400h200v400h-200zM300 -100h100v-100h-100v100z" />
    <glyph glyph-name="uni1FAF" unicode="&#x1faf;" 
d="M0 700h200v-100h100v100h200v-100h100v-400h-100v-100h100v-100h-400v100h100v100h-200v100h-100v200h200v100h-200v100zM300 600v-400h200v400h-200zM100 400v-100h100v100h-100zM300 -100h100v-100h-100v100z" />
    <glyph glyph-name="uni1FB0" unicode="&#x1fb0;" 
d="M0 800h100v-100h300v100h100v-100h-100v-100h-300v100h-100v100zM100 500h300v-100h100v-400h-100v100h-100v-100h-200v100h-100v300h100v100zM100 400v-300h200v100h100v200h-300z" />
    <glyph glyph-name="uni1FB1" unicode="&#x1fb1;" 
d="M0 700h500v-100h-500v100zM100 500h300v-100h100v-400h-100v100h-100v-100h-200v100h-100v300h100v100zM100 400v-300h200v100h100v200h-300z" />
    <glyph glyph-name="uni1FB2" unicode="&#x1fb2;" 
d="M100 800h100v-100h100v-100h-100v100h-100v100zM100 500h300v-100h100v-400h-100v100h-100v-100h-200v100h-100v300h100v100zM100 400v-300h200v100h100v200h-300zM200 -100h100v-100h-100v100z" />
    <glyph glyph-name="uni1FB3" unicode="&#x1fb3;" 
d="M100 500h300v-100h100v-400h-100v100h-100v-100h-200v100h-100v300h100v100zM100 400v-300h200v100h100v200h-300zM200 -100h100v-100h-100v100z" />
    <glyph glyph-name="uni1FB4" unicode="&#x1fb4;" 
d="M300 800h100v-100h-100v-100h-100v100h100v100zM100 500h300v-100h100v-400h-100v100h-100v-100h-200v100h-100v300h100v100zM100 400v-300h200v100h100v200h-300zM200 -100h100v-100h-100v100z" />
    <glyph glyph-name="uni1FB6" unicode="&#x1fb6;" 
d="M100 700h400v-100h-400v100zM100 500h300v-100h100v-400h-100v100h-100v-100h-200v100h-100v300h100v100zM100 400v-300h200v100h100v200h-300z" />
    <glyph glyph-name="uni1FB7" unicode="&#x1fb7;" 
d="M100 700h400v-100h-400v100zM100 500h300v-100h100v-400h-100v100h-100v-100h-200v100h-100v300h100v100zM100 400v-300h200v100h100v200h-300zM200 -100h100v-100h-100v100z" />
    <glyph glyph-name="uni1FB8" unicode="&#x1fb8;" 
d="M0 800h100v-100h300v100h100v-100h-100v-200h100v-500h-100v200h-300v-200h-100v500h100v200h-100v100zM100 500v-200h300v200h-300z" />
    <glyph glyph-name="uni1FB9" unicode="&#x1fb9;" 
d="M0 800h500v-100h-500v100zM100 600h300v-100h100v-500h-100v200h-300v-200h-100v500h100v100zM100 500v-200h300v200h-300z" />
    <glyph glyph-name="uni1FBA" unicode="&#x1fba;" 
d="M0 700h100v-100h200v100h200v-100h100v-600h-100v200h-200v-200h-100v500h-100v100h-100v100zM300 600v-300h200v300h-200z" />
    <glyph glyph-name="uni1FBB" unicode="&#x1fbb;" 
d="M100 700h100v-100h100v100h200v-100h100v-600h-100v200h-200v-200h-100v600h-100v-100h-100v100h100v100zM300 600v-300h200v300h-200z" />
    <glyph glyph-name="uni1FBC" unicode="&#x1fbc;" 
d="M200 700h100v-100h100v-100h100v-500h-100v200h-300v-200h-100v500h100v100h100v100zM200 600v-100h-100v-200h300v200h-100v100h-100zM200 0h100v-100h100v-100h-200v200z" />
    <glyph glyph-name="uni1FBD" unicode="&#x1fbd;" 
d="M200 700h200v-200h-100v-100h-100v100h100v100h-100v100z" />
    <glyph glyph-name="uni1FBE" unicode="&#x1fbe;" 
d="M200 300h100v-200h100v-100h-100v100h-100v200z" />
    <glyph glyph-name="uni1FBF" unicode="&#x1fbf;" 
d="M200 700h200v-200h-100v-100h-100v100h100v100h-100v100z" />
    <glyph glyph-name="uni1FC0" unicode="&#x1fc0;" 
d="M100 700h400v-100h-400v100z" />
    <glyph glyph-name="uni1FC1" unicode="&#x1fc1;" 
d="M0 700h500v-100h-500v100zM0 500h100v-100h-100v100zM400 500h100v-100h-100v100z" />
    <glyph glyph-name="uni1FC2" unicode="&#x1fc2;" 
d="M100 800h100v-100h100v-100h-100v100h-100v100zM0 500h100v-100h100v100h200v-100h100v-600h-100v600h-200v-100h-100v-300h-100v500zM0 -100h100v-100h-100v100z" />
    <glyph glyph-name="uni1FC3" unicode="&#x1fc3;" 
d="M0 500h100v-100h100v100h200v-100h100v-600h-100v600h-200v-100h-100v-300h-100v500zM0 -100h100v-100h-100v100z" />
    <glyph glyph-name="uni1FC4" unicode="&#x1fc4;" 
d="M300 800h100v-100h-100v-100h-100v100h100v100zM0 500h100v-100h100v100h200v-100h100v-600h-100v600h-200v-100h-100v-300h-100v500zM0 -100h100v-100h-100v100z" />
    <glyph glyph-name="uni1FC6" unicode="&#x1fc6;" 
d="M100 700h400v-100h-400v100zM0 500h100v-100h100v100h200v-100h100v-600h-100v600h-200v-100h-100v-300h-100v500z" />
    <glyph glyph-name="uni1FC7" unicode="&#x1fc7;" 
d="M100 700h400v-100h-400v100zM0 500h100v-100h100v100h200v-100h100v-600h-100v600h-200v-100h-100v-300h-100v500zM0 -100h100v-100h-100v100z" />
    <glyph glyph-name="uni1FC8" unicode="&#x1fc8;" 
d="M0 700h100v-100h100v100h400v-100h-300v-200h200v-100h-200v-200h300v-100h-400v500h-100v100h-100v100z" />
    <glyph glyph-name="uni1FC9" unicode="&#x1fc9;" 
d="M100 700h500v-100h-300v-200h200v-100h-200v-200h300v-100h-400v600h-100v-100h-100v100h100v100z" />
    <glyph glyph-name="uni1FCA" unicode="&#x1fca;" 
d="M0 700h100v-100h100v100h100v-300h200v300h100v-700h-100v300h-200v-300h-100v500h-100v100h-100v100z" />
    <glyph glyph-name="uni1FCB" unicode="&#x1fcb;" 
d="M100 700h200v-300h200v300h100v-700h-100v300h-200v-300h-100v600h-100v-100h-100v100h100v100z" />
    <glyph glyph-name="uni1FCC" unicode="&#x1fcc;" 
d="M0 700h100v-300h300v300h100v-700h-100v300h-300v-300h-100v700zM200 0h100v-100h100v-100h-200v200z" />
    <glyph glyph-name="uni1FCD" unicode="&#x1fcd;" 
d="M100 700h300v-100h100v-100h-100v100h-100v-100h-100v-100h-100v100h100v100h-100v100z" />
    <glyph glyph-name="uni1FCE" unicode="&#x1fce;" 
d="M100 700h200v-100h100v100h100v-100h-100v-100h-200v-100h-100v100h100v100h-100v100z" />
    <glyph glyph-name="uni1FCF" unicode="&#x1fcf;" 
d="M100 700h400v-100h-100v-100h-100v-100h-100v100h100v100h-200v100z" />
    <glyph glyph-name="uni1FD0" unicode="&#x1fd0;" 
d="M0 800h100v-100h300v100h100v-100h-100v-100h-300v100h-100v100zM200 500h100v-400h100v100h100v-100h-100v-100h-100v100h-100v400z" />
    <glyph glyph-name="uni1FD1" unicode="&#x1fd1;" 
d="M0 700h500v-100h-500v100zM200 500h100v-400h100v100h100v-100h-100v-100h-100v100h-100v400z" />
    <glyph glyph-name="uni1FD2" unicode="&#x1fd2;" 
d="M100 800h100v-100h100v-100h-100v100h-100v-100h-100v100h100v100zM400 700h100v-100h-100v100zM200 500h100v-400h100v100h100v-100h-100v-100h-100v100h-100v400z" />
    <glyph glyph-name="uni1FD3" unicode="&#x1fd3;" 
d="M300 800h100v-100h100v-100h-100v100h-100v-100h-100v100h100v100zM0 700h100v-100h-100v100zM200 500h100v-400h100v100h100v-100h-100v-100h-100v100h-100v400z" />
    <glyph glyph-name="uni1FD6" unicode="&#x1fd6;" 
d="M100 700h400v-100h-400v100zM200 500h100v-400h100v100h100v-100h-100v-100h-100v100h-100v400z" />
    <glyph glyph-name="uni1FD7" unicode="&#x1fd7;" 
d="M0 800h500v-100h-500v100zM0 600h100v-100h-100v100zM400 600h100v-100h-100v100zM200 500h100v-400h100v100h100v-100h-100v-100h-100v100h-100v400z" />
    <glyph glyph-name="uni1FD8" unicode="&#x1fd8;" 
d="M0 800h100v-100h300v100h100v-100h-100v-200h-100v-400h100v-100h-300v100h100v400h-100v200h-100v100z" />
    <glyph glyph-name="uni1FD9" unicode="&#x1fd9;" 
d="M0 800h500v-100h-500v100zM100 600h300v-100h-100v-400h100v-100h-300v100h100v400h-100v100z" />
    <glyph glyph-name="uni1FDA" unicode="&#x1fda;" 
d="M0 700h100v-100h100v-100h-100v100h-100v100zM300 700h300v-100h-100v-500h100v-100h-300v100h100v500h-100v100z" />
    <glyph glyph-name="uni1FDB" unicode="&#x1fdb;" 
d="M100 700h100v-100h-100v-100h-100v100h100v100zM300 700h300v-100h-100v-500h100v-100h-300v100h100v500h-100v100z" />
    <glyph glyph-name="uni1FDD" unicode="&#x1fdd;" 
d="M100 700h200v-100h100v100h100v-100h-100v-100h-200v-100h-100v100h100v100h-100v100z" />
    <glyph glyph-name="uni1FDE" unicode="&#x1fde;" 
d="M100 700h200v-100h100v100h100v-100h-100v-100h-100v-100h-100v100h-100v200zM200 600v-100h100v100h-100z" />
    <glyph glyph-name="uni1FDF" unicode="&#x1fdf;" 
d="M100 700h400v-100h-200v-100h100v-100h-100v100h-100v100h-100v100z" />
    <glyph glyph-name="uni1FE0" unicode="&#x1fe0;" 
d="M0 800h100v-100h300v100h100v-100h-100v-100h-300v100h-100v100zM0 500h100v-400h300v400h100v-400h-100v-100h-300v100h-100v400z" />
    <glyph glyph-name="uni1FE1" unicode="&#x1fe1;" 
d="M0 700h500v-100h-500v100zM0 500h100v-400h300v400h100v-400h-100v-100h-300v100h-100v400z" />
    <glyph glyph-name="uni1FE2" unicode="&#x1fe2;" 
d="M100 800h100v-100h100v-100h-100v100h-100v-100h-100v100h100v100zM400 700h100v-100h-100v100zM0 500h100v-400h300v400h100v-400h-100v-100h-300v100h-100v400z" />
    <glyph glyph-name="uni1FE3" unicode="&#x1fe3;" 
d="M300 800h100v-100h100v-100h-100v100h-100v-100h-100v100h100v100zM0 700h100v-100h-100v100zM0 500h100v-400h300v400h100v-400h-100v-100h-300v100h-100v400z" />
    <glyph glyph-name="uni1FE4" unicode="&#x1fe4;" 
d="M200 800h200v-200h-100v-100h100v-100h100v-300h-100v-100h-300v-200h-100v600h100v100h100v100h100v100h-100v100zM100 400v-300h300v300h-300z" />
    <glyph glyph-name="uni1FE5" unicode="&#x1fe5;" 
d="M200 800h200v-100h-100v-100h100v-200h100v-300h-100v-100h-300v-200h-100v600h100v100h200v100h-100v200zM100 400v-300h300v300h-300z" />
    <glyph glyph-name="uni1FE6" unicode="&#x1fe6;" 
d="M100 700h400v-100h-400v100zM0 500h100v-400h300v400h100v-400h-100v-100h-300v100h-100v400z" />
    <glyph glyph-name="uni1FE7" unicode="&#x1fe7;" 
d="M0 800h500v-100h-500v100zM0 600h100v-100h-100v100zM400 600h100v-100h-100v100zM0 400h100v-300h300v300h100v-300h-100v-100h-300v100h-100v300z" />
    <glyph glyph-name="uni1FE8" unicode="&#x1fe8;" 
d="M0 800h100v-100h300v100h100v-100h-100v-100h100v-200h-100v-100h-100v-300h-100v300h-100v100h-100v200h100v100h-100v100zM100 600v-200h100v-100h100v100h100v200h-300z" />
    <glyph glyph-name="uni1FE9" unicode="&#x1fe9;" 
d="M0 800h500v-100h-500v100zM0 600h100v-200h100v-100h100v100h100v200h100v-200h-100v-100h-100v-300h-100v300h-100v100h-100v200z" />
    <glyph glyph-name="uni1FEA" unicode="&#x1fea;" 
d="M0 700h100v-100h100v-100h-100v100h-100v100zM300 700h100v-300h100v300h100v-300h-100v-400h-100v400h-100v300z" />
    <glyph glyph-name="uni1FEB" unicode="&#x1feb;" 
d="M100 700h100v-100h-100v-100h-100v100h100v100zM300 700h100v-300h100v300h100v-300h-100v-400h-100v400h-100v300z" />
    <glyph glyph-name="uni1FEC" unicode="&#x1fec;" 
d="M0 700h500v-100h100v-200h-100v-100h-200v-300h-100v400h-100v100h-100v200zM100 600v-100h100v100h-100zM300 600v-200h200v200h-200z" />
    <glyph glyph-name="uni1FED" unicode="&#x1fed;" 
d="M100 700h100v-100h100v-100h-100v100h-100v-100h-100v100h100v100zM400 600h100v-100h-100v100z" />
    <glyph glyph-name="uni1FEE" unicode="&#x1fee;" 
d="M300 700h100v-100h100v-100h-100v100h-100v-100h-100v100h100v100zM0 600h100v-100h-100v100z" />
    <glyph glyph-name="uni1FEF" unicode="&#x1fef;" 
d="M200 700h100v-100h100v-100h-100v100h-100v100z" />
    <glyph glyph-name="uni1FF2" unicode="&#x1ff2;" 
d="M100 800h100v-100h100v-100h-100v100h-100v100zM0 500h100v-400h100v300h100v-300h100v400h100v-400h-100v-100h-100v100h-100v-100h-100v100h-100v400zM200 -100h100v-100h-100v100z" />
    <glyph glyph-name="uni1FF3" unicode="&#x1ff3;" 
d="M0 500h100v-400h100v300h100v-300h100v400h100v-400h-100v-100h-100v100h-100v-100h-100v100h-100v400zM200 -100h100v-100h-100v100z" />
    <glyph glyph-name="uni1FF4" unicode="&#x1ff4;" 
d="M300 800h100v-100h-100v-100h-100v100h100v100zM0 500h100v-400h100v300h100v-300h100v400h100v-400h-100v-100h-100v100h-100v-100h-100v100h-100v400zM200 -100h100v-100h-100v100z" />
    <glyph glyph-name="uni1FF6" unicode="&#x1ff6;" 
d="M100 700h400v-100h-400v100zM0 500h100v-400h100v300h100v-300h100v400h100v-400h-100v-100h-100v100h-100v-100h-100v100h-100v400z" />
    <glyph glyph-name="uni1FF7" unicode="&#x1ff7;" 
d="M100 700h400v-100h-400v100zM0 500h100v-400h100v300h100v-300h100v400h100v-400h-100v-100h-100v100h-100v-100h-100v100h-100v400zM200 -100h100v-100h-100v100z" />
    <glyph glyph-name="uni1FF8" unicode="&#x1ff8;" 
d="M0 700h100v-100h200v100h200v-100h100v-500h-100v-100h-200v100h-100v400h-100v100h-100v100zM300 600v-500h200v500h-200z" />
    <glyph glyph-name="uni1FF9" unicode="&#x1ff9;" 
d="M100 700h100v-100h100v100h200v-100h100v-500h-100v-100h-200v100h-100v500h-100v-100h-100v100h100v100zM300 600v-500h200v500h-200z" />
    <glyph glyph-name="uni1FFA" unicode="&#x1ffa;" 
d="M0 700h100v-100h200v100h200v-100h100v-400h-100v-100h100v-100h-400v100h100v100h-100v300h-100v100h-100v100zM300 600v-400h200v400h-200z" />
    <glyph glyph-name="uni1FFB" unicode="&#x1ffb;" 
d="M100 700h100v-100h100v100h200v-100h100v-400h-100v-100h100v-100h-400v100h100v100h-100v400h-100v-100h-100v100h100v100zM300 600v-400h200v400h-200z" />
    <glyph glyph-name="uni1FFC" unicode="&#x1ffc;" 
d="M100 700h300v-100h100v-400h-100v-100h100v-100h-200v-100h100v-100h-200v200h-200v100h100v100h-100v400h100v100zM100 600v-400h100v-200h100v200h100v400h-300z" />
    <glyph glyph-name="uni1FFD" unicode="&#x1ffd;" 
d="M300 700h100v-100h-100v-100h-100v100h100v100z" />
    <glyph glyph-name="uni1FFE" unicode="&#x1ffe;" 
d="M200 700h200v-100h-100v-100h100v-100h-100v100h-100v200z" />
    <glyph glyph-name="uni2010" unicode="&#x2010;" 
d="M100 400h400v-100h-400v100z" />
    <glyph glyph-name="uni2011" unicode="&#x2011;" 
d="M100 400h400v-100h-400v100z" />
    <glyph glyph-name="figuredash" unicode="&#x2012;" 
d="M0 400h500v-100h-500v100z" />
    <glyph glyph-name="endash" unicode="&#x2013;" 
d="M0 400h500v-100h-500v100z" />
    <glyph glyph-name="emdash" unicode="&#x2014;" 
d="M0 400h600v-100h-600v100z" />
    <glyph glyph-name="uni2015" unicode="&#x2015;" 
d="M0 400h600v-100h-600v100z" />
    <glyph glyph-name="uni2016" unicode="&#x2016;" 
d="M100 800h100v-800h-100v800zM300 800h100v-800h-100v800z" />
    <glyph glyph-name="underscoredbl" unicode="&#x2017;" 
d="M0 100h600v-100h-600v100zM0 -100h600v-100h-600v100z" />
    <glyph glyph-name="quoteleft" unicode="&#x2018;" 
d="M300 700h100v-100h-100v-100h100v-100h-200v200h100v100z" />
    <glyph glyph-name="quoteright" unicode="&#x2019;" 
d="M200 700h200v-200h-100v-100h-100v100h100v100h-100v100z" />
    <glyph glyph-name="quotesinglbase" unicode="&#x201a;" 
d="M200 200h200v-200h-100v-100h-100v100h100v100h-100v100z" />
    <glyph glyph-name="quotereversed" unicode="&#x201b;" 
d="M200 700h200v-100h-100v-100h100v-100h-100v100h-100v200z" />
    <glyph glyph-name="quotedblleft" unicode="&#x201c;" 
d="M100 700h100v-100h-100v-100h100v-100h-200v200h100v100zM400 700h100v-100h-100v-100h100v-100h-200v200h100v100z" />
    <glyph glyph-name="quotedblright" unicode="&#x201d;" 
d="M0 700h200v-200h-100v-100h-100v100h100v100h-100v100zM300 700h200v-200h-100v-100h-100v100h100v100h-100v100z" />
    <glyph glyph-name="quotedblbase" unicode="&#x201e;" 
d="M0 200h200v-200h-100v-100h-100v100h100v100h-100v100zM300 200h200v-200h-100v-100h-100v100h100v100h-100v100z" />
    <glyph glyph-name="uni201F" unicode="&#x201f;" 
d="M0 700h200v-100h-100v-100h100v-100h-100v100h-100v200zM300 700h200v-100h-100v-100h100v-100h-100v100h-100v200z" />
    <glyph glyph-name="dagger" unicode="&#x2020;" 
d="M200 700h100v-200h200v-100h-200v-400h-100v400h-200v100h200v200z" />
    <glyph glyph-name="daggerdbl" unicode="&#x2021;" 
d="M200 700h100v-200h200v-100h-200v-100h200v-100h-200v-200h-100v200h-200v100h200v100h-200v100h200v200z" />
    <glyph glyph-name="bullet" unicode="&#x2022;" 
d="M200 500h200v-100h100v-200h-100v-100h-200v100h-100v200h100v100z" />
    <glyph glyph-name="uni2023" unicode="&#x2023;" 
d="M200 500h100v-100h100v-100h100v-100h-500v100h100v100h100v100z" />
    <glyph glyph-name="onedotenleader" unicode="&#x2024;" 
d="M200 100h100v-100h-100v100z" />
    <glyph glyph-name="twodotenleader" unicode="&#x2025;" 
d="M0 100h100v-100h-100v100zM400 100h100v-100h-100v100z" />
    <glyph glyph-name="ellipsis" unicode="&#x2026;" 
d="M0 100h100v-100h-100v100zM200 100h100v-100h-100v100zM400 100h100v-100h-100v100z" />
    <glyph glyph-name="uni2027" unicode="&#x2027;" 
d="M200 400h200v-100h-200v100z" />
    <glyph glyph-name="perthousand" unicode="&#x2030;" 
d="M100 700h100v-100h100v-100h100v200h100v-200h-100v-100h-100v-200h100v100h100v-100h100v-100h-100v-100h-100v100h-100v-100h-100v100h-100v-100h-100v200h100v100h100v100h-100v100h-100v100h100v100zM100 600v-100h100v-100h100v100h-100v100h-100zM200 200v-100h100
v100h-100zM400 200v-100h100v100h-100z" />
    <glyph glyph-name="minute" unicode="&#x2032;" 
d="M300 800h100v-200h-100v-100h-100v100h100v200z" />
    <glyph glyph-name="second" unicode="&#x2033;" 
d="M200 800h100v-200h100v200h100v-200h-100v-100h-100v100h-100v-100h-100v100h100v200z" />
    <glyph glyph-name="uni2034" unicode="&#x2034;" 
d="M100 800h100v-200h100v200h100v-200h100v200h100v-200h-100v-100h-100v100h-100v-100h-100v100h-100v-100h-100v100h100v200z" />
    <glyph glyph-name="uni2035" unicode="&#x2035;" 
d="M200 800h100v-200h100v-100h-100v100h-100v200z" />
    <glyph glyph-name="uni2036" unicode="&#x2036;" 
d="M100 800h100v-200h100v200h100v-200h100v-100h-100v100h-100v-100h-100v100h-100v200z" />
    <glyph glyph-name="uni2037" unicode="&#x2037;" 
d="M0 800h100v-200h100v200h100v-200h100v200h100v-200h100v-100h-100v100h-100v-100h-100v100h-100v-100h-100v100h-100v200z" />
    <glyph glyph-name="uni2038" unicode="&#x2038;" 
d="M200 100h100v-100h100v-100h100v-100h-100v100h-100v100h-100v-100h-100v-100h-100v100h100v100h100v100z" />
    <glyph glyph-name="guilsinglleft" unicode="&#x2039;" 
d="M300 500h100v-100h-100v-100h-100v-100h100v-100h100v-100h-100v100h-100v100h-100v100h100v100h100v100z" />
    <glyph glyph-name="guilsinglright" unicode="&#x203a;" 
d="M100 500h100v-100h100v-100h100v-100h-100v-100h-100v-100h-100v100h100v100h100v100h-100v100h-100v100z" />
    <glyph glyph-name="exclamdbl" unicode="&#x203c;" 
d="M100 700h100v-500h-100v500zM300 700h100v-500h-100v500zM100 100h100v-100h-100v100zM300 100h100v-100h-100v100z" />
    <glyph glyph-name="uni203D" unicode="&#x203d;" 
d="M100 700h300v-100h100v-100h-100v-100h-100v-200h-100v400h-100v-100h-100v100h100v100zM300 600v-100h100v100h-100zM200 100h100v-100h-100v100z" />
    <glyph glyph-name="uni203E" unicode="&#x203e;" 
d="M0 800h600v-100h-600v100z" />
    <glyph glyph-name="uni203F" unicode="&#x203f;" 
d="M0 0h100v-100h300v100h100v-100h-100v-100h-300v100h-100v100z" />
    <glyph glyph-name="uni2040" unicode="&#x2040;" 
d="M100 800h300v-100h100v-100h-100v100h-300v-100h-100v100h100v100z" />
    <glyph glyph-name="uni2043" unicode="&#x2043;" 
d="M100 400h300v-200h-300v200z" />
    <glyph glyph-name="fraction" unicode="&#x2044;" 
d="M400 700h100v-200h-100v-100h-100v-100h-100v-100h-100v-200h-100v200h100v100h100v100h100v100h100v200z" />
    <glyph glyph-name="uni2045" unicode="&#x2045;" 
d="M100 700h300v-100h-200v-200h200v-100h-200v-200h200v-100h-300v700z" />
    <glyph glyph-name="uni2046" unicode="&#x2046;" 
d="M100 700h300v-700h-300v100h200v200h-200v100h200v200h-200v100z" />
    <glyph glyph-name="uni2047" unicode="&#x2047;" 
d="M100 700h100v-100h100v100h100v-100h100v-200h-100v-200h-100v200h-100v-200h-100v200h100v200h-100v-100h-100v100h100v100zM300 600v-200h100v200h-100zM100 100h100v-100h-100v100zM300 100h100v-100h-100v100z" />
    <glyph glyph-name="uni2048" unicode="&#x2048;" 
d="M100 700h100v-100h100v-200h-100v-200h-100v200h100v200h-100v-100h-100v100h100v100zM400 700h100v-500h-100v500zM100 100h100v-100h-100v100zM400 100h100v-100h-100v100z" />
    <glyph glyph-name="uni2049" unicode="&#x2049;" 
d="M0 700h100v-500h-100v500zM300 700h100v-100h100v-200h-100v-200h-100v200h100v200h-100v-100h-100v100h100v100zM0 100h100v-100h-100v100zM300 100h100v-100h-100v100z" />
    <glyph glyph-name="uni204A" unicode="&#x204a;" 
d="M100 400h400v-200h-100v-100h-100v-100h-100v100h100v100h100v100h-300v100z" />
    <glyph glyph-name="uni204B" unicode="&#x204b;" 
d="M0 700h400v-100h100v-200h-100v-100h-100v-300h-100v600h-100v-600h-100v700z" />
    <glyph glyph-name="uni204C" unicode="&#x204c;" 
d="M100 500h200v-400h-200v100h-100v200h100v100zM400 500h100v-400h-100v400z" />
    <glyph glyph-name="uni204D" unicode="&#x204d;" 
d="M0 500h100v-400h-100v400zM200 500h200v-100h100v-200h-100v-100h-200v400z" />
    <glyph glyph-name="uni204E" unicode="&#x204e;" 
d="M0 500h100v-100h100v-100h100v100h100v100h100v-100h-100v-100h100v-100h-100v-100h100v-100h-100v100h-100v100h-100v-100h-100v-100h-100v100h100v100h-100v100h100v100h-100v100z" />
    <glyph glyph-name="uni204F" unicode="&#x204f;" 
d="M200 600h100v-100h100v-100h-100v-100h-100v100h-100v100h100v100zM100 200h200v-200h100v-100h-100v100h-100v100h-100v100z" />
    <glyph glyph-name="uni2050" unicode="&#x2050;" 
d="M100 800h300v-100h100v-200h-100v200h-300v-200h-100v200h100v100zM0 300h100v-200h300v200h100v-200h-100v-100h-300v100h-100v200z" />
    <glyph glyph-name="uni2051" unicode="&#x2051;" 
d="M200 800h100v-100h100v-100h-100v-100h100v-100h-100v100h-100v-100h-100v100h100v100h-100v100h100v100zM200 300h100v-100h100v-100h-100v-100h100v-100h-100v100h-100v-100h-100v100h100v100h-100v100h100v100z" />
    <glyph glyph-name="uni2070" unicode="&#x2070;" 
d="M200 800h200v-100h100v-300h-100v-100h-200v100h-100v300h100v100zM200 700v-300h200v300h-200z" />
    <glyph glyph-name="uni2071" unicode="&#x2071;" 
d="M200 800h100v-100h-100v100zM100 600h200v-200h100v-100h-300v100h100v100h-100v100z" />
    <glyph glyph-name="uni2074" unicode="&#x2074;" 
d="M300 800h100v-300h100v-100h-100v-100h-100v100h-200v200h100v100h100v100zM200 600v-100h100v100h-100z" />
    <glyph glyph-name="uni2075" unicode="&#x2075;" 
d="M100 800h400v-100h-300v-100h200v-100h100v-100h-100v-100h-300v100h300v100h-300v300z" />
    <glyph glyph-name="uni2076" unicode="&#x2076;" 
d="M200 800h300v-100h-300v-100h200v-100h100v-100h-100v-100h-200v100h-100v300h100v100zM200 500v-100h200v100h-200z" />
    <glyph glyph-name="uni2077" unicode="&#x2077;" 
d="M100 800h400v-200h-100v-100h-100v-200h-100v200h100v100h100v100h-300v100z" />
    <glyph glyph-name="uni2078" unicode="&#x2078;" 
d="M200 800h200v-100h100v-100h-100v-100h100v-100h-100v-100h-200v100h-100v100h100v100h-100v100h100v100zM200 700v-100h200v100h-200zM200 500v-100h200v100h-200z" />
    <glyph glyph-name="uni2079" unicode="&#x2079;" 
d="M200 800h200v-100h100v-300h-100v-100h-200v100h200v100h-200v100h-100v100h100v100zM200 700v-100h200v100h-200z" />
    <glyph glyph-name="uni207A" unicode="&#x207a;" 
d="M200 700h100v-100h100v-100h-100v-100h-100v100h-100v100h100v100z" />
    <glyph glyph-name="uni207B" unicode="&#x207b;" 
d="M100 600h300v-100h-300v100z" />
    <glyph glyph-name="uni207C" unicode="&#x207c;" 
d="M100 700h400v-100h-400v100zM100 500h400v-100h-400v100z" />
    <glyph glyph-name="uni207D" unicode="&#x207d;" 
d="M300 800h100v-100h-100v-300h100v-100h-100v100h-100v300h100v100z" />
    <glyph glyph-name="uni207E" unicode="&#x207e;" 
d="M200 800h100v-100h100v-300h-100v-100h-100v100h100v300h-100v100z" />
    <glyph glyph-name="uni207F" unicode="&#x207f;" 
d="M100 700h100v-100h100v100h100v-100h100v-300h-100v300h-100v-100h-100v-200h-100v400z" />
    <glyph glyph-name="uni2080" unicode="&#x2080;" 
d="M200 300h200v-100h100v-300h-100v-100h-200v100h-100v300h100v100zM200 200v-300h200v300h-200z" />
    <glyph glyph-name="uni2081" unicode="&#x2081;" 
d="M200 300h100v-400h100v-100h-300v100h100v200h-100v100h100v100z" />
    <glyph glyph-name="uni2082" unicode="&#x2082;" 
d="M200 300h200v-100h100v-100h-100v-100h-100v-100h200v-100h-400v100h100v100h100v100h100v100h-200v-100h-100v100h100v100z" />
    <glyph glyph-name="uni2083" unicode="&#x2083;" 
d="M100 300h300v-100h100v-100h-100v-100h100v-100h-100v-100h-300v100h300v100h-200v100h200v100h-300v100z" />
    <glyph glyph-name="uni2084" unicode="&#x2084;" 
d="M300 300h100v-300h100v-100h-100v-100h-100v100h-200v200h100v100h100v100zM200 100v-100h100v100h-100z" />
    <glyph glyph-name="uni2085" unicode="&#x2085;" 
d="M100 300h400v-100h-300v-100h200v-100h100v-100h-100v-100h-300v100h300v100h-300v300z" />
    <glyph glyph-name="uni2086" unicode="&#x2086;" 
d="M200 300h300v-100h-300v-100h200v-100h100v-100h-100v-100h-200v100h-100v300h100v100zM200 0v-100h200v100h-200z" />
    <glyph glyph-name="uni2087" unicode="&#x2087;" 
d="M100 300h400v-200h-100v-100h-100v-200h-100v200h100v100h100v100h-300v100z" />
    <glyph glyph-name="uni2088" unicode="&#x2088;" 
d="M200 300h200v-100h100v-100h-100v-100h100v-100h-100v-100h-200v100h-100v100h100v100h-100v100h100v100zM200 200v-100h200v100h-200zM200 0v-100h200v100h-200z" />
    <glyph glyph-name="uni2089" unicode="&#x2089;" 
d="M200 300h200v-100h100v-300h-100v-100h-200v100h200v100h-200v100h-100v100h100v100zM200 200v-100h200v100h-200z" />
    <glyph glyph-name="uni208A" unicode="&#x208a;" 
d="M200 200h100v-100h100v-100h-100v-100h-100v100h-100v100h100v100z" />
    <glyph glyph-name="uni208B" unicode="&#x208b;" 
d="M100 100h300v-100h-300v100z" />
    <glyph glyph-name="uni208C" unicode="&#x208c;" 
d="M100 200h400v-100h-400v100zM100 0h400v-100h-400v100z" />
    <glyph glyph-name="uni208D" unicode="&#x208d;" 
d="M300 300h100v-100h-100v-300h100v-100h-100v100h-100v300h100v100z" />
    <glyph glyph-name="uni208E" unicode="&#x208e;" 
d="M200 300h100v-100h100v-300h-100v-100h-100v100h100v300h-100v100z" />
    <glyph glyph-name="uni2090" unicode="&#x2090;" 
d="M100 300h200v-100h100v-400h-300v100h-100v100h100v100h200v100h-200v100zM100 0v-100h200v100h-200z" />
    <glyph glyph-name="uni2091" unicode="&#x2091;" 
d="M100 300h200v-100h100v-200h-300v-100h200v-100h-200v100h-100v300h100v100zM100 200v-100h200v100h-200z" />
    <glyph glyph-name="uni2092" unicode="&#x2092;" 
d="M100 300h200v-100h100v-300h-100v-100h-200v100h-100v300h100v100zM100 200v-300h200v300h-200z" />
    <glyph glyph-name="uni2093" unicode="&#x2093;" 
d="M0 200h100v-100h200v100h100v-100h-100v-200h100v-100h-100v100h-200v-100h-100v100h100v200h-100v100z" />
    <glyph glyph-name="uni2094" unicode="&#x2094;" 
d="M100 300h200v-100h100v-300h-100v-100h-200v100h-100v200h300v100h-200v100zM100 0v-100h200v100h-200z" />
    <glyph glyph-name="uni2095" unicode="&#x2095;" 
d="M0 300h100v-300h100v100h100v-100h100v-200h-100v200h-100v-100h-100v-100h-100v500z" />
    <glyph glyph-name="uni2096" unicode="&#x2096;" 
d="M0 300h100v-300h100v100h100v100h100v-100h-100v-200h100v-100h-100v100h-200v-100h-100v500z" />
    <glyph glyph-name="uni2097" unicode="&#x2097;" 
d="M100 300h200v-400h100v-100h-300v100h100v300h-100v100z" />
    <glyph glyph-name="uni2098" unicode="&#x2098;" 
d="M0 300h200v-100h100v100h100v-100h100v-400h-100v400h-100v-400h-100v400h-100v-400h-100v500z" />
    <glyph glyph-name="uni2099" unicode="&#x2099;" 
d="M0 300h100v-100h100v100h100v-100h100v-400h-100v400h-100v-100h-100v-300h-100v500z" />
    <glyph glyph-name="uni209A" unicode="&#x209a;" 
d="M0 300h100v-100h100v100h100v-100h100v-200h-100v-100h-100v100h-100v-200h-100v500zM200 200v-200h100v200h-100z" />
    <glyph glyph-name="uni209B" unicode="&#x209b;" 
d="M100 300h200v-100h-200v-100h200v-100h100v-100h-100v-100h-300v100h300v100h-200v100h-100v100h100v100z" />
    <glyph glyph-name="uni209C" unicode="&#x209c;" 
d="M100 300h100v-100h100v-100h-100v-200h100v100h100v-100h-100v-100h-100v100h-100v200h-100v100h100v100z" />
    <glyph glyph-name="franc" unicode="&#x20a3;" 
d="M0 700h500v-100h-400v-200h200v-100h100v100h100v-100h-100v-100h-100v-200h-100v300h-100v-300h-100v700z" />
    <glyph glyph-name="lira" unicode="&#x20a4;" 
d="M200 700h200v-100h100v-100h-100v100h-200v-100h100v-100h-100v-100h100v-100h-100v-100h200v100h100v-100h-100v-100h-200v100h-100v-100h-100v100h100v100h-100v100h100v100h-100v100h100v100h100v100z" />
    <glyph glyph-name="peseta" unicode="&#x20a7;" 
d="M100 700h300v-100h100v-100h100v-100h-100v-100h-100v-100h-200v-200h-100v400h-100v100h100v200zM200 600v-100h200v100h-200zM200 400v-100h200v100h-200z" />
    <glyph glyph-name="dong" unicode="&#x20ab;" 
d="M400 700h100v-100h100v-100h-100v-500h-100v100h-100v-100h-200v100h-100v300h100v100h100v100h200v100zM300 500v-100h-200v-300h200v100h100v100h-100v100h100v100h-100zM0 -100h500v-100h-500v100z" />
    <glyph glyph-name="Euro" unicode="&#x20ac;" 
d="M200 700h200v-100h100v-100h-100v100h-200v-100h100v-100h-100v-100h100v-100h-100v-100h200v100h100v-100h-100v-100h-200v100h-100v100h-100v100h100v100h-100v100h100v100h100v100z" />
    <glyph glyph-name="uni20AF" unicode="&#x20af;" 
d="M100 700h100v-100h200v-100h100v-400h-100v-100h-100v100h-100v-100h-200v200h100v200h-100v100h100v200zM200 500v-300h100v-100h100v400h-200z" />
    <glyph glyph-name="uni20D0" unicode="&#x20d0;" 
d="M100 800h100v-100h300v-100h-500v100h100v100z" />
    <glyph glyph-name="uni20D1" unicode="&#x20d1;" 
d="M300 800h100v-100h100v-100h-500v100h300v100z" />
    <glyph glyph-name="uni20D2" unicode="&#x20d2;" 
d="M200 800h100v-1000h-100v1000z" />
    <glyph glyph-name="uni20D3" unicode="&#x20d3;" 
d="M200 600h100v-600h-100v600z" />
    <glyph glyph-name="uni20D4" unicode="&#x20d4;" 
d="M0 800h100v-100h100v100h200v-100h100v-100h-100v100h-200v-100h100v-100h-300v300z" />
    <glyph glyph-name="uni20D5" unicode="&#x20d5;" 
d="M100 800h200v-100h100v100h100v-300h-300v100h100v100h-200v-100h-100v100h100v100z" />
    <glyph glyph-name="uni20D6" unicode="&#x20d6;" 
d="M100 800h100v-100h300v-100h-300v-100h-100v100h-100v100h100v100z" />
    <glyph glyph-name="uni20D7" unicode="&#x20d7;" 
d="M300 800h100v-100h100v-100h-100v-100h-100v100h-300v100h300v100z" />
    <glyph glyph-name="uni2102" unicode="&#x2102;" 
d="M100 700h300v-100h100v-100h-100v100h-100v-500h100v100h100v-100h-100v-100h-300v100h-100v500h100v100zM100 600v-500h100v500h-100z" />
    <glyph glyph-name="uni2105" unicode="&#x2105;" 
d="M100 800h200v-100h-200v-200h200v-100h-200v100h-100v200h100v100zM200 300h200v-100h100v-200h-100v-100h-200v100h-100v200h100v100zM200 200v-200h200v200h-200z" />
    <glyph glyph-name="uni2113" unicode="&#x2113;" 
d="M300 700h100v-100h100v-300h-100v-100h-100v-100h200v-100h-200v100h-100v-100h-100v100h100v500h100v100zM300 600v-300h100v300h-100z" />
    <glyph glyph-name="uni2115" unicode="&#x2115;" 
d="M0 700h100v-100h100v-200h100v-100h100v400h100v-700h-100v100h-100v200h-100v-300h-200v700z" />
    <glyph glyph-name="uni2116" unicode="&#x2116;" 
d="M0 700h100v-200h100v-100h100v300h100v-200h100v-100h100v-200h-100v-100h100v-100h-300v300h-100v100h-100v-400h-100v700zM400 400v-200h100v200h-100z" />
    <glyph glyph-name="uni211A" unicode="&#x211a;" 
d="M100 700h300v-100h100v-500h-100v-100h100v-100h-200v100h-200v100h-100v500h100v100zM100 600v-500h100v500h-100zM300 600v-500h100v500h-100z" />
    <glyph glyph-name="uni211D" unicode="&#x211d;" 
d="M0 700h400v-100h100v-200h-100v-100h100v-300h-100v300h-100v-300h-100v600h-100v-600h-100v700zM300 600v-200h100v200h-100z" />
    <glyph glyph-name="trademark" unicode="&#x2122;" 
d="M0 800h600v-400h-100v200h-100v-200h-100v300h-100v-300h-100v300h-100v100z" />
    <glyph glyph-name="uni2124" unicode="&#x2124;" 
d="M0 700h500v-300h-100v-100h-100v-200h200v-100h-500v300h100v100h100v200h-200v100zM300 600v-200h-100v-100h-100v-200h100v200h100v100h100v200h-100z" />
    <glyph glyph-name="Omega" unicode="&#x2126;" 
d="M100 700h300v-100h100v-400h-100v-100h100v-100h-200v200h100v400h-300v-400h100v-200h-200v100h100v100h-100v400h100v100z" />
    <glyph glyph-name="uni2127" unicode="&#x2127;" 
d="M0 700h200v-200h-100v-400h300v400h-100v200h200v-100h-100v-100h100v-400h-100v-100h-300v100h-100v400h100v100h-100v100z" />
    <glyph glyph-name="estimated" unicode="&#x212e;" 
d="M100 500h300v-100h100v-200h-300v-100h200v-100h-300v100h-100v300h100v100zM200 400v-100h100v100h-100z" />
    <glyph glyph-name="uni2150" unicode="&#x2150;" 
d="M100 800h100v-400h100v-100h200v-300h-100v-200h-100v200h100v200h-200v100h-200v100h100v200h-100v100h100v100z" />
    <glyph glyph-name="uni2151" unicode="&#x2151;" 
d="M100 800h100v-400h100v-100h100v-100h100v-300h-100v-100h-200v100h200v100h-100v100h-100v100h100v100h-300v100h100v200h-100v100h100v100zM300 200v-100h100v100h-100z" />
    <glyph glyph-name="uni2152" unicode="&#x2152;" 
d="M100 800h100v-400h100v-100h-300v100h100v200h-100v100h100v100zM0 200h100v-400h-100v400zM300 200h100v-100h100v-200h-100v-100h-100v100h-100v200h100v100zM300 100v-200h100v200h-100z" />
    <glyph glyph-name="onethird" unicode="&#x2153;" 
d="M100 800h100v-400h100v-100h100v-100h100v-100h-100v-100h100v-100h-100v-100h-200v100h200v100h-100v100h100v100h-200v100h-200v100h100v200h-100v100h100v100z" />
    <glyph glyph-name="twothirds" unicode="&#x2154;" 
d="M100 800h100v-100h100v-200h-100v-100h100v-100h100v-100h100v-100h-100v-100h100v-100h-100v-100h-200v100h200v100h-100v100h100v100h-200v100h-200v100h100v100h100v200h-100v-100h-100v100h100v100z" />
    <glyph glyph-name="uni2155" unicode="&#x2155;" 
d="M100 800h100v-400h100v-100h200v-100h-200v-100h100v-100h100v-100h-100v-100h-200v100h200v100h-200v300h-200v100h100v200h-100v100h100v100z" />
    <glyph glyph-name="uni2156" unicode="&#x2156;" 
d="M100 800h100v-100h100v-200h-100v-100h100v-100h200v-100h-200v-100h100v-100h100v-100h-100v-100h-200v100h200v100h-200v300h-200v100h100v100h100v200h-100v-100h-100v100h100v100z" />
    <glyph glyph-name="uni2157" unicode="&#x2157;" 
d="M0 800h200v-100h100v-100h-100v-100h100v-100h-100v-100h300v-100h-200v-100h100v-100h100v-100h-100v-100h-200v100h200v100h-200v300h-200v100h200v100h-100v100h100v100h-200v100z" />
    <glyph glyph-name="uni2158" unicode="&#x2158;" 
d="M0 800h100v-200h100v200h100v-500h200v-100h-200v-100h100v-100h100v-100h-100v-100h-200v100h200v100h-200v500h-200v300z" />
    <glyph glyph-name="uni2159" unicode="&#x2159;" 
d="M100 800h100v-400h100v-100h200v-100h-200v-100h100v-100h100v-100h-100v-100h-100v100h-100v300h100v100h-300v100h100v200h-100v100h100v100zM300 0v-100h100v100h-100z" />
    <glyph glyph-name="uni215A" unicode="&#x215a;" 
d="M0 800h300v-100h-200v-100h100v-100h100v-100h-100v-100h-200v100h200v100h-200v300zM300 300h200v-100h-200v-100h100v-100h100v-100h-100v-100h-100v100h-100v300h100v100zM300 0v-100h100v100h-100z" />
    <glyph glyph-name="oneeighth" unicode="&#x215b;" 
d="M100 800h100v-400h100v-100h-300v100h100v200h-100v100h100v100zM400 300h100v-100h100v-100h-100v-100h100v-100h-100v-100h-100v100h-100v100h100v100h-100v100h100v100zM400 200v-100h100v100h-100zM400 0v-100h100v100h-100z" />
    <glyph glyph-name="threeeighths" unicode="&#x215c;" 
d="M0 800h200v-100h100v-100h-100v-100h100v-100h-100v-100h-200v100h200v100h-100v100h100v100h-200v100zM300 300h100v-100h100v-100h-100v-100h100v-100h-100v-100h-100v100h-100v100h100v100h-100v100h100v100zM300 200v-100h100v100h-100zM300 0v-100h100v100h-100z
" />
    <glyph glyph-name="fiveeighths" unicode="&#x215d;" 
d="M0 800h300v-100h-200v-100h100v-100h100v-100h-100v-100h-200v100h200v100h-200v300zM300 300h100v-100h100v-100h-100v-100h100v-100h-100v-100h-100v100h-100v100h100v100h-100v100h100v100zM300 200v-100h100v100h-100zM300 0v-100h100v100h-100z" />
    <glyph glyph-name="seveneighths" unicode="&#x215e;" 
d="M0 800h300v-300h-100v-200h-100v200h100v200h-200v100zM300 300h100v-100h100v-100h-100v-100h100v-100h-100v-100h-100v100h-100v100h100v100h-100v100h100v100zM300 200v-100h100v100h-100zM300 0v-100h100v100h-100z" />
    <glyph glyph-name="uni215F" unicode="&#x215f;" 
d="M100 800h100v-400h100v-100h-300v100h100v200h-100v100h100v100zM400 300h100v-100h-100v-100h-100v-100h-100v100h100v100h100v100z" />
    <glyph glyph-name="uni2160" unicode="&#x2160;" 
d="M100 700h300v-100h-100v-500h100v-100h-300v100h100v500h-100v100z" />
    <glyph glyph-name="uni2164" unicode="&#x2164;" 
d="M0 700h100v-300h100v-300h100v300h100v300h100v-300h-100v-300h-100v-100h-100v100h-100v300h-100v300z" />
    <glyph glyph-name="uni2169" unicode="&#x2169;" 
d="M0 700h100v-200h100v-100h100v100h100v200h100v-200h-100v-100h-100v-100h100v-100h100v-200h-100v200h-100v100h-100v-100h-100v-200h-100v200h100v100h100v100h-100v100h-100v200z" />
    <glyph glyph-name="uni216C" unicode="&#x216c;" 
d="M0 700h100v-600h400v-100h-500v700z" />
    <glyph glyph-name="uni216D" unicode="&#x216d;" 
d="M100 700h300v-100h100v-100h-100v100h-300v-500h300v100h100v-100h-100v-100h-300v100h-100v500h100v100z" />
    <glyph glyph-name="uni216E" unicode="&#x216e;" 
d="M0 700h400v-100h100v-500h-100v-100h-400v100h100v500h-100v100zM200 600v-500h200v500h-200z" />
    <glyph glyph-name="uni216F" unicode="&#x216f;" 
d="M0 700h100v-200h100v-100h100v100h100v200h100v-700h-100v400h-100v-100h-100v100h-100v-400h-100v700z" />
    <glyph glyph-name="uni2170" unicode="&#x2170;" 
d="M200 700h100v-100h-100v100zM100 500h200v-400h100v-100h-300v100h100v300h-100v100z" />
    <glyph glyph-name="uni2174" unicode="&#x2174;" 
d="M0 500h100v-200h100v-200h100v200h100v200h100v-200h-100v-200h-100v-100h-100v100h-100v200h-100v200z" />
    <glyph glyph-name="uni2179" unicode="&#x2179;" 
d="M0 500h100v-100h100v-100h100v100h100v100h100v-100h-100v-100h-100v-100h100v-100h100v-100h-100v100h-100v100h-100v-100h-100v-100h-100v100h100v100h100v100h-100v100h-100v100z" />
    <glyph glyph-name="uni217C" unicode="&#x217c;" 
d="M100 700h200v-600h100v-100h-300v100h100v500h-100v100z" />
    <glyph glyph-name="uni217D" unicode="&#x217d;" 
d="M100 500h300v-100h100v-100h-100v100h-300v-300h300v100h100v-100h-100v-100h-300v100h-100v300h100v100z" />
    <glyph glyph-name="uni217E" unicode="&#x217e;" 
d="M400 700h100v-700h-100v100h-100v-100h-200v100h-100v300h100v100h200v-100h100v300zM100 400v-300h200v100h100v100h-100v100h-200z" />
    <glyph glyph-name="uni217F" unicode="&#x217f;" 
d="M0 500h200v-100h100v100h100v-100h100v-400h-100v400h-100v-300h-100v300h-100v-400h-100v500z" />
    <glyph glyph-name="uni2180" unicode="&#x2180;" 
d="M100 700h300v-100h100v-500h-100v-100h-300v100h-100v500h100v100zM100 600v-500h100v500h-100zM300 600v-500h100v500h-100z" />
    <glyph glyph-name="uni2181" unicode="&#x2181;" 
d="M0 700h400v-100h100v-500h-100v-100h-400v100h100v500h-100v100zM200 600v-100h100v-100h-100v-100h100v-100h-100v-100h200v200h-100v100h100v200h-200z" />
    <glyph glyph-name="uni2182" unicode="&#x2182;" 
d="M100 700h300v-100h100v-500h-100v-100h-300v100h-100v500h100v100zM100 600v-100h100v100h-100zM300 600v-100h100v100h-100zM100 200v-100h100v100h-100zM300 200v-100h100v100h-100z" />
    <glyph glyph-name="uni2183" unicode="&#x2183;" 
d="M100 700h300v-100h100v-500h-100v-100h-300v100h-100v100h100v-100h300v500h-300v-100h-100v100h100v100z" />
    <glyph glyph-name="uni2184" unicode="&#x2184;" 
d="M100 500h300v-100h100v-300h-100v-100h-300v100h-100v100h100v-100h300v300h-300v-100h-100v100h100v100z" />
    <glyph glyph-name="uni2189" unicode="&#x2189;" 
d="M100 800h100v-100h100v-300h-100v-100h200v-100h100v-100h-100v-100h100v-100h-100v-100h-200v100h200v100h-100v100h100v100h-200v100h-100v100h-100v300h100v100zM100 700v-300h100v300h-100z" />
    <glyph glyph-name="uni218A" unicode="&#x218a;" 
d="M0 700h500v-200h-100v-100h-100v-100h-200v-200h300v100h100v-100h-100v-100h-300v100h-100v200h100v100h200v100h100v100h-400v100z" />
    <glyph glyph-name="uni218B" unicode="&#x218b;" 
d="M100 700h300v-100h100v-100h-100v100h-300v-200h200v-100h-100v-100h-100v-100h400v-100h-500v200h100v200h-100v200h100v100z" />
    <glyph glyph-name="arrowleft" unicode="&#x2190;" 
d="M200 500h100v-100h-100v-100h400v-100h-400v-100h100v-100h-100v100h-100v100h-100v100h100v100h100v100z" />
    <glyph glyph-name="arrowup" unicode="&#x2191;" 
d="M200 700h100v-100h100v-100h100v-100h-100v100h-100v-500h-100v500h-100v-100h-100v100h100v100h100v100z" />
    <glyph glyph-name="arrowright" unicode="&#x2192;" 
d="M300 500h100v-100h100v-100h100v-100h-100v-100h-100v-100h-100v100h100v100h-400v100h400v100h-100v100z" />
    <glyph glyph-name="arrowdown" unicode="&#x2193;" 
d="M200 700h100v-500h100v100h100v-100h-100v-100h-100v-100h-100v100h-100v100h-100v100h100v-100h100v500z" />
    <glyph glyph-name="arrowboth" unicode="&#x2194;" 
d="M100 400h100v-100h200v100h100v-100h100v-100h-100v-100h-100v100h-200v-100h-100v100h-100v100h100v100z" />
    <glyph glyph-name="arrowupdn" unicode="&#x2195;" 
d="M200 700h100v-100h100v-100h100v-100h-100v100h-100v-400h100v100h100v-100h-100v-100h-100v-100h-100v100h-100v100h-100v100h100v-100h100v400h-100v-100h-100v100h100v100h100v100z" />
    <glyph glyph-name="uni2196" unicode="&#x2196;" 
d="M0 600h400v-100h-200v-100h100v-100h100v-100h100v-100h-100v100h-100v100h-100v100h-100v-200h-100v400z" />
    <glyph glyph-name="uni2197" unicode="&#x2197;" 
d="M100 600h400v-400h-100v200h-100v-100h-100v-100h-100v-100h-100v100h100v100h100v100h100v100h-200v100z" />
    <glyph glyph-name="uni2198" unicode="&#x2198;" 
d="M0 600h100v-100h100v-100h100v-100h100v200h100v-400h-400v100h200v100h-100v100h-100v100h-100v100z" />
    <glyph glyph-name="uni2199" unicode="&#x2199;" 
d="M400 600h100v-100h-100v-100h-100v-100h-100v-100h200v-100h-400v400h100v-200h100v100h100v100h100v100z" />
    <glyph glyph-name="uni219A" unicode="&#x219a;" 
d="M200 500h100v-100h-100v-100h200v100h100v-100h100v-100h-100v-100h-100v100h-200v-100h100v-100h-100v100h-100v100h-100v100h100v100h100v100z" />
    <glyph glyph-name="uni219B" unicode="&#x219b;" 
d="M300 500h100v-100h100v-100h100v-100h-100v-100h-100v-100h-100v100h100v100h-200v-100h-100v100h-100v100h100v100h100v-100h200v100h-100v100z" />
    <glyph glyph-name="uni219F" unicode="&#x219f;" 
d="M200 700h100v-100h100v-100h100v-100h-100v100h-100v-200h100v-100h100v-100h-100v100h-100v-200h-100v200h-100v-100h-100v100h100v100h100v200h-100v-100h-100v100h100v100h100v100z" />
    <glyph glyph-name="uni21A1" unicode="&#x21a1;" 
d="M200 700h100v-200h100v100h100v-100h-100v-100h-100v-200h100v100h100v-100h-100v-100h-100v-100h-100v100h-100v100h-100v100h100v-100h100v200h-100v100h-100v100h100v-100h100v200z" />
    <glyph glyph-name="uni21A2" unicode="&#x21a2;" 
d="M200 500h100v-100h-100v-100h300v100h100v-100h-100v-100h100v-100h-100v100h-300v-100h100v-100h-100v100h-100v100h-100v100h100v100h100v100z" />
    <glyph glyph-name="uni21A3" unicode="&#x21a3;" 
d="M300 500h100v-100h100v-100h100v-100h-100v-100h-100v-100h-100v100h100v100h-300v-100h-100v100h100v100h-100v100h100v-100h300v100h-100v100z" />
    <glyph glyph-name="uni21A4" unicode="&#x21a4;" 
d="M200 500h100v-100h-100v-100h300v200h100v-500h-100v200h-300v-100h100v-100h-100v100h-100v100h-100v100h100v100h100v100z" />
    <glyph glyph-name="uni21A5" unicode="&#x21a5;" 
d="M200 700h100v-100h100v-100h100v-100h-100v100h-100v-400h100v-100h-300v100h100v400h-100v-100h-100v100h100v100h100v100z" />
    <glyph glyph-name="uni21A6" unicode="&#x21a6;" 
d="M300 500h100v-100h100v-100h100v-100h-100v-100h-100v-100h-100v100h100v100h-300v-100h-100v300h100v-100h300v100h-100v100z" />
    <glyph glyph-name="uni21A7" unicode="&#x21a7;" 
d="M100 700h300v-100h-100v-400h100v100h100v-100h-100v-100h-100v-100h-100v100h-100v100h-100v100h100v-100h100v400h-100v100z" />
    <glyph glyph-name="arrowupdnbse" unicode="&#x21a8;" 
d="M200 800h100v-100h100v-100h100v-100h-100v100h-100v-400h100v100h100v-100h-100v-100h-100v-100h200v-100h-500v100h200v100h-100v100h-100v100h100v-100h100v400h-100v-100h-100v100h100v100h100v100z" />
    <glyph glyph-name="uni21AF" unicode="&#x21af;" 
d="M0 800h100v-200h100v100h100v-500h100v100h100v-100h-100v-100h-100v-100h-100v100h-100v100h-100v100h100v-100h100v300h-100v-100h-100v400z" />
    <glyph glyph-name="uni21BA" unicode="&#x21ba;" 
d="M300 600h100v-200h100v-300h-100v-100h-300v100h-100v300h100v-300h300v300h-200v100h100v100z" />
    <glyph glyph-name="uni21BB" unicode="&#x21bb;" 
d="M100 600h100v-100h100v-100h-200v-300h300v300h100v-300h-100v-100h-300v100h-100v300h100v200z" />
    <glyph glyph-name="uni21BC" unicode="&#x21bc;" 
d="M200 500h100v-100h-100v-100h400v-100h-600v100h100v100h100v100z" />
    <glyph glyph-name="uni21BD" unicode="&#x21bd;" 
d="M0 300h600v-100h-400v-100h100v-100h-100v100h-100v100h-100v100z" />
    <glyph glyph-name="uni21BE" unicode="&#x21be;" 
d="M200 700h100v-100h100v-100h100v-100h-100v100h-100v-500h-100v700z" />
    <glyph glyph-name="uni21BF" unicode="&#x21bf;" 
d="M200 700h100v-700h-100v500h-100v-100h-100v100h100v100h100v100z" />
    <glyph glyph-name="uni21C0" unicode="&#x21c0;" 
d="M300 500h100v-100h100v-100h100v-100h-600v100h400v100h-100v100z" />
    <glyph glyph-name="uni21C1" unicode="&#x21c1;" 
d="M0 300h600v-100h-100v-100h-100v-100h-100v100h100v100h-400v100z" />
    <glyph glyph-name="uni21C2" unicode="&#x21c2;" 
d="M200 700h100v-500h100v100h100v-100h-100v-100h-100v-100h-100v700z" />
    <glyph glyph-name="uni21C3" unicode="&#x21c3;" 
d="M200 700h100v-700h-100v100h-100v100h-100v100h100v-100h100v500z" />
    <glyph glyph-name="uni21C4" unicode="&#x21c4;" 
d="M300 700h100v-100h100v-100h100v-100h-100v-100h-100v-100h-200v-100h400v-100h-400v-100h100v-100h-100v100h-100v100h-100v100h100v100h100v100h200v100h-400v100h400v100h-100v100z" />
    <glyph glyph-name="uni21C5" unicode="&#x21c5;" 
d="M100 700h100v-700h-100v500h-100v100h100v100zM300 700h100v-500h100v-100h-100v-100h-100v700z" />
    <glyph glyph-name="uni21C6" unicode="&#x21c6;" 
d="M200 700h100v-100h-100v-100h400v-100h-400v-100h200v-100h100v-100h100v-100h-100v-100h-100v-100h-100v100h100v100h-400v100h400v100h-200v100h-100v100h-100v100h100v100h100v100z" />
    <glyph glyph-name="uni21C7" unicode="&#x21c7;" 
d="M200 700h100v-100h-100v-100h400v-100h-400v-100h100v-100h-100v-100h400v-100h-400v-100h100v-100h-100v100h-100v100h-100v100h100v100h100v100h-100v100h-100v100h100v100h100v100z" />
    <glyph glyph-name="uni21C8" unicode="&#x21c8;" 
d="M100 700h100v-100h100v100h100v-100h100v-100h-100v-500h-100v500h-100v-500h-100v500h-100v100h100v100z" />
    <glyph glyph-name="uni21C9" unicode="&#x21c9;" 
d="M300 700h100v-100h100v-100h100v-100h-100v-100h-100v-100h100v-100h100v-100h-100v-100h-100v-100h-100v100h100v100h-400v100h400v100h-100v100h100v100h-400v100h400v100h-100v100z" />
    <glyph glyph-name="uni21CA" unicode="&#x21ca;" 
d="M100 700h100v-500h100v500h100v-500h100v-100h-100v-100h-100v100h-100v-100h-100v100h-100v100h100v500z" />
    <glyph glyph-name="uni21CB" unicode="&#x21cb;" 
d="M200 600h100v-100h-100v-100h400v-100h-600v100h100v100h100v100zM0 200h600v-100h-100v-100h-100v-100h-100v100h100v100h-400v100z" />
    <glyph glyph-name="uni21CC" unicode="&#x21cc;" 
d="M300 600h100v-100h100v-100h100v-100h-600v100h400v100h-100v100zM0 200h600v-100h-400v-100h100v-100h-100v100h-100v100h-100v100z" />
    <glyph glyph-name="arrowdblleft" unicode="&#x21d0;" 
d="M300 700h100v-100h-100v-100h300v-100h-500v-100h500v-100h-300v-100h100v-100h-100v100h-100v100h-100v100h-100v100h100v100h100v100h100v100z" />
    <glyph glyph-name="arrowdblup" unicode="&#x21d1;" 
d="M200 700h100v-100h100v-100h100v-100h-100v-400h-100v500h-100v-500h-100v400h-100v100h100v100h100v100z" />
    <glyph glyph-name="arrowdblright" unicode="&#x21d2;" 
d="M200 700h100v-100h100v-100h100v-100h100v-100h-100v-100h-100v-100h-100v-100h-100v100h100v100h-300v100h500v100h-500v100h300v100h-100v100z" />
    <glyph glyph-name="arrowdbldown" unicode="&#x21d3;" 
d="M100 700h100v-500h100v500h100v-400h100v-100h-100v-100h-100v-100h-100v100h-100v100h-100v100h100v400z" />
    <glyph glyph-name="arrowdblboth" unicode="&#x21d4;" 
d="M100 500h400v-100h100v-100h-100v-100h-400v100h-100v100h100v100zM100 400v-100h400v100h-400z" />
    <glyph glyph-name="uni21D5" unicode="&#x21d5;" 
d="M200 700h100v-100h100v-100h100v-100h-100v-200h100v-100h-100v-100h-100v-100h-100v100h-100v100h-100v100h100v200h-100v100h100v100h100v100zM200 600v-600h100v600h-100z" />
    <glyph glyph-name="uni21E0" unicode="&#x21e0;" 
d="M200 500h100v-100h-100v-300h100v-100h-100v100h-100v100h-100v100h100v100h100v100zM300 300h100v-100h-100v100zM500 300h100v-100h-100v100z" />
    <glyph glyph-name="uni21E1" unicode="&#x21e1;" 
d="M200 700h100v-100h100v-100h100v-100h-100v100h-100v-100h-100v100h-100v-100h-100v100h100v100h100v100zM200 300h100v-100h-100v100zM200 100h100v-100h-100v100z" />
    <glyph glyph-name="uni21E2" unicode="&#x21e2;" 
d="M300 500h100v-100h100v-100h100v-100h-100v-100h-100v-100h-100v100h100v300h-100v100zM0 300h100v-100h-100v100zM200 300h100v-100h-100v100z" />
    <glyph glyph-name="uni21E3" unicode="&#x21e3;" 
d="M200 700h100v-100h-100v100zM200 500h100v-100h-100v100zM0 300h100v-100h100v100h100v-100h100v100h100v-100h-100v-100h-100v-100h-100v100h-100v100h-100v100z" />
    <glyph glyph-name="uni21E4" unicode="&#x21e4;" 
d="M0 500h100v-200h100v100h100v100h100v-100h-100v-100h300v-100h-300v-100h100v-100h-100v100h-100v100h-100v-200h-100v500z" />
    </font>
</defs>
</svg>
